<svg width="60" height="60" viewBox="0 0 60 60" fill="none" xmlns="http://www.w3.org/2000/svg">
<g clip-path="url(#clip0_338_9468)">
<path d="M0 30C0 13.4315 13.4315 0 30 0V0C46.5685 0 60 13.4315 60 30V30C60 46.5685 46.5685 60 30 60V60C13.4315 60 0 46.5685 0 30V30Z" fill="url(#paint0_linear_338_9468)"/>
<circle cx="28" cy="20" r="17" fill="url(#paint1_linear_338_9468)"/>
<path d="M25.3887 20.3145C25.4947 19.9544 26.0049 19.9544 26.1109 20.3145L26.9741 23.2471C28.096 27.0589 30.4867 30.0643 33.5188 31.4748L36.0937 32.6726C36.3838 32.8075 36.3838 33.2201 36.0937 33.3551L33.5188 34.5529C30.4867 35.9634 28.096 38.9687 26.9741 42.7805L26.1109 45.7131C26.0049 46.0732 25.4947 46.0732 25.3887 45.7131L24.5256 42.7805C23.4036 38.9687 21.0129 35.9634 17.9808 34.5529L15.406 33.3551C15.1158 33.2201 15.1158 32.8075 15.406 32.6726L17.9808 31.4748C21.0129 30.0643 23.4036 27.0589 24.5256 23.2471L25.3887 20.3145Z" fill="white" fill-opacity="0.6"/>
<g filter="url(#filter0_d_338_9468)">
<path d="M25.3887 20.3145C25.4947 19.9544 26.0049 19.9544 26.1109 20.3145L26.9741 23.2471C28.096 27.0589 30.4867 30.0643 33.5188 31.4748L36.0936 32.6726C36.3838 32.8075 36.3838 33.2201 36.0936 33.3551L33.5188 34.5529C30.4867 35.9634 28.096 38.9687 26.9741 42.7805L26.1109 45.7131C26.0049 46.0732 25.4947 46.0732 25.3887 45.7131L24.5256 42.7805C23.4036 38.9687 21.0129 35.9634 17.9808 34.5529L15.406 33.3551C15.1158 33.2201 15.1158 32.8075 15.406 32.6726L17.9808 31.4748C21.0129 30.0643 23.4036 27.0589 24.5256 23.2471L25.3887 20.3145Z" fill="white" shape-rendering="crispEdges"/>
<path d="M25.2632 20.2773C25.4061 19.7926 26.0928 19.7927 26.2358 20.2773L27.0991 23.21C28.2127 26.9932 30.5821 29.9648 33.5737 31.3564L36.1489 32.5537C36.5397 32.7355 36.5396 33.2918 36.1489 33.4736L33.5737 34.6709C30.5821 36.0626 28.2127 39.0342 27.0991 42.8174L26.2358 45.75C26.093 46.2349 25.4059 46.235 25.2632 45.75L24.3999 42.8174C23.2863 39.0342 20.9169 36.0626 17.9253 34.6709L15.3511 33.4736C14.9603 33.2918 14.9603 32.7355 15.3511 32.5537L17.9253 31.3564C20.9169 29.9648 23.2863 26.9932 24.3999 23.21L25.2632 20.2773Z" stroke="url(#paint2_linear_338_9468)" stroke-width="0.26111" shape-rendering="crispEdges"/>
</g>
<g filter="url(#filter1_f_338_9468)">
<path d="M43.0119 12.7202C43.074 12.509 43.3731 12.509 43.4351 12.7202L43.8561 14.1526C44.4358 16.1254 45.671 17.6809 47.2376 18.4109L48.518 19.0075C48.6879 19.0866 48.6879 19.3282 48.518 19.4073L47.2376 20.0039C45.671 20.7339 44.4358 22.2894 43.8561 24.2622L43.4351 25.6946C43.3731 25.9058 43.074 25.9058 43.0119 25.6946L42.591 24.2622C42.0113 22.2894 40.7761 20.7339 39.2094 20.0039L37.9291 19.4073C37.7592 19.3282 37.7592 19.0866 37.9291 19.0075L39.2094 18.4109C40.7761 17.6809 42.0113 16.1254 42.591 14.1526L43.0119 12.7202Z" fill="#002AFF"/>
</g>
<path d="M43.0477 13.1275C43.0993 12.9521 43.3478 12.9521 43.3994 13.1275L43.8199 14.556C44.3664 16.4128 45.5309 17.8767 47.0079 18.5638L48.2621 19.1472C48.4035 19.213 48.4035 19.4139 48.2621 19.4797L47.0079 20.0631C45.5309 20.7502 44.3664 22.2141 43.8199 24.0709L43.3994 25.4994C43.3478 25.6748 43.0993 25.6748 43.0477 25.4994L42.6272 24.0709C42.0807 22.2141 40.9162 20.7502 39.4392 20.0631L38.185 19.4797C38.0436 19.4139 38.0436 19.213 38.185 19.1472L39.4392 18.5638C40.9162 17.8767 42.0807 16.4128 42.6272 14.556L43.0477 13.1275Z" fill="white" fill-opacity="0.6"/>
<path d="M43.0477 13.1275C43.0993 12.9521 43.3478 12.9521 43.3994 13.1275L43.8199 14.556C44.3664 16.4128 45.5309 17.8767 47.0079 18.5638L48.2621 19.1472C48.4035 19.213 48.4035 19.4139 48.2621 19.4797L47.0079 20.0631C45.5309 20.7502 44.3664 22.2141 43.8199 24.0709L43.3994 25.4994C43.3478 25.6748 43.0993 25.6748 43.0477 25.4994L42.6272 24.0709C42.0807 22.2141 40.9162 20.7502 39.4392 20.0631L38.185 19.4797C38.0436 19.4139 38.0436 19.213 38.185 19.1472L39.4392 18.5638C40.9162 17.8767 42.0807 16.4128 42.6272 14.556L43.0477 13.1275Z" fill="white"/>
</g>
<defs>
<filter id="filter0_d_338_9468" x="-0.0727539" y="1.78345" width="51.645" height="56.4609" filterUnits="userSpaceOnUse" color-interpolation-filters="sRGB">
<feFlood flood-opacity="0" result="BackgroundImageFix"/>
<feColorMatrix in="SourceAlpha" type="matrix" values="0 0 0 0 0 0 0 0 0 0 0 0 0 0 0 0 0 0 127 0" result="hardAlpha"/>
<feOffset dy="-3"/>
<feGaussianBlur stdDeviation="7.5"/>
<feComposite in2="hardAlpha" operator="out"/>
<feColorMatrix type="matrix" values="0 0 0 0 0.317647 0 0 0 0 0.431373 0 0 0 0 1 0 0 0 0.1 0"/>
<feBlend mode="normal" in2="BackgroundImageFix" result="effect1_dropShadow_338_9468"/>
<feBlend mode="normal" in="SourceGraphic" in2="effect1_dropShadow_338_9468" result="shape"/>
</filter>
<filter id="filter1_f_338_9468" x="-12.1982" y="-37.4382" width="110.844" height="113.291" filterUnits="userSpaceOnUse" color-interpolation-filters="sRGB">
<feFlood flood-opacity="0" result="BackgroundImageFix"/>
<feBlend mode="normal" in="SourceGraphic" in2="BackgroundImageFix" result="shape"/>
<feGaussianBlur stdDeviation="25" result="effect1_foregroundBlur_338_9468"/>
</filter>
<linearGradient id="paint0_linear_338_9468" x1="32.5" y1="60.5" x2="32.5" y2="0" gradientUnits="userSpaceOnUse">
<stop stop-color="#7B91FF"/>
<stop offset="0.32661" stop-color="#3E5BEE"/>
<stop offset="1" stop-color="#2445EA"/>
</linearGradient>
<linearGradient id="paint1_linear_338_9468" x1="28" y1="3" x2="28" y2="30" gradientUnits="userSpaceOnUse">
<stop stop-color="white"/>
<stop offset="0.658876" stop-color="white" stop-opacity="0.3"/>
<stop offset="1" stop-color="white" stop-opacity="0"/>
</linearGradient>
<linearGradient id="paint2_linear_338_9468" x1="21.8332" y1="28.4444" x2="27.0554" y2="42.8055" gradientUnits="userSpaceOnUse">
<stop stop-color="white"/>
<stop offset="0.722566" stop-color="#3053FF" stop-opacity="0.44607"/>
<stop offset="1" stop-color="#3053FF" stop-opacity="0"/>
</linearGradient>
<clipPath id="clip0_338_9468">
<path d="M0 30C0 13.4315 13.4315 0 30 0V0C46.5685 0 60 13.4315 60 30V30C60 46.5685 46.5685 60 30 60V60C13.4315 60 0 46.5685 0 30V30Z" fill="white"/>
</clipPath>
</defs>
</svg>
