<svg width="60" height="60" viewBox="0 0 60 60" fill="none" xmlns="http://www.w3.org/2000/svg">
<g clip-path="url(#clip0_254_10307)">
<path d="M0 30C0 13.4315 13.4315 0 30 0V0C46.5685 0 60 13.4315 60 30V30C60 46.5685 46.5685 60 30 60V60C13.4315 60 0 46.5685 0 30V30Z" fill="url(#paint0_radial_254_10307)"/>
<g filter="url(#filter0_f_254_10307)">
<path d="M25.3155 19.4785C25.4429 19.045 26.0571 19.0449 26.1845 19.4785L27.0486 22.4192C28.2387 26.4692 30.7745 29.6624 33.9907 31.1611L36.6191 32.3858C36.9679 32.5484 36.9679 33.0442 36.6191 33.2067L33.9907 34.4315C30.7745 35.9302 28.2387 39.1234 27.0486 43.1734L26.1845 46.1141C26.0571 46.5476 25.4429 46.5476 25.3155 46.1141L24.4514 43.1734C23.2613 39.1234 20.7255 35.9302 17.5093 34.4315L14.8809 33.2067C14.5321 33.0442 14.5321 32.5484 14.8809 32.3858L17.5093 31.1611C20.7255 29.6624 23.2613 26.4692 24.4514 22.4192L25.3155 19.4785Z" fill="#CDD5FF"/>
</g>
<path d="M25.3887 20.3145C25.4947 19.9544 26.0049 19.9544 26.1109 20.3145L26.9741 23.2471C28.096 27.0589 30.4867 30.0643 33.5188 31.4748L36.0936 32.6726C36.3838 32.8075 36.3838 33.2201 36.0936 33.3551L33.5188 34.5529C30.4867 35.9634 28.096 38.9687 26.9741 42.7805L26.1109 45.7131C26.0049 46.0732 25.4947 46.0732 25.3887 45.7131L24.5256 42.7805C23.4036 38.9687 21.0129 35.9634 17.9808 34.5529L15.406 33.3551C15.1158 33.2201 15.1158 32.8075 15.406 32.6726L17.9808 31.4748C21.0129 30.0643 23.4036 27.0589 24.5256 23.2471L25.3887 20.3145Z" fill="white"/>
<g filter="url(#filter1_f_254_10307)">
<path d="M43.0119 12.7202C43.074 12.509 43.3731 12.509 43.4351 12.7202L43.8561 14.1526C44.4358 16.1254 45.671 17.6809 47.2376 18.4109L48.518 19.0075C48.6879 19.0866 48.6879 19.3282 48.518 19.4073L47.2376 20.0039C45.671 20.7339 44.4358 22.2894 43.8561 24.2622L43.4351 25.6946C43.3731 25.9058 43.074 25.9058 43.0119 25.6946L42.591 24.2622C42.0113 22.2894 40.7761 20.7339 39.2094 20.0039L37.9291 19.4073C37.7592 19.3282 37.7592 19.0866 37.9291 19.0075L39.2094 18.4109C40.7761 17.6809 42.0113 16.1254 42.591 14.1526L43.0119 12.7202Z" fill="#002AFF"/>
</g>
<path d="M43.0477 13.1275C43.0993 12.9521 43.3478 12.9521 43.3994 13.1275L43.8199 14.556C44.3664 16.4128 45.5309 17.8767 47.0079 18.5638L48.2621 19.1472C48.4035 19.213 48.4035 19.4139 48.2621 19.4797L47.0079 20.0631C45.5309 20.7502 44.3664 22.2141 43.8199 24.0709L43.3994 25.4994C43.3478 25.6748 43.0993 25.6748 43.0477 25.4994L42.6272 24.0709C42.0807 22.2141 40.9162 20.7502 39.4392 20.0631L38.185 19.4797C38.0436 19.4139 38.0436 19.213 38.185 19.1472L39.4392 18.5638C40.9162 17.8767 42.0807 16.4128 42.6272 14.556L43.0477 13.1275Z" fill="white" fill-opacity="0.6"/>
<path d="M43.0477 13.1275C43.0993 12.9521 43.3478 12.9521 43.3994 13.1275L43.8199 14.556C44.3664 16.4128 45.5309 17.8767 47.0079 18.5638L48.2621 19.1472C48.4035 19.213 48.4035 19.4139 48.2621 19.4797L47.0079 20.0631C45.5309 20.7502 44.3664 22.2141 43.8199 24.0709L43.3994 25.4994C43.3478 25.6748 43.0993 25.6748 43.0477 25.4994L42.6272 24.0709C42.0807 22.2141 40.9162 20.7502 39.4392 20.0631L38.185 19.4797C38.0436 19.4139 38.0436 19.213 38.185 19.1472L39.4392 18.5638C40.9162 17.8767 42.0807 16.4128 42.6272 14.556L43.0477 13.1275Z" fill="white"/>
</g>
<path d="M30 0.25C46.4305 0.25 59.75 13.5695 59.75 30C59.75 46.4305 46.4305 59.75 30 59.75C13.5695 59.75 0.25 46.4305 0.25 30C0.25 13.5695 13.5695 0.25 30 0.25Z" stroke="url(#paint1_linear_254_10307)" stroke-width="0.5"/>
<defs>
<filter id="filter0_f_254_10307" x="6.61914" y="11.1533" width="38.2617" height="43.2859" filterUnits="userSpaceOnUse" color-interpolation-filters="sRGB">
<feFlood flood-opacity="0" result="BackgroundImageFix"/>
<feBlend mode="normal" in="SourceGraphic" in2="BackgroundImageFix" result="shape"/>
<feGaussianBlur stdDeviation="4" result="effect1_foregroundBlur_254_10307"/>
</filter>
<filter id="filter1_f_254_10307" x="-12.1982" y="-37.4382" width="110.844" height="113.291" filterUnits="userSpaceOnUse" color-interpolation-filters="sRGB">
<feFlood flood-opacity="0" result="BackgroundImageFix"/>
<feBlend mode="normal" in="SourceGraphic" in2="BackgroundImageFix" result="shape"/>
<feGaussianBlur stdDeviation="25" result="effect1_foregroundBlur_254_10307"/>
</filter>
<radialGradient id="paint0_radial_254_10307" cx="0" cy="0" r="1" gradientUnits="userSpaceOnUse" gradientTransform="translate(30 30) rotate(-114.444) scale(30.2076)">
<stop stop-color="#2445EA"/>
<stop offset="0.67339" stop-color="#3E5BEE"/>
<stop offset="1" stop-color="#5672FF"/>
</radialGradient>
<linearGradient id="paint1_linear_254_10307" x1="18" y1="2" x2="25.7705" y2="31" gradientUnits="userSpaceOnUse">
<stop stop-color="#A3B2FF"/>
<stop offset="0.45" stop-color="#4E6BFE" stop-opacity="0.264556"/>
<stop offset="1" stop-color="#4E6BFE" stop-opacity="0"/>
</linearGradient>
<clipPath id="clip0_254_10307">
<path d="M0 30C0 13.4315 13.4315 0 30 0V0C46.5685 0 60 13.4315 60 30V30C60 46.5685 46.5685 60 30 60V60C13.4315 60 0 46.5685 0 30V30Z" fill="white"/>
</clipPath>
</defs>
</svg>
