<svg width="25" height="24" viewBox="0 0 25 24" fill="none" xmlns="http://www.w3.org/2000/svg">
<rect x="6.5" y="6" width="12" height="12" rx="5.99998" fill="white"/>
<path d="M12.5 21C17.4706 21 21.5 16.9706 21.5 12C21.5 7.02944 17.4706 3 12.5 3C7.52944 3 3.5 7.02944 3.5 12C3.5 16.9706 7.52944 21 12.5 21Z" fill="#AEBCFF"/>
<path d="M12.4996 16.5002C12.9967 16.5002 13.3996 16.0973 13.3996 15.6002C13.3996 15.1031 12.9967 14.7002 12.4996 14.7002C12.0026 14.7002 11.5996 15.1031 11.5996 15.6002C11.5996 16.0973 12.0026 16.5002 12.4996 16.5002Z" fill="#516EFF"/>
<path d="M12.4996 12.9C12.2609 12.9 12.032 12.8052 11.8632 12.6364C11.6944 12.4676 11.5996 12.2387 11.5996 12V8.4C11.5996 8.16131 11.6944 7.93239 11.8632 7.7636C12.032 7.59482 12.2609 7.5 12.4996 7.5C12.7383 7.5 12.9672 7.59482 13.136 7.7636C13.3048 7.93239 13.3996 8.16131 13.3996 8.4V12C13.3996 12.2387 13.3048 12.4676 13.136 12.6364C12.9672 12.8052 12.7383 12.9 12.4996 12.9Z" fill="#516EFF"/>
</svg>
