<svg width="24" height="24" viewBox="0 0 24 24" fill="none" xmlns="http://www.w3.org/2000/svg">
<path d="M19.5406 6.08148C19.8641 6.21468 20.0751 6.53015 20.0753 6.8801V13.7396C20.075 16.9804 15.8385 20.1299 12.0377 21.9982C8.23678 20.1299 4.00031 16.9804 4 13.7396V6.8801C4.00008 6.52993 4.21174 6.21377 4.53551 6.08064L12.0377 3L19.5406 6.08148Z" fill="#869AFF"/>
<path d="M19.5437 6.08398C19.8669 6.21719 20.0776 6.53212 20.0779 6.88184V13.7422C20.0772 16.9827 15.8414 20.1317 12.0408 22C12.0187 21.9892 11.9974 21.9767 11.9753 21.9658C11.303 19.2517 10.908 15.9611 10.908 12.4141C10.908 8.9478 11.284 5.72572 11.9285 3.04785L12.0408 3.00195L19.5437 6.08398Z" fill="#869AFF"/>
<path d="M19.5437 6.08398C19.8669 6.21719 20.0776 6.53212 20.0779 6.88184V13.7422C20.0772 16.9827 15.8414 20.1317 12.0408 22C12.0187 21.9892 11.9974 21.9767 11.9753 21.9658C11.303 19.2517 10.908 15.9611 10.908 12.4141C10.908 8.9478 11.284 5.72572 11.9285 3.04785L12.0408 3.00195L19.5437 6.08398Z" fill="#516EFF"/>
</svg>
