<svg width="21" height="20" viewBox="0 0 21 20" fill="none" xmlns="http://www.w3.org/2000/svg">
<path d="M10.3186 3.61659C10.3719 3.43556 10.6283 3.43556 10.6816 3.61659L11.1154 5.09067C11.6794 7.00671 12.8811 8.51738 14.4052 9.22638L15.6995 9.82846C15.8454 9.89631 15.8454 10.1037 15.6995 10.1715L14.4052 10.7736C12.8811 11.4826 11.6794 12.9933 11.1154 14.9093L10.6816 16.3834C10.6283 16.5644 10.3719 16.5644 10.3186 16.3834L9.88469 14.9093C9.32071 12.9933 8.11904 11.4826 6.59492 10.7736L5.30063 10.1715C5.15478 10.1037 5.15478 9.89631 5.30063 9.82846L6.59492 9.22638C8.11904 8.51738 9.32071 7.00671 9.88469 5.09067L10.3186 3.61659Z" fill="#4C4E51"/>
</svg>
