<svg width="21" height="20" viewBox="0 0 21 20" fill="none" xmlns="http://www.w3.org/2000/svg">
<g clip-path="url(#clip0_1797_54897)">
<path d="M8.7321 5.63116C8.84155 5.63104 8.94994 5.65255 9.05105 5.69445C9.15216 5.73635 9.24399 5.79782 9.32127 5.87533L12.8564 9.4109C12.9338 9.48826 12.9952 9.58011 13.0371 9.6812C13.079 9.7823 13.1006 9.89066 13.1006 10.0001C13.1006 10.1095 13.079 10.2179 13.0371 10.319C12.9952 10.4201 12.9338 10.5119 12.8564 10.5893L9.32129 14.1248C9.16503 14.2811 8.95309 14.3689 8.7321 14.3689C8.51111 14.3689 8.29917 14.2811 8.1429 14.1248C7.98664 13.9686 7.89885 13.7566 7.89885 13.5356C7.89885 13.3147 7.98664 13.1027 8.14291 12.9465L11.0888 10.0001L8.14288 7.0537C8.02637 6.93715 7.94704 6.78868 7.9149 6.62705C7.88276 6.46543 7.89926 6.2979 7.96232 6.14565C8.02538 5.9934 8.13216 5.86327 8.26917 5.77169C8.40618 5.68012 8.56731 5.6312 8.7321 5.63116Z" fill="currentColor"/>
</g>
<defs>
<clipPath id="clip0_1797_54897">
<rect width="20" height="20" fill="white" transform="translate(0.5)"/>
</clipPath>
</defs>
</svg>
