<svg width="76" height="76" viewBox="0 0 76 76" fill="none" xmlns="http://www.w3.org/2000/svg">
<g clip-path="url(#clip0_1623_29880)">
<g clip-path="url(#clip1_1623_29880)">
<ellipse cx="65.9305" cy="74.4107" rx="4.3473" ry="7.11952" transform="rotate(112.677 65.9305 74.4107)" fill="url(#paint0_linear_1623_29880)"/>
<path d="M63.6175 84.4704C63.6961 92.2791 59.9568 95.5039 55.0666 95.3424C50.1763 95.1808 45.9871 91.694 45.9085 83.8854C45.8299 76.0767 49.7048 67.3279 54.595 67.4895C59.4852 67.651 63.5389 76.6618 63.6175 84.4704Z" fill="url(#paint1_linear_1623_29880)"/>
<path d="M40.869 63.7463C50.0655 66.332 54.3938 79.5502 52.2798 87.0692C51.9155 88.3652 50.7673 91.5979 50.0197 92.6691C49.8944 94.6811 50.1052 94.8037 49.484 97.0132C47.1058 105.472 43.4072 105.874 39.3081 104.721C35.8715 103.755 33.2451 102.003 33.8873 96.4771C33.1938 96.3555 32.497 96.1977 31.8002 96.0017C30.974 95.7695 30.1758 95.4916 29.4086 95.1734C27.0753 100.263 23.9133 100.393 20.4677 99.4241C16.3686 98.2716 13.4214 96.0011 15.7995 87.5427C16.4983 85.0573 16.8714 84.8324 17.9641 82.9001C17.9666 81.8473 18.6826 78.7492 18.976 77.7056C21.09 70.1867 31.6724 61.1606 40.869 63.7463Z" fill="url(#paint2_linear_1623_29880)"/>
<path d="M31.7837 80.406C31.5061 80.4934 31.2046 80.3813 31.0515 80.1338L24.1244 68.9322C23.9707 68.6837 23.87 68.4061 23.8287 68.1169L22.4806 58.6865L59.9516 71.5347L31.7837 80.406Z" fill="#0339A4"/>
<path d="M45.4643 8.70439C44.0895 6.13977 40.4054 6.15928 39.0579 8.73831L32.9854 20.3606L51.7982 20.5205L45.4643 8.70439Z" fill="#48568E"/>
<path d="M41.5364 10.9001C41.4002 10.3759 40.665 10.3515 40.4943 10.8655L37.7205 19.2174L43.8223 19.6939L41.5364 10.9001Z" fill="#DEE1FF"/>
<path d="M65.2807 14.2759C67.7905 12.8034 70.9247 14.7399 70.7308 17.6433L69.8569 30.7272L53.7172 21.0601L65.2807 14.2759Z" fill="#48568E"/>
<path d="M67.4889 18.1967C67.8783 17.8204 68.5184 18.1827 68.3963 18.7102L66.4114 27.2839L60.9553 24.5109L67.4889 18.1967Z" fill="#DEE1FF"/>
<path d="M74.4651 54.9322C70.5645 68.8056 55.4675 72.7437 39.4745 68.2472C23.4815 63.7507 12.6487 52.5222 16.5493 38.6488C20.4499 24.7753 37.6069 13.5105 53.5998 18.007C69.5928 22.5036 78.3657 41.0587 74.4651 54.9322Z" fill="#48568E"/>
<mask id="mask0_1623_29880" style="mask-type:alpha" maskUnits="userSpaceOnUse" x="15" y="17" width="61" height="54">
<path d="M74.4651 54.9322C70.5645 68.8056 55.4675 72.7437 39.4745 68.2472C23.4815 63.7507 12.6487 52.5222 16.5493 38.6488C20.4499 24.7753 37.6069 13.5105 53.5998 18.007C69.5928 22.5036 78.3657 41.0587 74.4651 54.9322Z" fill="#ACB2E3"/>
</mask>
<g mask="url(#mask0_1623_29880)">
<path d="M73.3325 58.9608C71.1791 66.6201 54.2905 76.9305 38.2975 72.4339C22.3045 67.9374 13.2633 50.3367 15.4168 42.6774C17.5702 35.0181 27.4572 50.2803 43.4501 54.7768C59.4431 59.2733 75.486 51.3015 73.3325 58.9608Z" fill="#DEE1FF"/>
</g>
<path d="M40.004 52.2079C39.7619 52.1398 39.5259 52.3332 39.5575 52.5827C40.1955 57.6165 44.3992 58.7984 47.5668 54.8346C47.7239 54.6381 47.6232 54.3501 47.3811 54.282L40.004 52.2079Z" fill="black"/>
<ellipse cx="5.17673" cy="2.62753" rx="5.17673" ry="2.62753" transform="matrix(-0.797455 -0.603379 -0.603379 0.797455 44.1107 37.3353)" fill="#DEE1FF"/>
<circle cx="36.4141" cy="43.3595" r="2.62753" transform="rotate(15.7037 36.4141 43.3595)" fill="black"/>
<ellipse cx="56.8881" cy="41.506" rx="5.17673" ry="2.62753" transform="rotate(-5.70498 56.8881 41.506)" fill="#DEE1FF"/>
<circle cx="54.9053" cy="48.5584" r="2.62753" transform="rotate(15.7037 54.9053 48.5584)" fill="black"/>
<path d="M42.8862 56.783L42.1649 59.3485M42.1649 59.3485L39.3159 60.1086M42.1649 59.3485L44.2004 61.4819" stroke="black" stroke-width="0.543626" stroke-linecap="round"/>
<ellipse cx="65.3396" cy="67.299" rx="4.3473" ry="7.11952" transform="rotate(67.4042 65.3396 67.299)" fill="#0339A4"/>
<circle cx="58.1144" cy="71.0181" r="3.39302" transform="rotate(15.7037 58.1144 71.0181)" fill="#0339A4"/>
<path d="M43.5062 36.4682C44.9792 38.9547 45.4061 42.0364 44.4172 44.9876C42.6041 50.398 36.7257 53.3168 31.2874 51.5075C28.9201 50.7197 27.0269 49.1653 25.7926 47.2151L43.5062 36.4682ZM41.6621 34.1752C41.8917 34.3895 42.11 34.6137 42.3179 34.8465L24.8866 45.4209C24.7737 45.13 24.6749 44.8337 24.5885 44.5332L41.6621 34.1752ZM24.4389 39.4459C24.5154 39.1077 24.6105 38.7699 24.7231 38.434C26.4617 33.2462 31.9375 30.3508 37.1795 31.7166L24.4389 39.4459Z" fill="url(#paint3_linear_1623_29880)"/>
<path d="M38.0371 31.3538C43.7848 33.2685 46.8977 39.4564 44.9822 45.1789C43.0664 50.9015 36.8507 53.9821 31.1028 52.0677C25.3548 50.1532 22.241 43.9651 24.1568 38.2424C26.0727 32.5199 32.2892 29.4393 38.0371 31.3538Z" fill="url(#paint4_linear_1623_29880)" stroke="black" stroke-width="1.18697"/>
<rect x="25.3687" y="47.7725" width="1.98689" height="18.8307" rx="0.993442" transform="rotate(50.6496 25.3687 47.7725)" fill="black"/>
<path d="M5.29135 61.8692C4.29265 53.593 7.88234 49.7329 13.0901 49.3311C18.2978 48.9293 23.1516 52.138 24.1503 60.4142C25.149 68.6905 22.063 78.4277 16.8552 78.8295C11.6475 79.2313 6.29005 70.1455 5.29135 61.8692Z" fill="url(#paint5_linear_1623_29880)"/>
<path d="M50.8818 40.0304C50.4883 40.7907 50.0016 42.5858 51.2024 43.6835" stroke="#1E2761" stroke-width="0.685994" stroke-linecap="round"/>
</g>
</g>
<defs>
<linearGradient id="paint0_linear_1623_29880" x1="68.4485" y1="71.2854" x2="62.6419" y2="78.8323" gradientUnits="userSpaceOnUse">
<stop stop-color="#0339A4"/>
<stop offset="1" stop-color="#01163E"/>
</linearGradient>
<linearGradient id="paint1_linear_1623_29880" x1="54.7009" y1="78.006" x2="53.9843" y2="99.6963" gradientUnits="userSpaceOnUse">
<stop stop-color="#48568E"/>
<stop offset="1" stop-color="#414F88"/>
</linearGradient>
<linearGradient id="paint2_linear_1623_29880" x1="36.6034" y1="78.1873" x2="28.1863" y2="108.125" gradientUnits="userSpaceOnUse">
<stop stop-color="#48568E"/>
<stop offset="1" stop-color="#414F88"/>
</linearGradient>
<linearGradient id="paint3_linear_1623_29880" x1="37.8495" y1="31.9148" x2="31.32" y2="51.5183" gradientUnits="userSpaceOnUse">
<stop stop-color="white" stop-opacity="0.3"/>
<stop offset="1" stop-color="white" stop-opacity="0"/>
</linearGradient>
<linearGradient id="paint4_linear_1623_29880" x1="37.8483" y1="31.9168" x2="31.3205" y2="51.5152" gradientUnits="userSpaceOnUse">
<stop stop-color="white" stop-opacity="0.3"/>
<stop offset="1" stop-color="white" stop-opacity="0"/>
</linearGradient>
<linearGradient id="paint5_linear_1623_29880" x1="15.5102" y1="67.6832" x2="13.7281" y2="44.5845" gradientUnits="userSpaceOnUse">
<stop stop-color="#48568E"/>
<stop offset="1" stop-color="#414F88"/>
</linearGradient>
<clipPath id="clip0_1623_29880">
<rect width="76" height="76" fill="white"/>
</clipPath>
<clipPath id="clip1_1623_29880">
<rect width="90.5511" height="115.999" fill="white" transform="translate(19.3965 -13.0026) rotate(15.7037)"/>
</clipPath>
</defs>
</svg>
