<svg width="24" height="24" viewBox="0 0 24 24" fill="none" xmlns="http://www.w3.org/2000/svg">
<path d="M10.38 15.9599C10.2618 15.96 10.1447 15.9368 10.0355 15.8916C9.9263 15.8463 9.82713 15.7799 9.74367 15.6962L6.86349 12.8165C6.69631 12.6474 6.60285 12.419 6.60352 12.1813C6.60419 11.9435 6.69894 11.7156 6.86707 11.5475C7.03521 11.3794 7.26305 11.2846 7.50083 11.2839C7.73861 11.2832 7.96699 11.3767 8.13609 11.5438L10.3799 13.7873L15.8635 8.30376C16.0326 8.13675 16.2609 8.04344 16.4986 8.04419C16.7363 8.04495 16.9641 8.1397 17.1321 8.30778C17.3002 8.47585 17.3949 8.70359 17.3957 8.94128C17.3964 9.17896 17.3031 9.40729 17.1361 9.57641L11.0163 15.6962C10.9328 15.7799 10.8336 15.8463 10.7244 15.8916C10.6152 15.9368 10.4982 15.96 10.38 15.9599Z" fill="white"/>
<path d="M20.1 3.00003H3.9C3.66131 3.00003 3.43239 3.09485 3.2636 3.26363C3.09482 3.43242 3 3.66134 3 3.90003V20.1C3 20.3387 3.09482 20.5676 3.2636 20.7364C3.43239 20.9052 3.66131 21 3.9 21H20.1C20.3387 21 20.5676 20.9052 20.7364 20.7364C20.9052 20.5676 21 20.3387 21 20.1V3.90003C21 3.66134 20.9052 3.43242 20.7364 3.26363C20.5676 3.09485 20.3387 3.00003 20.1 3.00003ZM17.1363 9.57645L11.0165 15.6963C10.9329 15.7799 10.8337 15.8462 10.7245 15.8914C10.6154 15.9367 10.4983 15.9599 10.3801 15.9599C10.262 15.9599 10.1449 15.9367 10.0358 15.8914C9.92657 15.8462 9.82737 15.7799 9.74382 15.6963L6.8637 12.8165C6.69652 12.6475 6.60306 12.4191 6.60373 12.1813C6.6044 11.9435 6.69916 11.7157 6.86729 11.5475C7.03542 11.3794 7.26326 11.2846 7.50104 11.2839C7.73882 11.2833 7.9672 11.3767 8.1363 11.5439L10.3802 13.7873L15.8637 8.30379C16.0328 8.13679 16.2612 8.04348 16.4988 8.04423C16.7365 8.04498 16.9643 8.13974 17.1323 8.30781C17.3004 8.47589 17.3951 8.70363 17.3959 8.94131C17.3966 9.179 17.3033 9.40733 17.1363 9.57645Z" fill="#516EFF"/>
</svg>
