<svg width="22" height="22" viewBox="0 0 22 22" fill="none" xmlns="http://www.w3.org/2000/svg">
<path d="M11 2.74999C13.188 2.74999 15.2865 3.61918 16.8336 5.16636C18.3808 6.71353 19.25 8.81195 19.25 11C19.25 13.188 18.3808 15.2864 16.8336 16.8336C15.2865 18.3808 13.188 19.25 11 19.25C8.81196 19.25 6.71354 18.3808 5.16637 16.8336C3.61919 15.2864 2.75 13.188 2.75 11C2.75 8.81195 3.61919 6.71353 5.16637 5.16636C6.71354 3.61918 8.81196 2.74999 11 2.74999Z" fill="#4C4E51"/>
<path d="M12.1307 11L14.7675 8.36319C14.9161 8.21272 14.9991 8.00957 14.9984 7.7981C14.9978 7.58663 14.9135 7.38402 14.7639 7.23449C14.6144 7.08496 14.4118 7.00066 14.2003 7C13.9888 6.99934 13.7857 7.08237 13.6352 7.23096L10.9984 9.86771L8.36163 7.23096C8.21102 7.08306 8.0081 7.00062 7.79701 7.00157C7.58593 7.00253 7.38376 7.08681 7.2345 7.23607C7.08524 7.38533 7.00096 7.58749 7.00001 7.79858C6.99905 8.00966 7.08149 8.21258 7.2294 8.36319L9.86615 11L7.2294 13.6368C7.08149 13.7874 6.99905 13.9903 7.00001 14.2014C7.00096 14.4125 7.08524 14.6146 7.2345 14.7639C7.38376 14.9132 7.58593 14.9974 7.79701 14.9984C8.0081 14.9994 8.21102 14.9169 8.36163 14.769L10.9984 12.1323L13.6352 14.7691C13.7857 14.9176 13.9888 15.0007 14.2003 15C14.4118 14.9993 14.6144 14.915 14.7639 14.7655C14.9134 14.616 14.9977 14.4133 14.9984 14.2019C14.9991 13.9904 14.916 13.7873 14.7674 13.6368L12.1307 11Z" fill="#8E8E93"/>
</svg>
