<svg width="16" height="16" viewBox="0 0 16 16" fill="none" xmlns="http://www.w3.org/2000/svg">
<g opacity="0.61">
<path d="M3.24239 3.24229C3.4767 3.00798 3.8566 3.00798 4.09091 3.24229L7.99997 7.15137L11.909 3.24229C12.1433 3.00798 12.5232 3.00798 12.7576 3.24229C12.9919 3.47661 12.9919 3.85651 12.7576 4.09082L8.84849 7.9999L12.7576 11.909C12.9919 12.1433 12.9919 12.5232 12.7576 12.7575C12.5232 12.9918 12.1433 12.9918 11.909 12.7575L7.99997 8.84842L4.09091 12.7575C3.8566 12.9918 3.4767 12.9918 3.24239 12.7575C3.00807 12.5232 3.00807 12.1433 3.24239 11.909L7.15144 7.9999L3.24239 4.09082C3.00807 3.85651 3.00807 3.47661 3.24239 3.24229Z" fill="currentColor"/>
</g>
</svg>
