<svg width="60" height="60" viewBox="0 0 60 60" fill="none" xmlns="http://www.w3.org/2000/svg">
<g clip-path="url(#clip0_253_9956)">
<g clip-path="url(#clip1_253_9956)">
<path d="M25.1735 19.2572C27.5918 19.2572 29.5522 17.2969 29.5522 14.8786C29.5522 12.4604 27.5918 10.5 25.1735 10.5C22.7553 10.5 20.7949 12.4604 20.7949 14.8786C20.7949 17.2969 22.7553 19.2572 25.1735 19.2572Z" fill="#4C4E51"/>
<path d="M25.174 20.5967C19.2894 20.5967 17 24.6092 17 26.4756C17 28.342 21.8726 28.8388 25.174 28.8388C28.4753 28.8388 33.348 28.342 33.348 26.4756C33.348 24.6092 31.0592 20.5967 25.174 20.5967Z" fill="#4C4E51"/>
<path d="M34.8259 19.2572C37.2441 19.2572 39.2045 17.2969 39.2045 14.8786C39.2045 12.4604 37.2441 10.5 34.8259 10.5C32.4076 10.5 30.4473 12.4604 30.4473 14.8786C30.4473 17.2969 32.4076 19.2572 34.8259 19.2572Z" fill="#8E8E93"/>
<path d="M34.8258 20.5967C28.9413 20.5967 26.6519 24.6092 26.6519 26.4756C26.6519 28.342 31.5245 28.8388 34.8258 28.8388C38.1272 28.8388 42.9998 28.342 42.9998 26.4756C42.9998 24.6092 40.7111 20.5967 34.8258 20.5967Z" fill="#8E8E93"/>
</g>
</g>
<path d="M13.75 43.3594C13.7458 44.557 13.5892 45.6572 13.2803 46.6602C12.9756 47.6631 12.4445 48.5983 11.687 49.4658C10.9295 50.3291 9.90332 51.0908 8.6084 51.751L7.93555 50.8369C8.91309 50.3376 9.72135 49.7832 10.3604 49.1738C11.0036 48.5645 11.5008 47.8895 11.8521 47.1489L8.16406 47.498L7.97363 46.457L12.2202 46.1904C12.3937 45.6149 12.5037 44.9971 12.5503 44.3369H8.55762V43.3594H13.75ZM13.7246 46.7109H16.2256V42.2041H17.4189V53.5791H16.2256V47.7012H13.7246V46.7109ZM29.5811 49.6943H27.0293V53.6426H25.8232V49.6943H22.9668V53.6426H21.7607V49.6943H19.1709V48.7041H29.5811V49.6943ZM20.4785 42.8008H28.2734V47.2822H20.4785V42.8008ZM27.0674 46.3174V43.7656H21.6592V46.3174H27.0674ZM39.8643 53.5791H38.6582V42.2041H39.8643V53.5791ZM31.1172 43.3086H32.3105V49.6436C34.1133 49.6351 35.8568 49.4616 37.541 49.123L37.7061 50.1387C36.7412 50.3376 35.7975 50.4793 34.875 50.564C33.9525 50.6486 33.0173 50.6888 32.0693 50.6846H31.1172V43.3086ZM47.9766 44.1973H43.5459V46.3936H47.5449V47.3584H43.5459V49.9102C44.6081 49.9017 45.5243 49.8742 46.2944 49.8276C47.0688 49.7769 47.8581 49.6859 48.6621 49.5547L48.7891 50.5322C47.9427 50.6676 47.1069 50.7607 46.2817 50.8115C45.4565 50.8581 44.4557 50.8835 43.2793 50.8877H42.3525V43.207H47.9766V44.1973ZM49.8936 42.2041H51.1123V53.5791H49.8936V42.2041Z" fill="#8E8E93"/>
<defs>
<clipPath id="clip0_253_9956">
<rect width="32" height="32" fill="white" transform="translate(14 3.5)"/>
</clipPath>
<clipPath id="clip1_253_9956">
<rect width="32" height="32" fill="white" transform="translate(14 3.5)"/>
</clipPath>
</defs>
</svg>
