<svg width="32" height="33" viewBox="0 0 32 33" fill="none" xmlns="http://www.w3.org/2000/svg">
<g clip-path="url(#clip0_4239_36042)">
<g clip-path="url(#clip1_4239_36042)">
<path d="M11.1735 16.2572C13.5918 16.2572 15.5522 14.2969 15.5522 11.8786C15.5522 9.46037 13.5918 7.5 11.1735 7.5C8.7553 7.5 6.79492 9.46037 6.79492 11.8786C6.79492 14.2969 8.7553 16.2572 11.1735 16.2572Z" fill="#4C4E51"/>
<path d="M11.174 17.5966C5.28945 17.5966 3 21.6091 3 23.4755C3 25.3419 7.87263 25.8387 11.174 25.8387C14.4753 25.8387 19.348 25.3419 19.348 23.4755C19.348 21.6091 17.0592 17.5966 11.174 17.5966Z" fill="#4C4E51"/>
<path d="M20.8256 16.2572C23.2439 16.2572 25.2043 14.2969 25.2043 11.8786C25.2043 9.46037 23.2439 7.5 20.8256 7.5C18.4074 7.5 16.447 9.46037 16.447 11.8786C16.447 14.2969 18.4074 16.2572 20.8256 16.2572Z" fill="#8E8E93"/>
<path d="M20.8258 17.5966C14.9413 17.5966 12.6519 21.6091 12.6519 23.4755C12.6519 25.3419 17.5245 25.8387 20.8258 25.8387C24.1272 25.8387 28.9998 25.3419 28.9998 23.4755C28.9998 21.6091 26.7111 17.5966 20.8258 17.5966Z" fill="#8E8E93"/>
</g>
</g>
<defs>
<clipPath id="clip0_4239_36042">
<rect width="32" height="32" fill="white" transform="translate(0 0.5)"/>
</clipPath>
<clipPath id="clip1_4239_36042">
<rect width="32" height="32" fill="white" transform="translate(0 0.5)"/>
</clipPath>
</defs>
</svg>
