<svg width="20" height="20" viewBox="0 0 20 20" fill="none" xmlns="http://www.w3.org/2000/svg">
<path d="M10.0956 1.42273C5.26314 1.42273 1.34564 4.92973 1.34564 9.25573C1.34564 10.9827 1.97514 12.5752 3.03464 13.8692C3.42264 14.3432 3.60014 14.9547 3.48314 15.5557L3.00564 18.0042C2.92564 18.4152 3.35564 18.7367 3.72714 18.5432L6.63364 17.0302C7.04414 16.8167 7.51664 16.7472 7.96814 16.8497C8.64914 17.0042 9.36114 17.0887 10.0956 17.0887C14.9281 17.0887 18.8456 13.5817 18.8456 9.25573C18.8456 4.92973 14.9281 1.42273 10.0956 1.42273Z" fill="#AEBCFF"/>
<path d="M6.47265 8.52673C7.01365 8.52673 7.45165 8.96523 7.45165 9.50573C7.45165 9.76523 7.34865 10.0142 7.16465 10.1982C6.98115 10.3817 6.73215 10.4852 6.47215 10.4852C5.93115 10.4852 5.49315 10.0467 5.49315 9.50623C5.49315 8.96573 5.93165 8.52723 6.47215 8.52723L6.47265 8.52673Z" fill="#516EFF"/>
<path d="M13.7187 10.4847C14.2593 10.4847 14.6977 10.0464 14.6977 9.50573C14.6977 8.96505 14.2593 8.52673 13.7187 8.52673C13.178 8.52673 12.7397 8.96505 12.7397 9.50573C12.7397 10.0464 13.178 10.4847 13.7187 10.4847Z" fill="#516EFF"/>
<path d="M10.0956 10.4847C10.6363 10.4847 11.0746 10.0464 11.0746 9.50573C11.0746 8.96505 10.6363 8.52673 10.0956 8.52673C9.55495 8.52673 9.11664 8.96505 9.11664 9.50573C9.11664 10.0464 9.55495 10.4847 10.0956 10.4847Z" fill="#516EFF"/>
</svg>
