<svg width="60" height="60" viewBox="0 0 60 60" fill="none" xmlns="http://www.w3.org/2000/svg">
<path d="M30.8918 30.0601C31.2297 30.0601 31.546 29.9221 31.8049 29.705C32.8754 28.8075 34.2325 28.3107 35.6402 28.3107H41.5755C42.3581 28.3107 42.993 27.6758 42.993 26.8932V11.335H17.0068V26.8932C17.0068 27.6758 17.6417 28.3107 18.4243 28.3107H24.3596C25.7674 28.3107 27.1244 28.8083 28.1949 29.705C28.4538 29.9221 28.7701 30.0601 29.108 30.0601H30.8918Z" fill="#8E8E93"/>
<path d="M30.0005 28.6426C31.1203 27.5228 32.6392 26.8931 34.223 26.8931H41.5757C42.3583 26.8931 42.9932 26.2583 42.9932 25.4757V9.91744C42.9932 9.13486 42.3583 8.5 41.5757 8.5H34.223C32.6392 8.5 31.1203 9.1289 30.0005 10.2494" fill="#4C4E51"/>
<path d="M30.0003 28.6426C28.8805 27.5228 27.3616 26.8931 25.7778 26.8931H18.4243C17.6417 26.8931 17.0068 26.2583 17.0068 25.4757V9.91744C17.0068 9.13486 17.6417 8.5 18.4243 8.5H25.7771C27.3609 8.5 28.8798 9.1289 29.9995 10.2494" fill="#4C4E51"/>
<path d="M22.6812 43.7148C22.6812 44.4427 22.6621 45.0817 22.624 45.6318C22.5902 46.1777 22.5034 46.7956 22.3638 47.4854L21.1704 47.3838C21.2974 46.7786 21.382 46.2222 21.4243 45.7144L14.6577 46.0254L14.4927 45.0098L21.4751 44.8193C21.4836 44.5612 21.4878 44.193 21.4878 43.7148V43.6895H14.7847V42.7119H22.6812V43.7148ZM13.5786 48.1836H17.6792V46.584H18.8979V48.1836H23.9253V49.1484H13.5786V48.1836ZM14.8608 50.0244H16.0669V52.4238H22.9224V53.4014H14.8608V50.0244ZM34.5005 50.7227H33.3579V42.2168H34.5005V50.7227ZM25.3091 43.1182H29.6382V44.0957H26.4644V45.5176H29.1938V46.457H26.4644V47.9424C27.2938 47.9382 27.973 47.9191 28.502 47.8853C29.0352 47.8472 29.5747 47.7731 30.1206 47.6631L30.2349 48.6279C29.6128 48.7464 28.9971 48.8268 28.3877 48.8691C27.7826 48.9072 27.0018 48.9284 26.0454 48.9326H25.3091V43.1182ZM27.0103 49.7832H28.229V52.3604H34.8306V53.3379H27.0103V49.7832ZM29.7144 45.3906H31.1235V42.4326H32.2661V50.4434H31.1235V46.3682H29.7144V45.3906ZM46.4468 52.1572H36.0366V51.167H46.4468V52.1572ZM36.5825 48.4248C37.3442 48.3021 38.0277 48.0736 38.6328 47.7393C39.238 47.4007 39.7161 46.9881 40.0674 46.5015C40.4186 46.0148 40.6027 45.4922 40.6196 44.9336H36.9761V43.9561H40.6323V42.4453H41.8257V43.9561H45.4819V44.9336H41.8384C41.8553 45.4922 42.0373 46.0148 42.3843 46.5015C42.7355 46.9881 43.2137 47.4007 43.8188 47.7393C44.4282 48.0736 45.118 48.3021 45.8882 48.4248L45.4058 49.3896C44.4494 49.2161 43.603 48.8966 42.8667 48.4312C42.1346 47.9614 41.5866 47.3838 41.2227 46.6982C40.863 47.3838 40.3149 47.9614 39.5786 48.4312C38.8465 48.8966 38.0044 49.2161 37.0522 49.3896L36.5825 48.4248Z" fill="#8E8E93"/>
</svg>
