<svg width="32" height="33" viewBox="0 0 32 33" fill="none" xmlns="http://www.w3.org/2000/svg">
<path d="M16.8918 27.06C17.2297 27.06 17.546 26.9219 17.8049 26.7049C18.8754 25.8074 20.2325 25.3105 21.6402 25.3105H27.5755C28.3581 25.3105 28.993 24.6757 28.993 23.8931V8.33484H3.00684V23.8931C3.00684 24.6757 3.6417 25.3105 4.42428 25.3105H10.3596C11.7674 25.3105 13.1244 25.8081 14.1949 26.7049C14.4538 26.9219 14.7701 27.06 15.108 27.06H16.8918Z" fill="#8E8E93"/>
<path d="M16.0002 25.6426C17.12 24.5228 18.6389 23.8931 20.2227 23.8931H27.5755C28.3581 23.8931 28.9929 23.2583 28.9929 22.4757V6.91744C28.9929 6.13486 28.3581 5.5 27.5755 5.5H20.2227C18.6389 5.5 17.12 6.1289 16.0002 7.24942" fill="#4C4E51"/>
<path d="M16.0003 25.6426C14.8805 24.5228 13.3616 23.8931 11.7778 23.8931H4.42428C3.6417 23.8931 3.00684 23.2583 3.00684 22.4757V6.91744C3.00684 6.13486 3.6417 5.5 4.42428 5.5H11.7771C13.3609 5.5 14.8798 6.1289 15.9995 7.24942" fill="#4C4E51"/>
</svg>
