<svg width="20" height="20" viewBox="0 0 20 20" fill="none" xmlns="http://www.w3.org/2000/svg">
<path d="M9.99991 12.6007C9.89046 12.6008 9.78207 12.5793 9.68096 12.5374C9.57985 12.4955 9.48802 12.434 9.41075 12.3565L5.87515 8.82139C5.71889 8.66512 5.6311 8.45318 5.6311 8.23219C5.6311 8.0112 5.71889 7.79926 5.87516 7.643C6.03142 7.48674 6.24336 7.39895 6.46435 7.39895C6.68534 7.39895 6.89728 7.48674 7.05355 7.643L9.99991 10.5889L12.9463 7.64298C13.1025 7.48672 13.3145 7.39893 13.5355 7.39893C13.7565 7.39893 13.9684 7.48671 14.1247 7.64298C14.2809 7.79924 14.3687 8.01118 14.3687 8.23217C14.3687 8.45316 14.2809 8.6651 14.1247 8.82136L10.5891 12.3565C10.5118 12.434 10.42 12.4955 10.3189 12.5374C10.2178 12.5793 10.1094 12.6008 9.99991 12.6007V12.6007Z" fill="#8E8E93"/>
</svg>
