<svg width="24" height="24" viewBox="0 0 24 24" fill="none" xmlns="http://www.w3.org/2000/svg">
<path d="M12.0001 3C14.3871 3 16.6762 3.94821 18.3641 5.63604C20.0519 7.32387 21.0001 9.61305 21.0001 12C21.0001 14.3869 20.0519 16.6761 18.3641 18.364C16.6762 20.0518 14.3871 21 12.0001 21C9.61316 21 7.32398 20.0518 5.63615 18.364C3.94832 16.6761 3.00011 14.3869 3.00011 12C3.00011 9.61305 3.94832 7.32387 5.63615 5.63604C7.32398 3.94821 9.61316 3 12.0001 3Z" fill="#4C4E51"/>
<path d="M13.1307 12L15.7675 9.36319C15.9161 9.21272 15.9991 9.00957 15.9984 8.7981C15.9978 8.58663 15.9135 8.38402 15.7639 8.23449C15.6144 8.08496 15.4118 8.00066 15.2003 8C14.9888 7.99934 14.7857 8.08237 14.6352 8.23096L11.9984 10.8677L9.36163 8.23096C9.21102 8.08306 9.0081 8.00062 8.79701 8.00157C8.58593 8.00253 8.38376 8.08681 8.2345 8.23607C8.08524 8.38533 8.00096 8.58749 8.00001 8.79858C7.99905 9.00966 8.08149 9.21258 8.2294 9.36319L10.8661 12L8.2294 14.6368C8.08149 14.7874 7.99905 14.9903 8.00001 15.2014C8.00096 15.4125 8.08524 15.6146 8.2345 15.7639C8.38376 15.9132 8.58593 15.9974 8.79701 15.9984C9.0081 15.9994 9.21102 15.9169 9.36163 15.769L11.9984 13.1323L14.6352 15.7691C14.7857 15.9176 14.9888 16.0007 15.2003 16C15.4118 15.9993 15.6144 15.915 15.7639 15.7655C15.9134 15.616 15.9977 15.4133 15.9984 15.2019C15.9991 14.9904 15.916 14.7873 15.7674 14.6368L13.1307 12Z" fill="#8E8E93"/>
</svg>
