<svg width="60" height="60" viewBox="0 0 60 60" fill="none" xmlns="http://www.w3.org/2000/svg">
<path fill-rule="evenodd" clip-rule="evenodd" d="M31.6999 6.78256C30.4683 5.96148 28.8637 5.96148 27.6321 6.78256L18.2988 13.0048C17.2787 13.6848 16.666 14.8297 16.666 16.0556V27.9618C16.666 29.9869 18.3076 31.6285 20.3327 31.6285H25.666C26.2183 31.6285 26.666 31.1808 26.666 30.6285V23.9618C26.666 23.0413 27.4122 22.2951 28.3327 22.2951H30.9993C31.9198 22.2951 32.666 23.0413 32.666 23.9618V30.6285C32.666 31.1808 33.1137 31.6285 33.666 31.6285H38.9993C41.0244 31.6285 42.666 29.9869 42.666 27.9618V16.0556C42.666 14.8297 42.0533 13.6848 41.0332 13.0048L31.6999 6.78256Z" fill="#AEBCFF"/>
<path d="M33.9038 53.4395H26.0454V50.1514H33.9038V53.4395ZM24.8013 48.4248H29.3843V47.6504C28.3687 47.6081 27.59 47.4515 27.0483 47.1807C26.5109 46.9098 26.2443 46.5332 26.2485 46.0508C26.2443 45.526 26.5638 45.1283 27.207 44.8574C27.8503 44.5824 28.7749 44.4427 29.981 44.4385C31.1912 44.4427 32.1159 44.5824 32.7549 44.8574C33.3981 45.1283 33.7176 45.526 33.7134 46.0508C33.7176 46.5374 33.451 46.9162 32.9136 47.187C32.3804 47.4536 31.606 47.6081 30.5903 47.6504V48.4248H35.1733V49.377H24.8013V48.4248ZM25.3345 43.1055H29.3843V42.0518H30.5903V43.1055H34.5894V44.0322H25.3345V43.1055ZM32.7358 52.5127V51.0781H27.2388V52.5127H32.7358ZM27.5308 46.0508C27.5265 46.3089 27.7339 46.5057 28.1528 46.6411C28.576 46.7723 29.1854 46.8379 29.981 46.8379C30.7808 46.8379 31.388 46.7723 31.8027 46.6411C32.2217 46.5057 32.4312 46.3089 32.4312 46.0508C32.4312 45.5387 31.6144 45.2764 29.981 45.2637C29.1769 45.2721 28.5654 45.342 28.1465 45.4731C27.7318 45.6001 27.5265 45.7926 27.5308 46.0508Z" fill="#869AFF"/>
</svg>
