<svg width="32" height="33" viewBox="0 0 32 33" fill="none" xmlns="http://www.w3.org/2000/svg">
<path fill-rule="evenodd" clip-rule="evenodd" d="M17.6999 3.7825C16.4683 2.96142 14.8637 2.96142 13.6321 3.7825L4.29878 10.0047C3.27872 10.6848 2.66602 11.8296 2.66602 13.0556V24.9618C2.66602 26.9868 4.30764 28.6284 6.33268 28.6284H11.666C12.2183 28.6284 12.666 28.1807 12.666 27.6284V20.9618C12.666 20.0413 13.4122 19.2951 14.3327 19.2951H16.9993C17.9198 19.2951 18.666 20.0413 18.666 20.9618V27.6284C18.666 28.1807 19.1137 28.6284 19.666 28.6284H24.9993C27.0244 28.6284 28.666 26.9868 28.666 24.9618V13.0556C28.666 11.8296 28.0533 10.6848 27.0332 10.0047L17.6999 3.7825Z" fill="#AEBCFF"/>
</svg>
