<svg width="32" height="33" viewBox="0 0 32 33" fill="none" xmlns="http://www.w3.org/2000/svg">
<path fill-rule="evenodd" clip-rule="evenodd" d="M17.6999 3.78256C16.4683 2.96148 14.8637 2.96148 13.6321 3.78256L4.29878 10.0048C3.27872 10.6848 2.66602 11.8297 2.66602 13.0556V24.9618C2.66602 26.9869 4.30764 28.6285 6.33268 28.6285H11.666C12.2183 28.6285 12.666 28.1808 12.666 27.6285V20.9618C12.666 20.0413 13.4122 19.2951 14.3327 19.2951H16.9993C17.9198 19.2951 18.666 20.0413 18.666 20.9618V27.6285C18.666 28.1808 19.1137 28.6285 19.666 28.6285H24.9993C27.0244 28.6285 28.666 26.9869 28.666 24.9618V13.0556C28.666 11.8297 28.0533 10.6848 27.0332 10.0048L17.6999 3.78256Z" fill="#4C4E51"/>
</svg>
