<svg width="60" height="60" viewBox="0 0 60 60" fill="none" xmlns="http://www.w3.org/2000/svg">
<path d="M29.8516 19.3766C33.1212 19.3766 35.7716 16.7261 35.7716 13.4566C35.7716 10.1871 33.1212 7.53662 29.8516 7.53662C26.5821 7.53662 23.9316 10.1871 23.9316 13.4566C23.9316 16.7261 26.5821 19.3766 29.8516 19.3766Z" fill="#4C4E51"/>
<path d="M29.851 21.188C21.8942 21.188 18.7998 26.6136 18.7998 29.1368C18.7998 31.66 25.3878 32.332 29.851 32.332C34.3142 32.332 40.9022 31.66 40.9022 29.1368C40.9022 26.6136 37.8078 21.188 29.851 21.188Z" fill="#4C4E51"/>
<path d="M23.4048 43.3086L26.5024 50.875H26.6167L29.7144 43.3086H31.0854V52.5H30.0063V45.5557H29.9175L27.061 52.5H26.0454L23.189 45.5557H23.1128V52.5H22.0337V43.3086H23.4048ZM33.6753 55.0898C33.3621 55.0814 33.159 55.0729 33.0659 55.0645V54.0869C33.1167 54.0911 33.2944 54.0996 33.5991 54.1123C33.7853 54.1081 33.9377 54.0869 34.0562 54.0488C34.1789 54.015 34.3016 53.9219 34.4243 53.7695C34.547 53.6214 34.6655 53.3887 34.7798 53.0713L34.9829 52.5508L32.4312 45.6064H33.6245L35.5034 51.0781H35.5796L37.4585 45.6064H38.6519L35.7319 53.4902C35.5288 54.0319 35.258 54.4318 34.9194 54.6899C34.5809 54.9523 34.1662 55.0856 33.6753 55.0898Z" fill="#8E8E93"/>
</svg>
