<svg width="32" height="32" viewBox="0 0 32 32" fill="none" xmlns="http://www.w3.org/2000/svg">
<path d="M20.48 24.5015C20.48 26.9759 18.4744 28.9815 16 28.9815C13.5256 28.9815 11.52 26.9759 11.52 24.5015H20.48Z" fill="#516EFF"/>
<path d="M13.2984 5.7016C13.2984 4.2096 14.508 3 16 3C17.492 3 18.7016 4.2096 18.7016 5.7016H13.2992H13.2984Z" fill="#516EFF"/>
<path d="M5.89422 15.7285C5.89422 9.56673 10.7873 4.6186 16.673 5.02316C22.0446 5.39221 26.1064 10.382 26.1064 16.096V20.7894L27.8257 23.9502C28.3209 24.8612 27.702 26 26.7108 26H5.28913C4.29859 26 3.67896 24.8612 4.17423 23.9502L5.89349 20.7894L5.89422 15.7285Z" fill="#869AFF"/>
</svg>
