<svg width="24" height="24" viewBox="0 0 24 24" fill="none" xmlns="http://www.w3.org/2000/svg">
<path d="M18.7529 15.9518C18.4744 18.4739 18.3351 19.735 17.6231 20.6056C17.3742 20.91 17.0795 21.1739 16.7496 21.3879C15.8061 22 14.5374 22 12 22C9.46249 22 8.19376 22 7.25028 21.3879C6.92038 21.1739 6.62571 20.91 6.37677 20.6056C5.66482 19.735 5.52554 18.4739 5.24698 15.9518L4.17643 6.2589L19.8235 6.2589L18.7529 15.9518Z" fill="#4C4E51"/>
<path d="M3.44995 6.91602H20.55" stroke="#4C4E51" stroke-width="1.425" stroke-linecap="round"/>
<path d="M13.9 11.7539V16.5039" stroke="#8E8E93" stroke-width="1.425" stroke-linecap="round"/>
<path d="M10.1 11.7539V16.5039" stroke="#8E8E93" stroke-width="1.425" stroke-linecap="round"/>
<path d="M8.19995 6.93528L8.19995 5.34736C8.19995 4.2408 8.19995 3.68753 8.5319 3.34376C8.86384 3 9.3981 3 10.4666 3L13.5333 3C14.6018 3 15.1361 3 15.468 3.34376C15.8 3.68753 15.8 4.2408 15.8 5.34736V6.93528" stroke="#4C4E51" stroke-width="1.425"/>
</svg>
