<svg width="34" height="34" viewBox="0 0 34 34" fill="none" xmlns="http://www.w3.org/2000/svg">
<rect x="1" y="1" width="32" height="32" rx="16" fill="#2C2D30"/>
<rect x="1" y="1" width="32" height="32" rx="16" stroke="#4C4E51" stroke-width="0.5"/>
<path d="M16.4219 13.1282V18.7063H18.5938V19.9407H16.4219V27.1125H14.9375V13.1282H16.4219ZM12.7656 14.5969C12.75 18.6438 10.9688 22.2532 6.35938 24.5344L5.53125 23.3782C9.03906 21.6282 10.9453 19.0969 11.25 15.8313H6.23438V14.5969H12.7656Z" fill="#F6F6F9"/>
<path d="M26.4844 6.53125V10.7734H28.1719V11.5469H26.4844V16.9492H25.5703V6.53125H26.4844ZM23.7891 7.65625C23.7891 10.6094 22.4062 13.293 19.0078 14.9688L18.4922 14.2422C21.1875 12.9004 22.6523 10.8965 22.8633 8.42969H18.9727V7.65625H23.7891Z" fill="#AEAEB2"/>
</svg>
