<svg width="20" height="20" viewBox="0 0 20 20" fill="none" xmlns="http://www.w3.org/2000/svg">
<path d="M18.7101 19.7842C18.4439 19.7842 18.1781 19.6828 17.9748 19.4795L13.3046 14.8093C12.8985 14.4032 12.8985 13.7449 13.3046 13.3388C13.7107 12.9326 14.3691 12.9326 14.7752 13.3388L19.4454 18.0089C19.8515 18.415 19.8515 19.0733 19.4454 19.4795C19.2421 19.6828 18.9764 19.7842 18.7101 19.7842Z" fill="currentColor"/>
<path d="M8.4997 16.0342C3.95084 16.0342 0.25 12.5016 0.25 8.15947C0.25 3.81737 3.95084 0.28418 8.4997 0.28418C13.0486 0.28418 16.75 3.8168 16.75 8.15947C16.75 12.5021 13.0492 16.0342 8.4997 16.0342ZM8.4997 1.99434C4.93861 1.99434 2.0416 4.76024 2.0416 8.15947C2.0416 11.5587 4.9392 14.324 8.4997 14.324C12.0602 14.324 14.9584 11.5581 14.9584 8.15947C14.9584 4.76081 12.0608 1.99434 8.4997 1.99434Z" fill="currentColor"/>
</svg>
