<svg width="100" height="100" viewBox="0 0 100 100" fill="none" xmlns="http://www.w3.org/2000/svg">
<rect width="100" height="100" rx="50" fill="#AEBCFF"/>
<path d="M36.76 14.6727C34.1683 11.9792 29.6193 13.2842 28.8496 16.942L25.3812 33.4255L48.7008 27.0825L36.76 14.6727Z" fill="#48568E"/>
<path d="M32.6661 18.752C32.3154 18.1512 31.3979 18.3767 31.3655 19.0716L30.8391 30.364L38.5503 28.8318L32.6661 18.752Z" fill="#DEE1FF"/>
<path d="M63.2021 14.6727C65.7938 11.9792 70.3429 13.2842 71.1126 16.942L74.581 33.4255L51.2614 27.0825L63.2021 14.6727Z" fill="#48568E"/>
<path d="M67.2957 18.752C67.6464 18.1512 68.5639 18.3767 68.5963 19.0716L69.1227 30.364L61.4115 28.8318L67.2957 18.752Z" fill="#DEE1FF"/>
<path d="M88.6954 61.7533C88.6954 80.2655 71.3955 90.3844 50.055 90.3844C28.7146 90.3844 11.4147 80.2655 11.4147 61.7533C11.4147 43.2411 28.7146 23.3457 50.055 23.3457C71.3955 23.3457 88.6954 43.2411 88.6954 61.7533Z" fill="#48568E"/>
<mask id="mask0_1116_145009" style="mask-type:alpha" maskUnits="userSpaceOnUse" x="11" y="23" width="78" height="68">
<path d="M88.6954 61.7533C88.6954 80.2655 71.3955 90.3844 50.055 90.3844C28.7146 90.3844 11.4147 80.2655 11.4147 61.7533C11.4147 43.2411 28.7146 23.3457 50.055 23.3457C71.3955 23.3457 88.6954 43.2411 88.6954 61.7533Z" fill="#DEE1FF"/>
</mask>
<g mask="url(#mask0_1116_145009)">
<path d="M88.6953 67.1296C88.6953 77.3499 71.3954 95.9717 50.0549 95.9717C28.7144 95.9717 11.4146 77.3499 11.4146 67.1296C11.4146 56.9093 28.9472 72.3452 50.2877 72.3452C71.6282 72.3452 88.6953 56.9093 88.6953 67.1296Z" fill="#DEE1FF"/>
</g>
<path d="M45.1334 70.3672C44.8103 70.3672 44.5858 70.6884 44.7116 70.9859C47.2507 76.989 52.8599 76.989 55.399 70.9859C55.5248 70.6884 55.3003 70.3672 54.9772 70.3672L45.1334 70.3672Z" fill="black"/>
<ellipse cx="6.64981" cy="3.37521" rx="6.64981" ry="3.37521" transform="matrix(-0.931001 -0.365017 -0.365017 0.931001 45.0406 50.5488)" fill="#DEE1FF"/>
<circle cx="37.6178" cy="60.674" r="3.37521" fill="black"/>
<ellipse cx="62.2916" cy="51.2639" rx="6.64981" ry="3.37521" transform="rotate(-21.4086 62.2916 51.2639)" fill="#DEE1FF"/>
<circle cx="62.2917" cy="60.674" r="3.37521" fill="black"/>
<path d="M50.2879 75.0234V78.4467M50.2879 78.4467L47.0291 80.3772M50.2879 78.4467L53.5467 80.3772" stroke="black" stroke-width="0.69832" stroke-linecap="round"/>
</svg>
