<svg width="70" height="70" viewBox="0 0 70 70" fill="none" xmlns="http://www.w3.org/2000/svg">
<rect width="70" height="70" rx="35" fill="#8297FF"/>
<path d="M25.7323 10.2691C23.9181 8.38368 20.7337 9.29719 20.195 11.8576L17.7671 23.3961L34.0908 18.956L25.7323 10.2691Z" fill="#6576B9"/>
<path d="M22.8666 13.1245C22.6211 12.7039 21.9788 12.8617 21.9561 13.3481L21.5877 21.2528L26.9855 20.1803L22.8666 13.1245Z" fill="#DEE1FF"/>
<path d="M44.2419 10.2691C46.056 8.38368 49.2404 9.29719 49.7791 11.8576L52.207 23.3961L35.8833 18.956L44.2419 10.2691Z" fill="#6576B9"/>
<path d="M47.107 13.1245C47.3525 12.7039 47.9948 12.8617 48.0175 13.3481L48.3859 21.2528L42.9881 20.1803L47.107 13.1245Z" fill="#DEE1FF"/>
<path d="M62.0872 43.2271C62.0872 56.1857 49.9773 63.2689 35.039 63.2689C20.1006 63.2689 7.99072 56.1857 7.99072 43.2271C7.99072 30.2686 20.1006 16.3418 35.039 16.3418C49.9773 16.3418 62.0872 30.2686 62.0872 43.2271Z" fill="#6576B9"/>
<mask id="mask0_2490_36404" style="mask-type:alpha" maskUnits="userSpaceOnUse" x="7" y="16" width="56" height="48">
<path d="M62.0872 43.2291C62.0872 56.1876 49.9773 63.2708 35.039 63.2708C20.1006 63.2708 7.99072 56.1876 7.99072 43.2291C7.99072 30.2705 20.1006 16.3438 35.039 16.3438C49.9773 16.3438 62.0872 30.2705 62.0872 43.2291Z" fill="#DEE1FF"/>
</mask>
<g mask="url(#mask0_2490_36404)">
<path d="M62.0872 46.9927C62.0872 54.1469 49.9773 67.1821 35.039 67.1821C20.1006 67.1821 7.99072 54.1469 7.99072 46.9927C7.99072 39.8385 20.2636 50.6436 35.2019 50.6436C50.1403 50.6436 62.0872 39.8385 62.0872 46.9927Z" fill="#DEE1FF"/>
</g>
<path d="M31.5932 49.2578C31.367 49.2578 31.2098 49.4826 31.2979 49.6909C33.0753 53.8931 37.0018 53.8931 38.7791 49.6909C38.8672 49.4826 38.71 49.2578 38.4838 49.2578L31.5932 49.2578Z" fill="black"/>
<ellipse cx="4.65487" cy="2.36265" rx="4.65487" ry="2.36265" transform="matrix(-0.931001 -0.365017 -0.365017 0.931001 31.5288 35.3828)" fill="#DEE1FF"/>
<path d="M27.7725 43.3029C28.1073 43.4962 28.2273 43.9351 27.9446 44.1988C27.6641 44.4606 27.3214 44.6526 26.9441 44.7537C26.3388 44.9159 25.6939 44.831 25.1512 44.5177C24.6086 44.2044 24.2126 43.6883 24.0504 43.0831C23.9493 42.7057 23.9442 42.3129 24.0307 41.9391C24.1178 41.5625 24.5579 41.447 24.8927 41.6403L26.3326 42.4716L27.7725 43.3029Z" fill="black"/>
<ellipse cx="43.6043" cy="35.8833" rx="4.65487" ry="2.36265" transform="rotate(-21.4086 43.6043 35.8833)" fill="#DEE1FF"/>
<path d="M45.0443 41.6389C45.3791 41.4456 45.8192 41.5612 45.9063 41.9378C45.9927 42.3116 45.9877 42.7044 45.8865 43.0818C45.7244 43.687 45.3284 44.2031 44.7857 44.5164C44.2431 44.8297 43.5982 44.9146 42.9929 44.7524C42.6155 44.6513 42.2728 44.4593 41.9923 44.1975C41.7097 43.9337 41.8297 43.4949 42.1645 43.3016L43.6044 42.4703L45.0443 41.6389Z" fill="black"/>
<path d="M35.2016 52.5156V54.9119M35.2016 54.9119L32.9204 56.2633M35.2016 54.9119L37.4828 56.2633" stroke="black" stroke-width="0.488824" stroke-linecap="round"/>
</svg>
