<svg width="25" height="24" viewBox="0 0 25 24" fill="none" xmlns="http://www.w3.org/2000/svg">
<rect x="6.5" y="6" width="12" height="12" rx="5.99998" fill="white"/>
<path fill-rule="evenodd" clip-rule="evenodd" d="M11.3203 3.10033C12.0711 2.76604 12.9285 2.76604 13.6793 3.10033C14.2027 3.33333 14.5805 3.76043 14.9088 4.22516C15.2343 4.68589 15.5924 5.30622 16.0282 6.06096L21.139 14.9133C21.5748 15.668 21.9329 16.2883 22.1692 16.8006C22.4075 17.3173 22.5885 17.858 22.5286 18.4277C22.4427 19.2451 22.014 19.9877 21.3491 20.4708C20.8856 20.8075 20.3268 20.9211 19.7602 20.9731C19.1984 21.0246 18.4821 21.0246 17.6106 21.0246H7.38896C6.51747 21.0246 5.80117 21.0246 5.23942 20.9731C4.67278 20.9211 4.114 20.8075 3.65055 20.4708C2.98563 19.9877 2.55693 19.2451 2.47102 18.4277C2.41114 17.858 2.59211 17.3173 2.83041 16.8006C3.06666 16.2883 3.42482 15.668 3.86057 14.9132L8.97142 6.06097C9.40715 5.30622 9.76529 4.68589 10.0908 4.22516C10.4191 3.76043 10.7969 3.33333 11.3203 3.10033ZM12.5 8.09961C12.997 8.09961 13.4 8.50255 13.4 8.99961V12.9996C13.4 13.4967 12.997 13.8996 12.5 13.8996C12.0029 13.8996 11.6 13.4967 11.6 12.9996V8.99961C11.6 8.50255 12.0029 8.09961 12.5 8.09961ZM13.4998 16.4996C13.4998 17.0519 13.0521 17.4996 12.4998 17.4996C11.9476 17.4996 11.4998 17.0519 11.4998 16.4996C11.4998 15.9473 11.9476 15.4996 12.4998 15.4996C13.0521 15.4996 13.4998 15.9473 13.4998 16.4996Z" fill="#FF7373"/>
</svg>
