<svg width="21" height="20" viewBox="0 0 21 20" fill="none" xmlns="http://www.w3.org/2000/svg">
<path fill-rule="evenodd" clip-rule="evenodd" d="M14.0124 2.12048C13.7854 1.89343 13.4173 1.89343 13.1902 2.12048L3.88788 11.4228C3.81336 11.4973 3.76051 11.5907 3.73495 11.6929L2.95975 14.7937C2.91022 14.9918 2.96827 15.2014 3.11268 15.3458C3.25709 15.4902 3.46667 15.5483 3.6648 15.4987L6.76558 14.7235C6.8678 14.698 6.96116 14.6451 7.03567 14.5706L16.338 5.26828C16.565 5.04123 16.565 4.67311 16.338 4.44606L14.0124 2.12048Z" fill="#4C4E51"/>
<path fill-rule="evenodd" clip-rule="evenodd" d="M2.16675 17.2601C2.16675 16.939 2.42705 16.6787 2.74814 16.6787H18.252C18.5731 16.6787 18.8334 16.939 18.8334 17.2601C18.8334 17.5812 18.5731 17.8415 18.252 17.8415H2.74814C2.42705 17.8415 2.16675 17.5812 2.16675 17.2601Z" fill="#8E8E93"/>
</svg>
