<svg width="32" height="32" viewBox="0 0 32 32" fill="none" xmlns="http://www.w3.org/2000/svg">
<path fill-rule="evenodd" clip-rule="evenodd" d="M21.6186 3.39258C21.2553 3.0293 20.6663 3.0293 20.303 3.39258L5.41928 18.2763C5.30007 18.3955 5.21549 18.5449 5.1746 18.7085L3.93429 23.6697C3.85504 23.9867 3.94792 24.322 4.17897 24.5531C4.41002 24.7841 4.74536 24.877 5.06236 24.7978L10.0236 23.5575C10.1872 23.5166 10.3365 23.432 10.4558 23.3128L25.3395 8.42905C25.7028 8.06577 25.7028 7.47678 25.3395 7.11351L21.6186 3.39258Z" fill="#516EFF"/>
<path fill-rule="evenodd" clip-rule="evenodd" d="M2.66626 27.6163C2.66626 27.1025 3.08274 26.686 3.59649 26.686H28.4027C28.9164 26.686 29.3329 27.1025 29.3329 27.6163C29.3329 28.13 28.9164 28.5465 28.4027 28.5465H3.59649C3.08274 28.5465 2.66626 28.13 2.66626 27.6163Z" fill="#AEBCFF"/>
</svg>
