<svg width="32" height="32" viewBox="0 0 32 32" fill="none" xmlns="http://www.w3.org/2000/svg">
<path d="M16.3705 5.98682C20.4169 5.98682 23.9021 8.38724 25.4812 11.8416C25.5726 12.0416 25.4663 12.2735 25.258 12.344L19.0259 14.4531C18.8953 14.4973 18.7503 14.4683 18.6516 14.3721C17.886 13.6256 17.2908 12.6187 16.9473 11.4519L16.545 10.0851C16.493 9.90851 16.2428 9.90851 16.1908 10.0851L15.7885 11.4519C15.2575 13.2558 14.1263 14.6783 12.6914 15.3459L11.485 15.9068C11.3431 15.9731 11.343 16.1752 11.485 16.2414L12.6914 16.8024C14.1263 17.4699 15.2575 18.8925 15.7885 20.6964L16.1908 22.0632C16.2428 22.2397 16.493 22.2396 16.545 22.0632L16.9473 20.6964C17.2704 19.5988 17.8158 18.6422 18.5165 17.9112C18.6151 17.8084 18.765 17.7759 18.8999 17.8215L25.1279 19.9296C25.3406 20.0016 25.4459 20.2412 25.3461 20.4423C23.7092 23.7435 20.3051 26.013 16.3705 26.013C10.8404 26.013 6.35742 21.53 6.35742 15.9999C6.35742 10.4698 10.8404 5.98682 16.3705 5.98682Z" fill="white"/>
<path d="M16.3705 5.98682C20.4169 5.98682 23.9021 8.38724 25.4812 11.8416C25.5726 12.0416 25.4663 12.2735 25.258 12.344L19.0259 14.4531C18.8953 14.4973 18.7503 14.4683 18.6516 14.3721C17.886 13.6256 17.2908 12.6187 16.9473 11.4519L16.545 10.0851C16.493 9.90851 16.2428 9.90851 16.1908 10.0851L15.7885 11.4519C15.2575 13.2558 14.1263 14.6783 12.6914 15.3459L11.485 15.9068C11.3431 15.9731 11.343 16.1752 11.485 16.2414L12.6914 16.8024C14.1263 17.4699 15.2575 18.8925 15.7885 20.6964L16.1908 22.0632C16.2428 22.2397 16.493 22.2396 16.545 22.0632L16.9473 20.6964C17.2704 19.5988 17.8158 18.6422 18.5165 17.9112C18.6151 17.8084 18.765 17.7759 18.8999 17.8215L25.1279 19.9296C25.3406 20.0016 25.4459 20.2412 25.3461 20.4423C23.7092 23.7435 20.3051 26.013 16.3705 26.013C10.8404 26.013 6.35742 21.53 6.35742 15.9999C6.35742 10.4698 10.8404 5.98682 16.3705 5.98682Z" fill="url(#paint0_linear_3132_36801)" fill-opacity="0.2"/>
<defs>
<linearGradient id="paint0_linear_3132_36801" x1="15.9999" y1="5.98682" x2="15.9999" y2="26.013" gradientUnits="userSpaceOnUse">
<stop stop-color="#2844D3" stop-opacity="0"/>
<stop offset="0.5" stop-color="#2844D3" stop-opacity="0.860672"/>
<stop offset="1" stop-color="#2E4FF5"/>
</linearGradient>
</defs>
</svg>
