<svg width="160" height="160" viewBox="0 0 160 160" fill="none" xmlns="http://www.w3.org/2000/svg">
<g clip-path="url(#clip0_2111_40354)">
<path d="M126.179 29.8326C127.988 28.7873 130.363 29.5831 131.089 31.541C134.97 42.0062 130.865 54.0503 120.874 59.8197C110.882 65.5891 98.396 63.1228 91.275 54.5271C89.9423 52.9166 90.4413 50.4629 92.2507 49.4177L126.179 29.8294V29.8326Z" fill="#FF4646"/>
<path d="M126.179 29.8326C127.988 28.7873 130.363 29.5831 131.089 31.541C134.97 42.0062 130.865 54.0503 120.874 59.8197C110.882 65.5891 98.396 63.1228 91.275 54.5271C89.9423 52.9166 90.4413 50.4629 92.2507 49.4177L126.179 29.8294V29.8326Z" fill="url(#paint0_linear_2111_40354)" fill-opacity="0.3"/>
<path d="M33.8254 29.8326C32.016 28.7873 29.6413 29.5831 28.9149 31.541C25.0339 42.0062 29.1391 54.0503 39.1306 59.8197C49.1221 65.5891 61.6083 63.1228 68.7293 54.5271C70.0619 52.9166 69.563 50.4629 67.7535 49.4177L33.8254 29.8326Z" fill="#FF4646"/>
<path d="M33.8254 29.8326C32.016 28.7873 29.6413 29.5831 28.9149 31.541C25.0339 42.0062 29.1391 54.0503 39.1306 59.8197C49.1221 65.5891 61.6083 63.1228 68.7293 54.5271C70.0619 52.9166 69.563 50.4629 67.7535 49.4177L33.8254 29.8326Z" fill="url(#paint1_linear_2111_40354)" fill-opacity="0.2"/>
<path d="M126.492 109.508C141.316 83.8316 132.519 50.9992 106.842 36.1748C81.1657 21.3505 48.3332 30.1479 33.5089 55.8244C18.6845 81.501 27.4819 114.333 53.1585 129.158C78.835 143.982 111.667 135.185 126.492 109.508Z" fill="url(#paint2_linear_2111_40354)"/>
<path d="M77.9997 124C103.773 124 124.666 102.808 124.666 76.6663C124.666 50.5249 103.773 29.333 77.9997 29.333C52.2264 29.333 31.333 50.5249 31.333 76.6663C31.333 102.808 52.2264 124 77.9997 124Z" fill="url(#paint3_linear_2111_40354)"/>
<circle cx="68.9477" cy="45.2983" r="14.2104" fill="url(#paint4_linear_2111_40354)" fill-opacity="0.4"/>
<path d="M57.2363 98.6602C53.5117 96.5099 51.9975 92.0013 53.4908 88.1093C53.7612 87.4047 54.6089 87.1829 55.2625 87.5603L67.836 94.8196C68.4897 95.197 68.7214 96.042 68.2464 96.6285C65.6225 99.8677 60.9609 100.811 57.2363 98.6602Z" fill="black"/>
<path d="M101.855 98.6602C105.579 96.5099 107.093 92.0013 105.6 88.1093C105.33 87.4047 104.482 87.1829 103.828 87.5603L91.2548 94.8196C90.6012 95.197 90.3694 96.042 90.8444 96.6285C93.4683 99.8677 98.13 100.811 101.855 98.6602Z" fill="black"/>
<path d="M79.5459 103.307C86.1874 103.307 90.6427 106.761 93.333 109.933L93.8477 110.562C94.645 111.573 93.636 113.01 92.4336 112.614H92.4326C89.461 111.643 85.1135 110.679 79.5459 110.679C73.9822 110.679 69.6341 111.639 66.6582 112.614C65.4908 112.996 64.5108 111.656 65.1738 110.658L65.2432 110.562C67.8638 107.237 72.4614 103.307 79.5459 103.307Z" fill="#731019" stroke="url(#paint5_linear_2111_40354)" stroke-width="0.666667"/>
</g>
<defs>
<linearGradient id="paint0_linear_2111_40354" x1="111.528" y1="29.3706" x2="125.334" y2="43.1769" gradientUnits="userSpaceOnUse">
<stop stop-opacity="0"/>
<stop offset="1" stop-color="#731019"/>
</linearGradient>
<linearGradient id="paint1_linear_2111_40354" x1="48.4763" y1="29.3706" x2="61.6862" y2="55.8247" gradientUnits="userSpaceOnUse">
<stop stop-opacity="0"/>
<stop offset="1" stop-color="#731019"/>
</linearGradient>
<linearGradient id="paint2_linear_2111_40354" x1="33.5089" y1="55.8244" x2="126.492" y2="109.508" gradientUnits="userSpaceOnUse">
<stop offset="0.769465" stop-color="#FF4646"/>
<stop offset="1" stop-color="#D92E2E"/>
</linearGradient>
<linearGradient id="paint3_linear_2111_40354" x1="63.9982" y1="34.3531" x2="78.3839" y2="99.6751" gradientUnits="userSpaceOnUse">
<stop stop-color="#FF585B"/>
<stop offset="1" stop-color="#FF4646"/>
</linearGradient>
<linearGradient id="paint4_linear_2111_40354" x1="68.9477" y1="31.0879" x2="68.9477" y2="59.5087" gradientUnits="userSpaceOnUse">
<stop stop-color="#FF8D97"/>
<stop offset="1" stop-color="#FF8D97" stop-opacity="0"/>
</linearGradient>
<linearGradient id="paint5_linear_2111_40354" x1="79.5455" y1="102.974" x2="79.5455" y2="113.017" gradientUnits="userSpaceOnUse">
<stop stop-color="#FF4646"/>
<stop offset="1" stop-color="#992A2A"/>
</linearGradient>
<clipPath id="clip0_2111_40354">
<rect width="160" height="160" fill="white"/>
</clipPath>
</defs>
</svg>
