<svg width="280" height="176" viewBox="0 0 280 176" fill="none" xmlns="http://www.w3.org/2000/svg">
<g clip-path="url(#clip0_2174_73796)">
<path d="M45.6543 170.355L48.0664 167.816C48.3822 167.478 48.623 167.206 48.7891 167.001C48.9583 166.793 49.0869 166.592 49.1748 166.4C49.2627 166.208 49.3066 166.007 49.3066 165.795C49.3066 165.557 49.2448 165.349 49.1211 165.17C48.9974 164.988 48.8281 164.846 48.6133 164.745C48.4017 164.644 48.1641 164.594 47.9004 164.594C47.6237 164.594 47.3812 164.651 47.1729 164.765C46.9645 164.875 46.8034 165.03 46.6895 165.229C46.5788 165.427 46.5234 165.658 46.5234 165.922H45.6934C45.6901 165.512 45.7845 165.149 45.9766 164.833C46.1719 164.517 46.4404 164.271 46.7822 164.096C47.124 163.92 47.5065 163.832 47.9297 163.832C48.3496 163.832 48.7256 163.918 49.0576 164.091C49.3929 164.263 49.6549 164.499 49.8438 164.799C50.0326 165.098 50.127 165.43 50.127 165.795C50.1237 166.065 50.0732 166.324 49.9756 166.571C49.8812 166.815 49.7184 167.087 49.4873 167.387C49.2562 167.686 48.929 168.054 48.5059 168.49L46.8848 170.16V170.219H50.2539V171H45.6641L45.6543 170.355ZM53.8477 171.098C53.3268 171.098 52.8809 170.956 52.5098 170.673C52.1419 170.39 51.8604 169.976 51.665 169.433C51.473 168.889 51.377 168.233 51.377 167.465C51.377 166.706 51.473 166.055 51.665 165.512C51.8604 164.965 52.1436 164.548 52.5146 164.262C52.8857 163.975 53.3301 163.832 53.8477 163.832C54.362 163.832 54.8047 163.975 55.1758 164.262C55.5469 164.548 55.8301 164.965 56.0254 165.512C56.2207 166.055 56.3184 166.706 56.3184 167.465C56.3184 168.233 56.2207 168.889 56.0254 169.433C55.8333 169.976 55.5518 170.39 55.1807 170.673C54.8128 170.956 54.3685 171.098 53.8477 171.098ZM52.2266 167.465C52.2266 168.07 52.29 168.586 52.417 169.013C52.5472 169.439 52.7327 169.763 52.9736 169.984C53.2145 170.206 53.5059 170.316 53.8477 170.316C54.1862 170.316 54.4759 170.206 54.7168 169.984C54.9609 169.763 55.1449 169.439 55.2686 169.013C55.3955 168.586 55.459 168.07 55.459 167.465C55.459 166.859 55.3955 166.342 55.2686 165.912C55.1416 165.482 54.9577 165.155 54.7168 164.931C54.4759 164.706 54.1862 164.594 53.8477 164.594C53.5091 164.594 53.2194 164.706 52.9785 164.931C52.7376 165.155 52.5521 165.482 52.4219 165.912C52.2917 166.342 52.2266 166.859 52.2266 167.465ZM59.9902 171H59.1016V164.848H59.0625L57.3438 165.99V165.102L59.1016 163.93H59.9902V171ZM65.3418 164.76V164.711H61.6016V163.93H66.25V164.75L63.0176 171H62.0996L65.3418 164.76Z" fill="#626369"/>
<path d="M187.654 170.355L190.066 167.816C190.382 167.478 190.623 167.206 190.789 167.001C190.958 166.793 191.087 166.592 191.175 166.4C191.263 166.208 191.307 166.007 191.307 165.795C191.307 165.557 191.245 165.349 191.121 165.17C190.997 164.988 190.828 164.846 190.613 164.745C190.402 164.644 190.164 164.594 189.9 164.594C189.624 164.594 189.381 164.651 189.173 164.765C188.965 164.875 188.803 165.03 188.689 165.229C188.579 165.427 188.523 165.658 188.523 165.922H187.693C187.69 165.512 187.785 165.149 187.977 164.833C188.172 164.517 188.44 164.271 188.782 164.096C189.124 163.92 189.507 163.832 189.93 163.832C190.35 163.832 190.726 163.918 191.058 164.091C191.393 164.263 191.655 164.499 191.844 164.799C192.033 165.098 192.127 165.43 192.127 165.795C192.124 166.065 192.073 166.324 191.976 166.571C191.881 166.815 191.718 167.087 191.487 167.387C191.256 167.686 190.929 168.054 190.506 168.49L188.885 170.16V170.219H192.254V171H187.664L187.654 170.355ZM195.848 171.098C195.327 171.098 194.881 170.956 194.51 170.673C194.142 170.39 193.86 169.976 193.665 169.433C193.473 168.889 193.377 168.233 193.377 167.465C193.377 166.706 193.473 166.055 193.665 165.512C193.86 164.965 194.144 164.548 194.515 164.262C194.886 163.975 195.33 163.832 195.848 163.832C196.362 163.832 196.805 163.975 197.176 164.262C197.547 164.548 197.83 164.965 198.025 165.512C198.221 166.055 198.318 166.706 198.318 167.465C198.318 168.233 198.221 168.889 198.025 169.433C197.833 169.976 197.552 170.39 197.181 170.673C196.813 170.956 196.368 171.098 195.848 171.098ZM194.227 167.465C194.227 168.07 194.29 168.586 194.417 169.013C194.547 169.439 194.733 169.763 194.974 169.984C195.215 170.206 195.506 170.316 195.848 170.316C196.186 170.316 196.476 170.206 196.717 169.984C196.961 169.763 197.145 169.439 197.269 169.013C197.396 168.586 197.459 168.07 197.459 167.465C197.459 166.859 197.396 166.342 197.269 165.912C197.142 165.482 196.958 165.155 196.717 164.931C196.476 164.706 196.186 164.594 195.848 164.594C195.509 164.594 195.219 164.706 194.979 164.931C194.738 165.155 194.552 165.482 194.422 165.912C194.292 166.342 194.227 166.859 194.227 167.465ZM199.48 170.355L201.893 167.816C202.208 167.478 202.449 167.206 202.615 167.001C202.785 166.793 202.913 166.592 203.001 166.4C203.089 166.208 203.133 166.007 203.133 165.795C203.133 165.557 203.071 165.349 202.947 165.17C202.824 164.988 202.654 164.846 202.439 164.745C202.228 164.644 201.99 164.594 201.727 164.594C201.45 164.594 201.207 164.651 200.999 164.765C200.791 164.875 200.63 165.03 200.516 165.229C200.405 165.427 200.35 165.658 200.35 165.922H199.52C199.516 165.512 199.611 165.149 199.803 164.833C199.998 164.517 200.267 164.271 200.608 164.096C200.95 163.92 201.333 163.832 201.756 163.832C202.176 163.832 202.552 163.918 202.884 164.091C203.219 164.263 203.481 164.499 203.67 164.799C203.859 165.098 203.953 165.43 203.953 165.795C203.95 166.065 203.899 166.324 203.802 166.571C203.707 166.815 203.545 167.087 203.313 167.387C203.082 167.686 202.755 168.054 202.332 168.49L200.711 170.16V170.219H204.08V171H199.49L199.48 170.355ZM207.664 171.098C207.244 171.098 206.862 171.018 206.517 170.858C206.175 170.696 205.901 170.473 205.696 170.189C205.494 169.903 205.385 169.581 205.369 169.223H206.219C206.238 169.431 206.315 169.618 206.448 169.784C206.582 169.95 206.754 170.082 206.966 170.18C207.181 170.277 207.413 170.326 207.664 170.326C207.967 170.326 208.237 170.258 208.475 170.121C208.715 169.984 208.904 169.797 209.041 169.56C209.178 169.322 209.246 169.057 209.246 168.764C209.246 168.461 209.174 168.189 209.031 167.948C208.891 167.704 208.696 167.512 208.445 167.372C208.198 167.232 207.918 167.162 207.605 167.162C206.971 167.152 206.531 167.364 206.287 167.797H205.438L205.936 163.93H209.764V164.711H206.668L206.404 166.781H206.473C206.635 166.658 206.829 166.558 207.054 166.483C207.282 166.409 207.518 166.371 207.762 166.371C208.204 166.371 208.603 166.474 208.958 166.679C209.316 166.881 209.596 167.162 209.798 167.523C210.003 167.885 210.105 168.292 210.105 168.744C210.105 169.193 210 169.597 209.788 169.955C209.576 170.313 209.285 170.593 208.914 170.795C208.546 170.997 208.13 171.098 207.664 171.098Z" fill="#626369"/>
<path d="M161.352 24C111.739 83.0863 72.4054 92.94 48.6931 93.9573C44.6398 103.113 26.8048 128.285 48.6931 144.888C70.5813 161.491 187.14 134.169 225 112.686L161.352 24Z" fill="url(#paint0_linear_2174_73796)"/>
<g filter="url(#filter0_d_2174_73796)">
<path d="M252 66C252 96.3757 227.376 121 197 121C166.624 121 142 96.3757 142 66C142 35.6243 166.624 11 197 11C227.376 11 252 35.6243 252 66Z" fill="url(#paint1_linear_2174_73796)"/>
</g>
<circle cx="56" cy="122" r="28" fill="#394062"/>
<path d="M44.5508 124.418V123.199L48.2188 117.516H50.1172V123.164H51.2305V124.418H50.1172V126H48.6641V124.418H44.5508ZM46.1094 123.164H48.6875V119.25H48.5938L46.1094 123.105V123.164ZM55.7773 117.516V126H54.2422V119.004H54.1953L52.2148 120.27V118.875L54.3125 117.516H55.7773ZM66.3594 116.461V124.23H65.0586V120.668H63.0195V119.59H65.0586V116.461H66.3594ZM63.0898 117.258C63.0898 120.047 61.2383 122.145 58.1797 123.117L57.6289 122.074C59.9141 121.348 61.4199 120 61.6719 118.324H58.1797V117.258H63.0898ZM66.6289 125.777V126.832H59.457V123.445H60.7812V125.777H66.6289Z" fill="#91AEE3" fill-opacity="0.4"/>
<path d="M169.918 70.3633V68.332L176.031 58.8594H179.195V68.2734H181.051V70.3633H179.195V73H176.773V70.3633H169.918ZM172.516 68.2734H176.812V61.75H176.656L172.516 68.1758V68.2734ZM188.219 73.1953C185.074 73.1953 182.848 71.5156 182.848 69.2109C182.848 67.4141 184.176 65.9492 185.875 65.6758V65.5977C184.391 65.2852 183.375 63.9961 183.375 62.4531C183.375 60.2656 185.426 58.6641 188.219 58.6641C190.992 58.6641 193.043 60.2656 193.043 62.4531C193.043 63.9961 192.008 65.2852 190.543 65.5977V65.6758C192.242 65.9492 193.59 67.4141 193.59 69.2109C193.59 71.5156 191.344 73.1953 188.219 73.1953ZM188.219 71.1836C189.879 71.1836 190.973 70.2852 190.973 68.9766C190.973 67.6484 189.801 66.6719 188.219 66.6719C186.617 66.6719 185.445 67.6484 185.465 68.9766C185.445 70.2852 186.539 71.1836 188.219 71.1836ZM188.219 64.7773C189.586 64.7773 190.562 63.918 190.562 62.6875C190.562 61.4961 189.605 60.6562 188.219 60.6562C186.812 60.6562 185.855 61.4766 185.855 62.6875C185.855 63.918 186.832 64.7773 188.219 64.7773ZM195.699 73V71.1641L200.699 66.3398C202.125 64.9141 202.867 64.0742 202.867 62.8828C202.867 61.5742 201.832 60.7344 200.445 60.7344C198.98 60.7344 198.043 61.6523 198.062 63.0781H195.641C195.621 60.4023 197.633 58.6641 200.465 58.6641C203.355 58.6641 205.309 60.3828 205.309 62.7656C205.309 64.3672 204.527 65.6562 201.754 68.2734L199.234 70.7734V70.8711H205.523V73H195.699ZM221.949 57.1016V70.0508H219.781V64.1133H216.383V62.3164H219.781V57.1016H221.949ZM216.5 58.4297C216.5 63.0781 213.414 66.5742 208.316 68.1953L207.398 66.457C211.207 65.2461 213.717 63 214.137 60.207H208.316V58.4297H216.5ZM222.398 72.6289V74.3867H210.445V68.7422H212.652V72.6289H222.398Z" fill="#EFF5FF"/>
<rect x="57" y="6" width="75" height="28" rx="8" fill="#516EFF"/>
<path d="M72.4746 25H70.4102V17.0566H70.3555L68.0859 18.4785V16.6602L70.5332 15.1016H72.4746V25ZM79.3242 16.8516V16.7832H74.4707V15.1016H81.457V16.8105L77.2871 25H75.1543L79.3242 16.8516ZM84.4102 17.7266H86.1055V14.9238H87.7188V23.3047H82.7695V14.9238H84.4102V17.7266ZM86.1055 21.9102V19.0938H84.4102V21.9102H86.1055ZM88.7578 13.9941H90.4121V18.5605H91.5332V13.8164H93.2012V26.2578H91.5332V19.9824H90.4121V25.6836H88.7578V13.9941ZM109.088 20.9531H97.7402V19.5449H109.088V20.9531ZM98.2461 17.7266C98.9935 17.6582 99.6429 17.5283 100.194 17.3369C100.75 17.1455 101.19 16.9154 101.514 16.6465C101.837 16.3776 102.049 16.0905 102.149 15.7852H98.7793V14.3906H108.062V15.7852H104.665C104.761 16.0859 104.97 16.3708 105.294 16.6396C105.622 16.9085 106.064 17.141 106.62 17.3369C107.181 17.5283 107.844 17.6582 108.609 17.7266L107.994 19.0938C106.846 18.9844 105.877 18.7269 105.089 18.3213C104.305 17.9111 103.742 17.3962 103.4 16.7764C103.063 17.3962 102.503 17.9111 101.719 18.3213C100.939 18.7269 99.9733 18.9844 98.8203 19.0938L98.2461 17.7266ZM99.0391 23.9609C99.0391 23.4779 99.2122 23.0632 99.5586 22.7168C99.9095 22.3704 100.411 22.1061 101.062 21.9238C101.719 21.7415 102.498 21.6504 103.4 21.6504C104.298 21.6504 105.071 21.7415 105.718 21.9238C106.365 22.1061 106.862 22.3704 107.208 22.7168C107.554 23.0632 107.73 23.4779 107.734 23.9609C107.73 24.4486 107.554 24.8633 107.208 25.2051C106.862 25.5514 106.365 25.8135 105.718 25.9912C105.071 26.1689 104.298 26.2578 103.4 26.2578C102.498 26.2578 101.719 26.1689 101.062 25.9912C100.411 25.8135 99.9095 25.5514 99.5586 25.2051C99.2122 24.8633 99.0391 24.4486 99.0391 23.9609ZM100.816 23.9609C100.812 24.2799 101.024 24.5169 101.452 24.6719C101.885 24.8268 102.535 24.9043 103.4 24.9043C105.118 24.9043 105.98 24.5898 105.984 23.9609C105.98 23.3229 105.118 23.0039 103.4 23.0039C102.535 23.0039 101.885 23.0837 101.452 23.2432C101.024 23.3981 100.812 23.6374 100.816 23.9609ZM119.656 18.5879H121.42V20.0234H119.656V26.2305H117.906V13.8164H119.656V18.5879ZM109.703 22.7441C111.184 22.0013 112.324 21.1217 113.121 20.1055C113.919 19.0892 114.399 17.8906 114.563 16.5098H110.414V15.0879H116.334C116.325 17.0703 115.878 18.8203 114.994 20.3379C114.115 21.8555 112.679 23.1042 110.688 24.084L109.703 22.7441Z" fill="#D7DDFF"/>
<path d="M124.999 37.4263C125.215 38.2343 124.404 38.9351 123.636 38.6029L113 34L123.965 33.5689L124.999 37.4263Z" fill="#516EFF"/>
</g>
<defs>
<filter id="filter0_d_2174_73796" x="112" y="-19" width="170" height="170" filterUnits="userSpaceOnUse" color-interpolation-filters="sRGB">
<feFlood flood-opacity="0" result="BackgroundImageFix"/>
<feColorMatrix in="SourceAlpha" type="matrix" values="0 0 0 0 0 0 0 0 0 0 0 0 0 0 0 0 0 0 127 0" result="hardAlpha"/>
<feOffset/>
<feGaussianBlur stdDeviation="15"/>
<feComposite in2="hardAlpha" operator="out"/>
<feColorMatrix type="matrix" values="0 0 0 0 0.254902 0 0 0 0 0.372549 0 0 0 0 0.972549 0 0 0 0.3 0"/>
<feBlend mode="normal" in2="BackgroundImageFix" result="effect1_dropShadow_2174_73796"/>
<feBlend mode="normal" in="SourceGraphic" in2="effect1_dropShadow_2174_73796" result="shape"/>
</filter>
<linearGradient id="paint0_linear_2174_73796" x1="203.127" y1="41.1206" x2="42.6623" y2="134.922" gradientUnits="userSpaceOnUse">
<stop stop-color="#516EFF"/>
<stop offset="1" stop-color="#465187" stop-opacity="0"/>
</linearGradient>
<linearGradient id="paint1_linear_2174_73796" x1="188.159" y1="9.5" x2="208.495" y2="122.735" gradientUnits="userSpaceOnUse">
<stop stop-color="#788FFF"/>
<stop offset="0.445776" stop-color="#4E6BFF"/>
<stop offset="1" stop-color="#3B5AF5"/>
</linearGradient>
<clipPath id="clip0_2174_73796">
<rect width="280" height="176" fill="white"/>
</clipPath>
</defs>
</svg>
