<svg width="280" height="176" viewBox="0 0 280 176" fill="none" xmlns="http://www.w3.org/2000/svg">
<line x1="15" y1="155.75" x2="265" y2="155.75" stroke="#3A56E4" stroke-opacity="0.8" stroke-width="0.5"/>
<path d="M24.7854 139.326C91.0767 145.083 211.499 139 248.999 28.0001" stroke="url(#paint0_linear_2174_73897)"/>
<path d="M15.6543 170.355L18.0664 167.816C18.3822 167.478 18.623 167.206 18.7891 167.001C18.9583 166.793 19.0869 166.592 19.1748 166.4C19.2627 166.208 19.3066 166.007 19.3066 165.795C19.3066 165.557 19.2448 165.349 19.1211 165.17C18.9974 164.988 18.8281 164.846 18.6133 164.745C18.4017 164.644 18.1641 164.594 17.9004 164.594C17.6237 164.594 17.3812 164.651 17.1729 164.765C16.9645 164.875 16.8034 165.03 16.6895 165.229C16.5788 165.427 16.5234 165.658 16.5234 165.922H15.6934C15.6901 165.512 15.7845 165.149 15.9766 164.833C16.1719 164.517 16.4404 164.271 16.7822 164.096C17.124 163.92 17.5065 163.832 17.9297 163.832C18.3496 163.832 18.7256 163.918 19.0576 164.091C19.3929 164.263 19.6549 164.499 19.8438 164.799C20.0326 165.098 20.127 165.43 20.127 165.795C20.1237 166.065 20.0732 166.324 19.9756 166.571C19.8812 166.815 19.7184 167.087 19.4873 167.387C19.2562 167.686 18.929 168.054 18.5059 168.49L16.8848 170.16V170.219H20.2539V171H15.6641L15.6543 170.355ZM23.8477 171.098C23.3268 171.098 22.8809 170.956 22.5098 170.673C22.1419 170.39 21.8604 169.976 21.665 169.433C21.473 168.889 21.377 168.233 21.377 167.465C21.377 166.706 21.473 166.055 21.665 165.512C21.8604 164.965 22.1436 164.548 22.5146 164.262C22.8857 163.975 23.3301 163.832 23.8477 163.832C24.362 163.832 24.8047 163.975 25.1758 164.262C25.5469 164.548 25.8301 164.965 26.0254 165.512C26.2207 166.055 26.3184 166.706 26.3184 167.465C26.3184 168.233 26.2207 168.889 26.0254 169.433C25.8333 169.976 25.5518 170.39 25.1807 170.673C24.8128 170.956 24.3685 171.098 23.8477 171.098ZM22.2266 167.465C22.2266 168.07 22.29 168.586 22.417 169.013C22.5472 169.439 22.7327 169.763 22.9736 169.984C23.2145 170.206 23.5059 170.316 23.8477 170.316C24.1862 170.316 24.4759 170.206 24.7168 169.984C24.9609 169.763 25.1449 169.439 25.2686 169.013C25.3955 168.586 25.459 168.07 25.459 167.465C25.459 166.859 25.3955 166.342 25.2686 165.912C25.1416 165.482 24.9577 165.155 24.7168 164.931C24.4759 164.706 24.1862 164.594 23.8477 164.594C23.5091 164.594 23.2194 164.706 22.9785 164.931C22.7376 165.155 22.5521 165.482 22.4219 165.912C22.2917 166.342 22.2266 166.859 22.2266 167.465ZM29.9902 171H29.1016V164.848H29.0625L27.3438 165.99V165.102L29.1016 163.93H29.9902V171ZM34.1992 163.832C34.6549 163.832 35.0765 163.936 35.4639 164.145C35.8545 164.35 36.1735 164.701 36.4209 165.199C36.6715 165.697 36.7969 166.358 36.7969 167.182C36.7969 168.008 36.6878 168.716 36.4697 169.306C36.2549 169.892 35.9456 170.338 35.542 170.644C35.1416 170.946 34.6647 171.098 34.1113 171.098C33.7012 171.098 33.3333 171.02 33.0078 170.863C32.6823 170.704 32.417 170.482 32.2119 170.199C32.0068 169.916 31.875 169.587 31.8164 169.213H32.6855C32.7669 169.545 32.9297 169.812 33.1738 170.014C33.4212 170.215 33.7337 170.316 34.1113 170.316C34.4954 170.316 34.8258 170.211 35.1025 169.999C35.3825 169.784 35.5973 169.473 35.7471 169.066C35.8968 168.66 35.9733 168.171 35.9766 167.602H35.8789C35.6738 167.898 35.4134 168.129 35.0977 168.295C34.7852 168.458 34.4434 168.539 34.0723 168.539C33.6523 168.539 33.265 168.44 32.9102 168.241C32.5586 168.039 32.2786 167.761 32.0703 167.406C31.862 167.048 31.7578 166.648 31.7578 166.205C31.7578 165.769 31.8587 165.37 32.0605 165.009C32.2624 164.647 32.5472 164.361 32.915 164.149C33.2861 163.938 33.7142 163.832 34.1992 163.832ZM32.6172 166.195C32.6172 166.485 32.6839 166.75 32.8174 166.991C32.9541 167.229 33.1429 167.418 33.3838 167.558C33.6247 167.698 33.8965 167.768 34.1992 167.768C34.4987 167.768 34.7738 167.694 35.0244 167.548C35.2751 167.398 35.4736 167.201 35.6201 166.957C35.7666 166.71 35.8398 166.449 35.8398 166.176C35.8398 165.906 35.7699 165.65 35.6299 165.409C35.4899 165.168 35.2962 164.975 35.0488 164.828C34.8047 164.678 34.5312 164.604 34.2285 164.604C33.9258 164.604 33.6507 164.675 33.4033 164.818C33.1559 164.962 32.9622 165.155 32.8223 165.399C32.6823 165.644 32.6139 165.909 32.6172 166.195Z" fill="#626369"/>
<path d="M237.654 170.355L240.066 167.816C240.382 167.478 240.623 167.206 240.789 167.001C240.958 166.793 241.087 166.592 241.175 166.4C241.263 166.208 241.307 166.007 241.307 165.795C241.307 165.557 241.245 165.349 241.121 165.17C240.997 164.988 240.828 164.846 240.613 164.745C240.402 164.644 240.164 164.594 239.9 164.594C239.624 164.594 239.381 164.651 239.173 164.765C238.965 164.875 238.803 165.03 238.689 165.229C238.579 165.427 238.523 165.658 238.523 165.922H237.693C237.69 165.512 237.785 165.149 237.977 164.833C238.172 164.517 238.44 164.271 238.782 164.096C239.124 163.92 239.507 163.832 239.93 163.832C240.35 163.832 240.726 163.918 241.058 164.091C241.393 164.263 241.655 164.499 241.844 164.799C242.033 165.098 242.127 165.43 242.127 165.795C242.124 166.065 242.073 166.324 241.976 166.571C241.881 166.815 241.718 167.087 241.487 167.387C241.256 167.686 240.929 168.054 240.506 168.49L238.885 170.16V170.219H242.254V171H237.664L237.654 170.355ZM245.848 171.098C245.327 171.098 244.881 170.956 244.51 170.673C244.142 170.39 243.86 169.976 243.665 169.433C243.473 168.889 243.377 168.233 243.377 167.465C243.377 166.706 243.473 166.055 243.665 165.512C243.86 164.965 244.144 164.548 244.515 164.262C244.886 163.975 245.33 163.832 245.848 163.832C246.362 163.832 246.805 163.975 247.176 164.262C247.547 164.548 247.83 164.965 248.025 165.512C248.221 166.055 248.318 166.706 248.318 167.465C248.318 168.233 248.221 168.889 248.025 169.433C247.833 169.976 247.552 170.39 247.181 170.673C246.813 170.956 246.368 171.098 245.848 171.098ZM244.227 167.465C244.227 168.07 244.29 168.586 244.417 169.013C244.547 169.439 244.733 169.763 244.974 169.984C245.215 170.206 245.506 170.316 245.848 170.316C246.186 170.316 246.476 170.206 246.717 169.984C246.961 169.763 247.145 169.439 247.269 169.013C247.396 168.586 247.459 168.07 247.459 167.465C247.459 166.859 247.396 166.342 247.269 165.912C247.142 165.482 246.958 165.155 246.717 164.931C246.476 164.706 246.186 164.594 245.848 164.594C245.509 164.594 245.219 164.706 244.979 164.931C244.738 165.155 244.552 165.482 244.422 165.912C244.292 166.342 244.227 166.859 244.227 167.465ZM249.48 170.355L251.893 167.816C252.208 167.478 252.449 167.206 252.615 167.001C252.785 166.793 252.913 166.592 253.001 166.4C253.089 166.208 253.133 166.007 253.133 165.795C253.133 165.557 253.071 165.349 252.947 165.17C252.824 164.988 252.654 164.846 252.439 164.745C252.228 164.644 251.99 164.594 251.727 164.594C251.45 164.594 251.207 164.651 250.999 164.765C250.791 164.875 250.63 165.03 250.516 165.229C250.405 165.427 250.35 165.658 250.35 165.922H249.52C249.516 165.512 249.611 165.149 249.803 164.833C249.998 164.517 250.267 164.271 250.608 164.096C250.95 163.92 251.333 163.832 251.756 163.832C252.176 163.832 252.552 163.918 252.884 164.091C253.219 164.263 253.481 164.499 253.67 164.799C253.859 165.098 253.953 165.43 253.953 165.795C253.95 166.065 253.899 166.324 253.802 166.571C253.707 166.815 253.545 167.087 253.313 167.387C253.082 167.686 252.755 168.054 252.332 168.49L250.711 170.16V170.219H254.08V171H249.49L249.48 170.355ZM255.027 168.832L258.211 163.93H259.295V168.783H260.281V169.555H259.295V171H258.455V169.555H255.027V168.832ZM258.455 168.783V165.043H258.367L255.975 168.725V168.783H258.455Z" fill="#626369"/>
<circle cx="23" cy="139" r="2" fill="#2E4FF5"/>
<circle cx="70" cy="140" r="2" fill="#2E4FF5"/>
<circle cx="117" cy="135" r="2" fill="#2E4FF5"/>
<circle cx="164" cy="121" r="2" fill="#2E4FF5"/>
<circle cx="211" cy="89" r="2" fill="#2E4FF5"/>
<circle cx="249" cy="28" r="2" fill="#2E4FF5"/>
<line opacity="0.3" x1="210.75" y1="151" x2="210.75" y2="12" stroke="#3A56E4" stroke-width="0.5" stroke-dasharray="4 4"/>
<line opacity="0.3" x1="163.75" y1="151" x2="163.75" y2="12" stroke="#3A56E4" stroke-width="0.5" stroke-dasharray="4 4"/>
<line opacity="0.3" x1="116.75" y1="151" x2="116.75" y2="12" stroke="#3A56E4" stroke-width="0.5" stroke-dasharray="4 4"/>
<line opacity="0.3" x1="69.75" y1="151" x2="69.75" y2="12" stroke="#3A56E4" stroke-width="0.5" stroke-dasharray="4 4"/>
<path d="M14.9956 123.127C14.4243 123.127 13.9059 123.019 13.4404 122.803C12.9749 122.587 12.6047 122.287 12.3296 121.902C12.0545 121.517 11.9064 121.083 11.8853 120.601H13.2437C13.269 120.859 13.3621 121.091 13.5229 121.299C13.6838 121.502 13.8932 121.663 14.1514 121.781C14.4095 121.9 14.6909 121.959 14.9956 121.959C15.3638 121.959 15.6917 121.876 15.9795 121.711C16.2715 121.546 16.5 121.32 16.665 121.032C16.8301 120.74 16.9126 120.414 16.9126 120.055C16.9126 119.687 16.828 119.356 16.6587 119.064C16.4894 118.768 16.2546 118.538 15.9541 118.373C15.6536 118.203 15.313 118.117 14.9321 118.112C14.1535 118.112 13.616 118.383 13.3198 118.925H11.9995L12.5962 113.809H17.8013V115.002H13.7515L13.4468 117.579H13.5356C13.7303 117.393 13.98 117.245 14.2847 117.135C14.5936 117.021 14.9194 116.961 15.2622 116.957C15.8335 116.957 16.3477 117.09 16.8047 117.357C17.2617 117.619 17.6193 117.983 17.8774 118.449C18.1398 118.91 18.271 119.433 18.271 120.017C18.271 120.613 18.1313 121.149 17.8521 121.623C17.5728 122.092 17.1834 122.46 16.6841 122.727C16.189 122.994 15.6261 123.127 14.9956 123.127ZM23.019 123.127C22.3927 123.127 21.8299 123.021 21.3306 122.81C20.8354 122.598 20.444 122.302 20.1562 121.921C19.8727 121.536 19.7225 121.096 19.7056 120.601H21.1274C21.1444 120.863 21.2354 121.096 21.4004 121.299C21.5697 121.498 21.7939 121.652 22.0732 121.762C22.3525 121.868 22.6636 121.921 23.0063 121.921C23.3745 121.921 23.7025 121.86 23.9902 121.737C24.2822 121.61 24.5107 121.432 24.6758 121.204C24.8408 120.975 24.9233 120.715 24.9233 120.423C24.9233 120.118 24.8408 119.849 24.6758 119.617C24.515 119.38 24.278 119.196 23.9648 119.064C23.6517 118.929 23.2814 118.861 22.854 118.861H22.0669V117.719H22.854C23.201 117.719 23.5078 117.66 23.7744 117.541C24.0452 117.418 24.2547 117.247 24.4028 117.027C24.5552 116.807 24.6313 116.551 24.6313 116.259C24.6313 115.979 24.5658 115.734 24.4346 115.522C24.3034 115.311 24.1172 115.146 23.876 115.027C23.6348 114.909 23.3534 114.85 23.0317 114.85C22.7228 114.85 22.4329 114.905 22.1621 115.015C21.8955 115.125 21.6797 115.283 21.5146 115.491C21.3496 115.694 21.2629 115.929 21.2544 116.195H19.9087C19.9214 115.709 20.0674 115.275 20.3467 114.894C20.6302 114.509 21.009 114.211 21.4829 113.999C21.9569 113.787 22.4774 113.682 23.0444 113.682C23.6326 113.682 24.1489 113.794 24.5933 114.018C25.0376 114.242 25.3804 114.547 25.6216 114.932C25.8628 115.313 25.9813 115.73 25.9771 116.183C25.9813 116.699 25.8374 117.137 25.5454 117.497C25.2534 117.856 24.8556 118.1 24.3521 118.227V118.29C24.7668 118.349 25.1222 118.478 25.4185 118.677C25.7189 118.872 25.9453 119.124 26.0977 119.433C26.2542 119.742 26.3325 120.089 26.3325 120.474C26.3325 120.977 26.1886 121.432 25.9009 121.838C25.6174 122.24 25.2217 122.556 24.7139 122.784C24.2103 123.013 23.6453 123.127 23.019 123.127ZM30.9917 123.127C30.4204 123.127 29.902 123.019 29.4365 122.803C28.971 122.587 28.6007 122.287 28.3257 121.902C28.0506 121.517 27.9025 121.083 27.8813 120.601H29.2397C29.2651 120.859 29.3582 121.091 29.519 121.299C29.6799 121.502 29.8893 121.663 30.1475 121.781C30.4056 121.9 30.687 121.959 30.9917 121.959C31.3599 121.959 31.6878 121.876 31.9756 121.711C32.2676 121.546 32.4961 121.32 32.6611 121.032C32.8262 120.74 32.9087 120.414 32.9087 120.055C32.9087 119.687 32.8241 119.356 32.6548 119.064C32.4855 118.768 32.2507 118.538 31.9502 118.373C31.6497 118.203 31.3091 118.117 30.9282 118.112C30.1496 118.112 29.6121 118.383 29.3159 118.925H27.9956L28.5923 113.809H33.7974V115.002H29.7476L29.4429 117.579H29.5317C29.7264 117.393 29.9761 117.245 30.2808 117.135C30.5897 117.021 30.9155 116.961 31.2583 116.957C31.8296 116.957 32.3438 117.09 32.8008 117.357C33.2578 117.619 33.6154 117.983 33.8735 118.449C34.1359 118.91 34.2671 119.433 34.2671 120.017C34.2671 120.613 34.1274 121.149 33.8481 121.623C33.5688 122.092 33.1795 122.46 32.6802 122.727C32.1851 122.994 31.6222 123.127 30.9917 123.127Z" fill="#516EFF"/>
<path d="M227.977 11.0801L232.039 4.80859H233.766V11.0293H235.022V12.21H233.766V14H232.445V12.21H227.977V11.0801ZM232.445 11.0293V6.47168H232.344L229.449 10.9531V11.0293H232.445ZM236.432 12.9844L239.618 9.77246C240.003 9.37467 240.297 9.05306 240.5 8.80762C240.704 8.55794 240.858 8.31673 240.964 8.08398C241.074 7.84701 241.129 7.59733 241.129 7.33496C241.129 7.03874 241.055 6.77848 240.907 6.5542C240.759 6.32992 240.556 6.15641 240.297 6.03369C240.039 5.91097 239.749 5.84961 239.428 5.84961C239.089 5.84961 238.793 5.91732 238.539 6.05273C238.289 6.18815 238.095 6.37858 237.955 6.62402C237.82 6.86523 237.752 7.14876 237.752 7.47461H236.432C236.427 6.92448 236.554 6.43783 236.812 6.01465C237.071 5.59147 237.43 5.26351 237.892 5.03076C238.353 4.79801 238.873 4.68164 239.453 4.68164C240.033 4.68164 240.549 4.7959 241.002 5.02441C241.459 5.2487 241.814 5.55973 242.068 5.95752C242.326 6.35531 242.458 6.80176 242.462 7.29688C242.458 7.64811 242.39 7.98665 242.259 8.3125C242.128 8.63411 241.903 8.99382 241.586 9.3916C241.269 9.78516 240.82 10.2676 240.24 10.8389L238.374 12.7305V12.8066H242.614V14H236.432V12.9844ZM247.362 14.127C246.656 14.127 246.048 13.9429 245.541 13.5747C245.037 13.2023 244.652 12.6628 244.385 11.9561C244.119 11.2493 243.985 10.3988 243.985 9.4043C243.985 8.41406 244.119 7.56559 244.385 6.85889C244.656 6.15218 245.043 5.61263 245.547 5.24023C246.055 4.86784 246.66 4.68164 247.362 4.68164C248.061 4.68164 248.661 4.86784 249.165 5.24023C249.673 5.61263 250.062 6.15218 250.333 6.85889C250.604 7.56559 250.739 8.41406 250.739 9.4043C250.739 10.3988 250.604 11.2515 250.333 11.9624C250.066 12.6691 249.681 13.2065 249.178 13.5747C248.674 13.9429 248.069 14.127 247.362 14.127ZM245.382 9.43604C245.382 10.1851 245.46 10.8198 245.617 11.3403C245.773 11.8608 246 12.2544 246.296 12.521C246.592 12.7876 246.948 12.9209 247.362 12.9209C247.777 12.9209 248.132 12.7876 248.429 12.521C248.725 12.2502 248.951 11.8524 249.108 11.3276C249.264 10.8029 249.343 10.1618 249.343 9.4043C249.343 8.65104 249.262 8.00993 249.102 7.48096C248.945 6.95199 248.719 6.55208 248.422 6.28125C248.126 6.00618 247.773 5.86654 247.362 5.8623C246.948 5.8623 246.592 6.00195 246.296 6.28125C246 6.55632 245.773 6.96257 245.617 7.5C245.46 8.0332 245.382 8.67855 245.382 9.43604ZM255.386 14.127C254.679 14.127 254.072 13.9429 253.564 13.5747C253.06 13.2023 252.675 12.6628 252.409 11.9561C252.142 11.2493 252.009 10.3988 252.009 9.4043C252.009 8.41406 252.142 7.56559 252.409 6.85889C252.68 6.15218 253.067 5.61263 253.57 5.24023C254.078 4.86784 254.683 4.68164 255.386 4.68164C256.084 4.68164 256.685 4.86784 257.188 5.24023C257.696 5.61263 258.086 6.15218 258.356 6.85889C258.627 7.56559 258.763 8.41406 258.763 9.4043C258.763 10.3988 258.627 11.2515 258.356 11.9624C258.09 12.6691 257.705 13.2065 257.201 13.5747C256.698 13.9429 256.092 14.127 255.386 14.127ZM253.405 9.43604C253.405 10.1851 253.484 10.8198 253.64 11.3403C253.797 11.8608 254.023 12.2544 254.319 12.521C254.616 12.7876 254.971 12.9209 255.386 12.9209C255.8 12.9209 256.156 12.7876 256.452 12.521C256.748 12.2502 256.975 11.8524 257.131 11.3276C257.288 10.8029 257.366 10.1618 257.366 9.4043C257.366 8.65104 257.286 8.00993 257.125 7.48096C256.968 6.95199 256.742 6.55208 256.446 6.28125C256.15 6.00618 255.796 5.86654 255.386 5.8623C254.971 5.8623 254.616 6.00195 254.319 6.28125C254.023 6.55632 253.797 6.96257 253.64 7.5C253.484 8.0332 253.405 8.67855 253.405 9.43604ZM265.58 10.0137H260.261V4.70703H265.58V10.0137ZM264.399 9.06152V5.68457H261.441V9.06152H264.399ZM261.543 11.2324H262.749V13.8604H269.236V14.8379H261.543V11.2324ZM267.548 3.69141H268.754V7.09375H270.404V8.10938H268.754V12.0322H267.548V3.69141Z" fill="#516EFF"/>
<path d="M229.401 21.3318C230.051 21.054 230.758 21.5834 230.674 22.285L226.699 55.4123C226.587 56.3473 225.307 56.5278 224.941 55.6604L220.086 44.1653C176.721 125.231 76.7861 134.889 31.1196 129.305L31.9902 78.5488C69.3764 93.1652 155.534 104.441 210.131 37.6612L198.899 36.2378C197.971 36.1198 197.793 34.8511 198.653 34.4826L229.401 21.3318Z" fill="url(#paint1_linear_2174_73897)" fill-opacity="0.8"/>
<rect x="93" y="18" width="69" height="28" rx="8" fill="#516EFF"/>
<path d="M107.73 37.1367C106.988 37.1367 106.32 37.016 105.728 36.7744C105.14 36.5329 104.679 36.2002 104.347 35.7764C104.014 35.348 103.848 34.8672 103.848 34.334C103.848 33.9284 103.943 33.5501 104.135 33.1992C104.326 32.8483 104.588 32.5589 104.921 32.3311C105.258 32.0986 105.63 31.9505 106.035 31.8867V31.8184C105.68 31.75 105.365 31.6133 105.092 31.4082C104.818 31.1986 104.606 30.9411 104.456 30.6357C104.306 30.3258 104.23 29.9909 104.23 29.6309C104.23 29.125 104.381 28.6693 104.682 28.2637C104.982 27.8581 105.399 27.5413 105.933 27.3135C106.466 27.0811 107.065 26.9648 107.73 26.9648C108.396 26.9648 108.995 27.0811 109.528 27.3135C110.062 27.5413 110.481 27.8581 110.786 28.2637C111.091 28.6693 111.244 29.125 111.244 29.6309C111.244 29.9863 111.164 30.319 111.005 30.6289C110.85 30.9388 110.636 31.1986 110.362 31.4082C110.089 31.6133 109.781 31.75 109.439 31.8184V31.8867C109.84 31.9505 110.205 32.0986 110.533 32.3311C110.866 32.5589 111.128 32.8483 111.319 33.1992C111.515 33.5501 111.613 33.9284 111.613 34.334C111.613 34.8672 111.447 35.348 111.114 35.7764C110.782 36.2002 110.319 36.5329 109.727 36.7744C109.139 37.016 108.473 37.1367 107.73 37.1367ZM105.994 34.1289C105.994 34.4069 106.065 34.6553 106.206 34.874C106.352 35.0928 106.557 35.2637 106.821 35.3867C107.086 35.5052 107.389 35.5645 107.73 35.5645C108.072 35.5645 108.375 35.5052 108.64 35.3867C108.904 35.2637 109.107 35.0928 109.248 34.874C109.394 34.6553 109.467 34.4069 109.467 34.1289C109.467 33.8464 109.392 33.5934 109.241 33.3701C109.095 33.1423 108.89 32.9645 108.626 32.8369C108.362 32.7048 108.063 32.6387 107.73 32.6387C107.398 32.6387 107.099 32.7048 106.835 32.8369C106.571 32.9645 106.363 33.1423 106.213 33.3701C106.067 33.5934 105.994 33.8464 105.994 34.1289ZM106.24 29.8359C106.24 30.0957 106.302 30.3281 106.425 30.5332C106.552 30.7383 106.73 30.9001 106.958 31.0186C107.186 31.1325 107.443 31.1895 107.73 31.1895C108.018 31.1895 108.275 31.1325 108.503 31.0186C108.731 30.9001 108.909 30.7383 109.036 30.5332C109.168 30.3281 109.234 30.0957 109.234 29.8359C109.234 29.5807 109.168 29.3551 109.036 29.1592C108.909 28.9587 108.731 28.8037 108.503 28.6943C108.28 28.5804 108.022 28.5234 107.73 28.5234C107.439 28.5234 107.179 28.5804 106.951 28.6943C106.723 28.8037 106.548 28.9587 106.425 29.1592C106.302 29.3551 106.24 29.5807 106.24 29.8359ZM114.607 29.7266H116.303V26.9238H117.916V35.3047H112.967V26.9238H114.607V29.7266ZM116.303 33.9102V31.0938H114.607V33.9102H116.303ZM118.955 25.9941H120.609V30.5605H121.73V25.8164H123.398V38.2578H121.73V31.9824H120.609V37.6836H118.955V25.9941ZM139.285 32.9531H127.938V31.5449H139.285V32.9531ZM128.443 29.7266C129.191 29.6582 129.84 29.5283 130.392 29.3369C130.948 29.1455 131.387 28.9154 131.711 28.6465C132.035 28.3776 132.246 28.0905 132.347 27.7852H128.977V26.3906H138.26V27.7852H134.862C134.958 28.0859 135.168 28.3708 135.491 28.6396C135.819 28.9085 136.261 29.141 136.817 29.3369C137.378 29.5283 138.041 29.6582 138.807 29.7266L138.191 31.0938C137.043 30.9844 136.075 30.7269 135.286 30.3213C134.502 29.9111 133.939 29.3962 133.598 28.7764C133.26 29.3962 132.7 29.9111 131.916 30.3213C131.137 30.7269 130.171 30.9844 129.018 31.0938L128.443 29.7266ZM129.236 35.9609C129.236 35.4779 129.41 35.0632 129.756 34.7168C130.107 34.3704 130.608 34.1061 131.26 33.9238C131.916 33.7415 132.695 33.6504 133.598 33.6504C134.495 33.6504 135.268 33.7415 135.915 33.9238C136.562 34.1061 137.059 34.3704 137.405 34.7168C137.752 35.0632 137.927 35.4779 137.932 35.9609C137.927 36.4486 137.752 36.8633 137.405 37.2051C137.059 37.5514 136.562 37.8135 135.915 37.9912C135.268 38.1689 134.495 38.2578 133.598 38.2578C132.695 38.2578 131.916 38.1689 131.26 37.9912C130.608 37.8135 130.107 37.5514 129.756 37.2051C129.41 36.8633 129.236 36.4486 129.236 35.9609ZM131.014 35.9609C131.009 36.2799 131.221 36.5169 131.649 36.6719C132.082 36.8268 132.732 36.9043 133.598 36.9043C135.316 36.9043 136.177 36.5898 136.182 35.9609C136.177 35.3229 135.316 35.0039 133.598 35.0039C132.732 35.0039 132.082 35.0837 131.649 35.2432C131.221 35.3981 131.009 35.6374 131.014 35.9609ZM149.854 30.5879H151.617V32.0234H149.854V38.2305H148.104V25.8164H149.854V30.5879ZM139.9 34.7441C141.382 34.0013 142.521 33.1217 143.318 32.1055C144.116 31.0892 144.597 29.8906 144.761 28.5098H140.611V27.0879H146.531C146.522 29.0703 146.076 30.8203 145.191 32.3379C144.312 33.8555 142.876 35.1042 140.885 36.084L139.9 34.7441Z" fill="#D7DDFF"/>
<path d="M157.533 49.4263C157.75 50.2343 156.938 50.9351 156.17 50.6029L145.534 46L156.5 45.5689L157.533 49.4263Z" fill="#516EFF"/>
<defs>
<linearGradient id="paint0_linear_2174_73897" x1="236.5" y1="37.5" x2="54.5" y2="141.5" gradientUnits="userSpaceOnUse">
<stop stop-color="#2E4FF5" stop-opacity="0.7"/>
<stop offset="1" stop-color="#1B2E8F" stop-opacity="0.5"/>
</linearGradient>
<linearGradient id="paint1_linear_2174_73897" x1="219.074" y1="37.6393" x2="40.9198" y2="113.97" gradientUnits="userSpaceOnUse">
<stop stop-color="#2C4FFF"/>
<stop offset="1" stop-color="#314299" stop-opacity="0"/>
</linearGradient>
</defs>
</svg>
