<svg width="280" height="176" viewBox="0 0 280 176" fill="none" xmlns="http://www.w3.org/2000/svg">
<g clip-path="url(#clip0_2111_40269)">
<g filter="url(#filter0_d_2111_40269)">
<circle cx="72.5" cy="96.5" r="59.5" fill="url(#paint0_linear_2111_40269)"/>
</g>
<path d="M48.6016 80.5938H47.1172V70.3438H48.6016V80.5938ZM37.0703 77.4375C37.7891 77.1719 38.4115 76.7865 38.9375 76.2812C39.4635 75.776 39.8646 75.1953 40.1406 74.5391C40.4219 73.8828 40.5651 73.2031 40.5703 72.5V71.1094H42.0859V72.5C42.0859 73.1823 42.224 73.8333 42.5 74.4531C42.776 75.0729 43.1745 75.6198 43.6953 76.0938C44.2161 76.5677 44.8307 76.9271 45.5391 77.1719L44.7734 78.3594C43.9714 78.0625 43.276 77.6302 42.6875 77.0625C42.1042 76.4896 41.6536 75.8203 41.3359 75.0547C41.0234 75.8776 40.5677 76.599 39.9688 77.2188C39.375 77.8333 38.6745 78.2969 37.8672 78.6094L37.0703 77.4375ZM39.4453 79.625H40.9453V82.8281H49.0234V84.0312H39.4453V79.625ZM59.0078 75.4531H53.3828V77.0312H59.3672V78.2031H56.2422V80.3438C57.7266 80.2812 58.9922 80.1927 60.0391 80.0781L60.1484 81.1719C57.9245 81.5104 55.2292 81.6797 52.0625 81.6797L51.0859 81.6719L50.8984 80.4375C52.3516 80.4375 53.6432 80.4245 54.7734 80.3984V78.2031H51.8984V74.3438H57.5391V72.7812H51.8828V71.5938H59.0078V75.4531ZM60.9141 70.3281H62.3984V84.3594H60.9141V70.3281ZM75.6484 73.5625H77.6953V74.7812H75.6484V77.9844H74.1641V70.2812H75.6484V73.5625ZM64.6641 71.5156H68.1016V70.2031H69.5859V71.5156H73.0078V72.6875H64.6641V71.5156ZM65.4297 75.5156C65.4297 75.0521 65.5677 74.6484 65.8438 74.3047C66.125 73.9557 66.5234 73.6875 67.0391 73.5C67.5547 73.3125 68.1536 73.2188 68.8359 73.2188C69.5182 73.2188 70.1146 73.3125 70.625 73.5C71.1354 73.6875 71.5286 73.9531 71.8047 74.2969C72.0859 74.6406 72.2266 75.0469 72.2266 75.5156C72.2266 75.9844 72.0859 76.3906 71.8047 76.7344C71.5286 77.0781 71.1354 77.3411 70.625 77.5234C70.1146 77.7057 69.5182 77.7969 68.8359 77.7969C68.1536 77.7969 67.5547 77.7057 67.0391 77.5234C66.5234 77.3411 66.125 77.0781 65.8438 76.7344C65.5677 76.3906 65.4297 75.9844 65.4297 75.5156ZM66.6016 78.6406H75.6484V81.8906H68.0859V83.0625H76.1328V84.1875H66.6328V80.8438H74.1797V79.75H66.6016V78.6406ZM66.8672 75.5156C66.862 75.8906 67.0365 76.1849 67.3906 76.3984C67.7448 76.612 68.2266 76.7188 68.8359 76.7188C69.4401 76.7188 69.9219 76.612 70.2812 76.3984C70.6458 76.1849 70.8307 75.8906 70.8359 75.5156C70.8307 75.1406 70.6458 74.8438 70.2812 74.625C69.9219 74.401 69.4401 74.2865 68.8359 74.2812C68.2266 74.2865 67.7448 74.401 67.3906 74.625C67.0365 74.8438 66.862 75.1406 66.8672 75.5156ZM89.4766 78.0938H82.9297V71.5625H89.4766V78.0938ZM88.0234 76.9219V72.7656H84.3828V76.9219H88.0234ZM84.5078 79.5938H85.9922V82.8281H93.9766V84.0312H84.5078V79.5938ZM91.8984 70.3125H93.3828V74.5H95.4141V75.75H93.3828V80.5781H91.8984V70.3125ZM107.211 74.8438H109.242V76.0781H107.211V80.8125H105.727V70.3438H107.211V74.8438ZM96.2266 71.9688H99.6641V70.3281H101.148V71.9688H104.57V73.1719H96.2266V71.9688ZM96.9922 76.4844C96.9922 75.9583 97.1328 75.4948 97.4141 75.0938C97.7005 74.6927 98.1016 74.3854 98.6172 74.1719C99.1328 73.9531 99.7266 73.8438 100.398 73.8438C101.065 73.8438 101.654 73.9531 102.164 74.1719C102.68 74.3854 103.078 74.6927 103.359 75.0938C103.646 75.4948 103.789 75.9583 103.789 76.4844C103.789 77.0052 103.646 77.4635 103.359 77.8594C103.078 78.2552 102.68 78.5625 102.164 78.7812C101.654 79 101.065 79.1094 100.398 79.1094C99.7266 79.1094 99.1328 79 98.6172 78.7812C98.1016 78.5625 97.7005 78.2552 97.4141 77.8594C97.1328 77.4635 96.9922 77.0052 96.9922 76.4844ZM98.3359 79.9844H99.8203V82.8281H107.805V84.0312H98.3359V79.9844ZM98.4297 76.4844C98.4245 76.7812 98.5026 77.0417 98.6641 77.2656C98.8255 77.4844 99.0521 77.6536 99.3438 77.7734C99.6406 77.8932 99.9844 77.9531 100.375 77.9531C100.979 77.9531 101.466 77.8229 101.836 77.5625C102.206 77.3021 102.393 76.9427 102.398 76.4844C102.393 76.026 102.208 75.6641 101.844 75.3984C101.479 75.1276 100.997 74.9896 100.398 74.9844C100.003 74.9844 99.6536 75.0469 99.3516 75.1719C99.0547 75.2917 98.8255 75.4661 98.6641 75.6953C98.5026 75.9193 98.4245 76.1823 98.4297 76.4844ZM55.5156 102.516H54.0312V92.3438H55.5156V102.516ZM44.1875 96.75C44.1875 96.0885 44.3516 95.4948 44.6797 94.9688C45.0078 94.4427 45.4557 94.0312 46.0234 93.7344C46.5911 93.4323 47.224 93.2812 47.9219 93.2812C48.6198 93.2812 49.25 93.4323 49.8125 93.7344C50.3802 94.0312 50.8255 94.4427 51.1484 94.9688C51.4766 95.4948 51.6406 96.0885 51.6406 96.75C51.6406 97.4219 51.4766 98.0234 51.1484 98.5547C50.8255 99.0807 50.3802 99.4922 49.8125 99.7891C49.25 100.086 48.6198 100.234 47.9219 100.234C47.224 100.234 46.5911 100.086 46.0234 99.7891C45.4557 99.4922 45.0078 99.0807 44.6797 98.5547C44.3516 98.0234 44.1875 97.4219 44.1875 96.75ZM45.6406 96.75C45.6406 97.1823 45.737 97.5651 45.9297 97.8984C46.1276 98.2266 46.401 98.4818 46.75 98.6641C47.099 98.8464 47.4896 98.9375 47.9219 98.9375C48.349 98.9375 48.7344 98.8464 49.0781 98.6641C49.4219 98.4818 49.6927 98.2266 49.8906 97.8984C50.0885 97.5651 50.1875 97.1823 50.1875 96.75C50.1875 96.3281 50.0885 95.9531 49.8906 95.625C49.6927 95.2917 49.4219 95.0339 49.0781 94.8516C48.7344 94.6693 48.349 94.5781 47.9219 94.5781C47.4896 94.5781 47.099 94.6693 46.75 94.8516C46.401 95.0339 46.1276 95.2917 45.9297 95.625C45.737 95.9531 45.6406 96.3281 45.6406 96.75ZM46.3594 101.484H47.8594V104.828H55.9375V106.031H46.3594V101.484ZM70.5 99.3125H64.8438V100.531H68.8906V103.812H60.7344V105.047H69.2812V106.188H59.2812V102.734H67.4219V101.672H59.2656V100.531H63.3594V99.3125H57.7344V98.125H70.5V99.3125ZM59.375 92.7812H68.8594V97.0938H59.375V92.7812ZM67.375 95.9219V93.9531H60.8281V95.9219H67.375ZM80.3281 95.8906C80.3229 96.7083 80.4688 97.5182 80.7656 98.3203C81.0625 99.1224 81.4792 99.8411 82.0156 100.477C82.5521 101.107 83.1615 101.589 83.8438 101.922L82.9219 103.109C82.1719 102.714 81.5078 102.148 80.9297 101.414C80.3568 100.674 79.9141 99.8307 79.6016 98.8828C79.2839 99.8932 78.8255 100.794 78.2266 101.586C77.6328 102.372 76.9427 102.969 76.1562 103.375L75.2344 102.172C75.9375 101.833 76.5625 101.333 77.1094 100.672C77.6562 100.01 78.0807 99.2604 78.3828 98.4219C78.6901 97.5833 78.8438 96.7396 78.8438 95.8906V93.5H80.3281V95.8906ZM84.8906 92.3281H86.375V97.9062H88.625V99.1719H86.375V106.328H84.8906V92.3281ZM94.5 95.2344C94.5 95.7917 94.6432 96.3255 94.9297 96.8359C95.2214 97.3464 95.6354 97.7969 96.1719 98.1875C96.7083 98.5729 97.3333 98.8646 98.0469 99.0625L97.3438 100.219C96.5312 99.9896 95.8203 99.6328 95.2109 99.1484C94.6016 98.6641 94.1328 98.0911 93.8047 97.4297C93.487 98.1693 93.0234 98.8125 92.4141 99.3594C91.8047 99.901 91.0833 100.302 90.25 100.562L89.5156 99.3906C90.224 99.1771 90.8411 98.8594 91.3672 98.4375C91.8984 98.0156 92.3047 97.5286 92.5859 96.9766C92.8724 96.4193 93.0156 95.8385 93.0156 95.2344V95.1562H89.9062V93.9688H93.0156V92.3281H94.5156V93.9688H97.5938V95.1562H94.5V95.2344ZM91.4375 103.719C91.4375 103.177 91.6276 102.714 92.0078 102.328C92.3932 101.943 92.9427 101.648 93.6562 101.445C94.3698 101.242 95.2188 101.141 96.2031 101.141C97.1771 101.141 98.0208 101.242 98.7344 101.445C99.4479 101.648 99.9948 101.943 100.375 102.328C100.76 102.714 100.953 103.177 100.953 103.719C100.953 104.26 100.76 104.724 100.375 105.109C99.9948 105.5 99.4479 105.794 98.7344 105.992C98.026 106.195 97.1823 106.297 96.2031 106.297C95.2188 106.297 94.3672 106.195 93.6484 105.992C92.9349 105.794 92.388 105.5 92.0078 105.109C91.6276 104.724 91.4375 104.26 91.4375 103.719ZM92.9375 103.719C92.9375 104.177 93.2214 104.531 93.7891 104.781C94.3568 105.026 95.1615 105.151 96.2031 105.156C97.2448 105.151 98.0521 105.023 98.625 104.773C99.2031 104.523 99.4896 104.172 99.4844 103.719C99.4844 103.427 99.3568 103.177 99.1016 102.969C98.8464 102.755 98.4766 102.594 97.9922 102.484C97.5078 102.37 96.9271 102.312 96.25 102.312C95.1927 102.312 94.375 102.435 93.7969 102.68C93.224 102.924 92.9375 103.271 92.9375 103.719ZM99.4219 92.3438H100.906V100.875H99.4219V92.3438Z" fill="#F6F6F9"/>
<path d="M57.4863 128.127C56.86 128.127 56.2972 128.021 55.7979 127.81C55.3027 127.598 54.9113 127.302 54.6235 126.921C54.34 126.536 54.1898 126.096 54.1729 125.601H55.5947C55.6117 125.863 55.7026 126.096 55.8677 126.299C56.0369 126.498 56.2612 126.652 56.5405 126.762C56.8198 126.868 57.1309 126.921 57.4736 126.921C57.8418 126.921 58.1698 126.86 58.4575 126.737C58.7495 126.61 58.978 126.432 59.1431 126.204C59.3081 125.975 59.3906 125.715 59.3906 125.423C59.3906 125.118 59.3081 124.849 59.1431 124.617C58.9823 124.38 58.7453 124.196 58.4321 124.064C58.119 123.929 57.7487 123.861 57.3213 123.861H56.5342V122.719H57.3213C57.6683 122.719 57.9751 122.66 58.2417 122.541C58.5125 122.418 58.722 122.247 58.8701 122.027C59.0225 121.807 59.0986 121.551 59.0986 121.259C59.0986 120.979 59.033 120.734 58.9019 120.522C58.7707 120.311 58.5845 120.146 58.3433 120.027C58.1021 119.909 57.8206 119.85 57.499 119.85C57.1901 119.85 56.9002 119.905 56.6294 120.015C56.3628 120.125 56.147 120.283 55.9819 120.491C55.8169 120.694 55.7301 120.929 55.7217 121.195H54.376C54.3887 120.709 54.5347 120.275 54.814 119.894C55.0975 119.509 55.4762 119.211 55.9502 118.999C56.4242 118.787 56.9447 118.682 57.5117 118.682C58.0999 118.682 58.6162 118.794 59.0605 119.018C59.5049 119.242 59.8477 119.547 60.0889 119.932C60.3301 120.313 60.4486 120.73 60.4443 121.183C60.4486 121.699 60.3047 122.137 60.0127 122.497C59.7207 122.856 59.3229 123.1 58.8193 123.227V123.29C59.234 123.349 59.5895 123.478 59.8857 123.677C60.1862 123.872 60.4126 124.124 60.5649 124.433C60.7215 124.742 60.7998 125.089 60.7998 125.474C60.7998 125.977 60.6559 126.432 60.3682 126.838C60.0846 127.24 59.689 127.556 59.1812 127.784C58.6776 128.013 58.1126 128.127 57.4863 128.127ZM65.5479 128.127C64.8919 128.127 64.3058 128.017 63.7896 127.797C63.2775 127.577 62.8776 127.272 62.5898 126.883C62.3063 126.489 62.1667 126.045 62.1709 125.55C62.1667 125.165 62.2471 124.807 62.4121 124.477C62.5814 124.143 62.812 123.868 63.104 123.652C63.4002 123.432 63.7282 123.294 64.0879 123.239V123.188C63.7747 123.117 63.4997 122.983 63.2627 122.789C63.0257 122.59 62.8416 122.346 62.7104 122.059C62.5793 121.771 62.5137 121.462 62.5137 121.132C62.5137 120.666 62.6427 120.247 62.9009 119.875C63.1632 119.503 63.5251 119.211 63.9863 118.999C64.4476 118.787 64.9681 118.682 65.5479 118.682C66.1191 118.682 66.6333 118.787 67.0903 118.999C67.5516 119.211 67.9134 119.503 68.1758 119.875C68.4382 120.247 68.5693 120.666 68.5693 121.132C68.5693 121.462 68.5016 121.771 68.3662 122.059C68.235 122.346 68.0488 122.59 67.8076 122.789C67.5706 122.983 67.2998 123.117 66.9951 123.188V123.239C67.3506 123.294 67.6743 123.432 67.9663 123.652C68.2625 123.868 68.4953 124.143 68.6646 124.477C68.8381 124.807 68.9248 125.165 68.9248 125.55C68.9248 126.045 68.7788 126.489 68.4868 126.883C68.1991 127.272 67.7992 127.577 67.2871 127.797C66.7751 128.017 66.1953 128.127 65.5479 128.127ZM63.5928 125.448C63.5885 125.749 63.6647 126.013 63.8213 126.242C63.9779 126.47 64.2043 126.65 64.5005 126.781C64.8009 126.908 65.1501 126.972 65.5479 126.972C65.9414 126.972 66.2842 126.908 66.5762 126.781C66.8724 126.654 67.1009 126.477 67.2617 126.248C67.4225 126.015 67.5029 125.749 67.5029 125.448C67.5029 125.135 67.4183 124.856 67.249 124.61C67.0798 124.361 66.847 124.166 66.5508 124.026C66.2546 123.882 65.9202 123.811 65.5479 123.811C65.1712 123.811 64.8327 123.882 64.5322 124.026C64.2318 124.166 63.999 124.361 63.834 124.61C63.6689 124.86 63.5885 125.139 63.5928 125.448ZM63.8721 121.259C63.8721 121.542 63.944 121.794 64.0879 122.014C64.2318 122.234 64.4285 122.406 64.6782 122.528C64.9321 122.647 65.222 122.706 65.5479 122.706C65.8652 122.706 66.1488 122.647 66.3984 122.528C66.6523 122.406 66.8491 122.234 66.9888 122.014C67.1284 121.794 67.1982 121.542 67.1982 121.259C67.1982 120.975 67.1284 120.726 66.9888 120.51C66.8534 120.29 66.6608 120.12 66.4111 120.002C66.1615 119.883 65.8737 119.824 65.5479 119.824C65.2178 119.824 64.9258 119.883 64.6719 120.002C64.418 120.12 64.2212 120.29 64.0815 120.51C63.9419 120.726 63.8721 120.975 63.8721 121.259ZM70.9941 128.089C70.8333 128.089 70.6831 128.049 70.5435 127.968C70.408 127.888 70.298 127.78 70.2134 127.645C70.133 127.509 70.0928 127.361 70.0928 127.2C70.0928 127.035 70.133 126.883 70.2134 126.743C70.2938 126.604 70.4017 126.493 70.5371 126.413C70.6768 126.328 70.8291 126.286 70.9941 126.286C71.1549 126.286 71.3031 126.326 71.4385 126.407C71.5781 126.487 71.6882 126.597 71.7686 126.737C71.8532 126.876 71.8955 127.027 71.8955 127.188C71.8955 127.348 71.8532 127.499 71.7686 127.638C71.6882 127.774 71.5781 127.884 71.4385 127.968C71.3031 128.049 71.1549 128.089 70.9941 128.089ZM73.3174 125.08L77.3799 118.809H79.1064V125.029H80.3633V126.21H79.1064V128H77.7861V126.21H73.3174V125.08ZM77.7861 125.029V120.472H77.6846L74.79 124.953V125.029H77.7861ZM83.8799 123.176C83.4694 123.18 83.1182 123.087 82.8262 122.896C82.5342 122.706 82.3141 122.439 82.166 122.097C82.0179 121.75 81.946 121.348 81.9502 120.891C81.946 120.442 82.02 120.046 82.1724 119.704C82.3247 119.357 82.5469 119.09 82.8389 118.904C83.1309 118.713 83.4779 118.618 83.8799 118.618C84.2904 118.618 84.6395 118.713 84.9272 118.904C85.2192 119.09 85.4372 119.354 85.5811 119.697C85.7292 120.04 85.8053 120.438 85.8096 120.891C85.8053 121.352 85.7271 121.756 85.5747 122.103C85.4266 122.446 85.2087 122.712 84.9209 122.903C84.6331 123.089 84.2861 123.18 83.8799 123.176ZM89.3008 118.809H90.4561L84.1465 128H82.9912L89.3008 118.809ZM82.9912 120.891C82.9954 121.322 83.0716 121.663 83.2197 121.913C83.3721 122.158 83.5921 122.283 83.8799 122.287C84.1719 122.283 84.3898 122.158 84.5337 121.913C84.6818 121.667 84.7559 121.326 84.7559 120.891C84.7559 120.463 84.6839 120.127 84.54 119.881C84.4004 119.632 84.1846 119.507 83.8926 119.507C83.6006 119.507 83.3784 119.632 83.2261 119.881C83.0737 120.127 82.9954 120.463 82.9912 120.891ZM87.752 125.905C87.7477 125.452 87.8218 125.055 87.9741 124.712C88.1307 124.365 88.3529 124.096 88.6406 123.906C88.9326 123.715 89.2796 123.62 89.6816 123.62C90.0921 123.62 90.4412 123.715 90.729 123.906C91.0168 124.092 91.2347 124.359 91.3828 124.706C91.5309 125.048 91.6071 125.448 91.6113 125.905C91.6071 126.362 91.5288 126.762 91.3765 127.105C91.2284 127.448 91.0104 127.714 90.7227 127.905C90.4349 128.095 90.0879 128.19 89.6816 128.19C89.2712 128.19 88.9199 128.095 88.6279 127.905C88.3402 127.714 88.1201 127.448 87.9678 127.105C87.8197 126.758 87.7477 126.358 87.752 125.905ZM88.793 125.905C88.7972 126.333 88.8734 126.671 89.0215 126.921C89.1738 127.166 89.3939 127.289 89.6816 127.289C89.9736 127.289 90.1916 127.166 90.3354 126.921C90.4836 126.675 90.5576 126.337 90.5576 125.905C90.5576 125.469 90.4857 125.129 90.3418 124.883C90.1979 124.634 89.9779 124.509 89.6816 124.509C89.3981 124.513 89.1802 124.64 89.0278 124.89C88.8755 125.139 88.7972 125.478 88.793 125.905Z" fill="#D7DDFF"/>
<rect x="132" y="14" width="80" height="80" rx="40" fill="#3A56E4"/>
<path d="M163.92 48.125H162.807V40.5078H163.92V48.125ZM155.389 46.1094C156.217 45.8594 156.936 45.541 157.545 45.1543C158.158 44.7676 158.645 44.3242 159.004 43.8242C159.363 43.3242 159.578 42.7852 159.648 42.207H155.963V41.293H160.861C160.861 42.1992 160.66 43.0273 160.258 43.7773C159.855 44.5234 159.279 45.1699 158.529 45.7168C157.779 46.2598 156.881 46.6875 155.834 47L155.389 46.1094ZM157.018 47.4922H158.143V49.8711H164.178V50.7734H157.018V47.4922ZM167.916 47.7969H172.873V46.4844H173.963V50.8672H166.814V46.4844H167.916V47.7969ZM165.596 44.7266H172.621C172.734 44.1914 172.807 43.707 172.838 43.2734C172.869 42.8398 172.885 42.3711 172.885 41.8672H166.803V40.9531H173.986V41.75V42.0605C173.986 42.502 173.969 42.9316 173.934 43.3496C173.898 43.7676 173.826 44.2266 173.717 44.7266H175.205V45.6289H165.596V44.7266ZM172.873 49.9531V48.6641H167.916V49.9531H172.873ZM179.693 42.0664C179.693 42.5547 179.795 43.0195 179.998 43.4609C180.201 43.8984 180.494 44.2832 180.877 44.6152C181.26 44.9473 181.713 45.1992 182.236 45.3711L181.627 46.2383C181.053 46.0273 180.557 45.7266 180.139 45.3359C179.721 44.9453 179.396 44.4844 179.166 43.9531C178.936 44.5625 178.596 45.0918 178.146 45.541C177.697 45.9902 177.158 46.3281 176.529 46.5547L175.932 45.6641C176.482 45.4766 176.957 45.2051 177.355 44.8496C177.754 44.4902 178.059 44.0762 178.27 43.6074C178.48 43.1387 178.588 42.6406 178.592 42.1133V41.082H179.693V42.0664ZM177.654 48.9922C177.654 48.5703 177.795 48.209 178.076 47.9082C178.361 47.6074 178.77 47.3789 179.301 47.2227C179.836 47.0664 180.471 46.9883 181.205 46.9883C181.936 46.9883 182.566 47.0664 183.098 47.2227C183.629 47.3789 184.037 47.6074 184.322 47.9082C184.611 48.209 184.756 48.5703 184.756 48.9922C184.756 49.4102 184.611 49.7676 184.322 50.0645C184.037 50.3613 183.629 50.5859 183.098 50.7383C182.566 50.8945 181.936 50.9727 181.205 50.9727C180.471 50.9727 179.836 50.8945 179.301 50.7383C178.77 50.5859 178.361 50.3613 178.076 50.0645C177.795 49.7676 177.654 49.4102 177.654 48.9922ZM178.756 48.9922C178.756 49.2227 178.85 49.4199 179.037 49.584C179.229 49.748 179.506 49.875 179.869 49.9648C180.232 50.0508 180.666 50.0938 181.17 50.0938C181.951 50.0938 182.559 49.998 182.992 49.8066C183.43 49.6152 183.65 49.3438 183.654 48.9922C183.65 48.6328 183.432 48.3535 182.998 48.1543C182.568 47.9551 181.971 47.8555 181.205 47.8555C180.432 47.8555 179.828 47.9551 179.395 48.1543C178.965 48.3535 178.752 48.6328 178.756 48.9922ZM181.393 42.6289H183.607V40.4961H184.721V46.6953H183.607V43.543H181.393V42.6289ZM187.287 52.4258H186.291L186.912 49.1914H188.225L187.287 52.4258ZM149.729 64.0938C150.482 64.0938 151.139 64.1719 151.697 64.3281C152.256 64.4805 152.686 64.7031 152.986 64.9961C153.291 65.2891 153.443 65.6367 153.443 66.0391C153.443 66.4414 153.291 66.7871 152.986 67.0762C152.686 67.3691 152.256 67.5918 151.697 67.7441C151.139 67.8965 150.482 67.9727 149.729 67.9727C148.982 67.9727 148.33 67.8965 147.771 67.7441C147.217 67.5918 146.789 67.3691 146.488 67.0762C146.188 66.7871 146.037 66.4414 146.037 66.0391C146.037 65.6367 146.188 65.2891 146.488 64.9961C146.789 64.7031 147.217 64.4805 147.771 64.3281C148.326 64.1719 148.979 64.0938 149.729 64.0938ZM145.006 62.3242H148.838V60.3555H149.928V62.3242H154.557V63.2266H145.006V62.3242ZM146.119 58.0117H153.361V58.8906V59.2012C153.361 59.6543 153.342 60.0742 153.303 60.4609C153.268 60.8438 153.189 61.25 153.068 61.6797L151.979 61.5625C152.104 61.0859 152.182 60.6582 152.213 60.2793C152.244 59.8965 152.26 59.4375 152.26 58.9023H146.119V58.0117ZM147.15 66.0391C147.146 66.2617 147.248 66.4551 147.455 66.6191C147.666 66.7793 147.965 66.9023 148.352 66.9883C148.742 67.0742 149.201 67.1172 149.729 67.1172C150.264 67.1172 150.727 67.0742 151.117 66.9883C151.508 66.9023 151.809 66.7793 152.02 66.6191C152.23 66.4551 152.338 66.2617 152.342 66.0391C152.338 65.8125 152.23 65.6172 152.02 65.4531C151.809 65.2852 151.508 65.1582 151.117 65.0723C150.727 64.9824 150.264 64.9375 149.729 64.9375C149.201 64.9375 148.742 64.9824 148.352 65.0723C147.965 65.1582 147.666 65.2852 147.455 65.4531C147.248 65.6172 147.146 65.8125 147.15 66.0391ZM164.975 66.7422H155.365V65.793H159.584V63.5547H156.209V62.6758H157.779V59.3711H156.186V58.4688H164.096V59.3711H162.49V62.6758H164.061V63.5547H160.686V65.793H164.975V66.7422ZM161.4 62.6758V59.3711H158.881V62.6758H161.4ZM173.986 59.9688H175.51V60.8945H173.986V63.4258H172.873V57.4961H173.986V59.9688ZM165.689 62.6875C166.521 62.4688 167.238 62.1816 167.84 61.8262C168.445 61.4668 168.92 61.0547 169.264 60.5898C169.607 60.1211 169.814 59.6133 169.885 59.0664H166.182V58.1523H171.092C171.092 59.0391 170.896 59.8398 170.506 60.5547C170.115 61.2695 169.551 61.8828 168.812 62.3945C168.074 62.9023 167.182 63.2969 166.135 63.5781L165.689 62.6875ZM167.26 63.8711H173.986V67.8555H167.26V63.8711ZM172.885 66.9648V64.7969H168.373V66.9648H172.885ZM188.646 66.6836H179.037V65.7695H183.279V63.2852H184.393V65.7695H188.646V66.6836ZM179.482 62.8047C180.131 62.6953 180.744 62.4727 181.322 62.1367C181.9 61.8008 182.365 61.3926 182.717 60.9121C183.068 60.4277 183.244 59.9258 183.244 59.4062V59.3125H179.834V58.3984H187.814V59.3125H184.404V59.4062C184.404 59.9258 184.58 60.4238 184.932 60.9004C185.287 61.377 185.758 61.7812 186.344 62.1133C186.934 62.4414 187.561 62.6562 188.225 62.7578L187.779 63.6367C187.209 63.5312 186.664 63.3555 186.145 63.1094C185.629 62.8594 185.17 62.5508 184.768 62.1836C184.365 61.8164 184.053 61.4062 183.83 60.9531C183.611 61.4102 183.303 61.8262 182.904 62.2012C182.506 62.5723 182.051 62.8848 181.539 63.1387C181.031 63.3926 180.498 63.5742 179.939 63.6836L179.482 62.8047ZM193.135 59.0664C193.135 59.5547 193.236 60.0195 193.439 60.4609C193.643 60.8984 193.936 61.2832 194.318 61.6152C194.701 61.9473 195.154 62.1992 195.678 62.3711L195.068 63.2383C194.494 63.0273 193.998 62.7266 193.58 62.3359C193.162 61.9453 192.838 61.4844 192.607 60.9531C192.377 61.5625 192.037 62.0918 191.588 62.541C191.139 62.9902 190.6 63.3281 189.971 63.5547L189.373 62.6641C189.924 62.4766 190.398 62.2051 190.797 61.8496C191.195 61.4902 191.5 61.0762 191.711 60.6074C191.922 60.1387 192.029 59.6406 192.033 59.1133V58.082H193.135V59.0664ZM191.096 65.9922C191.096 65.5703 191.236 65.209 191.518 64.9082C191.803 64.6074 192.211 64.3789 192.742 64.2227C193.277 64.0664 193.912 63.9883 194.646 63.9883C195.377 63.9883 196.008 64.0664 196.539 64.2227C197.07 64.3789 197.479 64.6074 197.764 64.9082C198.053 65.209 198.197 65.5703 198.197 65.9922C198.197 66.4102 198.053 66.7676 197.764 67.0645C197.479 67.3613 197.07 67.5859 196.539 67.7383C196.008 67.8945 195.377 67.9727 194.646 67.9727C193.912 67.9727 193.277 67.8945 192.742 67.7383C192.211 67.5859 191.803 67.3613 191.518 67.0645C191.236 66.7676 191.096 66.4102 191.096 65.9922ZM192.197 65.9922C192.197 66.2227 192.291 66.4199 192.479 66.584C192.67 66.748 192.947 66.875 193.311 66.9648C193.674 67.0508 194.107 67.0938 194.611 67.0938C195.393 67.0938 196 66.998 196.434 66.8066C196.871 66.6152 197.092 66.3438 197.096 65.9922C197.092 65.6328 196.873 65.3535 196.439 65.1543C196.01 64.9551 195.412 64.8555 194.646 64.8555C193.873 64.8555 193.27 64.9551 192.836 65.1543C192.406 65.3535 192.193 65.6328 192.197 65.9922ZM194.834 59.6289H197.049V57.4961H198.162V63.6953H197.049V60.543H194.834V59.6289Z" fill="#AEBCFF"/>
<rect x="158" y="101" width="60" height="60" rx="30" fill="url(#paint1_linear_2111_40269)"/>
<path d="M177.072 133.447H176.145V127.09H177.072V133.447ZM169.992 129.844C169.992 129.43 170.095 129.059 170.3 128.73C170.505 128.402 170.785 128.145 171.14 127.959C171.494 127.77 171.89 127.676 172.326 127.676C172.762 127.676 173.156 127.77 173.508 127.959C173.863 128.145 174.141 128.402 174.343 128.73C174.548 129.059 174.65 129.43 174.65 129.844C174.65 130.264 174.548 130.64 174.343 130.972C174.141 131.3 173.863 131.558 173.508 131.743C173.156 131.929 172.762 132.021 172.326 132.021C171.89 132.021 171.494 131.929 171.14 131.743C170.785 131.558 170.505 131.3 170.3 130.972C170.095 130.64 169.992 130.264 169.992 129.844ZM170.9 129.844C170.9 130.114 170.961 130.353 171.081 130.562C171.205 130.767 171.376 130.926 171.594 131.04C171.812 131.154 172.056 131.211 172.326 131.211C172.593 131.211 172.834 131.154 173.049 131.04C173.264 130.926 173.433 130.767 173.557 130.562C173.68 130.353 173.742 130.114 173.742 129.844C173.742 129.58 173.68 129.346 173.557 129.141C173.433 128.932 173.264 128.771 173.049 128.657C172.834 128.543 172.593 128.486 172.326 128.486C172.056 128.486 171.812 128.543 171.594 128.657C171.376 128.771 171.205 128.932 171.081 129.141C170.961 129.346 170.9 129.58 170.9 129.844ZM171.35 132.803H172.287V134.893H177.336V135.645H171.35V132.803ZM181.643 128.34C181.643 128.743 181.729 129.129 181.901 129.497C182.077 129.862 182.328 130.184 182.653 130.464C182.982 130.744 183.368 130.957 183.811 131.104L183.342 131.836C182.837 131.663 182.399 131.406 182.028 131.064C181.657 130.723 181.372 130.321 181.174 129.858C180.975 130.353 180.687 130.786 180.31 131.157C179.932 131.525 179.488 131.8 178.977 131.982L178.508 131.26C178.954 131.1 179.341 130.872 179.67 130.576C179.999 130.277 180.251 129.933 180.427 129.546C180.603 129.159 180.692 128.757 180.695 128.34V127.5H181.643V128.34ZM179.787 132.754H185.715V135.83H184.787V133.506H179.787V132.754ZM184.787 127.08H185.715V132.334H184.787V127.08ZM197.541 132.959H193.967V135.83H193.059V132.959H189.533V132.227H197.541V132.959ZM190.529 127.432H191.447V128.574H195.607V127.432H196.535V131.23H190.529V127.432ZM195.607 130.488V129.316H191.447V130.488H195.607ZM205.451 128.174H202.79C202.823 128.46 202.972 128.727 203.239 128.975C203.506 129.222 203.858 129.432 204.294 129.604C204.733 129.774 205.22 129.886 205.754 129.941L205.412 130.674C204.908 130.615 204.439 130.508 204.006 130.352C203.573 130.192 203.197 129.992 202.878 129.751C202.562 129.507 202.326 129.232 202.17 128.926C202.014 129.232 201.778 129.507 201.462 129.751C201.146 129.992 200.772 130.192 200.339 130.352C199.909 130.508 199.442 130.615 198.938 130.674L198.605 129.941C199.133 129.886 199.615 129.774 200.051 129.604C200.49 129.432 200.842 129.222 201.105 128.975C201.372 128.724 201.521 128.457 201.55 128.174H198.918V127.422H205.451V128.174ZM198.186 131.436H201.711V130.166H202.629V131.436H206.184V132.188H198.186V131.436ZM199.074 132.969H205.188V135.83H204.25V133.711H199.074V132.969Z" fill="#7581BD"/>
<circle cx="241.5" cy="95.5" r="24.5" fill="url(#paint2_linear_2111_40269)" fill-opacity="0.6"/>
<path d="M230.975 93.8301H230.037V85.0801H230.975V93.8301ZM223.787 91.4863C224.933 90.9395 225.804 90.2738 226.399 89.4893C226.995 88.7048 227.339 87.7949 227.43 86.7598H224.207V86.0176H228.367C228.367 87.3717 228.043 88.5745 227.396 89.626C226.751 90.6774 225.711 91.5482 224.275 92.2383L223.787 91.4863ZM236.805 85.4121C236.805 85.7409 236.943 86.0501 237.22 86.3398C237.496 86.6263 237.871 86.8688 238.343 87.0674C238.815 87.2627 239.334 87.3913 239.9 87.4531L239.578 88.1562C238.849 88.0684 238.193 87.8779 237.61 87.585C237.031 87.2887 236.603 86.9209 236.326 86.4814C236.046 86.9209 235.617 87.2871 235.037 87.5801C234.458 87.873 233.807 88.0651 233.084 88.1562L232.762 87.4531C233.328 87.3913 233.847 87.2627 234.319 87.0674C234.791 86.8688 235.166 86.6263 235.442 86.3398C235.719 86.0501 235.857 85.7409 235.857 85.4121V85.1191H236.805V85.4121ZM232.342 88.6641H240.32V89.4062H236.785V90.1875H239.314V92.2578H234.217V93.0293H239.559V93.7422H233.309V91.584H238.396V90.9004H233.299V90.1875H235.857V89.4062H232.342V88.6641ZM241.775 95.0215H240.945L241.463 92.3262H242.557L241.775 95.0215ZM250.936 93.8301H249.998V85.0801H250.936V93.8301ZM243.748 91.4863C244.894 90.9395 245.765 90.2738 246.36 89.4893C246.956 88.7048 247.299 87.7949 247.391 86.7598H244.168V86.0176H248.328C248.328 87.3717 248.004 88.5745 247.356 89.626C246.712 90.6774 245.672 91.5482 244.236 92.2383L243.748 91.4863ZM253.65 86.8086H255.838V85.5293H256.756V87.1797H258.67V85.0801H259.598V89.8555H258.67V87.9512H256.756V89.5625H252.723V85.5293H253.65V86.8086ZM255.838 88.8105V87.5312H253.65V88.8105H255.838ZM253.895 90.2656H254.812V91.252H258.67V90.2656H259.588V93.7031H253.895V90.2656ZM258.67 92.9512V91.9746H254.812V92.9512H258.67ZM241.678 104.852H238.104V107.82H237.195V104.852H233.67V104.1H241.678V104.852ZM234.676 99.5488H240.672V102.986H234.676V99.5488ZM239.744 102.264V100.291H235.584V102.264H239.744ZM245.545 101.658C245.545 102.14 245.643 102.618 245.838 103.094C246.036 103.569 246.31 103.994 246.658 104.368C247.01 104.743 247.407 105.024 247.85 105.213L247.342 105.936C246.831 105.711 246.378 105.371 245.984 104.915C245.59 104.459 245.291 103.937 245.086 103.348C244.881 103.979 244.581 104.544 244.188 105.042C243.794 105.54 243.344 105.913 242.84 106.16L242.303 105.428C242.736 105.226 243.126 104.925 243.475 104.524C243.826 104.121 244.101 103.667 244.3 103.162C244.502 102.658 244.604 102.156 244.607 101.658V100.73H242.605V99.959H247.537V100.73H245.545V101.658ZM248.641 99.0801H249.568V107.83H248.641V99.0801Z" fill="#7581BD"/>
</g>
<defs>
<filter id="filter0_d_2111_40269" x="-17" y="7" width="179" height="179" filterUnits="userSpaceOnUse" color-interpolation-filters="sRGB">
<feFlood flood-opacity="0" result="BackgroundImageFix"/>
<feColorMatrix in="SourceAlpha" type="matrix" values="0 0 0 0 0 0 0 0 0 0 0 0 0 0 0 0 0 0 127 0" result="hardAlpha"/>
<feOffset/>
<feGaussianBlur stdDeviation="15"/>
<feComposite in2="hardAlpha" operator="out"/>
<feColorMatrix type="matrix" values="0 0 0 0 0.254902 0 0 0 0 0.372549 0 0 0 0 0.972549 0 0 0 0.3 0"/>
<feBlend mode="normal" in2="BackgroundImageFix" result="effect1_dropShadow_2111_40269"/>
<feBlend mode="normal" in="SourceGraphic" in2="effect1_dropShadow_2111_40269" result="shape"/>
</filter>
<linearGradient id="paint0_linear_2111_40269" x1="62.5" y1="37" x2="84.5" y2="159.5" gradientUnits="userSpaceOnUse">
<stop stop-color="#788FFF"/>
<stop offset="0.445776" stop-color="#4E6BFF"/>
<stop offset="1" stop-color="#3B5AF5"/>
</linearGradient>
<linearGradient id="paint1_linear_2111_40269" x1="188" y1="101" x2="188" y2="161" gradientUnits="userSpaceOnUse">
<stop stop-color="#394062"/>
<stop offset="1" stop-color="#333851"/>
</linearGradient>
<linearGradient id="paint2_linear_2111_40269" x1="235.766" y1="73.6064" x2="253.489" y2="122.606" gradientUnits="userSpaceOnUse">
<stop stop-color="#313652"/>
<stop offset="1" stop-color="#6E79B8" stop-opacity="0"/>
</linearGradient>
<clipPath id="clip0_2111_40269">
<rect width="280" height="176" fill="white"/>
</clipPath>
</defs>
</svg>
