<svg width="280" height="176" viewBox="0 0 280 176" fill="none" xmlns="http://www.w3.org/2000/svg">
<g clip-path="url(#clip0_2111_40214)">
<path d="M236 27V76C236 77.1046 235.105 78 234 78H195" stroke="#516EFF" stroke-opacity="0.6" stroke-dasharray="2 2"/>
<path d="M215.134 89.9093C215.134 76.7046 211.658 63.7325 205.055 52.2968C198.453 40.8612 188.957 31.3649 177.521 24.7626C166.085 18.1602 153.113 14.6843 139.909 14.6843C126.704 14.6843 113.732 18.1602 102.296 24.7626L124.864 63.8506C129.438 61.2097 134.627 59.8193 139.909 59.8193C145.19 59.8193 150.379 61.2097 154.954 63.8506C159.528 66.4916 163.326 70.2901 165.967 74.8643C168.608 79.4386 169.999 84.6274 169.999 89.9093H215.134Z" fill="#1A1E33"/>
<path d="M90.287 146.446C78.5296 136.127 70.2818 122.399 66.6918 107.172C63.1017 91.946 64.348 75.9793 70.2571 61.4944L112.048 78.5433C109.685 84.3372 109.186 90.7239 110.622 96.8144C112.058 102.905 115.357 108.396 120.06 112.524L90.287 146.446Z" fill="#394062"/>
<path d="M69.9014 62.3826C73.8367 52.3741 79.8722 43.3257 87.601 35.8476C95.3298 28.3694 104.572 22.6354 114.705 19.0321L129.828 61.5583C125.774 62.9996 122.077 65.2932 118.986 68.2845C115.894 71.2757 113.48 74.8951 111.906 78.8985L69.9014 62.3826Z" fill="#313652"/>
<g filter="url(#filter0_d_2111_40214)">
<path d="M139.909 14.5466C154.224 14.5466 168.241 18.6311 180.316 26.3204C192.39 34.0097 202.02 44.9847 208.074 57.9563C214.129 70.928 216.356 85.3579 214.495 99.5514C212.634 113.745 206.762 127.113 197.568 138.085L162.972 109.097C166.65 104.708 168.999 99.3609 169.743 93.6835C170.488 88.0061 169.597 82.2341 167.175 77.0455C164.753 71.8568 160.901 67.4668 156.072 64.3911C151.242 61.3154 145.635 59.6816 139.909 59.6816L139.909 14.5466Z" fill="#516EFF"/>
</g>
<path d="M197.544 138.114C191.042 145.866 183.043 152.226 174.026 156.815C165.01 161.403 155.16 164.126 145.066 164.82C134.973 165.513 124.843 164.164 115.283 160.852C105.723 157.54 96.9294 152.333 89.4284 145.544L119.717 112.081C122.717 114.796 126.234 116.879 130.058 118.204C133.882 119.528 137.934 120.068 141.972 119.791C146.009 119.513 149.949 118.424 153.556 116.589C157.163 114.753 160.362 112.209 162.963 109.109L197.544 138.114Z" fill="#3A56E4"/>
<path d="M176.741 81.1367C176.067 81.1367 175.461 81.0228 174.923 80.7949C174.39 80.5671 173.968 80.248 173.658 79.8379C173.353 79.4232 173.191 78.9492 173.173 78.416H174.704C174.722 78.6986 174.82 78.9492 174.998 79.168C175.18 79.3822 175.422 79.5485 175.723 79.667C176.023 79.7809 176.358 79.8379 176.728 79.8379C177.124 79.8379 177.477 79.7718 177.787 79.6396C178.102 79.5029 178.348 79.3115 178.525 79.0654C178.703 78.8193 178.792 78.5391 178.792 78.2246C178.792 77.8965 178.703 77.6071 178.525 77.3564C178.352 77.1012 178.097 76.903 177.76 76.7617C177.423 76.6159 177.024 76.543 176.563 76.543H175.716V75.3125H176.563C176.937 75.3125 177.268 75.2487 177.555 75.1211C177.846 74.9889 178.072 74.8044 178.231 74.5674C178.396 74.3304 178.478 74.0547 178.478 73.7402C178.478 73.4395 178.407 73.1751 178.266 72.9473C178.124 72.7194 177.924 72.5417 177.664 72.4141C177.404 72.2865 177.101 72.2227 176.755 72.2227C176.422 72.2227 176.11 72.2819 175.818 72.4004C175.531 72.5189 175.299 72.6898 175.121 72.9131C174.943 73.1318 174.85 73.3848 174.841 73.6719H173.392C173.405 73.1478 173.562 72.6807 173.863 72.2705C174.169 71.8558 174.576 71.5345 175.087 71.3066C175.597 71.0788 176.158 70.9648 176.769 70.9648C177.402 70.9648 177.958 71.0856 178.437 71.3271C178.915 71.5687 179.284 71.8968 179.544 72.3115C179.804 72.7217 179.931 73.1706 179.927 73.6582C179.931 74.2142 179.776 74.6859 179.462 75.0732C179.147 75.4606 178.719 75.7227 178.177 75.8594V75.9277C178.623 75.9915 179.006 76.1305 179.325 76.3447C179.649 76.5544 179.893 76.8255 180.057 77.1582C180.225 77.4909 180.31 77.8646 180.31 78.2793C180.31 78.8216 180.155 79.3115 179.845 79.749C179.539 80.182 179.113 80.5215 178.566 80.7676C178.024 81.0137 177.416 81.1367 176.741 81.1367ZM185.573 81.1367C184.903 81.1367 184.286 80.9886 183.721 80.6924C183.156 80.3916 182.693 79.888 182.333 79.1816C181.978 78.4707 181.8 77.5365 181.8 76.3789C181.8 75.2441 181.957 74.2712 182.271 73.46C182.586 72.6442 183.033 72.0244 183.611 71.6006C184.195 71.1768 184.881 70.9648 185.669 70.9648C186.266 70.9648 186.801 71.0811 187.275 71.3135C187.749 71.5413 188.134 71.8604 188.431 72.2705C188.727 72.6807 188.914 73.1478 188.991 73.6719H187.501C187.396 73.2526 187.184 72.9176 186.865 72.667C186.551 72.4118 186.152 72.2819 185.669 72.2773C185.163 72.2773 184.728 72.4209 184.363 72.708C184.003 72.9906 183.728 73.3984 183.536 73.9316C183.345 74.4648 183.249 75.1029 183.249 75.8457H183.358C183.627 75.4264 183.983 75.1006 184.425 74.8682C184.871 74.6312 185.364 74.5104 185.901 74.5059C186.485 74.5059 187.02 74.6471 187.508 74.9297C187.995 75.2077 188.381 75.5951 188.663 76.0918C188.946 76.584 189.087 77.14 189.087 77.7598C189.087 78.3932 188.939 78.9674 188.643 79.4824C188.351 79.9974 187.938 80.403 187.405 80.6992C186.872 80.9909 186.261 81.1367 185.573 81.1367ZM183.427 77.8008C183.427 78.1654 183.518 78.5072 183.7 78.8262C183.887 79.1452 184.14 79.4004 184.459 79.5918C184.778 79.7832 185.136 79.8789 185.532 79.8789C185.924 79.8789 186.28 79.7855 186.599 79.5986C186.918 79.4072 187.168 79.1543 187.351 78.8398C187.533 78.5208 187.624 78.1699 187.624 77.7871C187.624 77.4134 187.535 77.0693 187.357 76.7549C187.18 76.4404 186.934 76.1921 186.619 76.0098C186.309 75.8275 185.961 75.7363 185.573 75.7363C185.181 75.7363 184.821 75.832 184.493 76.0234C184.165 76.2103 183.905 76.4632 183.714 76.7822C183.527 77.0967 183.431 77.4362 183.427 77.8008ZM191.206 81.0957C191.033 81.0957 190.871 81.0524 190.721 80.9658C190.575 80.8792 190.456 80.763 190.365 80.6172C190.279 80.4714 190.235 80.3118 190.235 80.1387C190.235 79.9609 190.279 79.7969 190.365 79.6465C190.452 79.4961 190.568 79.3776 190.714 79.291C190.864 79.1999 191.028 79.1543 191.206 79.1543C191.379 79.1543 191.539 79.1976 191.685 79.2842C191.835 79.3708 191.953 79.4893 192.04 79.6396C192.131 79.79 192.177 79.9518 192.177 80.125C192.177 80.2982 192.131 80.46 192.04 80.6104C191.953 80.7562 191.835 80.8747 191.685 80.9658C191.539 81.0524 191.379 81.0957 191.206 81.0957ZM196.483 81H194.966V72.6055H194.911L192.546 74.1504V72.7148L195.007 71.1016H196.483V81ZM201.269 75.8047C200.826 75.8092 200.448 75.709 200.134 75.5039C199.819 75.2988 199.582 75.0117 199.423 74.6426C199.263 74.2689 199.186 73.8359 199.19 73.3438C199.186 72.8607 199.266 72.4346 199.43 72.0654C199.594 71.6917 199.833 71.4046 200.147 71.2041C200.462 70.999 200.836 70.8965 201.269 70.8965C201.711 70.8965 202.087 70.999 202.396 71.2041C202.711 71.4046 202.946 71.6895 203.101 72.0586C203.26 72.4277 203.342 72.8561 203.347 73.3438C203.342 73.8405 203.258 74.2757 203.094 74.6494C202.934 75.0186 202.7 75.3057 202.39 75.5107C202.08 75.7113 201.706 75.8092 201.269 75.8047ZM207.106 71.1016H208.351L201.556 81H200.312L207.106 71.1016ZM200.312 73.3438C200.316 73.8086 200.398 74.1755 200.558 74.4443C200.722 74.7087 200.959 74.8431 201.269 74.8477C201.583 74.8431 201.818 74.7087 201.973 74.4443C202.132 74.18 202.212 73.8132 202.212 73.3438C202.212 72.8835 202.134 72.5212 201.979 72.2568C201.829 71.988 201.597 71.8535 201.282 71.8535C200.968 71.8535 200.729 71.988 200.564 72.2568C200.4 72.5212 200.316 72.8835 200.312 73.3438ZM205.438 78.7441C205.434 78.2565 205.514 77.8281 205.678 77.459C205.846 77.0853 206.086 76.7959 206.396 76.5908C206.71 76.3857 207.084 76.2832 207.517 76.2832C207.959 76.2832 208.335 76.3857 208.645 76.5908C208.954 76.7913 209.189 77.0785 209.349 77.4521C209.508 77.8213 209.59 78.252 209.595 78.7441C209.59 79.2363 209.506 79.667 209.342 80.0361C209.182 80.4053 208.948 80.6924 208.638 80.8975C208.328 81.1025 207.954 81.2051 207.517 81.2051C207.075 81.2051 206.696 81.1025 206.382 80.8975C206.072 80.6924 205.835 80.4053 205.671 80.0361C205.511 79.6624 205.434 79.2318 205.438 78.7441ZM206.56 78.7441C206.564 79.2044 206.646 79.569 206.806 79.8379C206.97 80.1022 207.207 80.2344 207.517 80.2344C207.831 80.2344 208.066 80.1022 208.221 79.8379C208.38 79.5736 208.46 79.209 208.46 78.7441C208.46 78.2747 208.382 77.9079 208.228 77.6436C208.073 77.3747 207.836 77.2402 207.517 77.2402C207.211 77.2448 206.977 77.3815 206.812 77.6504C206.648 77.9193 206.564 78.2839 206.56 78.7441Z" fill="#E9EDFF"/>
<path d="M125.263 143.984L128.45 140.772C128.835 140.375 129.129 140.053 129.332 139.808C129.535 139.558 129.69 139.317 129.795 139.084C129.905 138.847 129.96 138.597 129.96 138.335C129.96 138.039 129.886 137.778 129.738 137.554C129.59 137.33 129.387 137.156 129.129 137.034C128.871 136.911 128.581 136.85 128.259 136.85C127.921 136.85 127.625 136.917 127.371 137.053C127.121 137.188 126.926 137.379 126.787 137.624C126.651 137.865 126.583 138.149 126.583 138.475H125.263C125.259 137.924 125.386 137.438 125.644 137.015C125.902 136.591 126.262 136.264 126.723 136.031C127.184 135.798 127.705 135.682 128.285 135.682C128.864 135.682 129.381 135.796 129.833 136.024C130.291 136.249 130.646 136.56 130.9 136.958C131.158 137.355 131.289 137.802 131.293 138.297C131.289 138.648 131.222 138.987 131.09 139.312C130.959 139.634 130.735 139.994 130.417 140.392C130.1 140.785 129.652 141.268 129.072 141.839L127.206 143.73V143.807H131.446V145H125.263V143.984ZM136.118 145.127C135.546 145.127 135.028 145.019 134.562 144.803C134.097 144.587 133.727 144.287 133.452 143.902C133.177 143.517 133.028 143.083 133.007 142.601H134.366C134.391 142.859 134.484 143.091 134.645 143.299C134.806 143.502 135.015 143.663 135.273 143.781C135.532 143.9 135.813 143.959 136.118 143.959C136.486 143.959 136.814 143.876 137.102 143.711C137.394 143.546 137.622 143.32 137.787 143.032C137.952 142.74 138.035 142.414 138.035 142.055C138.035 141.687 137.95 141.356 137.781 141.064C137.611 140.768 137.377 140.538 137.076 140.373C136.776 140.203 136.435 140.117 136.054 140.112C135.276 140.112 134.738 140.383 134.442 140.925H133.122L133.718 135.809H138.923V137.002H134.874L134.569 139.579H134.658C134.852 139.393 135.102 139.245 135.407 139.135C135.716 139.021 136.042 138.961 136.384 138.957C136.956 138.957 137.47 139.09 137.927 139.357C138.384 139.619 138.741 139.983 139 140.449C139.262 140.91 139.393 141.433 139.393 142.017C139.393 142.613 139.253 143.149 138.974 143.623C138.695 144.092 138.306 144.46 137.806 144.727C137.311 144.994 136.748 145.127 136.118 145.127ZM141.45 145.089C141.289 145.089 141.139 145.049 140.999 144.968C140.864 144.888 140.754 144.78 140.669 144.645C140.589 144.509 140.548 144.361 140.548 144.2C140.548 144.035 140.589 143.883 140.669 143.743C140.749 143.604 140.857 143.493 140.993 143.413C141.132 143.328 141.285 143.286 141.45 143.286C141.611 143.286 141.759 143.326 141.894 143.407C142.034 143.487 142.144 143.597 142.224 143.737C142.309 143.876 142.351 144.027 142.351 144.188C142.351 144.348 142.309 144.499 142.224 144.638C142.144 144.774 142.034 144.884 141.894 144.968C141.759 145.049 141.611 145.089 141.45 145.089ZM146.985 145.127C146.363 145.127 145.789 144.989 145.265 144.714C144.74 144.435 144.31 143.967 143.976 143.312C143.646 142.651 143.481 141.784 143.481 140.709C143.481 139.655 143.627 138.752 143.919 137.999C144.211 137.241 144.626 136.666 145.163 136.272C145.705 135.878 146.342 135.682 147.074 135.682C147.628 135.682 148.125 135.79 148.565 136.005C149.006 136.217 149.363 136.513 149.638 136.894C149.913 137.275 150.087 137.709 150.159 138.195H148.775C148.678 137.806 148.481 137.495 148.185 137.262C147.893 137.025 147.522 136.905 147.074 136.9C146.604 136.9 146.2 137.034 145.861 137.3C145.527 137.563 145.271 137.941 145.093 138.437C144.916 138.932 144.827 139.524 144.827 140.214H144.928C145.178 139.825 145.508 139.522 145.918 139.306C146.333 139.086 146.79 138.974 147.29 138.97C147.831 138.97 148.328 139.101 148.781 139.363C149.234 139.621 149.592 139.981 149.854 140.442C150.116 140.899 150.248 141.416 150.248 141.991C150.248 142.579 150.11 143.113 149.835 143.591C149.564 144.069 149.181 144.446 148.686 144.721C148.191 144.992 147.624 145.127 146.985 145.127ZM144.992 142.029C144.992 142.368 145.076 142.685 145.246 142.981C145.419 143.278 145.654 143.515 145.95 143.692C146.246 143.87 146.579 143.959 146.947 143.959C147.311 143.959 147.641 143.872 147.937 143.699C148.233 143.521 148.466 143.286 148.635 142.994C148.805 142.698 148.889 142.372 148.889 142.017C148.889 141.67 148.807 141.35 148.642 141.058C148.477 140.766 148.248 140.535 147.956 140.366C147.668 140.197 147.345 140.112 146.985 140.112C146.621 140.112 146.287 140.201 145.982 140.379C145.677 140.552 145.436 140.787 145.258 141.083C145.085 141.375 144.996 141.691 144.992 142.029ZM153.84 140.176C153.43 140.18 153.079 140.087 152.787 139.896C152.495 139.706 152.275 139.439 152.126 139.097C151.978 138.75 151.906 138.348 151.911 137.891C151.906 137.442 151.98 137.046 152.133 136.704C152.285 136.357 152.507 136.09 152.799 135.904C153.091 135.713 153.438 135.618 153.84 135.618C154.251 135.618 154.6 135.713 154.888 135.904C155.18 136.09 155.398 136.354 155.542 136.697C155.69 137.04 155.766 137.438 155.77 137.891C155.766 138.352 155.688 138.756 155.535 139.103C155.387 139.446 155.169 139.712 154.881 139.903C154.594 140.089 154.247 140.18 153.84 140.176ZM159.261 135.809H160.417L154.107 145H152.952L159.261 135.809ZM152.952 137.891C152.956 138.322 153.032 138.663 153.18 138.913C153.333 139.158 153.553 139.283 153.84 139.287C154.132 139.283 154.35 139.158 154.494 138.913C154.642 138.667 154.716 138.326 154.716 137.891C154.716 137.463 154.644 137.127 154.5 136.881C154.361 136.632 154.145 136.507 153.853 136.507C153.561 136.507 153.339 136.632 153.187 136.881C153.034 137.127 152.956 137.463 152.952 137.891ZM157.712 142.905C157.708 142.452 157.782 142.055 157.935 141.712C158.091 141.365 158.313 141.096 158.601 140.906C158.893 140.715 159.24 140.62 159.642 140.62C160.053 140.62 160.402 140.715 160.689 140.906C160.977 141.092 161.195 141.359 161.343 141.706C161.491 142.048 161.568 142.448 161.572 142.905C161.568 143.362 161.489 143.762 161.337 144.105C161.189 144.448 160.971 144.714 160.683 144.905C160.395 145.095 160.048 145.19 159.642 145.19C159.232 145.19 158.88 145.095 158.588 144.905C158.301 144.714 158.081 144.448 157.928 144.105C157.78 143.758 157.708 143.358 157.712 142.905ZM158.753 142.905C158.758 143.333 158.834 143.671 158.982 143.921C159.134 144.166 159.354 144.289 159.642 144.289C159.934 144.289 160.152 144.166 160.296 143.921C160.444 143.675 160.518 143.337 160.518 142.905C160.518 142.469 160.446 142.129 160.302 141.883C160.158 141.634 159.938 141.509 159.642 141.509C159.359 141.513 159.141 141.64 158.988 141.89C158.836 142.139 158.758 142.478 158.753 142.905Z" fill="#AEBCFF"/>
<path d="M76.0078 105H74.707V97.8047H74.6602L72.6328 99.1289V97.8984L74.7422 96.5156H76.0078V105ZM81.0586 96.3984C81.6289 96.3984 82.1543 96.5273 82.6348 96.7852C83.1191 97.0391 83.5137 97.4688 83.8184 98.0742C84.127 98.6758 84.2812 99.4688 84.2812 100.453C84.2812 101.434 84.1465 102.273 83.877 102.973C83.6074 103.672 83.2227 104.205 82.7227 104.572C82.2266 104.936 81.6406 105.117 80.9648 105.117C80.4531 105.117 79.9922 105.02 79.582 104.824C79.1758 104.625 78.8438 104.348 78.5859 103.992C78.332 103.637 78.1719 103.23 78.1055 102.773H79.3828C79.4727 103.141 79.6543 103.436 79.9277 103.658C80.2012 103.877 80.5469 103.988 80.9648 103.992C81.3984 103.992 81.7695 103.871 82.0781 103.629C82.3906 103.383 82.6289 103.029 82.793 102.568C82.9609 102.107 83.0469 101.555 83.0508 100.91H82.9453C82.7148 101.27 82.4082 101.551 82.0254 101.754C81.6465 101.957 81.2305 102.059 80.7773 102.059C80.2734 102.059 79.8125 101.939 79.3945 101.701C78.9766 101.459 78.6445 101.127 78.3984 100.705C78.1562 100.279 78.0352 99.8008 78.0352 99.2695C78.0352 98.7344 78.1602 98.248 78.4102 97.8105C78.6602 97.373 79.0137 97.0293 79.4707 96.7793C79.9316 96.5254 80.4609 96.3984 81.0586 96.3984ZM79.2891 99.2344C79.2891 99.5586 79.3652 99.8574 79.5176 100.131C79.6699 100.4 79.8789 100.613 80.1445 100.77C80.4141 100.926 80.7188 101.004 81.0586 101.004C81.3906 101.004 81.6953 100.924 81.9727 100.764C82.2539 100.6 82.4746 100.381 82.6348 100.107C82.7949 99.834 82.875 99.543 82.875 99.2344C82.875 98.9297 82.7969 98.6426 82.6406 98.373C82.4844 98.0996 82.2695 97.8828 81.9961 97.7227C81.7227 97.5586 81.418 97.4766 81.082 97.4766C80.75 97.4766 80.4473 97.5566 80.1738 97.7168C79.9004 97.873 79.6836 98.0859 79.5234 98.3555C79.3672 98.6211 79.2891 98.9141 79.2891 99.2344ZM86.1562 105.082C86.0078 105.082 85.8691 105.045 85.7402 104.971C85.6152 104.896 85.5137 104.797 85.4355 104.672C85.3613 104.547 85.3242 104.41 85.3242 104.262C85.3242 104.109 85.3613 103.969 85.4355 103.84C85.5098 103.711 85.6094 103.609 85.7344 103.535C85.8633 103.457 86.0039 103.418 86.1562 103.418C86.3047 103.418 86.4414 103.455 86.5664 103.529C86.6953 103.604 86.7969 103.705 86.8711 103.834C86.9492 103.963 86.9883 104.102 86.9883 104.25C86.9883 104.398 86.9492 104.537 86.8711 104.666C86.7969 104.791 86.6953 104.893 86.5664 104.971C86.4414 105.045 86.3047 105.082 86.1562 105.082ZM92.3438 97.6875V97.6172H87.9727V96.5156H93.6797V97.6641L89.9062 105H88.5586L92.3438 97.6875ZM96.9258 100.547C96.5469 100.551 96.2227 100.465 95.9531 100.289C95.6836 100.113 95.4805 99.8672 95.3438 99.5508C95.207 99.2305 95.1406 98.8594 95.1445 98.4375C95.1406 98.0234 95.209 97.6582 95.3496 97.3418C95.4902 97.0215 95.6953 96.7754 95.9648 96.6035C96.2344 96.4277 96.5547 96.3398 96.9258 96.3398C97.3047 96.3398 97.627 96.4277 97.8926 96.6035C98.1621 96.7754 98.3633 97.0195 98.4961 97.3359C98.6328 97.6523 98.7031 98.0195 98.707 98.4375C98.7031 98.8633 98.6309 99.2363 98.4902 99.5566C98.3535 99.873 98.1523 100.119 97.8867 100.295C97.6211 100.467 97.3008 100.551 96.9258 100.547ZM101.93 96.5156H102.996L97.1719 105H96.1055L101.93 96.5156ZM96.1055 98.4375C96.1094 98.8359 96.1797 99.1504 96.3164 99.3809C96.457 99.6074 96.6602 99.7227 96.9258 99.7266C97.1953 99.7227 97.3965 99.6074 97.5293 99.3809C97.666 99.1543 97.7344 98.8398 97.7344 98.4375C97.7344 98.043 97.668 97.7324 97.5352 97.5059C97.4062 97.2754 97.207 97.1602 96.9375 97.1602C96.668 97.1602 96.4629 97.2754 96.3223 97.5059C96.1816 97.7324 96.1094 98.043 96.1055 98.4375ZM100.5 103.066C100.496 102.648 100.564 102.281 100.705 101.965C100.85 101.645 101.055 101.396 101.32 101.221C101.59 101.045 101.91 100.957 102.281 100.957C102.66 100.957 102.982 101.045 103.248 101.221C103.514 101.393 103.715 101.639 103.852 101.959C103.988 102.275 104.059 102.645 104.062 103.066C104.059 103.488 103.986 103.857 103.846 104.174C103.709 104.49 103.508 104.736 103.242 104.912C102.977 105.088 102.656 105.176 102.281 105.176C101.902 105.176 101.578 105.088 101.309 104.912C101.043 104.736 100.84 104.49 100.699 104.174C100.562 103.854 100.496 103.484 100.5 103.066ZM101.461 103.066C101.465 103.461 101.535 103.773 101.672 104.004C101.812 104.23 102.016 104.344 102.281 104.344C102.551 104.344 102.752 104.23 102.885 104.004C103.021 103.777 103.09 103.465 103.09 103.066C103.09 102.664 103.023 102.35 102.891 102.123C102.758 101.893 102.555 101.777 102.281 101.777C102.02 101.781 101.818 101.898 101.678 102.129C101.537 102.359 101.465 102.672 101.461 103.066Z" fill="#91AEE3" fill-opacity="0.4"/>
<path d="M89.1387 56H87.8379V48.8047H87.791L85.7637 50.1289V48.8984L87.873 47.5156H89.1387V56ZM94.3066 56.1172C93.7285 56.1172 93.209 56.0195 92.748 55.8242C92.291 55.6289 91.9297 55.3555 91.6641 55.0039C91.4023 54.6484 91.2637 54.2422 91.248 53.7852H92.5605C92.5762 54.0273 92.6602 54.2422 92.8125 54.4297C92.9688 54.6133 93.1758 54.7559 93.4336 54.8574C93.6914 54.9551 93.9785 55.0039 94.2949 55.0039C94.6348 55.0039 94.9375 54.9473 95.2031 54.834C95.4727 54.7168 95.6836 54.5527 95.8359 54.3418C95.9883 54.1309 96.0645 53.8906 96.0645 53.6211C96.0645 53.3398 95.9883 53.0918 95.8359 52.877C95.6875 52.6582 95.4688 52.4883 95.1797 52.3672C94.8906 52.2422 94.5488 52.1797 94.1543 52.1797H93.4277V51.125H94.1543C94.4746 51.125 94.7578 51.0703 95.0039 50.9609C95.2539 50.8477 95.4473 50.6895 95.584 50.4863C95.7246 50.2832 95.7949 50.0469 95.7949 49.7773C95.7949 49.5195 95.7344 49.293 95.6133 49.0977C95.4922 48.9023 95.3203 48.75 95.0977 48.6406C94.875 48.5312 94.6152 48.4766 94.3184 48.4766C94.0332 48.4766 93.7656 48.5273 93.5156 48.6289C93.2695 48.7305 93.0703 48.877 92.918 49.0684C92.7656 49.2559 92.6855 49.4727 92.6777 49.7188H91.4355C91.4473 49.2695 91.582 48.8691 91.8398 48.5176C92.1016 48.1621 92.4512 47.8867 92.8887 47.6914C93.3262 47.4961 93.8066 47.3984 94.3301 47.3984C94.873 47.3984 95.3496 47.502 95.7598 47.709C96.1699 47.916 96.4863 48.1973 96.709 48.5527C96.9316 48.9043 97.041 49.2891 97.0371 49.707C97.041 50.1836 96.9082 50.5879 96.6387 50.9199C96.3691 51.252 96.002 51.4766 95.5371 51.5938V51.6523C95.9199 51.707 96.248 51.8262 96.5215 52.0098C96.7988 52.1895 97.0078 52.4219 97.1484 52.707C97.293 52.9922 97.3652 53.3125 97.3652 53.668C97.3652 54.1328 97.2324 54.5527 96.9668 54.9277C96.7051 55.2988 96.3398 55.5898 95.8711 55.8008C95.4062 56.0117 94.8848 56.1172 94.3066 56.1172ZM99.3574 56.082C99.209 56.082 99.0703 56.0449 98.9414 55.9707C98.8164 55.8965 98.7148 55.7969 98.6367 55.6719C98.5625 55.5469 98.5254 55.4102 98.5254 55.2617C98.5254 55.1094 98.5625 54.9688 98.6367 54.8398C98.7109 54.7109 98.8105 54.6094 98.9355 54.5352C99.0645 54.457 99.2051 54.418 99.3574 54.418C99.5059 54.418 99.6426 54.4551 99.7676 54.5293C99.8965 54.6035 99.998 54.7051 100.072 54.834C100.15 54.9629 100.189 55.1016 100.189 55.25C100.189 55.3984 100.15 55.5371 100.072 55.666C99.998 55.791 99.8965 55.8926 99.7676 55.9707C99.6426 56.0449 99.5059 56.082 99.3574 56.082ZM104.467 56.1172C103.893 56.1172 103.363 55.9902 102.879 55.7363C102.395 55.4785 101.998 55.0469 101.689 54.4414C101.385 53.832 101.232 53.0312 101.232 52.0391C101.232 51.0664 101.367 50.2324 101.637 49.5371C101.906 48.8379 102.289 48.3066 102.785 47.9434C103.285 47.5801 103.873 47.3984 104.549 47.3984C105.061 47.3984 105.52 47.498 105.926 47.6973C106.332 47.8926 106.662 48.166 106.916 48.5176C107.17 48.8691 107.33 49.2695 107.396 49.7188H106.119C106.029 49.3594 105.848 49.0723 105.574 48.8574C105.305 48.6387 104.963 48.5273 104.549 48.5234C104.115 48.5234 103.742 48.6465 103.43 48.8926C103.121 49.1348 102.885 49.4844 102.721 49.9414C102.557 50.3984 102.475 50.9453 102.475 51.582H102.568C102.799 51.2227 103.104 50.9434 103.482 50.7441C103.865 50.541 104.287 50.4375 104.748 50.4336C105.248 50.4336 105.707 50.5547 106.125 50.7969C106.543 51.0352 106.873 51.3672 107.115 51.793C107.357 52.2148 107.479 52.6914 107.479 53.2227C107.479 53.7656 107.352 54.2578 107.098 54.6992C106.848 55.1406 106.494 55.4883 106.037 55.7422C105.58 55.9922 105.057 56.1172 104.467 56.1172ZM102.627 53.2578C102.627 53.5703 102.705 53.8633 102.861 54.1367C103.021 54.4102 103.238 54.6289 103.512 54.793C103.785 54.957 104.092 55.0391 104.432 55.0391C104.768 55.0391 105.072 54.959 105.346 54.7988C105.619 54.6348 105.834 54.418 105.99 54.1484C106.146 53.875 106.225 53.5742 106.225 53.2461C106.225 52.9258 106.148 52.6309 105.996 52.3613C105.844 52.0918 105.633 51.8789 105.363 51.7227C105.098 51.5664 104.799 51.4883 104.467 51.4883C104.131 51.4883 103.822 51.5703 103.541 51.7344C103.26 51.8945 103.037 52.1113 102.873 52.3848C102.713 52.6543 102.631 52.9453 102.627 53.2578ZM110.795 51.5469C110.416 51.5508 110.092 51.4648 109.822 51.2891C109.553 51.1133 109.35 50.8672 109.213 50.5508C109.076 50.2305 109.01 49.8594 109.014 49.4375C109.01 49.0234 109.078 48.6582 109.219 48.3418C109.359 48.0215 109.564 47.7754 109.834 47.6035C110.104 47.4277 110.424 47.3398 110.795 47.3398C111.174 47.3398 111.496 47.4277 111.762 47.6035C112.031 47.7754 112.232 48.0195 112.365 48.3359C112.502 48.6523 112.572 49.0195 112.576 49.4375C112.572 49.8633 112.5 50.2363 112.359 50.5566C112.223 50.873 112.021 51.1191 111.756 51.2949C111.49 51.4668 111.17 51.5508 110.795 51.5469ZM115.799 47.5156H116.865L111.041 56H109.975L115.799 47.5156ZM109.975 49.4375C109.979 49.8359 110.049 50.1504 110.186 50.3809C110.326 50.6074 110.529 50.7227 110.795 50.7266C111.064 50.7227 111.266 50.6074 111.398 50.3809C111.535 50.1543 111.604 49.8398 111.604 49.4375C111.604 49.043 111.537 48.7324 111.404 48.5059C111.275 48.2754 111.076 48.1602 110.807 48.1602C110.537 48.1602 110.332 48.2754 110.191 48.5059C110.051 48.7324 109.979 49.043 109.975 49.4375ZM114.369 54.0664C114.365 53.6484 114.434 53.2812 114.574 52.9648C114.719 52.6445 114.924 52.3965 115.189 52.2207C115.459 52.0449 115.779 51.957 116.15 51.957C116.529 51.957 116.852 52.0449 117.117 52.2207C117.383 52.3926 117.584 52.6387 117.721 52.959C117.857 53.2754 117.928 53.6445 117.932 54.0664C117.928 54.4883 117.855 54.8574 117.715 55.1738C117.578 55.4902 117.377 55.7363 117.111 55.9121C116.846 56.0879 116.525 56.1758 116.15 56.1758C115.771 56.1758 115.447 56.0879 115.178 55.9121C114.912 55.7363 114.709 55.4902 114.568 55.1738C114.432 54.8535 114.365 54.4844 114.369 54.0664ZM115.33 54.0664C115.334 54.4609 115.404 54.7734 115.541 55.0039C115.682 55.2305 115.885 55.3438 116.15 55.3438C116.42 55.3438 116.621 55.2305 116.754 55.0039C116.891 54.7773 116.959 54.4648 116.959 54.0664C116.959 53.6641 116.893 53.3496 116.76 53.123C116.627 52.8926 116.424 52.7773 116.15 52.7773C115.889 52.7812 115.688 52.8984 115.547 53.1289C115.406 53.3594 115.334 53.6719 115.33 54.0664Z" fill="#91AEE3" fill-opacity="0.4"/>
<path d="M208.466 21.2578H206.702V8.81641H208.466V21.2578ZM198.048 17.7305C199.11 17.2292 199.985 16.6709 200.673 16.0557C201.366 15.4404 201.894 14.7591 202.259 14.0117C202.628 13.2598 202.86 12.4167 202.956 11.4824H198.718V10.1152H204.733C204.729 11.446 204.549 12.6559 204.193 13.7451C203.838 14.8343 203.234 15.8346 202.382 16.7461C201.534 17.6576 200.395 18.4505 198.964 19.125L198.048 17.7305ZM217.079 10.498C217.079 11.1361 217.063 11.7354 217.031 12.2959C216.999 12.8519 216.92 13.4694 216.792 14.1484L215.083 13.9844C215.261 13.0456 215.359 12.0977 215.377 11.1406H210.681V9.71875H217.079V10.498ZM209.942 15.0508C210.931 15.0508 211.701 15.0439 212.253 15.0303V12.5898H213.989V14.9756C215.402 14.9118 216.628 14.8047 217.667 14.6543L217.763 15.9121C216.61 16.1263 215.404 16.2676 214.146 16.3359C212.889 16.4043 211.537 16.4408 210.093 16.4453L209.942 15.0508ZM211.774 17.293H213.524V19.6445H220.511V21.0391H211.774V17.293ZM218.337 8.81641H220.128V12.6035H221.632V14.0664H220.128V18.127H218.337V8.81641ZM230.013 11.6328C230.008 12.3939 230.115 13.1322 230.334 13.8477C230.553 14.5586 230.883 15.1966 231.325 15.7617C231.767 16.3268 232.31 16.7643 232.952 17.0742L231.899 18.4688C231.252 18.1452 230.699 17.694 230.238 17.1152C229.778 16.5319 229.416 15.8529 229.151 15.0781C228.869 15.9121 228.484 16.6413 227.996 17.2656C227.508 17.8854 226.923 18.3639 226.239 18.7012L225.159 17.293C225.838 16.9831 226.41 16.5342 226.875 15.9463C227.34 15.3538 227.686 14.6862 227.914 13.9434C228.146 13.196 228.263 12.4258 228.263 11.6328V9.77344H230.013V11.6328ZM233.499 8.81641H235.249V13.6152H237.081V15.0918H235.249V21.2578H233.499V8.81641ZM244.915 11.4961H242.372C242.386 11.9336 242.504 12.3551 242.728 12.7607C242.955 13.1618 243.29 13.5218 243.732 13.8408C244.179 14.1598 244.724 14.4036 245.366 14.5723L244.56 15.9121C243.858 15.7298 243.252 15.4495 242.741 15.0713C242.231 14.693 241.827 14.2396 241.531 13.7109C241.244 14.3034 240.843 14.8138 240.328 15.2422C239.813 15.6706 239.196 15.985 238.476 16.1855L237.642 14.832C238.28 14.6543 238.817 14.3945 239.255 14.0527C239.697 13.7064 240.03 13.3122 240.253 12.8701C240.476 12.4281 240.595 11.9701 240.608 11.4961H238.065V10.1152H240.608V8.83008H242.386V10.1152H244.915V11.4961ZM239.433 18.8926C239.433 18.4004 239.604 17.9788 239.945 17.6279C240.287 17.2725 240.779 17.0013 241.422 16.8145C242.069 16.623 242.832 16.5273 243.712 16.5273C244.587 16.5273 245.343 16.623 245.981 16.8145C246.624 17.0013 247.118 17.2725 247.465 17.6279C247.811 17.9788 247.987 18.4004 247.991 18.8926C247.987 19.3893 247.811 19.8154 247.465 20.1709C247.118 20.5264 246.624 20.7952 245.981 20.9775C245.343 21.1644 244.587 21.2578 243.712 21.2578C242.832 21.2578 242.069 21.1644 241.422 20.9775C240.779 20.7952 240.287 20.5264 239.945 20.1709C239.604 19.8154 239.433 19.3893 239.433 18.8926ZM241.183 18.8926C241.183 19.5853 242.026 19.9316 243.712 19.9316C244.546 19.9316 245.179 19.8451 245.612 19.6719C246.045 19.4941 246.264 19.2344 246.269 18.8926C246.264 18.5645 246.048 18.3138 245.619 18.1406C245.191 17.9674 244.571 17.8809 243.76 17.8809C242.908 17.8809 242.265 17.9652 241.832 18.1338C241.399 18.3024 241.183 18.5553 241.183 18.8926ZM246.2 8.83008H247.95V16.3359H246.2V8.83008ZM256.577 11.3457H249.659V9.96484H252.339V8.70703H254.075V9.96484H256.577V11.3457ZM250.274 14.0938C250.27 13.638 250.391 13.2347 250.637 12.8838C250.883 12.5283 251.227 12.2526 251.669 12.0566C252.116 11.8561 252.621 11.7559 253.187 11.7559C253.752 11.7559 254.257 11.8561 254.704 12.0566C255.151 12.2526 255.499 12.5283 255.75 12.8838C256.005 13.2347 256.135 13.638 256.14 14.0938C256.135 14.5495 256.005 14.9528 255.75 15.3037C255.499 15.6546 255.151 15.9258 254.704 16.1172C254.257 16.3086 253.752 16.4043 253.187 16.4043C252.617 16.4043 252.111 16.3086 251.669 16.1172C251.227 15.9258 250.883 15.6546 250.637 15.3037C250.391 14.9528 250.27 14.5495 250.274 14.0938ZM251.601 19.084C251.601 18.6283 251.771 18.2363 252.113 17.9082C252.46 17.5755 252.954 17.3249 253.597 17.1562C254.244 16.9831 255.009 16.8965 255.894 16.8965C256.773 16.8965 257.534 16.9831 258.177 17.1562C258.819 17.3249 259.314 17.5755 259.66 17.9082C260.011 18.2363 260.187 18.6283 260.187 19.084C260.187 19.5306 260.011 19.918 259.66 20.2461C259.314 20.5742 258.817 20.8249 258.17 20.998C257.527 21.1712 256.769 21.2578 255.894 21.2578C255.014 21.2578 254.251 21.1712 253.604 20.998C252.956 20.8249 252.46 20.5742 252.113 20.2461C251.771 19.918 251.601 19.5306 251.601 19.084ZM251.901 14.0938C251.897 14.4219 252.008 14.6748 252.236 14.8525C252.469 15.0303 252.785 15.1191 253.187 15.1191C253.588 15.1191 253.909 15.0303 254.15 14.8525C254.392 14.6748 254.513 14.4219 254.513 14.0938C254.513 13.7702 254.392 13.5173 254.15 13.335C253.909 13.1527 253.588 13.0592 253.187 13.0547C252.785 13.0592 252.469 13.1527 252.236 13.335C252.008 13.5127 251.897 13.7656 251.901 14.0938ZM253.433 19.084C253.433 19.3665 253.642 19.5807 254.062 19.7266C254.481 19.8724 255.091 19.9453 255.894 19.9453C256.677 19.9453 257.277 19.8724 257.691 19.7266C258.106 19.5807 258.313 19.3665 258.313 19.084C258.313 18.5143 257.507 18.2227 255.894 18.209C255.082 18.2181 254.469 18.2933 254.055 18.4346C253.64 18.5758 253.433 18.7923 253.433 19.084ZM256.687 14.0391H258.382V12.9453H256.714V11.5508H258.382V8.81641H260.118V16.7461H258.382V15.4336H256.687V14.0391Z" fill="#516EFF"/>
</g>
<defs>
<filter id="filter0_d_2111_40214" x="135.908" y="14.5466" width="83.2256" height="131.538" filterUnits="userSpaceOnUse" color-interpolation-filters="sRGB">
<feFlood flood-opacity="0" result="BackgroundImageFix"/>
<feColorMatrix in="SourceAlpha" type="matrix" values="0 0 0 0 0 0 0 0 0 0 0 0 0 0 0 0 0 0 127 0" result="hardAlpha"/>
<feOffset dy="4"/>
<feGaussianBlur stdDeviation="2"/>
<feComposite in2="hardAlpha" operator="out"/>
<feColorMatrix type="matrix" values="0 0 0 0 0 0 0 0 0 0 0 0 0 0 0 0 0 0 0.25 0"/>
<feBlend mode="normal" in2="BackgroundImageFix" result="effect1_dropShadow_2111_40214"/>
<feBlend mode="normal" in="SourceGraphic" in2="effect1_dropShadow_2111_40214" result="shape"/>
</filter>
<clipPath id="clip0_2111_40214">
<rect width="280" height="176" fill="white"/>
</clipPath>
</defs>
</svg>
