<svg width="280" height="176" viewBox="0 0 280 176" fill="none" xmlns="http://www.w3.org/2000/svg">
<g clip-path="url(#clip0_2198_33226)">
<path d="M226 27V76C226 77.1046 225.105 78 224 78H195" stroke="#FF7373" stroke-opacity="0.6" stroke-dasharray="2 2"/>
<path d="M123.52 155.003C111.759 152.111 100.966 146.173 92.2263 137.787C83.4868 129.401 77.1087 118.862 73.7331 107.23L120.119 93.769C121.132 97.2586 123.045 100.42 125.667 102.936C128.289 105.452 131.527 107.233 135.055 108.101L123.52 155.003Z" fill="#62393A"/>
<path d="M190.091 135.453C179.831 146.285 166.336 153.498 151.63 156.013C136.923 158.528 121.798 156.208 108.521 149.401L130.556 106.421C134.539 108.462 139.077 109.158 143.489 108.404C147.901 107.65 151.949 105.485 155.027 102.236L190.091 135.453Z" fill="#CF4A4A"/>
<path d="M101.664 30.6293C113.989 22.3937 128.639 18.3461 143.443 19.0858L141.033 67.3257C136.591 67.1037 132.197 68.318 128.499 70.7887L101.664 30.6293Z" fill="#2A1919"/>
<path d="M140 19C153.647 19 166.987 23.0468 178.334 30.6286C189.681 38.2104 198.525 48.9867 203.748 61.5948C208.97 74.2029 210.337 88.0765 207.674 101.461C205.012 114.846 198.44 127.141 188.79 136.79L154.637 102.637C157.532 99.7422 159.504 96.0538 160.302 92.0384C161.101 88.023 160.691 83.8609 159.124 80.0784C157.558 76.296 154.904 73.0631 151.5 70.7886C148.096 68.514 144.094 67.3 140 67.3L140 19Z" fill="#FF7373"/>
<path d="M74.0224 108.201C70.4764 96.6198 70.0414 84.3091 72.7612 72.5064C75.4809 60.7037 81.2595 49.8248 89.5162 40.9632L124.854 73.8891C122.377 76.5475 120.644 79.8112 119.828 83.352C119.012 86.8929 119.142 90.5861 120.206 94.0605L74.0224 108.201Z" fill="#523131"/>
<path d="M76.7981 60.3125C82.7463 46.7349 92.9089 35.4339 105.781 28.0827L129.734 70.025C125.872 72.2303 122.823 75.6206 121.039 79.6939L76.7981 60.3125Z" fill="#331A1A"/>
<path d="M164.026 82.9062L167.458 79.4473C167.873 79.0189 168.189 78.6725 168.408 78.4082C168.627 78.1393 168.793 77.8796 168.907 77.6289C169.026 77.3737 169.085 77.1048 169.085 76.8223C169.085 76.5033 169.005 76.223 168.846 75.9814C168.686 75.7399 168.467 75.5531 168.189 75.4209C167.911 75.2887 167.599 75.2227 167.253 75.2227C166.888 75.2227 166.569 75.2956 166.296 75.4414C166.027 75.5872 165.817 75.7923 165.667 76.0566C165.521 76.3164 165.448 76.6217 165.448 76.9727H164.026C164.022 76.3802 164.159 75.8561 164.437 75.4004C164.715 74.9447 165.102 74.5915 165.599 74.3408C166.095 74.0902 166.656 73.9648 167.28 73.9648C167.905 73.9648 168.461 74.0879 168.948 74.334C169.44 74.5755 169.823 74.9105 170.097 75.3389C170.375 75.7673 170.516 76.248 170.521 76.7812C170.516 77.1595 170.443 77.5241 170.302 77.875C170.16 78.2214 169.919 78.6087 169.577 79.0371C169.235 79.4609 168.752 79.9805 168.128 80.5957L166.118 82.6328V82.7148H170.685V84H164.026V82.9062ZM172.353 82.9062L175.784 79.4473C176.199 79.0189 176.516 78.6725 176.734 78.4082C176.953 78.1393 177.119 77.8796 177.233 77.6289C177.352 77.3737 177.411 77.1048 177.411 76.8223C177.411 76.5033 177.331 76.223 177.172 75.9814C177.012 75.7399 176.794 75.5531 176.516 75.4209C176.238 75.2887 175.925 75.2227 175.579 75.2227C175.215 75.2227 174.896 75.2956 174.622 75.4414C174.353 75.5872 174.144 75.7923 173.993 76.0566C173.847 76.3164 173.774 76.6217 173.774 76.9727H172.353C172.348 76.3802 172.485 75.8561 172.763 75.4004C173.041 74.9447 173.428 74.5915 173.925 74.3408C174.422 74.0902 174.982 73.9648 175.606 73.9648C176.231 73.9648 176.787 74.0879 177.274 74.334C177.767 74.5755 178.149 74.9105 178.423 75.3389C178.701 75.7673 178.842 76.248 178.847 76.7812C178.842 77.1595 178.769 77.5241 178.628 77.875C178.487 78.2214 178.245 78.6087 177.903 79.0371C177.562 79.4609 177.078 79.9805 176.454 80.5957L174.444 82.6328V82.7148H179.011V84H172.353V82.9062ZM181.649 84.0957C181.476 84.0957 181.314 84.0524 181.164 83.9658C181.018 83.8792 180.9 83.763 180.809 83.6172C180.722 83.4714 180.679 83.3118 180.679 83.1387C180.679 82.9609 180.722 82.7969 180.809 82.6465C180.895 82.4961 181.011 82.3776 181.157 82.291C181.308 82.1999 181.472 82.1543 181.649 82.1543C181.823 82.1543 181.982 82.1976 182.128 82.2842C182.278 82.3708 182.397 82.4893 182.483 82.6396C182.575 82.79 182.62 82.9518 182.62 83.125C182.62 83.2982 182.575 83.46 182.483 83.6104C182.397 83.7562 182.278 83.8747 182.128 83.9658C181.982 84.0524 181.823 84.0957 181.649 84.0957ZM187.61 84.1367C186.94 84.1367 186.323 83.9886 185.758 83.6924C185.193 83.3916 184.73 82.888 184.37 82.1816C184.015 81.4707 183.837 80.5365 183.837 79.3789C183.837 78.2441 183.994 77.2712 184.309 76.46C184.623 75.6442 185.07 75.0244 185.648 74.6006C186.232 74.1768 186.918 73.9648 187.706 73.9648C188.303 73.9648 188.839 74.0811 189.312 74.3135C189.786 74.5413 190.172 74.8604 190.468 75.2705C190.764 75.6807 190.951 76.1478 191.028 76.6719H189.538C189.433 76.2526 189.221 75.9176 188.902 75.667C188.588 75.4118 188.189 75.2819 187.706 75.2773C187.2 75.2773 186.765 75.4209 186.4 75.708C186.04 75.9906 185.765 76.3984 185.573 76.9316C185.382 77.4648 185.286 78.1029 185.286 78.8457H185.396C185.664 78.4264 186.02 78.1006 186.462 77.8682C186.909 77.6312 187.401 77.5104 187.938 77.5059C188.522 77.5059 189.057 77.6471 189.545 77.9297C190.033 78.2077 190.418 78.5951 190.7 79.0918C190.983 79.584 191.124 80.14 191.124 80.7598C191.124 81.3932 190.976 81.9674 190.68 82.4824C190.388 82.9974 189.976 83.403 189.442 83.6992C188.909 83.9909 188.299 84.1367 187.61 84.1367ZM185.464 80.8008C185.464 81.1654 185.555 81.5072 185.737 81.8262C185.924 82.1452 186.177 82.4004 186.496 82.5918C186.815 82.7832 187.173 82.8789 187.569 82.8789C187.961 82.8789 188.317 82.7855 188.636 82.5986C188.955 82.4072 189.205 82.1543 189.388 81.8398C189.57 81.5208 189.661 81.1699 189.661 80.7871C189.661 80.4134 189.572 80.0693 189.395 79.7549C189.217 79.4404 188.971 79.1921 188.656 79.0098C188.346 78.8275 187.998 78.7363 187.61 78.7363C187.218 78.7363 186.858 78.832 186.53 79.0234C186.202 79.2103 185.942 79.4632 185.751 79.7822C185.564 80.0967 185.468 80.4362 185.464 80.8008Z" fill="white"/>
<path d="M195.383 78.8047C194.941 78.8092 194.562 78.709 194.248 78.5039C193.934 78.2988 193.697 78.0117 193.537 77.6426C193.378 77.2689 193.3 76.8359 193.305 76.3438C193.3 75.8607 193.38 75.4346 193.544 75.0654C193.708 74.6917 193.947 74.4046 194.262 74.2041C194.576 73.999 194.95 73.8965 195.383 73.8965C195.825 73.8965 196.201 73.999 196.511 74.2041C196.825 74.4046 197.06 74.6895 197.215 75.0586C197.374 75.4277 197.456 75.8561 197.461 76.3438C197.456 76.8405 197.372 77.2757 197.208 77.6494C197.049 78.0186 196.814 78.3057 196.504 78.5107C196.194 78.7113 195.82 78.8092 195.383 78.8047ZM201.221 74.1016H202.465L195.67 84H194.426L201.221 74.1016ZM194.426 76.3438C194.43 76.8086 194.512 77.1755 194.672 77.4443C194.836 77.7087 195.073 77.8431 195.383 77.8477C195.697 77.8431 195.932 77.7087 196.087 77.4443C196.246 77.18 196.326 76.8132 196.326 76.3438C196.326 75.8835 196.249 75.5212 196.094 75.2568C195.943 74.988 195.711 74.8535 195.396 74.8535C195.082 74.8535 194.843 74.988 194.679 75.2568C194.515 75.5212 194.43 75.8835 194.426 76.3438ZM199.553 81.7441C199.548 81.2565 199.628 80.8281 199.792 80.459C199.961 80.0853 200.2 79.7959 200.51 79.5908C200.824 79.3857 201.198 79.2832 201.631 79.2832C202.073 79.2832 202.449 79.3857 202.759 79.5908C203.069 79.7913 203.303 80.0785 203.463 80.4521C203.622 80.8213 203.704 81.252 203.709 81.7441C203.704 82.2363 203.62 82.667 203.456 83.0361C203.297 83.4053 203.062 83.6924 202.752 83.8975C202.442 84.1025 202.068 84.2051 201.631 84.2051C201.189 84.2051 200.811 84.1025 200.496 83.8975C200.186 83.6924 199.949 83.4053 199.785 83.0361C199.626 82.6624 199.548 82.2318 199.553 81.7441ZM200.674 81.7441C200.678 82.2044 200.76 82.569 200.92 82.8379C201.084 83.1022 201.321 83.2344 201.631 83.2344C201.945 83.2344 202.18 83.1022 202.335 82.8379C202.494 82.5736 202.574 82.209 202.574 81.7441C202.574 81.2747 202.497 80.9079 202.342 80.6436C202.187 80.3747 201.95 80.2402 201.631 80.2402C201.326 80.2448 201.091 80.3815 200.927 80.6504C200.763 80.9193 200.678 81.2839 200.674 81.7441Z" fill="white"/>
<path d="M128.952 136.984L132.139 133.772C132.524 133.375 132.818 133.053 133.021 132.808C133.224 132.558 133.379 132.317 133.484 132.084C133.594 131.847 133.649 131.597 133.649 131.335C133.649 131.039 133.575 130.778 133.427 130.554C133.279 130.33 133.076 130.156 132.818 130.034C132.56 129.911 132.27 129.85 131.948 129.85C131.61 129.85 131.313 129.917 131.06 130.053C130.81 130.188 130.615 130.379 130.476 130.624C130.34 130.865 130.272 131.149 130.272 131.475H128.952C128.948 130.924 129.075 130.438 129.333 130.015C129.591 129.591 129.951 129.264 130.412 129.031C130.873 128.798 131.394 128.682 131.974 128.682C132.553 128.682 133.07 128.796 133.522 129.024C133.979 129.249 134.335 129.56 134.589 129.958C134.847 130.355 134.978 130.802 134.982 131.297C134.978 131.648 134.91 131.987 134.779 132.312C134.648 132.634 134.424 132.994 134.106 133.392C133.789 133.785 133.34 134.268 132.761 134.839L130.895 136.73V136.807H135.135V138H128.952V136.984ZM139.883 138.127C139.176 138.127 138.569 137.943 138.061 137.575C137.557 137.202 137.172 136.663 136.906 135.956C136.639 135.249 136.506 134.399 136.506 133.404C136.506 132.414 136.639 131.566 136.906 130.859C137.177 130.152 137.564 129.613 138.067 129.24C138.575 128.868 139.18 128.682 139.883 128.682C140.581 128.682 141.182 128.868 141.686 129.24C142.193 129.613 142.583 130.152 142.854 130.859C143.124 131.566 143.26 132.414 143.26 133.404C143.26 134.399 143.124 135.251 142.854 135.962C142.587 136.669 142.202 137.207 141.698 137.575C141.195 137.943 140.59 138.127 139.883 138.127ZM137.902 133.436C137.902 134.185 137.981 134.82 138.137 135.34C138.294 135.861 138.52 136.254 138.816 136.521C139.113 136.788 139.468 136.921 139.883 136.921C140.298 136.921 140.653 136.788 140.949 136.521C141.245 136.25 141.472 135.852 141.628 135.328C141.785 134.803 141.863 134.162 141.863 133.404C141.863 132.651 141.783 132.01 141.622 131.481C141.465 130.952 141.239 130.552 140.943 130.281C140.647 130.006 140.293 129.867 139.883 129.862C139.468 129.862 139.113 130.002 138.816 130.281C138.52 130.556 138.294 130.963 138.137 131.5C137.981 132.033 137.902 132.679 137.902 133.436ZM145.266 138.089C145.105 138.089 144.955 138.049 144.815 137.968C144.68 137.888 144.569 137.78 144.485 137.645C144.404 137.509 144.364 137.361 144.364 137.2C144.364 137.035 144.404 136.883 144.485 136.743C144.565 136.604 144.673 136.493 144.809 136.413C144.948 136.328 145.101 136.286 145.266 136.286C145.426 136.286 145.575 136.326 145.71 136.407C145.85 136.487 145.96 136.597 146.04 136.737C146.125 136.876 146.167 137.027 146.167 137.188C146.167 137.348 146.125 137.499 146.04 137.638C145.96 137.774 145.85 137.884 145.71 137.968C145.575 138.049 145.426 138.089 145.266 138.089ZM147.589 135.08L151.651 128.809H153.378V135.029H154.635V136.21H153.378V138H152.058V136.21H147.589V135.08ZM152.058 135.029V130.472H151.956L149.062 134.953V135.029H152.058ZM158.151 133.176C157.741 133.18 157.39 133.087 157.098 132.896C156.806 132.706 156.586 132.439 156.438 132.097C156.289 131.75 156.217 131.348 156.222 130.891C156.217 130.442 156.292 130.046 156.444 129.704C156.596 129.357 156.818 129.09 157.11 128.904C157.402 128.713 157.749 128.618 158.151 128.618C158.562 128.618 158.911 128.713 159.199 128.904C159.491 129.09 159.709 129.354 159.853 129.697C160.001 130.04 160.077 130.438 160.081 130.891C160.077 131.352 159.999 131.756 159.846 132.103C159.698 132.446 159.48 132.712 159.192 132.903C158.905 133.089 158.558 133.18 158.151 133.176ZM163.572 128.809H164.728L158.418 138H157.263L163.572 128.809ZM157.263 130.891C157.267 131.322 157.343 131.663 157.491 131.913C157.644 132.158 157.864 132.283 158.151 132.287C158.443 132.283 158.661 132.158 158.805 131.913C158.953 131.667 159.027 131.326 159.027 130.891C159.027 130.463 158.955 130.127 158.812 129.881C158.672 129.632 158.456 129.507 158.164 129.507C157.872 129.507 157.65 129.632 157.498 129.881C157.345 130.127 157.267 130.463 157.263 130.891ZM162.023 135.905C162.019 135.452 162.093 135.055 162.246 134.712C162.402 134.365 162.624 134.096 162.912 133.906C163.204 133.715 163.551 133.62 163.953 133.62C164.364 133.62 164.713 133.715 165 133.906C165.288 134.092 165.506 134.359 165.654 134.706C165.802 135.048 165.879 135.448 165.883 135.905C165.879 136.362 165.8 136.762 165.648 137.105C165.5 137.448 165.282 137.714 164.994 137.905C164.706 138.095 164.359 138.19 163.953 138.19C163.543 138.19 163.191 138.095 162.899 137.905C162.612 137.714 162.392 137.448 162.239 137.105C162.091 136.758 162.019 136.358 162.023 135.905ZM163.064 135.905C163.069 136.333 163.145 136.671 163.293 136.921C163.445 137.166 163.665 137.289 163.953 137.289C164.245 137.289 164.463 137.166 164.607 136.921C164.755 136.675 164.829 136.337 164.829 135.905C164.829 135.469 164.757 135.129 164.613 134.883C164.469 134.634 164.249 134.509 163.953 134.509C163.67 134.513 163.452 134.64 163.299 134.89C163.147 135.139 163.069 135.478 163.064 135.905Z" fill="#FF8E8E"/>
<path d="M88.2793 120H86.9785V112.805H86.9316L84.9043 114.129V112.898L87.0137 111.516H88.2793V120ZM93.3184 120.117C92.791 120.117 92.3125 120.018 91.8828 119.818C91.4531 119.619 91.1113 119.342 90.8574 118.986C90.6035 118.631 90.4668 118.23 90.4473 117.785H91.7012C91.7246 118.023 91.8105 118.238 91.959 118.43C92.1074 118.617 92.3008 118.766 92.5391 118.875C92.7773 118.984 93.0371 119.039 93.3184 119.039C93.6582 119.039 93.9609 118.963 94.2266 118.811C94.4961 118.658 94.707 118.449 94.8594 118.184C95.0117 117.914 95.0879 117.613 95.0879 117.281C95.0879 116.941 95.0098 116.637 94.8535 116.367C94.6973 116.094 94.4805 115.881 94.2031 115.729C93.9258 115.572 93.6113 115.492 93.2598 115.488C92.541 115.488 92.0449 115.738 91.7715 116.238H90.5527L91.1035 111.516H95.9082V112.617H92.1699L91.8887 114.996H91.9707C92.1504 114.824 92.3809 114.688 92.6621 114.586C92.9473 114.48 93.248 114.426 93.5645 114.422C94.0918 114.422 94.5664 114.545 94.9883 114.791C95.4102 115.033 95.7402 115.369 95.9785 115.799C96.2207 116.225 96.3418 116.707 96.3418 117.246C96.3418 117.797 96.2129 118.291 95.9551 118.729C95.6973 119.162 95.3379 119.502 94.877 119.748C94.4199 119.994 93.9004 120.117 93.3184 120.117ZM98.2402 120.082C98.0918 120.082 97.9531 120.045 97.8242 119.971C97.6992 119.896 97.5977 119.797 97.5195 119.672C97.4453 119.547 97.4082 119.41 97.4082 119.262C97.4082 119.109 97.4453 118.969 97.5195 118.84C97.5938 118.711 97.6934 118.609 97.8184 118.535C97.9473 118.457 98.0879 118.418 98.2402 118.418C98.3887 118.418 98.5254 118.455 98.6504 118.529C98.7793 118.604 98.8809 118.705 98.9551 118.834C99.0332 118.963 99.0723 119.102 99.0723 119.25C99.0723 119.398 99.0332 119.537 98.9551 119.666C98.8809 119.791 98.7793 119.893 98.6504 119.971C98.5254 120.045 98.3887 120.082 98.2402 120.082ZM103.314 120.117C102.787 120.117 102.309 120.018 101.879 119.818C101.449 119.619 101.107 119.342 100.854 118.986C100.6 118.631 100.463 118.23 100.443 117.785H101.697C101.721 118.023 101.807 118.238 101.955 118.43C102.104 118.617 102.297 118.766 102.535 118.875C102.773 118.984 103.033 119.039 103.314 119.039C103.654 119.039 103.957 118.963 104.223 118.811C104.492 118.658 104.703 118.449 104.855 118.184C105.008 117.914 105.084 117.613 105.084 117.281C105.084 116.941 105.006 116.637 104.85 116.367C104.693 116.094 104.477 115.881 104.199 115.729C103.922 115.572 103.607 115.492 103.256 115.488C102.537 115.488 102.041 115.738 101.768 116.238H100.549L101.1 111.516H105.904V112.617H102.166L101.885 114.996H101.967C102.146 114.824 102.377 114.688 102.658 114.586C102.943 114.48 103.244 114.426 103.561 114.422C104.088 114.422 104.562 114.545 104.984 114.791C105.406 115.033 105.736 115.369 105.975 115.799C106.217 116.225 106.338 116.707 106.338 117.246C106.338 117.797 106.209 118.291 105.951 118.729C105.693 119.162 105.334 119.502 104.873 119.748C104.416 119.994 103.896 120.117 103.314 120.117ZM109.654 115.547C109.275 115.551 108.951 115.465 108.682 115.289C108.412 115.113 108.209 114.867 108.072 114.551C107.936 114.23 107.869 113.859 107.873 113.438C107.869 113.023 107.938 112.658 108.078 112.342C108.219 112.021 108.424 111.775 108.693 111.604C108.963 111.428 109.283 111.34 109.654 111.34C110.033 111.34 110.355 111.428 110.621 111.604C110.891 111.775 111.092 112.02 111.225 112.336C111.361 112.652 111.432 113.02 111.436 113.438C111.432 113.863 111.359 114.236 111.219 114.557C111.082 114.873 110.881 115.119 110.615 115.295C110.35 115.467 110.029 115.551 109.654 115.547ZM114.658 111.516H115.725L109.9 120H108.834L114.658 111.516ZM108.834 113.438C108.838 113.836 108.908 114.15 109.045 114.381C109.186 114.607 109.389 114.723 109.654 114.727C109.924 114.723 110.125 114.607 110.258 114.381C110.395 114.154 110.463 113.84 110.463 113.438C110.463 113.043 110.396 112.732 110.264 112.506C110.135 112.275 109.936 112.16 109.666 112.16C109.396 112.16 109.191 112.275 109.051 112.506C108.91 112.732 108.838 113.043 108.834 113.438ZM113.229 118.066C113.225 117.648 113.293 117.281 113.434 116.965C113.578 116.645 113.783 116.396 114.049 116.221C114.318 116.045 114.639 115.957 115.01 115.957C115.389 115.957 115.711 116.045 115.977 116.221C116.242 116.393 116.443 116.639 116.58 116.959C116.717 117.275 116.787 117.645 116.791 118.066C116.787 118.488 116.715 118.857 116.574 119.174C116.438 119.49 116.236 119.736 115.971 119.912C115.705 120.088 115.385 120.176 115.01 120.176C114.631 120.176 114.307 120.088 114.037 119.912C113.771 119.736 113.568 119.49 113.428 119.174C113.291 118.854 113.225 118.484 113.229 118.066ZM114.189 118.066C114.193 118.461 114.264 118.773 114.4 119.004C114.541 119.23 114.744 119.344 115.01 119.344C115.279 119.344 115.48 119.23 115.613 119.004C115.75 118.777 115.818 118.465 115.818 118.066C115.818 117.664 115.752 117.35 115.619 117.123C115.486 116.893 115.283 116.777 115.01 116.777C114.748 116.781 114.547 116.898 114.406 117.129C114.266 117.359 114.193 117.672 114.189 118.066Z" fill="#F3C2DB" fill-opacity="0.2"/>
<path d="M82.0762 89H80.7754V81.8047H80.7285L78.7012 83.1289V81.8984L80.8105 80.5156H82.0762V89ZM87.4551 89H86.1543V81.8047H86.1074L84.0801 83.1289V81.8984L86.1895 80.5156H87.4551V89ZM89.9629 89.082C89.8145 89.082 89.6758 89.0449 89.5469 88.9707C89.4219 88.8965 89.3203 88.7969 89.2422 88.6719C89.168 88.5469 89.1309 88.4102 89.1309 88.2617C89.1309 88.1094 89.168 87.9688 89.2422 87.8398C89.3164 87.7109 89.416 87.6094 89.541 87.5352C89.6699 87.457 89.8105 87.418 89.9629 87.418C90.1113 87.418 90.248 87.4551 90.373 87.5293C90.502 87.6035 90.6035 87.7051 90.6777 87.834C90.7559 87.9629 90.7949 88.1016 90.7949 88.25C90.7949 88.3984 90.7559 88.5371 90.6777 88.666C90.6035 88.791 90.502 88.8926 90.373 88.9707C90.248 89.0449 90.1113 89.082 89.9629 89.082ZM92.1074 86.3047L95.8574 80.5156H97.4512V86.2578H98.6113V87.3477H97.4512V89H96.2324V87.3477H92.1074V86.3047ZM96.2324 86.2578V82.0508H96.1387L93.4668 86.1875V86.2578H96.2324ZM101.857 84.5469C101.479 84.5508 101.154 84.4648 100.885 84.2891C100.615 84.1133 100.412 83.8672 100.275 83.5508C100.139 83.2305 100.072 82.8594 100.076 82.4375C100.072 82.0234 100.141 81.6582 100.281 81.3418C100.422 81.0215 100.627 80.7754 100.896 80.6035C101.166 80.4277 101.486 80.3398 101.857 80.3398C102.236 80.3398 102.559 80.4277 102.824 80.6035C103.094 80.7754 103.295 81.0195 103.428 81.3359C103.564 81.6523 103.635 82.0195 103.639 82.4375C103.635 82.8633 103.562 83.2363 103.422 83.5566C103.285 83.873 103.084 84.1191 102.818 84.2949C102.553 84.4668 102.232 84.5508 101.857 84.5469ZM106.861 80.5156H107.928L102.104 89H101.037L106.861 80.5156ZM101.037 82.4375C101.041 82.8359 101.111 83.1504 101.248 83.3809C101.389 83.6074 101.592 83.7227 101.857 83.7266C102.127 83.7227 102.328 83.6074 102.461 83.3809C102.598 83.1543 102.666 82.8398 102.666 82.4375C102.666 82.043 102.6 81.7324 102.467 81.5059C102.338 81.2754 102.139 81.1602 101.869 81.1602C101.6 81.1602 101.395 81.2754 101.254 81.5059C101.113 81.7324 101.041 82.043 101.037 82.4375ZM105.432 87.0664C105.428 86.6484 105.496 86.2812 105.637 85.9648C105.781 85.6445 105.986 85.3965 106.252 85.2207C106.521 85.0449 106.842 84.957 107.213 84.957C107.592 84.957 107.914 85.0449 108.18 85.2207C108.445 85.3926 108.646 85.6387 108.783 85.959C108.92 86.2754 108.99 86.6445 108.994 87.0664C108.99 87.4883 108.918 87.8574 108.777 88.1738C108.641 88.4902 108.439 88.7363 108.174 88.9121C107.908 89.0879 107.588 89.1758 107.213 89.1758C106.834 89.1758 106.51 89.0879 106.24 88.9121C105.975 88.7363 105.771 88.4902 105.631 88.1738C105.494 87.8535 105.428 87.4844 105.432 87.0664ZM106.393 87.0664C106.396 87.4609 106.467 87.7734 106.604 88.0039C106.744 88.2305 106.947 88.3438 107.213 88.3438C107.482 88.3438 107.684 88.2305 107.816 88.0039C107.953 87.7773 108.021 87.4648 108.021 87.0664C108.021 86.6641 107.955 86.3496 107.822 86.123C107.689 85.8926 107.486 85.7773 107.213 85.7773C106.951 85.7812 106.75 85.8984 106.609 86.1289C106.469 86.3594 106.396 86.6719 106.393 87.0664Z" fill="#F3C2DB" fill-opacity="0.2"/>
<path d="M200.624 11.2637H196.017V13.3145H200.104V14.6816H196.017V17.0332C197.037 17.0241 197.947 16.9945 198.744 16.9443C199.542 16.8942 200.355 16.8053 201.185 16.6777L201.349 18.0859C200.433 18.2181 199.517 18.3092 198.601 18.3594C197.685 18.4049 196.604 18.4277 195.36 18.4277H194.294V9.8418H200.624V11.2637ZM202.306 8.81641H204.069V21.2578H202.306V8.81641ZM216.47 17.1289H214.815V8.83008H216.47V17.1289ZM205.628 15.6934C206.357 15.3835 206.972 15.0417 207.474 14.668C207.975 14.2897 208.381 13.8727 208.69 13.417L205.983 13.7109L205.778 12.3027L209.292 12.1387C209.392 11.8151 209.458 11.487 209.49 11.1543H206.298V9.75977H211.206C211.206 10.6849 211.104 11.5189 210.898 12.2617H212.245V9.02148H213.886V16.0352H212.245V13.6562H210.345C209.971 14.3444 209.465 14.9596 208.827 15.502C208.189 16.0443 207.396 16.5182 206.448 16.9238L205.628 15.6934ZM207.173 19.8496C208.039 19.7357 208.779 19.5192 209.395 19.2002C210.01 18.8812 210.472 18.5029 210.782 18.0654C211.097 17.6279 211.256 17.1745 211.261 16.7051V16.4453H212.983V16.7051C212.979 17.1745 213.132 17.6279 213.441 18.0654C213.756 18.5029 214.218 18.8812 214.829 19.2002C215.44 19.5192 216.174 19.7357 217.03 19.8496L216.374 21.2031C215.39 21.0573 214.533 20.777 213.804 20.3623C213.079 19.9476 212.519 19.4372 212.122 18.8311C211.726 19.4372 211.165 19.9476 210.44 20.3623C209.716 20.777 208.864 21.0573 207.884 21.2031L207.173 19.8496ZM219.259 22.8848H217.81L218.493 18.9883H220.435L219.259 22.8848ZM226.368 10.7715C226.364 11.291 226.464 11.7855 226.669 12.2549C226.879 12.7197 227.195 13.1344 227.619 13.499C228.048 13.8636 228.578 14.1439 229.212 14.3398L228.282 15.6934C227.635 15.4792 227.079 15.1693 226.614 14.7637C226.149 14.3581 225.78 13.8773 225.507 13.3213C225.229 13.9639 224.844 14.5199 224.352 14.9893C223.864 15.4541 223.274 15.8027 222.581 16.0352L221.638 14.668C222.308 14.4447 222.864 14.1257 223.306 13.7109C223.748 13.2962 224.076 12.8245 224.29 12.2959C224.504 11.7627 224.614 11.1999 224.618 10.6074V9.47266H226.368V10.7715ZM223.36 18.8516C223.36 18.3548 223.531 17.9264 223.873 17.5664C224.219 17.2018 224.714 16.9238 225.356 16.7324C225.999 16.541 226.756 16.4453 227.626 16.4453C228.483 16.4453 229.226 16.541 229.854 16.7324C230.483 16.9238 230.969 17.2018 231.311 17.5664C231.652 17.9264 231.823 18.3548 231.823 18.8516C231.823 19.3529 231.652 19.7835 231.311 20.1436C230.969 20.5081 230.483 20.7839 229.854 20.9707C229.226 21.1621 228.483 21.2578 227.626 21.2578C226.756 21.2578 225.999 21.1621 225.356 20.9707C224.714 20.7839 224.219 20.5081 223.873 20.1436C223.531 19.7835 223.36 19.3529 223.36 18.8516ZM225.11 18.8516C225.106 19.1979 225.315 19.4577 225.739 19.6309C226.168 19.804 226.797 19.8906 227.626 19.8906C229.276 19.8906 230.101 19.5443 230.101 18.8516C230.101 18.5143 229.889 18.2568 229.465 18.0791C229.046 17.9014 228.433 17.8125 227.626 17.8125C226.806 17.8125 226.179 17.9014 225.746 18.0791C225.318 18.2568 225.106 18.5143 225.11 18.8516ZM229.95 8.81641H231.7V11.7285H233.382V13.1777H231.7V16.1992H229.95V8.81641ZM245.276 16.0215H240.464V17.0879H243.923V21.1211H235.241V17.0879H238.728V16.0215H233.929V14.6406H245.276V16.0215ZM234.927 9.1582H244.265V10.5527H242.638V12.4531H244.183V13.8477H235.009V12.4531H236.54V10.5527H234.927V9.1582ZM242.214 19.7266V18.4414H236.964V19.7266H242.214ZM240.888 12.4531V10.5527H238.29V12.4531H240.888ZM256.665 18.1953H254.901V16.8145H252.468V15.4473H254.901V8.83008H256.665V18.1953ZM246.09 13.5332C247.061 13.5241 247.936 13.5104 248.715 13.4922C249.494 13.474 250.278 13.4421 251.066 13.3965C251.189 12.5671 251.269 11.7057 251.306 10.8125H247.081V9.43164H253.056V9.89648C253.056 10.4069 253.04 10.9242 253.008 11.4482C252.98 11.9723 252.914 12.5762 252.81 13.2598C253.174 13.2279 253.575 13.1823 254.013 13.123L254.122 14.3535C253.174 14.5221 252.131 14.652 250.991 14.7432V17.416H249.419V19.6445H256.952V21.0391H247.669V17.2383H249.269V14.8457C248.339 14.8913 247.304 14.9141 246.165 14.9141L245.946 13.5332H246.09Z" fill="#FF7373"/>
<path d="M93.3506 60H92.2666V54.0039H92.2275L90.5381 55.1074V54.082L92.2959 52.9297H93.3506V60ZM97.6084 60.0977C97.0648 60.0977 96.5977 59.9561 96.207 59.6729C95.8197 59.3864 95.5234 58.9714 95.3184 58.4277C95.1133 57.8841 95.0107 57.2298 95.0107 56.4648C95.0107 55.7031 95.1133 55.0505 95.3184 54.5068C95.5267 53.9632 95.8245 53.5482 96.2119 53.2617C96.6025 52.9753 97.068 52.832 97.6084 52.832C98.1455 52.832 98.6077 52.9753 98.9951 53.2617C99.3857 53.5482 99.6852 53.9632 99.8936 54.5068C100.102 55.0505 100.206 55.7031 100.206 56.4648C100.206 57.2298 100.102 57.8857 99.8936 58.4326C99.6885 58.9762 99.3923 59.3896 99.0049 59.6729C98.6175 59.9561 98.152 60.0977 97.6084 60.0977ZM96.085 56.4893C96.085 57.0654 96.1452 57.5537 96.2656 57.9541C96.3861 58.3545 96.5602 58.6572 96.7881 58.8623C97.016 59.0674 97.2894 59.1699 97.6084 59.1699C97.9274 59.1699 98.2008 59.0674 98.4287 58.8623C98.6566 58.654 98.8307 58.348 98.9512 57.9443C99.0716 57.5407 99.1318 57.0475 99.1318 56.4648C99.1318 55.8854 99.07 55.3923 98.9463 54.9854C98.8258 54.5785 98.6517 54.2708 98.4238 54.0625C98.196 53.8509 97.9242 53.7435 97.6084 53.7402C97.2894 53.7402 97.016 53.8477 96.7881 54.0625C96.5602 54.2741 96.3861 54.5866 96.2656 55C96.1452 55.4102 96.085 55.9066 96.085 56.4893ZM101.749 60.0684C101.625 60.0684 101.51 60.0374 101.402 59.9756C101.298 59.9137 101.214 59.8307 101.148 59.7266C101.087 59.6224 101.056 59.5085 101.056 59.3848C101.056 59.2578 101.087 59.1406 101.148 59.0332C101.21 58.9258 101.293 58.8411 101.397 58.7793C101.505 58.7142 101.622 58.6816 101.749 58.6816C101.873 58.6816 101.987 58.7126 102.091 58.7744C102.198 58.8363 102.283 58.9209 102.345 59.0283C102.41 59.1357 102.442 59.2513 102.442 59.375C102.442 59.4987 102.41 59.6143 102.345 59.7217C102.283 59.8258 102.198 59.9105 102.091 59.9756C101.987 60.0374 101.873 60.0684 101.749 60.0684ZM103.692 59.2188L106.144 56.748C106.44 56.4421 106.666 56.1947 106.822 56.0059C106.979 55.8138 107.097 55.6283 107.179 55.4492C107.263 55.2669 107.306 55.0749 107.306 54.873C107.306 54.6452 107.249 54.445 107.135 54.2725C107.021 54.0999 106.865 53.9665 106.666 53.8721C106.467 53.7777 106.244 53.7305 105.997 53.7305C105.737 53.7305 105.509 53.7826 105.313 53.8867C105.121 53.9909 104.972 54.1374 104.864 54.3262C104.76 54.5117 104.708 54.7298 104.708 54.9805H103.692C103.689 54.5573 103.787 54.1829 103.985 53.8574C104.184 53.5319 104.461 53.2796 104.815 53.1006C105.17 52.9215 105.571 52.832 106.017 52.832C106.463 52.832 106.86 52.9199 107.208 53.0957C107.56 53.2682 107.833 53.5075 108.028 53.8135C108.227 54.1195 108.328 54.4629 108.331 54.8438C108.328 55.1139 108.276 55.3743 108.175 55.625C108.074 55.8724 107.901 56.1491 107.657 56.4551C107.413 56.7578 107.068 57.1289 106.622 57.5684L105.187 59.0234V59.082H108.448V60H103.692V59.2188ZM111.261 56.2891C110.945 56.2923 110.675 56.2207 110.45 56.0742C110.226 55.9277 110.056 55.7227 109.942 55.459C109.828 55.1921 109.773 54.8828 109.776 54.5312C109.773 54.1862 109.83 53.8818 109.947 53.6182C110.064 53.3512 110.235 53.1462 110.46 53.0029C110.685 52.8564 110.951 52.7832 111.261 52.7832C111.576 52.7832 111.845 52.8564 112.066 53.0029C112.291 53.1462 112.459 53.3496 112.569 53.6133C112.683 53.877 112.742 54.1829 112.745 54.5312C112.742 54.8861 112.682 55.1969 112.564 55.4639C112.451 55.7275 112.283 55.9326 112.062 56.0791C111.84 56.2223 111.573 56.2923 111.261 56.2891ZM115.431 52.9297H116.319L111.466 60H110.577L115.431 52.9297ZM110.577 54.5312C110.58 54.8633 110.639 55.1253 110.753 55.3174C110.87 55.5062 111.039 55.6022 111.261 55.6055C111.485 55.6022 111.653 55.5062 111.764 55.3174C111.878 55.1286 111.935 54.8665 111.935 54.5312C111.935 54.2025 111.879 53.9437 111.769 53.7549C111.661 53.5628 111.495 53.4668 111.271 53.4668C111.046 53.4668 110.875 53.5628 110.758 53.7549C110.641 53.9437 110.58 54.2025 110.577 54.5312ZM114.239 58.3887C114.236 58.0404 114.293 57.7344 114.41 57.4707C114.531 57.2038 114.701 56.9971 114.923 56.8506C115.147 56.7041 115.414 56.6309 115.724 56.6309C116.039 56.6309 116.308 56.7041 116.529 56.8506C116.751 56.9938 116.918 57.1989 117.032 57.4658C117.146 57.7295 117.205 58.0371 117.208 58.3887C117.205 58.7402 117.145 59.0479 117.027 59.3115C116.913 59.5752 116.746 59.7803 116.524 59.9268C116.303 60.0732 116.036 60.1465 115.724 60.1465C115.408 60.1465 115.138 60.0732 114.913 59.9268C114.692 59.7803 114.522 59.5752 114.405 59.3115C114.291 59.0446 114.236 58.737 114.239 58.3887ZM115.04 58.3887C115.043 58.7174 115.102 58.9779 115.216 59.1699C115.333 59.3587 115.502 59.4531 115.724 59.4531C115.948 59.4531 116.116 59.3587 116.227 59.1699C116.34 58.9811 116.397 58.7207 116.397 58.3887C116.397 58.0534 116.342 57.7913 116.231 57.6025C116.121 57.4105 115.951 57.3145 115.724 57.3145C115.506 57.3177 115.338 57.4154 115.221 57.6074C115.104 57.7995 115.043 58.0599 115.04 58.3887Z" fill="#E39192" fill-opacity="0.2"/>
<path d="M121.449 34.832C121.924 34.832 122.362 34.9395 122.763 35.1543C123.166 35.3659 123.495 35.724 123.749 36.2285C124.006 36.7298 124.135 37.3906 124.135 38.2109C124.135 39.028 124.022 39.7279 123.798 40.3105C123.573 40.8932 123.253 41.3376 122.836 41.6436C122.423 41.9463 121.934 42.0977 121.371 42.0977C120.945 42.0977 120.561 42.0163 120.219 41.8535C119.88 41.6875 119.604 41.4564 119.389 41.1602C119.177 40.8639 119.044 40.5254 118.988 40.1445H120.053C120.128 40.4505 120.279 40.6963 120.507 40.8818C120.735 41.0641 121.023 41.1569 121.371 41.1602C121.732 41.1602 122.042 41.0592 122.299 40.8574C122.559 40.6523 122.758 40.3577 122.895 39.9736C123.035 39.5895 123.106 39.1289 123.109 38.5918H123.021C122.829 38.8913 122.574 39.1257 122.255 39.2949C121.939 39.4642 121.592 39.5488 121.215 39.5488C120.795 39.5488 120.411 39.4495 120.062 39.251C119.714 39.0492 119.438 38.7725 119.232 38.4209C119.031 38.0661 118.93 37.6673 118.93 37.2246C118.93 36.7786 119.034 36.3734 119.242 36.0088C119.451 35.6442 119.745 35.3577 120.126 35.1494C120.51 34.9378 120.951 34.832 121.449 34.832ZM119.975 37.1953C119.975 37.4655 120.038 37.7145 120.165 37.9424C120.292 38.167 120.466 38.3444 120.688 38.4746C120.912 38.6048 121.166 38.6699 121.449 38.6699C121.726 38.6699 121.98 38.6032 122.211 38.4697C122.445 38.333 122.629 38.1507 122.763 37.9229C122.896 37.695 122.963 37.4525 122.963 37.1953C122.963 36.9414 122.898 36.7021 122.768 36.4775C122.637 36.2497 122.458 36.069 122.23 35.9355C122.003 35.7988 121.749 35.7305 121.469 35.7305C121.192 35.7305 120.94 35.7972 120.712 35.9307C120.484 36.0609 120.303 36.2383 120.17 36.4629C120.04 36.6842 119.975 36.9284 119.975 37.1953ZM126.889 38.2891C126.573 38.2923 126.303 38.2207 126.078 38.0742C125.854 37.9277 125.684 37.7227 125.57 37.459C125.456 37.1921 125.401 36.8828 125.404 36.5312C125.401 36.1862 125.458 35.8818 125.575 35.6182C125.692 35.3512 125.863 35.1462 126.088 35.0029C126.312 34.8564 126.579 34.7832 126.889 34.7832C127.204 34.7832 127.473 34.8564 127.694 35.0029C127.919 35.1462 128.087 35.3496 128.197 35.6133C128.311 35.877 128.37 36.1829 128.373 36.5312C128.37 36.8861 128.31 37.1969 128.192 37.4639C128.078 37.7275 127.911 37.9326 127.689 38.0791C127.468 38.2223 127.201 38.2923 126.889 38.2891ZM131.059 34.9297H131.947L127.094 42H126.205L131.059 34.9297ZM126.205 36.5312C126.208 36.8633 126.267 37.1253 126.381 37.3174C126.498 37.5062 126.667 37.6022 126.889 37.6055C127.113 37.6022 127.281 37.5062 127.392 37.3174C127.506 37.1286 127.562 36.8665 127.562 36.5312C127.562 36.2025 127.507 35.9437 127.396 35.7549C127.289 35.5628 127.123 35.4668 126.898 35.4668C126.674 35.4668 126.503 35.5628 126.386 35.7549C126.269 35.9437 126.208 36.2025 126.205 36.5312ZM129.867 40.3887C129.864 40.0404 129.921 39.7344 130.038 39.4707C130.159 39.2038 130.329 38.9971 130.551 38.8506C130.775 38.7041 131.042 38.6309 131.352 38.6309C131.667 38.6309 131.936 38.7041 132.157 38.8506C132.379 38.9938 132.546 39.1989 132.66 39.4658C132.774 39.7295 132.833 40.0371 132.836 40.3887C132.833 40.7402 132.772 41.0479 132.655 41.3115C132.541 41.5752 132.374 41.7803 132.152 41.9268C131.931 42.0732 131.664 42.1465 131.352 42.1465C131.036 42.1465 130.766 42.0732 130.541 41.9268C130.32 41.7803 130.15 41.5752 130.033 41.3115C129.919 41.0446 129.864 40.737 129.867 40.3887ZM130.668 40.3887C130.671 40.7174 130.73 40.9779 130.844 41.1699C130.961 41.3587 131.13 41.4531 131.352 41.4531C131.576 41.4531 131.744 41.3587 131.854 41.1699C131.968 40.9811 132.025 40.7207 132.025 40.3887C132.025 40.0534 131.97 39.7913 131.859 39.6025C131.749 39.4105 131.579 39.3145 131.352 39.3145C131.133 39.3177 130.966 39.4154 130.849 39.6074C130.731 39.7995 130.671 40.0599 130.668 40.3887Z" fill="#E39192" fill-opacity="0.2"/>
</g>
<defs>
<clipPath id="clip0_2198_33226">
<rect width="280" height="176" fill="white"/>
</clipPath>
</defs>
</svg>
