<svg width="160" height="160" viewBox="0 0 160 160" fill="none" xmlns="http://www.w3.org/2000/svg">
<g clip-path="url(#clip0_2111_39959)">
<g filter="url(#filter0_f_2111_39959)">
<ellipse cx="78.6663" cy="86" rx="39.3333" ry="42" fill="#FF5C5C" fill-opacity="0.3"/>
</g>
<g clip-path="url(#clip1_2111_39959)">
<path d="M71.7916 43.1984L33.6129 109.491C29.6208 116.422 34.6116 125.086 42.5958 125.086H118.956C126.94 125.086 131.928 116.422 127.939 109.491L89.7574 43.1984C85.7653 36.2672 75.7837 36.2672 71.7916 43.1984Z" fill="url(#paint0_linear_2111_39959)"/>
<g style="mix-blend-mode:plus-lighter">
<path d="M69.8938 45.6537C73.7217 38.9918 83.2926 38.9917 87.1204 45.6537L123.73 109.373C127.555 116.036 122.773 124.362 115.117 124.363H41.8997C34.2442 124.363 29.4589 116.036 33.2864 109.373L69.8938 45.6537ZM78.5071 98.7807C76.1292 98.7808 74.2026 100.717 74.2024 103.107C74.2024 105.497 76.1291 107.434 78.5071 107.434C80.8852 107.434 82.8128 105.497 82.8128 103.107C82.8126 100.717 80.8851 98.7807 78.5071 98.7807ZM78.5052 67.7778C76.4916 67.7778 74.8608 69.4165 74.8606 71.4399V89.4672C74.8608 91.4906 76.4916 93.1293 78.5052 93.1293C80.5186 93.1292 82.1495 91.4906 82.1497 89.4672V71.4399C82.1495 69.4165 80.5186 67.7778 78.5052 67.7778Z" fill="url(#paint1_linear_2111_39959)" fill-opacity="0.6"/>
<path d="M69.8938 45.6537C73.7217 38.9918 83.2926 38.9917 87.1204 45.6537L123.73 109.373C127.555 116.036 122.773 124.362 115.117 124.363H41.8997C34.2442 124.363 29.4589 116.036 33.2864 109.373L69.8938 45.6537ZM78.5071 98.7807C76.1292 98.7808 74.2026 100.717 74.2024 103.107C74.2024 105.497 76.1291 107.434 78.5071 107.434C80.8852 107.434 82.8128 105.497 82.8128 103.107C82.8126 100.717 80.8851 98.7807 78.5071 98.7807ZM78.5052 67.7778C76.4916 67.7778 74.8608 69.4165 74.8606 71.4399V89.4672C74.8608 91.4906 76.4916 93.1293 78.5052 93.1293C80.5186 93.1292 82.1495 91.4906 82.1497 89.4672V71.4399C82.1495 69.4165 80.5186 67.7778 78.5052 67.7778Z" fill="url(#paint2_radial_2111_39959)" fill-opacity="0.1"/>
<path d="M69.8938 45.6537L69.7047 45.545L69.7047 45.545L69.8938 45.6537ZM87.1204 45.6537L87.3096 45.545L87.3096 45.545L87.1204 45.6537ZM123.73 109.373L123.919 109.265L123.919 109.265L123.73 109.373ZM115.117 124.363V124.581H115.117L115.117 124.363ZM33.2864 109.373L33.4756 109.482H33.4756L33.2864 109.373ZM78.5071 98.7807V98.5625H78.5071L78.5071 98.7807ZM74.2024 103.107L73.9843 103.107V103.107H74.2024ZM78.5071 107.434L78.5071 107.652H78.5071V107.434ZM82.8128 103.107H83.031V103.107L82.8128 103.107ZM78.5052 67.7778L78.5052 67.5596H78.5052V67.7778ZM74.8606 71.4399L74.6425 71.4398V71.4399H74.8606ZM74.8606 89.4672H74.6425V89.4672L74.8606 89.4672ZM78.5052 93.1293V93.3475H78.5052L78.5052 93.1293ZM82.1497 89.4672L82.3679 89.4672V89.4672H82.1497ZM82.1497 71.4399H82.3679V71.4398L82.1497 71.4399ZM69.8938 45.6537L70.083 45.7624C73.827 39.2464 83.1873 39.2464 86.9312 45.7624L87.1204 45.6537L87.3096 45.545C83.3979 38.737 73.6164 38.7371 69.7047 45.545L69.8938 45.6537ZM87.1204 45.6537L86.9312 45.7624L123.541 109.482L123.73 109.373L123.919 109.265L87.3096 45.545L87.1204 45.6537ZM123.73 109.373L123.541 109.482C127.283 116 122.603 124.144 115.117 124.145L115.117 124.363L115.117 124.581C122.942 124.581 127.827 116.071 123.919 109.265L123.73 109.373ZM115.117 124.363V124.145H41.8997V124.363V124.581H115.117V124.363ZM41.8997 124.363V124.145C34.4138 124.145 29.7307 116 33.4756 109.482L33.2864 109.373L33.0972 109.265C29.187 116.071 34.0747 124.581 41.8997 124.581V124.363ZM33.2864 109.373L33.4756 109.482L70.083 45.7624L69.8938 45.6537L69.7047 45.545L33.0972 109.265L33.2864 109.373ZM78.5071 98.7807L78.5071 98.5625C76.0077 98.5626 73.9845 100.598 73.9843 103.107L74.2024 103.107L74.4206 103.107C74.4208 100.837 76.2507 98.9989 78.5071 98.9989L78.5071 98.7807ZM74.2024 103.107H73.9843C73.9843 105.616 76.0075 107.652 78.5071 107.652L78.5071 107.434L78.5071 107.216C76.2507 107.216 74.4206 105.377 74.4206 103.107H74.2024ZM78.5071 107.434V107.652C81.0068 107.652 83.031 105.616 83.031 103.107H82.8128H82.5946C82.5946 105.377 80.7637 107.216 78.5071 107.216V107.434ZM82.8128 103.107L83.031 103.107C83.0308 100.598 81.0066 98.5625 78.5071 98.5625V98.7807V98.9989C80.7636 98.9989 82.5944 100.837 82.5946 103.107L82.8128 103.107ZM78.5052 67.7778V67.5596C76.3701 67.5596 74.6427 69.297 74.6425 71.4398L74.8606 71.4399L75.0788 71.4399C75.079 69.536 76.6131 67.9959 78.5052 67.9959V67.7778ZM74.8606 71.4399H74.6425V89.4672H74.8606H75.0788V71.4399H74.8606ZM74.8606 89.4672L74.6425 89.4672C74.6427 91.6101 76.3701 93.3475 78.5052 93.3475V93.1293V92.9111C76.6131 92.9111 75.079 91.3711 75.0788 89.4672L74.8606 89.4672ZM78.5052 93.1293L78.5052 93.3475C80.6401 93.3474 82.3677 91.6101 82.3679 89.4672L82.1497 89.4672L81.9315 89.4672C81.9314 91.371 80.3972 92.9111 78.5052 92.9111L78.5052 93.1293ZM82.1497 89.4672H82.3679V71.4399H82.1497H81.9315V89.4672H82.1497ZM82.1497 71.4399L82.3679 71.4398C82.3677 69.297 80.6401 67.5597 78.5052 67.5596L78.5052 67.7778L78.5052 67.9959C80.3971 67.996 81.9313 69.536 81.9315 71.4399L82.1497 71.4399Z" fill="url(#paint3_linear_2111_39959)" fill-opacity="0.6"/>
</g>
<mask id="mask0_2111_39959" style="mask-type:alpha" maskUnits="userSpaceOnUse" x="20" y="27" width="104" height="93">
<rect x="105.854" y="27.4451" width="27.1253" height="111.21" transform="rotate(50.3618 105.854 27.4451)" fill="url(#paint4_linear_2111_39959)" fill-opacity="0.4"/>
</mask>
<g mask="url(#mask0_2111_39959)">
<g style="mix-blend-mode:plus-lighter">
<path d="M69.8736 45.8183C73.6995 39.2194 83.2666 39.2194 87.0926 45.8183L123.684 109.516C127.507 116.115 122.727 124.364 115.075 124.364H41.8937C34.2419 124.364 29.459 116.115 33.2849 109.516L69.8736 45.8183ZM78.4852 99.0248C76.1087 99.025 74.1826 100.943 74.1822 103.31C74.1822 105.677 76.1085 107.596 78.4852 107.596C80.8621 107.596 82.7882 105.677 82.7882 103.31C82.7878 100.943 80.8619 99.0248 78.4852 99.0248ZM78.4838 68.3166C76.4711 68.3166 74.8401 69.9408 74.8401 71.9452V89.7993C74.8401 91.8036 76.4711 93.4278 78.4838 93.4278C80.4963 93.4276 82.1261 91.8035 82.1261 89.7993V71.9452C82.1261 69.941 80.4963 68.3168 78.4838 68.3166Z" fill="url(#paint5_linear_2111_39959)" fill-opacity="0.5"/>
<path d="M69.8736 45.8183C73.6995 39.2194 83.2666 39.2194 87.0926 45.8183L123.684 109.516C127.507 116.115 122.727 124.364 115.075 124.364H41.8937C34.2419 124.364 29.459 116.115 33.2849 109.516L69.8736 45.8183ZM78.4852 99.0248C76.1087 99.025 74.1826 100.943 74.1822 103.31C74.1822 105.677 76.1085 107.596 78.4852 107.596C80.8621 107.596 82.7882 105.677 82.7882 103.31C82.7878 100.943 80.8619 99.0248 78.4852 99.0248ZM78.4838 68.3166C76.4711 68.3166 74.8401 69.9408 74.8401 71.9452V89.7993C74.8401 91.8036 76.4711 93.4278 78.4838 93.4278C80.4963 93.4276 82.1261 91.8035 82.1261 89.7993V71.9452C82.1261 69.941 80.4963 68.3168 78.4838 68.3166Z" fill="url(#paint6_radial_2111_39959)" fill-opacity="0.1"/>
<path d="M69.8736 45.8183C73.6995 39.2194 83.2666 39.2194 87.0926 45.8183L123.684 109.516C127.507 116.115 122.727 124.364 115.075 124.364H41.8937C34.2419 124.364 29.459 116.115 33.2849 109.516L69.8736 45.8183ZM78.4852 99.0248C76.1087 99.025 74.1826 100.943 74.1822 103.31C74.1822 105.677 76.1085 107.596 78.4852 107.596C80.8621 107.596 82.7882 105.677 82.7882 103.31C82.7878 100.943 80.8619 99.0248 78.4852 99.0248ZM78.4838 68.3166C76.4711 68.3166 74.8401 69.9408 74.8401 71.9452V89.7993C74.8401 91.8036 76.4711 93.4278 78.4838 93.4278C80.4963 93.4276 82.1261 91.8035 82.1261 89.7993V71.9452C82.1261 69.941 80.4963 68.3168 78.4838 68.3166Z" stroke="url(#paint7_linear_2111_39959)" stroke-opacity="0.6" stroke-width="0.436364"/>
</g>
</g>
<mask id="mask1_2111_39959" style="mask-type:alpha" maskUnits="userSpaceOnUse" x="39" y="56" width="89" height="75">
<rect x="124.974" y="56" width="4.10626" height="111.21" transform="rotate(50.3618 124.974 56)" fill="url(#paint8_linear_2111_39959)" fill-opacity="0.4"/>
</mask>
<g mask="url(#mask1_2111_39959)">
<g style="mix-blend-mode:plus-lighter">
<path d="M69.8727 45.8183C73.6986 39.2194 83.2657 39.2194 87.0916 45.8183L123.683 109.516C127.506 116.115 122.726 124.364 115.074 124.364H41.8927C34.2409 124.364 29.4581 116.115 33.284 109.516L69.8727 45.8183ZM78.4842 99.0248C76.1077 99.025 74.1816 100.943 74.1812 103.31C74.1812 105.677 76.1075 107.596 78.4842 107.596C80.8612 107.596 82.7872 105.677 82.7872 103.31C82.7868 100.943 80.8609 99.0248 78.4842 99.0248ZM78.4828 68.3166C76.4701 68.3166 74.8391 69.9408 74.8391 71.9452V89.7993C74.8391 91.8036 76.4701 93.4278 78.4828 93.4278C80.4953 93.4276 82.1251 91.8035 82.1251 89.7993V71.9452C82.1251 69.941 80.4953 68.3168 78.4828 68.3166Z" fill="url(#paint9_linear_2111_39959)" fill-opacity="0.5"/>
<path d="M69.8727 45.8183C73.6986 39.2194 83.2657 39.2194 87.0916 45.8183L123.683 109.516C127.506 116.115 122.726 124.364 115.074 124.364H41.8927C34.2409 124.364 29.4581 116.115 33.284 109.516L69.8727 45.8183ZM78.4842 99.0248C76.1077 99.025 74.1816 100.943 74.1812 103.31C74.1812 105.677 76.1075 107.596 78.4842 107.596C80.8612 107.596 82.7872 105.677 82.7872 103.31C82.7868 100.943 80.8609 99.0248 78.4842 99.0248ZM78.4828 68.3166C76.4701 68.3166 74.8391 69.9408 74.8391 71.9452V89.7993C74.8391 91.8036 76.4701 93.4278 78.4828 93.4278C80.4953 93.4276 82.1251 91.8035 82.1251 89.7993V71.9452C82.1251 69.941 80.4953 68.3168 78.4828 68.3166Z" fill="url(#paint10_radial_2111_39959)" fill-opacity="0.1"/>
<path d="M69.8727 45.8183C73.6986 39.2194 83.2657 39.2194 87.0916 45.8183L123.683 109.516C127.506 116.115 122.726 124.364 115.074 124.364H41.8927C34.2409 124.364 29.4581 116.115 33.284 109.516L69.8727 45.8183ZM78.4842 99.0248C76.1077 99.025 74.1816 100.943 74.1812 103.31C74.1812 105.677 76.1075 107.596 78.4842 107.596C80.8612 107.596 82.7872 105.677 82.7872 103.31C82.7868 100.943 80.8609 99.0248 78.4842 99.0248ZM78.4828 68.3166C76.4701 68.3166 74.8391 69.9408 74.8391 71.9452V89.7993C74.8391 91.8036 76.4701 93.4278 78.4828 93.4278C80.4953 93.4276 82.1251 91.8035 82.1251 89.7993V71.9452C82.1251 69.941 80.4953 68.3168 78.4828 68.3166Z" stroke="url(#paint11_linear_2111_39959)" stroke-opacity="0.6" stroke-width="0.436364"/>
</g>
</g>
</g>
</g>
<defs>
<filter id="filter0_f_2111_39959" x="-10.667" y="-6" width="178.667" height="184" filterUnits="userSpaceOnUse" color-interpolation-filters="sRGB">
<feFlood flood-opacity="0" result="BackgroundImageFix"/>
<feBlend mode="normal" in="SourceGraphic" in2="BackgroundImageFix" result="shape"/>
<feGaussianBlur stdDeviation="25" result="effect1_foregroundBlur_2111_39959"/>
</filter>
<linearGradient id="paint0_linear_2111_39959" x1="56.4917" y1="43.5932" x2="99.083" y2="134.736" gradientUnits="userSpaceOnUse">
<stop stop-color="#FF5D5D"/>
<stop offset="1" stop-color="#920000"/>
</linearGradient>
<linearGradient id="paint1_linear_2111_39959" x1="67.1947" y1="37.1386" x2="129.086" y2="163.187" gradientUnits="userSpaceOnUse">
<stop stop-color="#FF7676"/>
<stop offset="0.524285" stop-color="#FF7676" stop-opacity="0.5"/>
<stop offset="1" stop-color="#FF7373" stop-opacity="0.196078"/>
</linearGradient>
<radialGradient id="paint2_radial_2111_39959" cx="0" cy="0" r="1" gradientUnits="userSpaceOnUse" gradientTransform="translate(70.0508 43.5964) rotate(60.1214) scale(35.8331 39.9677)">
<stop stop-color="white"/>
<stop offset="0.55" stop-color="white" stop-opacity="0.2882"/>
<stop offset="1" stop-color="white" stop-opacity="0"/>
</radialGradient>
<linearGradient id="paint3_linear_2111_39959" x1="70.0508" y1="46.4665" x2="105.999" y2="101.556" gradientUnits="userSpaceOnUse">
<stop stop-color="white"/>
<stop offset="1" stop-color="#C32D30" stop-opacity="0"/>
</linearGradient>
<linearGradient id="paint4_linear_2111_39959" x1="110.931" y1="59.5013" x2="153.279" y2="96.2415" gradientUnits="userSpaceOnUse">
<stop stop-color="white"/>
<stop offset="1" stop-color="white" stop-opacity="0"/>
</linearGradient>
<linearGradient id="paint5_linear_2111_39959" x1="67.1765" y1="37.9695" x2="128.138" y2="163.257" gradientUnits="userSpaceOnUse">
<stop stop-color="#FF7676"/>
<stop offset="0.524285" stop-color="#FF7676" stop-opacity="0.5"/>
<stop offset="1" stop-color="#FF7373" stop-opacity="0.196078"/>
</linearGradient>
<radialGradient id="paint6_radial_2111_39959" cx="0" cy="0" r="1" gradientUnits="userSpaceOnUse" gradientTransform="translate(70.0312 44.3659) rotate(59.8964) scale(35.5727 39.8578)">
<stop stop-color="white"/>
<stop offset="0.55" stop-color="white" stop-opacity="0.2882"/>
<stop offset="1" stop-color="white" stop-opacity="0"/>
</radialGradient>
<linearGradient id="paint7_linear_2111_39959" x1="70.0312" y1="47.2088" x2="105.506" y2="102.069" gradientUnits="userSpaceOnUse">
<stop stop-color="white"/>
<stop offset="1" stop-color="#C32D30" stop-opacity="0"/>
</linearGradient>
<linearGradient id="paint8_linear_2111_39959" x1="125.742" y1="88.0562" x2="136.788" y2="89.5069" gradientUnits="userSpaceOnUse">
<stop stop-color="white"/>
<stop offset="1" stop-color="white" stop-opacity="0"/>
</linearGradient>
<linearGradient id="paint9_linear_2111_39959" x1="67.1755" y1="37.9695" x2="128.137" y2="163.257" gradientUnits="userSpaceOnUse">
<stop stop-color="#FF7676"/>
<stop offset="0.524285" stop-color="#FF7676" stop-opacity="0.5"/>
<stop offset="1" stop-color="#FF7373" stop-opacity="0.196078"/>
</linearGradient>
<radialGradient id="paint10_radial_2111_39959" cx="0" cy="0" r="1" gradientUnits="userSpaceOnUse" gradientTransform="translate(70.0303 44.3659) rotate(59.8964) scale(35.5727 39.8578)">
<stop stop-color="white"/>
<stop offset="0.55" stop-color="white" stop-opacity="0.2882"/>
<stop offset="1" stop-color="white" stop-opacity="0"/>
</radialGradient>
<linearGradient id="paint11_linear_2111_39959" x1="70.0303" y1="47.2088" x2="105.505" y2="102.069" gradientUnits="userSpaceOnUse">
<stop stop-color="white"/>
<stop offset="1" stop-color="#C32D30" stop-opacity="0"/>
</linearGradient>
<clipPath id="clip0_2111_39959">
<rect width="160" height="160" fill="white"/>
</clipPath>
<clipPath id="clip1_2111_39959">
<rect width="112" height="112" fill="white" transform="translate(24.667 24)"/>
</clipPath>
</defs>
</svg>
