<svg width="24" height="24" viewBox="0 0 24 24" fill="none" xmlns="http://www.w3.org/2000/svg">
<g clip-path="url(#clip0_1698_31084)">
<path d="M17.5447 8.30588C17.4745 8.34918 15.9297 9.2486 15.9472 11.1197C15.9666 13.3578 17.9092 14.1031 17.9315 14.1116C17.9141 14.1648 17.6209 15.1731 16.9075 16.2143C16.291 17.1164 15.6524 18.0134 14.6444 18.0321C13.6541 18.0502 13.3349 17.4445 12.2036 17.4445C11.0716 17.4445 10.7173 18.0134 9.78082 18.0502C8.80789 18.0871 8.06717 17.0761 7.44611 16.179C6.17647 14.3431 5.20574 10.9905 6.50921 8.72797C7.15632 7.60433 8.31297 6.89247 9.56795 6.87408C10.5237 6.85602 11.4251 7.5166 12.0097 7.5166C12.586 7.5166 13.6188 6.74654 14.8362 6.83661C15.3133 6.87197 16.6678 7.01437 17.5447 8.30588ZM14.085 5.62463C14.6021 4.99975 14.9499 4.1295 14.8541 3.26392C14.11 3.29343 13.21 3.7596 12.6762 4.38409C12.1982 4.93728 11.7785 5.82328 11.8924 6.6712C12.7219 6.73529 13.5684 6.24989 14.085 5.62463Z" fill="white"/>
</g>
<defs>
<clipPath id="clip0_1698_31084">
<rect width="24" height="24" fill="white"/>
</clipPath>
</defs>
</svg>
