<svg width="31" height="32" viewBox="0 0 31 32" fill="none" xmlns="http://www.w3.org/2000/svg">
<path d="M16 0C22.4657 0 28.0346 3.83565 30.558 9.35532C30.7041 9.67492 30.5342 10.0456 30.2013 10.1582L20.2431 13.5283C20.0344 13.5989 19.8026 13.5526 19.6448 13.3988C18.4215 12.206 17.4705 10.5972 16.9216 8.73264L16.2788 6.54861C16.1957 6.26649 15.7958 6.26649 15.7128 6.54861L15.0699 8.73264C14.2215 11.6151 12.4139 13.8882 10.121 14.9549L8.19345 15.8512C7.96658 15.9571 7.9665 16.2801 8.19345 16.3859L10.121 17.2822C12.4139 18.3489 14.2215 20.622 15.0699 23.5045L15.7128 25.6885C15.7958 25.9706 16.1956 25.9705 16.2788 25.6885L16.9216 23.5045C17.4379 21.7506 18.3094 20.2221 19.4291 19.0541C19.5865 18.8898 19.8261 18.8378 20.0417 18.9107L29.9934 22.2793C30.3332 22.3943 30.5015 22.7771 30.3422 23.0985C27.7264 28.3735 22.2871 32 16 32C7.16344 32 0 24.8366 0 16C0 7.16344 7.16344 0 16 0Z" fill="white"/>
<path d="M16 0C22.4657 0 28.0346 3.83565 30.558 9.35532C30.7041 9.67492 30.5342 10.0456 30.2013 10.1582L20.2431 13.5283C20.0344 13.5989 19.8026 13.5526 19.6448 13.3988C18.4215 12.206 17.4705 10.5972 16.9216 8.73264L16.2788 6.54861C16.1957 6.26649 15.7958 6.26649 15.7128 6.54861L15.0699 8.73264C14.2215 11.6151 12.4139 13.8882 10.121 14.9549L8.19345 15.8512C7.96658 15.9571 7.9665 16.2801 8.19345 16.3859L10.121 17.2822C12.4139 18.3489 14.2215 20.622 15.0699 23.5045L15.7128 25.6885C15.7958 25.9706 16.1956 25.9705 16.2788 25.6885L16.9216 23.5045C17.4379 21.7506 18.3094 20.2221 19.4291 19.0541C19.5865 18.8898 19.8261 18.8378 20.0417 18.9107L29.9934 22.2793C30.3332 22.3943 30.5015 22.7771 30.3422 23.0985C27.7264 28.3735 22.2871 32 16 32C7.16344 32 0 24.8366 0 16C0 7.16344 7.16344 0 16 0Z" fill="url(#paint0_linear_1341_29589)" fill-opacity="0.2"/>
<defs>
<linearGradient id="paint0_linear_1341_29589" x1="15.4077" y1="0" x2="15.4077" y2="32" gradientUnits="userSpaceOnUse">
<stop stop-color="#2844D3" stop-opacity="0"/>
<stop offset="0.5" stop-color="#2844D3" stop-opacity="0.860672"/>
<stop offset="1" stop-color="#2E4FF5"/>
</linearGradient>
</defs>
</svg>
