<svg width="165" height="26" viewBox="0 0 165 26" fill="none" xmlns="http://www.w3.org/2000/svg">
<path d="M29.8193 9.38965H39.0645V0H44.4902V25.5342H39.0645V14.4893H29.8193V25.5342H24.3936V0H29.8193V9.38965Z" fill="white"/>
<path d="M29.8193 9.38965H39.0645V0H44.4902V25.5342H39.0645V14.4893H29.8193V25.5342H24.3936V0H29.8193V9.38965Z" fill="url(#paint0_linear_1960_30681)" fill-opacity="0.2"/>
<path fill-rule="evenodd" clip-rule="evenodd" d="M64.125 5.42578H52.6152V9.38965H62.9512V14.4893H52.6152V20.083H64.125V25.0723L74.1514 0H78.8291L78.9854 0.392578L89.0244 25.5342H83.1875L80.7061 18.6953H72.4365L69.9219 25.1377L69.7676 25.5342H47.1904V0H64.125V5.42578ZM75.915 6.77344C75.4981 8.38314 74.4231 9.74332 72.9531 10.5205L72.2373 10.8984L72.9531 11.2764C74.4231 12.0536 75.4981 13.4137 75.915 15.0234L76.3789 16.8145L76.8428 15.0234C77.2598 13.4136 78.3355 12.0535 79.8057 11.2764L80.5205 10.8984L79.8057 10.5205C78.3355 9.74335 77.2598 8.38325 76.8428 6.77344L76.3789 4.98242L75.915 6.77344Z" fill="white"/>
<path fill-rule="evenodd" clip-rule="evenodd" d="M64.125 5.42578H52.6152V9.38965H62.9512V14.4893H52.6152V20.083H64.125V25.0723L74.1514 0H78.8291L78.9854 0.392578L89.0244 25.5342H83.1875L80.7061 18.6953H72.4365L69.9219 25.1377L69.7676 25.5342H47.1904V0H64.125V5.42578ZM75.915 6.77344C75.4981 8.38314 74.4231 9.74332 72.9531 10.5205L72.2373 10.8984L72.9531 11.2764C74.4231 12.0536 75.4981 13.4137 75.915 15.0234L76.3789 16.8145L76.8428 15.0234C77.2598 13.4136 78.3355 12.0535 79.8057 11.2764L80.5205 10.8984L79.8057 10.5205C78.3355 9.74335 77.2598 8.38325 76.8428 6.77344L76.3789 4.98242L75.915 6.77344Z" fill="url(#paint1_linear_1960_30681)" fill-opacity="0.2"/>
<path fill-rule="evenodd" clip-rule="evenodd" d="M111.999 10.2734L120.777 0.432617L120.778 0.431641L121.15 0.0166016H149.115L153.831 10.0127L158.354 0.374023L158.522 0.0166016H164.519L156.549 16.6348V25.4629H151.122V16.6377L144.584 3.06641V5.18555H133.076V9.31934H143.411V14.4873H133.076V20.2949H144.584V25.4629H121.774L114.671 15.2734L111.999 18.2373V25.4629H106.573V0.0166016H111.999V10.2734ZM127.516 1.05664L118.307 11.2656L127.65 24.6709V0.90625L127.516 1.05664Z" fill="white"/>
<path fill-rule="evenodd" clip-rule="evenodd" d="M111.999 10.2734L120.777 0.432617L120.778 0.431641L121.15 0.0166016H149.115L153.831 10.0127L158.354 0.374023L158.522 0.0166016H164.519L156.549 16.6348V25.4629H151.122V16.6377L144.584 3.06641V5.18555H133.076V9.31934H143.411V14.4873H133.076V20.2949H144.584V25.4629H121.774L114.671 15.2734L111.999 18.2373V25.4629H106.573V0.0166016H111.999V10.2734ZM127.516 1.05664L118.307 11.2656L127.65 24.6709V0.90625L127.516 1.05664Z" fill="url(#paint2_linear_1960_30681)" fill-opacity="0.2"/>
<path d="M102.545 5.42578H95.6328V25.1826H90.207V5.42578H84.541V0H102.545V5.42578Z" fill="white"/>
<path d="M102.545 5.42578H95.6328V25.1826H90.207V5.42578H84.541V0H102.545V5.42578Z" fill="url(#paint3_linear_1960_30681)" fill-opacity="0.2"/>
<path d="M11.3174 0.623047C15.9028 0.623245 19.8509 3.5496 21.6289 7.75684C21.7252 7.98484 21.6056 8.24451 21.373 8.3291L14.3184 10.8906C14.1708 10.9442 14.0071 10.9086 13.8955 10.792C13.0303 9.88668 12.3569 8.66605 11.9688 7.25098L11.5146 5.59277C11.4558 5.37909 11.1733 5.37922 11.1143 5.59277L10.6592 7.25098C10.0591 9.43846 8.78074 11.164 7.15918 11.9736L5.79492 12.6543C5.63505 12.7349 5.6349 12.9792 5.79492 13.0596L7.15918 13.7402C8.78071 14.55 10.0591 16.2754 10.6592 18.4629L11.1143 20.1201C11.173 20.3341 11.4558 20.3341 11.5146 20.1201L11.9688 18.4629C12.3339 17.1319 12.9503 15.9715 13.7422 15.085C13.8535 14.9605 14.0235 14.9204 14.1758 14.9756L21.2275 17.5371C21.4646 17.6235 21.5826 17.8907 21.4775 18.1201C19.6335 22.1422 15.7769 24.9109 11.3174 24.9111C5.06697 24.9111 3.11752e-06 19.4735 0 12.7666C8.4117e-05 6.05974 5.06702 0.623047 11.3174 0.623047Z" fill="white"/>
<path d="M11.3174 0.623047C15.9028 0.623245 19.8509 3.5496 21.6289 7.75684C21.7252 7.98484 21.6056 8.24451 21.373 8.3291L14.3184 10.8906C14.1708 10.9442 14.0071 10.9086 13.8955 10.792C13.0303 9.88668 12.3569 8.66605 11.9688 7.25098L11.5146 5.59277C11.4558 5.37909 11.1733 5.37922 11.1143 5.59277L10.6592 7.25098C10.0591 9.43846 8.78074 11.164 7.15918 11.9736L5.79492 12.6543C5.63505 12.7349 5.6349 12.9792 5.79492 13.0596L7.15918 13.7402C8.78071 14.55 10.0591 16.2754 10.6592 18.4629L11.1143 20.1201C11.173 20.3341 11.4558 20.3341 11.5146 20.1201L11.9688 18.4629C12.3339 17.1319 12.9503 15.9715 13.7422 15.085C13.8535 14.9605 14.0235 14.9204 14.1758 14.9756L21.2275 17.5371C21.4646 17.6235 21.5826 17.8907 21.4775 18.1201C19.6335 22.1422 15.7769 24.9109 11.3174 24.9111C5.06697 24.9111 3.11752e-06 19.4735 0 12.7666C8.4117e-05 6.05974 5.06702 0.623047 11.3174 0.623047Z" fill="url(#paint4_linear_1960_30681)" fill-opacity="0.2"/>
<defs>
<linearGradient id="paint0_linear_1960_30681" x1="82.2593" y1="0" x2="82.2593" y2="25.5342" gradientUnits="userSpaceOnUse">
<stop stop-color="#2844D3" stop-opacity="0"/>
<stop offset="0.5" stop-color="#2844D3" stop-opacity="0.860672"/>
<stop offset="1" stop-color="#2E4FF5"/>
</linearGradient>
<linearGradient id="paint1_linear_1960_30681" x1="82.2593" y1="0" x2="82.2593" y2="25.5342" gradientUnits="userSpaceOnUse">
<stop stop-color="#2844D3" stop-opacity="0"/>
<stop offset="0.5" stop-color="#2844D3" stop-opacity="0.860672"/>
<stop offset="1" stop-color="#2E4FF5"/>
</linearGradient>
<linearGradient id="paint2_linear_1960_30681" x1="82.2593" y1="0" x2="82.2593" y2="25.5342" gradientUnits="userSpaceOnUse">
<stop stop-color="#2844D3" stop-opacity="0"/>
<stop offset="0.5" stop-color="#2844D3" stop-opacity="0.860672"/>
<stop offset="1" stop-color="#2E4FF5"/>
</linearGradient>
<linearGradient id="paint3_linear_1960_30681" x1="82.2593" y1="0" x2="82.2593" y2="25.5342" gradientUnits="userSpaceOnUse">
<stop stop-color="#2844D3" stop-opacity="0"/>
<stop offset="0.5" stop-color="#2844D3" stop-opacity="0.860672"/>
<stop offset="1" stop-color="#2E4FF5"/>
</linearGradient>
<linearGradient id="paint4_linear_1960_30681" x1="82.2593" y1="0" x2="82.2593" y2="25.5342" gradientUnits="userSpaceOnUse">
<stop stop-color="#2844D3" stop-opacity="0"/>
<stop offset="0.5" stop-color="#2844D3" stop-opacity="0.860672"/>
<stop offset="1" stop-color="#2E4FF5"/>
</linearGradient>
</defs>
</svg>
