<svg width="60" height="60" viewBox="0 0 60 60" fill="none" xmlns="http://www.w3.org/2000/svg">
<path d="M40.0569 31.1723C40.015 26.5152 43.8712 24.2495 44.0475 24.144C41.8636 20.9607 38.4785 20.5258 37.289 20.4911C34.446 20.192 31.6882 22.1918 30.24 22.1918C28.7628 22.1918 26.5327 20.52 24.129 20.5691C21.036 20.6168 18.1423 22.4071 16.5553 25.1873C13.2802 30.8559 15.7228 39.1862 18.8607 43.7682C20.4304 46.0137 22.2645 48.5178 24.6653 48.4297C27.014 48.3343 27.8913 46.9341 30.7256 46.9341C33.534 46.9341 34.3578 48.4297 36.8063 48.3733C39.327 48.3343 40.914 46.1192 42.4287 43.8549C44.2426 41.2843 44.9711 38.7498 45 38.6198C44.9422 38.5995 40.106 36.7528 40.0569 31.1723ZM35.4317 17.4769C36.695 15.8975 37.5593 13.7488 37.3194 11.5684C35.491 11.6493 33.2044 12.8327 31.8877 14.3774C30.7227 15.7386 29.6821 17.9696 29.9509 20.0677C32.0048 20.2209 34.1136 19.0317 35.4317 17.4769Z" fill="white"/>
</svg>
