<svg width="24" height="24" viewBox="0 0 24 24" fill="none" xmlns="http://www.w3.org/2000/svg">
<rect width="24" height="24" fill="#484848"/>
<g id="&#237;&#154;&#140;&#236;&#155;&#144;&#234;&#176;&#128;&#236;&#158;&#133; - &#236;&#185;&#180;&#236;&#185;&#180;&#236;&#152;&#164;&#237;&#134;&#161;&#236;&#156;&#188;&#235;&#161;&#156; &#237;&#154;&#140;&#236;&#155;&#144;&#234;&#176;&#128;&#236;&#158;&#133;.">
<rect width="10690" height="2701" transform="translate(-193 -1385)" fill="#EEEEEE"/>
<g id="Frame 1" clip-path="url(#clip0_0_1)">
<rect width="375" height="812" transform="translate(-93 -657)" fill="#161517"/>
<g id="Frame 141">
<g id="Frame 140">
<rect x="-73" y="-13" width="335" height="50" rx="10" fill="#FFE812"/>
<g id="Frame 131">
<g id="KAKAO logo" clip-path="url(#clip1_0_1)">
<g id="surface1">
<path id="Vector" d="M24 22.125C24 23.1606 23.1606 24 22.125 24H1.875C0.839355 24 0 23.1606 0 22.125V1.875C0 0.839355 0.839355 0 1.875 0H22.125C23.1606 0 24 0.839355 24 1.875" fill="#FFE812"/>
<path id="Vector_2" d="M12 3.375C6.61523 3.375 2.25 6.81702 2.25 11.0625C2.25 13.8073 4.07483 16.2158 6.81995 17.5759C6.6709 18.0908 5.86047 20.8894 5.82825 21.1091C5.82825 21.1091 5.80884 21.2743 5.91577 21.3373C6.02271 21.4003 6.14832 21.3516 6.14832 21.3516C6.4552 21.3087 9.70569 19.0254 10.2682 18.6292C10.8303 18.7086 11.4089 18.75 12 18.75C17.3848 18.75 21.75 15.3084 21.75 11.0625C21.75 6.81702 17.3848 3.375 12 3.375Z" fill="black"/>
<path id="Vector_3" d="M6.60938 13.7461C6.29919 13.7461 6.04688 13.5051 6.04688 13.2089V9.86719H5.16907C4.86475 9.86719 4.61719 9.62 4.61719 9.31641C4.61719 9.01282 4.86475 8.76562 5.16907 8.76562H8.04968C8.354 8.76562 8.60156 9.01282 8.60156 9.31641C8.60156 9.62 8.354 9.86719 8.04968 9.86719H7.17188V13.2089C7.17188 13.5051 6.91956 13.7461 6.60938 13.7461Z" fill="#FFE812"/>
<path id="Vector_4" d="M10.4984 11.7649L9.93663 10.1686L9.37486 11.7649H10.4984ZM11.541 13.7388C11.3063 13.7388 11.1268 13.6436 11.0726 13.4901L10.7943 12.761H9.07896L8.80028 13.4905C8.74644 13.6436 8.567 13.7388 8.33262 13.7388C8.20848 13.7388 8.0847 13.712 7.97484 13.6611C7.81993 13.5897 7.67088 13.3927 7.84154 12.8624L9.18699 9.3208C9.28184 9.05164 9.56969 8.77405 9.93626 8.76562C10.3036 8.77405 10.5914 9.05164 10.6863 9.32153L12.0314 12.8613C12.2027 13.3931 12.0533 13.5901 11.8984 13.6611C11.7882 13.712 11.6648 13.7388 11.541 13.7388Z" fill="#FFE812"/>
<path id="Vector_5" d="M12.9375 13.6641C12.6401 13.6641 12.3984 13.4326 12.3984 13.1484V9.32812C12.3984 9.01794 12.6559 8.76562 12.9727 8.76562C13.2894 8.76562 13.5469 9.01794 13.5469 9.32812V12.6328H14.7422C15.0396 12.6328 15.2812 12.8643 15.2812 13.1484C15.2812 13.4326 15.0396 13.6641 14.7422 13.6641" fill="#FFE812"/>
<path id="Vector_6" d="M16.0625 13.7388C15.752 13.7388 15.5 13.4865 15.5 13.1763V9.32812C15.5 9.01794 15.752 8.76562 16.0625 8.76562C16.3727 8.76562 16.625 9.01794 16.625 9.32812V10.537L18.1942 8.96777C18.2751 8.88721 18.3857 8.84253 18.5062 8.84253C18.6465 8.84253 18.7875 8.90295 18.8933 9.00879C18.9918 9.1073 19.0508 9.23364 19.0588 9.36511C19.0669 9.49805 19.0226 9.61963 18.9347 9.70789L17.6526 10.9896L19.0372 12.8236C19.1277 12.9437 19.1661 13.0917 19.1453 13.2404C19.1244 13.3894 19.0471 13.5212 18.927 13.6113C18.8285 13.6857 18.7117 13.7252 18.5886 13.7252C18.4103 13.7252 18.2466 13.6436 18.1393 13.5015L16.8202 11.7535L16.625 11.9487V13.1759C16.625 13.4865 16.3727 13.7388 16.0625 13.7388Z" fill="#FFE812"/>
</g>
</g>
</g>
</g>
</g>
</g>
</g>
<defs>
<clipPath id="clip0_0_1">
<rect width="375" height="812" fill="white" transform="translate(-93 -657)"/>
</clipPath>
<clipPath id="clip1_0_1">
<rect width="24" height="24" fill="white"/>
</clipPath>
</defs>
</svg>
