<svg width="140" height="140" viewBox="0 0 140 140" fill="none" xmlns="http://www.w3.org/2000/svg">
<g clip-path="url(#clip0_3619_49229)">
<path d="M92.452 104.987C92.452 117.691 82.1341 124.006 69.4064 124.006C56.6787 124.006 46.3608 117.691 46.3608 104.987C46.3608 92.2817 56.6787 79.8087 69.4064 79.8087C82.1341 79.8087 92.452 92.2817 92.452 104.987Z" fill="#5A73DB"/>
<path d="M94.0921 76.5074C102.351 71.252 108.26 73.0962 111.327 78.4082C114.394 83.7203 113.458 90.4885 105.198 95.7439C96.9391 100.999 85.0607 102.669 81.9938 97.3575C78.9269 92.0454 85.8329 81.7629 94.0921 76.5074Z" fill="url(#paint0_linear_3619_49229)"/>
<ellipse cx="103.136" cy="85.5373" rx="5.44984" ry="8.92514" transform="rotate(96.9736 103.136 85.5373)" fill="url(#paint1_linear_3619_49229)"/>
<path d="M45.9084 76.5073C37.6491 71.2519 31.74 73.0961 28.6731 78.4081C25.6062 83.7201 26.5429 90.4884 34.8022 95.7438C43.0614 100.999 54.9398 102.669 58.0067 97.3573C61.0736 92.0453 54.1676 81.7628 45.9084 76.5073Z" fill="url(#paint2_linear_3619_49229)"/>
<path d="M63.9975 104.335C63.6756 104.546 63.2494 104.496 62.9839 104.218L51.0817 91.7437C50.1121 90.7274 49.3097 89.5639 48.7043 88.2965L45.3645 81.3038L94.9448 84.0952L63.9975 104.335Z" fill="#0339A4"/>
<path d="M56.1423 13.1859C53.613 10.5573 49.1735 11.8309 48.4224 15.4005L45.0375 31.487L67.7954 25.2967L56.1423 13.1859Z" fill="#5D77DE"/>
<path d="M52.1473 17.1684C51.8051 16.5822 50.9096 16.8021 50.878 17.4803L50.3644 28.5007L57.8898 27.0054L52.1473 17.1684Z" fill="#DEE1FF"/>
<path d="M81.9471 13.1859C84.4764 10.5573 88.9158 11.8309 89.6669 15.4005L93.0518 31.487L70.2939 25.2967L81.9471 13.1859Z" fill="#5D77DE"/>
<path d="M85.942 17.1684C86.2843 16.5822 87.1797 16.8021 87.2113 17.4803L87.725 28.5007L80.1996 27.0054L85.942 17.1684Z" fill="#DEE1FF"/>
<path d="M106.827 59.1345C106.827 77.2008 89.9437 87.0759 69.1173 87.0759C48.2909 87.0759 31.4077 77.2008 31.4077 59.1345C31.4077 41.0682 48.2909 21.6521 69.1173 21.6521C89.9437 21.6521 106.827 41.0682 106.827 59.1345Z" fill="#5D77DE"/>
<mask id="mask0_3619_49229" style="mask-type:alpha" maskUnits="userSpaceOnUse" x="31" y="21" width="76" height="67">
<path d="M106.827 59.1345C106.827 77.2008 89.9437 87.0759 69.1173 87.0759C48.2909 87.0759 31.4077 77.2008 31.4077 59.1345C31.4077 41.0682 48.2909 21.6521 69.1173 21.6521C89.9437 21.6521 106.827 41.0682 106.827 59.1345Z" fill="#DEE1FF"/>
</mask>
<g mask="url(#mask0_3619_49229)">
<path d="M106.827 64.3806C106.827 74.3547 89.9437 92.5279 69.1173 92.5279C48.2909 92.5279 31.4077 74.3547 31.4077 64.3806C31.4077 54.4065 48.518 69.4705 69.3444 69.4705C90.1708 69.4705 106.827 54.4065 106.827 64.3806Z" fill="#DEE1FF"/>
</g>
<path d="M64.3137 67.5397C63.9984 67.5397 63.7792 67.8531 63.9021 68.1435C66.38 74.0019 71.8541 74.0019 74.332 68.1435C74.4548 67.8531 74.2356 67.5397 73.9204 67.5397L64.3137 67.5397Z" fill="black"/>
<ellipse cx="6.48962" cy="3.29391" rx="6.48962" ry="3.29391" transform="matrix(-0.931001 -0.365017 -0.365017 0.931001 64.2231 48.0834)" fill="#DEE1FF"/>
<path d="M53.3438 54.671L59.7784 58.7882C60.106 58.9979 60.0359 59.4956 59.6631 59.6065L53.3438 61.4875" stroke="black" stroke-width="1.81772" stroke-linecap="round"/>
<ellipse cx="81.0591" cy="48.7812" rx="6.48962" ry="3.29391" transform="rotate(-21.4086 81.0591 48.7812)" fill="#DEE1FF"/>
<path d="M84.6943 54.6709L78.2597 58.7881C77.932 58.9978 78.0021 59.4954 78.375 59.6064L84.6943 61.4874" stroke="black" stroke-width="1.81772" stroke-linecap="round"/>
<path d="M69.3444 72.083V75.4238M69.3444 75.4238L66.1641 74.1509M69.3444 75.4238L72.5247 74.1509" stroke="black" stroke-width="0.681498" stroke-linecap="round"/>
<ellipse cx="100.01" cy="77.1555" rx="5.44984" ry="8.92514" transform="rotate(51.7006 100.01 77.1555)" fill="#0339A4"/>
<circle cx="92.5524" cy="84.0952" r="4.25354" fill="#0339A4"/>
<path d="M51.367 129.455C43.7885 131.486 38.804 127.7 37.2246 121.806C35.6452 115.911 38.069 110.14 45.6475 108.11C53.226 106.079 60.65 109.211 62.2294 115.105C63.8088 121 58.9455 127.424 51.367 129.455Z" fill="#5A73DB"/>
<path d="M88.4958 129.455C96.0743 131.486 101.059 127.7 102.638 121.806C104.218 115.911 101.794 110.14 94.2153 108.11C86.6368 106.079 79.2128 109.211 77.6334 115.105C76.054 121 80.9173 127.424 88.4958 129.455Z" fill="#5A73DB"/>
<path d="M52.3668 73.0301C54.5103 73.4447 55.1976 76.1711 53.5072 77.5526L29.8715 96.8662L22.3994 67.2342L52.3668 73.0301Z" fill="#7E89FF" stroke="#7E89FF" stroke-width="0.735774"/>
<path d="M21.7508 67.6372C22.231 67.5161 22.8514 67.6325 23.6248 68.1596C24.3972 68.686 25.235 69.5682 26.0757 70.7816C27.7533 73.2029 29.3365 76.7916 30.391 80.9733C31.4455 85.1552 31.7534 89.0662 31.4245 91.9936C31.2596 93.4605 30.9403 94.6345 30.5099 95.4641C30.0789 96.2949 29.5879 96.6916 29.1077 96.8128C28.6274 96.9339 28.007 96.8174 27.2336 96.2903C26.4613 95.7639 25.6234 94.8817 24.7828 93.6683C23.1051 91.2469 21.5217 87.6575 20.4672 83.4757C19.4128 79.294 19.1051 75.3837 19.4339 72.4564C19.5988 70.9894 19.9181 69.8155 20.3485 68.9858C20.7795 68.155 21.2705 67.7583 21.7508 67.6372Z" fill="#5975FF" stroke="#7E89FF" stroke-width="1.68615"/>
<path d="M31.0462 55.7414C30.0612 56.0933 28.9774 55.5801 28.6254 54.5951C28.2735 53.6101 28.7867 52.5263 29.7717 52.1744C30.7567 51.8224 31.8405 52.3356 32.1924 53.3206C32.5444 54.3056 32.0312 55.3894 31.0462 55.7414Z" fill="#EDCCF8"/>
<path d="M17.2587 74.444C17.6282 74.312 17.9318 74.0107 18.0495 73.6048C18.2455 72.9329 17.8597 72.2299 17.1875 72.0329C14.0094 71.1056 10.6485 71.1339 7.46811 72.1164C6.80215 72.3468 6.42496 73.0328 6.63041 73.7012C6.83715 74.3702 7.54684 74.7444 8.21526 74.5389C10.9207 73.7036 13.7769 73.679 16.4777 74.4668C16.7445 74.5448 17.0152 74.531 17.2577 74.4443L17.2587 74.444Z" fill="#EF4452"/>
<path d="M14.6267 82.177C14.7785 82.1228 14.9226 82.0379 15.0503 81.9223C15.7336 81.3035 16.4786 80.7488 17.2647 80.273C19.7192 78.7866 22.5389 78.0752 25.4192 78.2175C26.1209 78.2499 26.7139 77.7129 26.7477 77.015C26.7821 76.3158 26.2434 75.7212 25.5452 75.6865C22.1573 75.5188 18.8387 76.3557 15.9518 78.1054C15.0277 78.6649 14.1517 79.317 13.3489 80.0442C12.8298 80.5139 12.7899 81.3152 13.2596 81.8343C13.6137 82.2257 14.1589 82.3442 14.6267 82.177Z" fill="#7896FF"/>
<path d="M31.0579 71.9679L30.4171 70.1759C30.2838 69.8032 30.478 69.3929 30.8507 69.2596L32.6427 68.6189C33.0155 68.4856 33.4257 68.6797 33.559 69.0525L34.1998 70.8444C34.3331 71.2172 34.1389 71.6274 33.7662 71.7607L31.9742 72.4015C31.6014 72.5348 31.1912 72.3407 31.0579 71.9679Z" fill="white"/>
<path d="M13.7287 88.5662L12.5492 87.0176C12.3038 86.6955 12.3661 86.2356 12.6881 85.9903L14.2367 84.8107C14.5588 84.5654 15.0187 84.6276 15.264 84.9497L16.4436 86.4983C16.6889 86.8204 16.6267 87.2803 16.3046 87.5256L14.756 88.7052C14.434 88.9505 13.974 88.8883 13.7287 88.5662Z" fill="#A8BFFF"/>
<path d="M10.9134 69.2357C10.1204 69.5191 9.24773 69.1059 8.96437 68.3128C8.681 67.5198 9.09419 66.6472 9.88726 66.3638C10.6803 66.0804 11.553 66.4936 11.8363 67.2867C12.1197 68.0798 11.7065 68.9524 10.9134 69.2357Z" fill="#FFC84D"/>
<path d="M41.8099 65.2173C41.0168 65.5007 40.1442 65.0875 39.8609 64.2944C39.5775 63.5013 39.9907 62.6287 40.7837 62.3454C41.5768 62.062 42.4494 62.4752 42.7328 63.2683C43.0162 64.0613 42.603 64.9339 41.8099 65.2173Z" fill="#A8BFFF"/>
<path d="M28.3934 91.1276C27.4679 91.4582 26.4497 90.9761 26.119 90.0507C25.7884 89.1252 26.2705 88.107 27.196 87.7763C28.1214 87.4457 29.1396 87.9278 29.4703 88.8532C29.8009 89.7787 29.3188 90.7969 28.3934 91.1276Z" fill="#FFC84D"/>
</g>
<defs>
<linearGradient id="paint0_linear_3619_49229" x1="81.9938" y1="97.3575" x2="112.199" y2="79.9183" gradientUnits="userSpaceOnUse">
<stop stop-color="#5D77DE"/>
<stop offset="1" stop-color="#4956C6"/>
</linearGradient>
<linearGradient id="paint1_linear_3619_49229" x1="106.293" y1="81.6194" x2="99.0138" y2="91.0803" gradientUnits="userSpaceOnUse">
<stop stop-color="#0339A4"/>
<stop offset="1" stop-color="#01163E"/>
</linearGradient>
<linearGradient id="paint2_linear_3619_49229" x1="58.0067" y1="97.3573" x2="27.8013" y2="79.9182" gradientUnits="userSpaceOnUse">
<stop stop-color="#5D77DE"/>
<stop offset="1" stop-color="#4956C6"/>
</linearGradient>
<clipPath id="clip0_3619_49229">
<rect width="140" height="140" fill="white"/>
</clipPath>
</defs>
</svg>
