<svg width="140" height="140" viewBox="0 0 140 140" fill="none" xmlns="http://www.w3.org/2000/svg">
<path d="M99.7579 105.797C100.223 116.59 95.2004 121.219 88.4317 121.219C81.6629 121.219 75.7115 116.59 75.2461 105.797C74.7808 95.0038 79.7387 82.7305 86.5075 82.7305C93.2762 82.7305 99.2925 95.0038 99.7579 105.797Z" fill="url(#paint0_linear_2391_14806)"/>
<ellipse cx="106.808" cy="87.6643" rx="6.01399" ry="9.84904" transform="rotate(96.9736 106.808 87.6643)" fill="url(#paint1_linear_2391_14806)"/>
<path d="M69.4389 82.8477C82.6546 82.8477 93.3681 98.8304 93.3681 109.635C93.3681 111.498 93.0495 116.233 92.455 117.939C93.0414 120.666 93.3681 120.75 93.3681 123.925C93.3681 136.08 88.5929 138 82.7025 138C77.764 138 73.6102 136.65 72.3964 129.051C71.4273 129.149 70.4403 129.199 69.4389 129.199C68.2517 129.199 67.0847 129.128 65.9438 128.992C64.7422 136.643 60.5797 138 55.6283 138C49.7379 138 44.9628 136.08 44.9628 123.925C44.9628 120.354 45.3755 119.914 46.1071 116.932C45.7163 115.529 45.5097 111.135 45.5097 109.635C45.5098 98.8304 56.2232 82.8477 69.4389 82.8477Z" fill="url(#paint2_linear_2391_14806)"/>
<path d="M63.6176 108.41C63.2625 108.642 62.7921 108.588 62.4992 108.281L49.3648 94.5148C48.2949 93.3934 47.4094 92.1095 46.7414 90.7108L43.0559 82.9943L97.7686 86.0747L63.6176 108.41Z" fill="#0339A4"/>
<path d="M54.9493 7.82634C52.1582 4.92565 47.2592 6.33108 46.4303 10.2702L42.695 28.0219L67.8087 21.1909L54.9493 7.82634Z" fill="#5D77DE"/>
<path d="M50.5405 12.2197C50.1628 11.5728 49.1747 11.8155 49.1398 12.5639L48.573 24.7251L56.8774 23.075L50.5405 12.2197Z" fill="#DEE1FF"/>
<path d="M83.4257 7.82634C86.2168 4.92565 91.1158 6.33108 91.9447 10.2702L95.68 28.0219L70.5663 21.1909L83.4257 7.82634Z" fill="#5D77DE"/>
<path d="M87.8344 12.2197C88.2121 11.5728 89.2002 11.8155 89.2351 12.5639L89.8019 24.7251L81.4975 23.075L87.8344 12.2197Z" fill="#DEE1FF"/>
<path d="M110.88 58.5304C110.88 78.4669 92.2495 89.3642 69.2672 89.3642C46.2849 89.3642 27.6541 78.4669 27.6541 58.5304C27.6541 38.594 46.2849 17.168 69.2672 17.168C92.2495 17.168 110.88 38.594 110.88 58.5304Z" fill="#5D77DE"/>
<mask id="mask0_2391_14806" style="mask-type:alpha" maskUnits="userSpaceOnUse" x="27" y="17" width="84" height="73">
<path d="M110.88 58.5304C110.88 78.4669 92.2495 89.3642 69.2672 89.3642C46.2849 89.3642 27.6541 78.4669 27.6541 58.5304C27.6541 38.594 46.2849 17.168 69.2672 17.168C92.2495 17.168 110.88 38.594 110.88 58.5304Z" fill="#DEE1FF"/>
</mask>
<g mask="url(#mask0_2391_14806)">
<path d="M110.88 64.3186C110.88 75.3252 92.2495 95.3796 69.2672 95.3796C46.2849 95.3796 27.6541 75.3252 27.6541 64.3186C27.6541 53.312 46.5356 69.9354 69.5179 69.9354C92.5002 69.9354 110.88 53.312 110.88 64.3186Z" fill="#DEE1FF"/>
</g>
<path d="M63.9664 67.8066C63.6185 67.8066 63.3766 68.1525 63.5122 68.473C66.2466 74.9379 72.2874 74.9379 75.0218 68.473C75.1573 68.1525 74.9155 67.8066 74.5675 67.8066L63.9664 67.8066Z" fill="black"/>
<ellipse cx="7.16141" cy="3.63488" rx="7.16141" ry="3.63488" transform="matrix(1 0 0 -1 48.7113 50.8672)" fill="#DEE1FF"/>
<circle cx="55.8728" cy="57.7111" r="3.63488" fill="black"/>
<ellipse cx="82.445" cy="47.2306" rx="7.16141" ry="3.63488" fill="#DEE1FF"/>
<circle cx="82.4449" cy="57.7111" r="3.63488" fill="black"/>
<path d="M69.518 72.8184V76.505M69.518 76.505L66.0084 76.1152M69.518 76.505L73.0275 76.1152" stroke="black" stroke-width="0.752044" stroke-linecap="round"/>
<ellipse cx="103.358" cy="78.4156" rx="6.01399" ry="9.84904" transform="rotate(51.7006 103.358 78.4156)" fill="#0339A4"/>
<circle cx="95.1282" cy="86.0747" r="4.69385" fill="#0339A4"/>
<path d="M52.0728 78.3071C47.5349 67.7052 39.6474 64.6278 33.5453 67.5569C27.4431 70.4859 25.437 78.3122 29.9749 88.9141C34.5127 99.5161 44.6199 109.198 50.722 106.269C56.8242 103.34 56.6106 88.909 52.0728 78.3071Z" fill="url(#paint3_linear_2391_14806)"/>
<path d="M82.8439 64.289C83.003 63.8412 83.6363 63.8412 83.7954 64.289L85.599 69.3652C85.8665 70.1181 85.7449 70.9546 85.274 71.6003C84.3079 72.9251 82.3314 72.9251 81.3653 71.6003C80.8944 70.9546 80.7728 70.1181 81.0404 69.3652L82.8439 64.289Z" fill="white"/>
<defs>
<linearGradient id="paint0_linear_2391_14806" x1="86.5075" y1="82.7305" x2="86.5075" y2="121.219" gradientUnits="userSpaceOnUse">
<stop stop-color="#5D77DE"/>
<stop offset="1" stop-color="#4956C6"/>
</linearGradient>
<linearGradient id="paint1_linear_2391_14806" x1="110.291" y1="83.3409" x2="102.259" y2="93.7811" gradientUnits="userSpaceOnUse">
<stop stop-color="#0339A4"/>
<stop offset="1" stop-color="#01163E"/>
</linearGradient>
<linearGradient id="paint2_linear_2391_14806" x1="69.1654" y1="103.677" x2="69.1654" y2="146.697" gradientUnits="userSpaceOnUse">
<stop stop-color="#5D77DE"/>
<stop offset="0.860365" stop-color="#4048DF"/>
</linearGradient>
<linearGradient id="paint3_linear_2391_14806" x1="50.722" y1="106.269" x2="32.9423" y2="69.2277" gradientUnits="userSpaceOnUse">
<stop stop-color="#5D77DE"/>
<stop offset="1" stop-color="#4956C6"/>
</linearGradient>
</defs>
</svg>
