<svg width="130" height="130" viewBox="0 0 130 130" fill="none" xmlns="http://www.w3.org/2000/svg">
<g clip-path="url(#clip0_937_21365)">
<path d="M21.6332 76.9447C17.5596 66.2411 20.8905 54.5993 27.7962 52.3065C34.7019 50.0137 42.5674 57.9381 46.641 68.6417C50.7145 79.3453 51.069 95.5526 44.1633 97.8453C37.2576 100.138 25.7068 87.6483 21.6332 76.9447Z" fill="#787779"/>
<path d="M96.1253 99.2687C94.8104 109.629 89.27 113.222 82.8203 112.119C76.3706 111.016 71.454 105.635 72.7689 95.2754C74.0838 84.9154 80.8076 74.0282 87.2573 75.131C93.707 76.2337 97.4402 88.9088 96.1253 99.2687Z" fill="#787779"/>
<path d="M63.667 75C77.045 75 87.8901 90.3589 87.8901 100.742C87.8901 102.532 87.5676 107.082 86.9658 108.722C87.5595 111.342 87.8901 111.423 87.8901 114.474C87.8901 126.155 83.0563 128 77.0935 128C72.0943 128 67.8895 126.703 66.6608 119.4C65.6798 119.494 64.6807 119.543 63.667 119.543C62.4652 119.543 61.2838 119.474 60.1289 119.343C58.9125 126.696 54.6989 128 49.6867 128C43.724 128 38.8902 126.155 38.8901 114.474C38.8901 111.042 39.3079 110.62 40.0486 107.754C39.6529 106.406 39.4438 102.183 39.4438 100.742C39.4438 90.3589 50.2889 75 63.667 75Z" fill="url(#paint0_linear_937_21365)"/>
<path d="M58.7952 100.744C58.4518 100.969 57.9971 100.917 57.7139 100.62L45.0171 87.3124C43.9827 86.2283 43.1267 84.9871 42.481 83.6351L38.9182 76.1756L91.8086 79.1533L58.7952 100.744Z" fill="#353436"/>
<path d="M50.417 3.50998C47.7189 0.705905 42.983 2.06452 42.1818 5.87248L38.5709 23.0329L62.8481 16.4294L50.417 3.50998Z" fill="#7B7A7C"/>
<path d="M46.155 7.75839C45.7899 7.13296 44.8347 7.36764 44.801 8.09106L44.253 19.8472L52.2809 18.2521L46.155 7.75839Z" fill="#B4B4B4"/>
<path d="M77.9448 3.50998C80.6429 0.705905 85.3788 2.06452 86.1801 5.87248L89.7909 23.0329L65.5137 16.4294L77.9448 3.50998Z" fill="#7B7A7C"/>
<path d="M82.2063 7.75839C82.5714 7.13296 83.5266 7.36764 83.5603 8.09106L84.1083 19.8472L76.0805 18.2521L82.2063 7.75839Z" fill="#B4B4B4"/>
<path d="M104.484 52.5262C104.484 71.7986 86.4742 82.333 64.2574 82.333C42.0406 82.333 24.0303 71.7986 24.0303 52.5262C24.0303 33.2538 42.0406 12.5414 64.2574 12.5414C86.4742 12.5414 104.484 33.2538 104.484 52.5262Z" fill="#7B7A7C"/>
<mask id="mask0_937_21365" style="mask-type:alpha" maskUnits="userSpaceOnUse" x="24" y="12" width="81" height="71">
<path d="M104.484 52.5262C104.484 71.7986 86.4742 82.333 64.2574 82.333C42.0406 82.333 24.0303 71.7986 24.0303 52.5262C24.0303 33.2538 42.0406 12.5414 64.2574 12.5414C86.4742 12.5414 104.484 33.2538 104.484 52.5262Z" fill="#DEE1FF"/>
</mask>
<g mask="url(#mask0_937_21365)">
<path d="M104.484 58.1225C104.484 68.7625 86.4742 88.149 64.2574 88.149C42.0406 88.149 24.0303 68.7625 24.0303 58.1225C24.0303 47.4826 42.2829 63.5523 64.4997 63.5523C86.7165 63.5523 104.484 47.4826 104.484 58.1225Z" fill="#B4B4B4"/>
</g>
<path d="M59.1334 61.4925C58.797 61.4925 58.5632 61.8269 58.6943 62.1367C61.3376 68.3862 67.1772 68.3862 69.8205 62.1367C69.9515 61.8269 69.7177 61.4925 69.3814 61.4925L59.1334 61.4925Z" fill="black"/>
<ellipse cx="51.3086" cy="41.6036" rx="6.92288" ry="3.51381" transform="rotate(-180 51.3086 41.6036)" fill="#B4B4B4"/>
<path d="M53.8226 51.4004C54.3748 51.4004 54.8363 51.8569 54.6812 52.387C54.5171 52.9479 54.2141 53.4643 53.7934 53.885C53.1344 54.544 52.2407 54.9142 51.3087 54.9142C50.3768 54.9142 49.4831 54.544 48.8241 53.885C48.4034 53.4643 48.1004 52.9479 47.9363 52.387C47.7812 51.8569 48.2426 51.4004 48.7949 51.4004L51.3087 51.4004H53.8226Z" fill="black"/>
<ellipse cx="6.92288" cy="3.51381" rx="6.92288" ry="3.51381" transform="matrix(1 0 0 -1 70.0737 45.1175)" fill="#B4B4B4"/>
<path d="M79.5101 51.4004C80.0623 51.4004 80.5238 51.857 80.3687 52.387C80.2046 52.948 79.9016 53.4644 79.4809 53.8851C78.8219 54.544 77.9282 54.9143 76.9962 54.9143C76.0643 54.9143 75.1706 54.544 74.5116 53.8851C74.0909 53.4644 73.7879 52.948 73.6238 52.387C73.4687 51.857 73.9301 51.4004 74.4824 51.4004L76.9962 51.4004H79.5101Z" fill="black"/>
<path d="M64.5001 66.3392V69.9031M64.5001 69.9031L61.1074 69.9128M64.5001 69.9031L67.8927 69.9128" stroke="black" stroke-width="0.726996" stroke-linecap="round"/>
<ellipse cx="97.2123" cy="71.7502" rx="5.81369" ry="9.521" transform="rotate(51.7006 97.2123 71.7502)" fill="#353436"/>
<ellipse cx="100.548" cy="80.6917" rx="5.81369" ry="9.521" transform="rotate(96.9736 100.548 80.6917)" fill="#353436"/>
<circle cx="89.2563" cy="79.1534" r="4.53751" fill="#353436"/>
</g>
<defs>
<linearGradient id="paint0_linear_937_21365" x1="63.3901" y1="95.016" x2="63.3901" y2="136.358" gradientUnits="userSpaceOnUse">
<stop stop-color="#767577"/>
<stop offset="0.860365" stop-color="#5E5D5F"/>
</linearGradient>
<clipPath id="clip0_937_21365">
<rect width="130" height="130" fill="white"/>
</clipPath>
</defs>
</svg>
