<svg width="335" height="400" viewBox="0 0 335 400" fill="none" xmlns="http://www.w3.org/2000/svg">
<g clip-path="url(#clip0_3125_52297)">
<g filter="url(#filter0_f_3125_52297)">
<ellipse cx="165.5" cy="201.5" rx="138.5" ry="137.5" fill="#9178FF" fill-opacity="0.1"/>
</g>
<g filter="url(#filter1_d_3125_52297)">
<g clip-path="url(#clip1_3125_52297)">
<rect x="47" y="32" width="240" height="519.68" rx="30" fill="#161517"/>
<rect x="47" y="32" width="240" height="519.68" rx="30" fill="url(#paint0_linear_3125_52297)" fill-opacity="0.2"/>
<path d="M155.933 75.4225H151.646V77.26H150.071V75.4225H145.521V74.1725H155.933V75.4225ZM146.746 76.36H148.321V78.235H154.783V79.51H146.746V76.36ZM146.858 68.6975H148.433V69.885H152.996V68.6975H154.583V73.3725H146.858V68.6975ZM152.996 72.11V71.0725H148.433V72.11H152.996ZM160.858 70.11C160.854 70.5975 160.946 71.0621 161.133 71.5037C161.321 71.9454 161.608 72.3392 161.996 72.685C162.383 73.0267 162.867 73.2892 163.446 73.4725L162.596 74.735C162.004 74.535 161.496 74.2412 161.071 73.8537C160.646 73.4662 160.308 73.0058 160.058 72.4725C159.804 73.0475 159.452 73.5454 159.002 73.9662C158.552 74.3871 158.012 74.71 157.383 74.935L156.521 73.66C157.133 73.4642 157.642 73.1808 158.046 72.81C158.454 72.4392 158.754 72.0142 158.946 71.535C159.142 71.0558 159.242 70.5475 159.246 70.01V68.9225H160.858V70.11ZM158.371 75.6225H166.183V79.71H164.596V76.885H158.371V75.6225ZM162.458 70.4475H164.596V68.335H166.183V75.11H164.596V71.76H162.458V70.4475ZM176.633 72.785H178.308V74.0975H176.633V79.71H175.058V68.335H176.633V72.785ZM167.596 70.035H170.171V68.51H171.771V70.035H174.283V71.31H167.596V70.035ZM168.058 74.66C168.058 74.1392 168.183 73.6725 168.433 73.26C168.683 72.8475 169.029 72.5267 169.471 72.2975C169.917 72.0642 170.417 71.9475 170.971 71.9475C171.517 71.9475 172.01 72.0642 172.452 72.2975C172.894 72.5267 173.239 72.8475 173.489 73.26C173.744 73.6725 173.871 74.1392 173.871 74.66C173.871 75.1808 173.744 75.6475 173.489 76.06C173.239 76.4683 172.894 76.7892 172.452 77.0225C172.01 77.2558 171.517 77.3725 170.971 77.3725C170.417 77.3725 169.917 77.2558 169.471 77.0225C169.029 76.7892 168.683 76.4683 168.433 76.06C168.183 75.6475 168.058 75.1808 168.058 74.66ZM169.583 74.66C169.583 74.9475 169.642 75.1975 169.758 75.41C169.879 75.6225 170.044 75.785 170.252 75.8975C170.46 76.01 170.7 76.0642 170.971 76.06C171.237 76.0642 171.475 76.01 171.683 75.8975C171.892 75.785 172.054 75.6225 172.171 75.41C172.287 75.1975 172.346 74.9475 172.346 74.66C172.346 74.3725 172.287 74.1225 172.171 73.91C172.054 73.6975 171.892 73.5329 171.683 73.4162C171.475 73.2996 171.237 73.2392 170.971 73.235C170.7 73.2392 170.46 73.2996 170.252 73.4162C170.044 73.5329 169.879 73.6975 169.758 73.91C169.642 74.1225 169.583 74.3725 169.583 74.66ZM188.283 79.71H186.671V68.335H188.283V79.71ZM178.758 76.485C179.729 76.0267 180.529 75.5162 181.158 74.9537C181.792 74.3912 182.275 73.7683 182.608 73.085C182.946 72.3975 183.158 71.6267 183.246 70.7725H179.371V69.5225H184.871C184.867 70.7392 184.702 71.8454 184.377 72.8412C184.052 73.8371 183.5 74.7517 182.721 75.585C181.946 76.4183 180.904 77.1433 179.596 77.76L178.758 76.485Z" fill="white"/>
<path d="M65.5581 78.72L61.0781 74.24L65.5581 69.76" stroke="white" stroke-width="1.024" stroke-linecap="round" stroke-linejoin="round"/>
<path d="M59.7988 172.8C59.7988 165.731 65.5296 160 72.5988 160H261.399C268.468 160 274.199 165.731 274.199 172.8V403.2C274.199 410.269 268.468 416 261.399 416H72.5988C65.5296 416 59.7988 410.269 59.7988 403.2V172.8Z" fill="url(#paint1_linear_3125_52297)" fill-opacity="0.35"/>
<path d="M59.7988 172.8C59.7988 165.731 65.5296 160 72.5988 160H261.399C268.468 160 274.199 165.731 274.199 172.8V403.2C274.199 410.269 268.468 416 261.399 416H72.5988C65.5296 416 59.7988 410.269 59.7988 403.2V172.8Z" stroke="#5C69AE" stroke-opacity="0.2" stroke-width="0.64"/>
<path d="M98.7402 188.695C99.3361 188.695 99.8736 188.814 100.353 189.051C100.832 189.289 101.207 189.62 101.478 190.045C101.753 190.466 101.89 190.945 101.89 191.482C101.89 192.02 101.753 192.501 101.478 192.926C101.207 193.351 100.832 193.684 100.353 193.926C99.8736 194.164 99.3361 194.282 98.7402 194.282C98.1486 194.282 97.6111 194.164 97.1277 193.926C96.6444 193.684 96.2652 193.351 95.9902 192.926C95.7152 192.501 95.5777 192.02 95.5777 191.482C95.5777 190.949 95.7152 190.47 95.9902 190.045C96.2652 189.62 96.6444 189.289 97.1277 189.051C97.6111 188.814 98.1486 188.695 98.7402 188.695ZM95.5715 195.707C96.8215 195.707 98.0152 195.682 99.1527 195.632C100.294 195.582 101.369 195.487 102.378 195.345L102.503 196.495C101.386 196.712 100.251 196.851 99.0965 196.914C97.9465 196.976 96.6777 197.007 95.2902 197.007L95.1027 195.707H95.5715ZM97.1652 191.482C97.1652 191.774 97.2319 192.028 97.3652 192.245C97.5027 192.457 97.6902 192.62 97.9277 192.732C98.1694 192.845 98.4402 192.899 98.7402 192.895C99.0444 192.899 99.3173 192.845 99.559 192.732C99.8007 192.62 99.9902 192.457 100.128 192.245C100.269 192.028 100.34 191.774 100.34 191.482C100.34 191.195 100.269 190.945 100.128 190.732C99.9902 190.516 99.8007 190.351 99.559 190.239C99.3173 190.126 99.0444 190.07 98.7402 190.07C98.4402 190.07 98.1694 190.126 97.9277 190.239C97.6902 190.351 97.5027 190.516 97.3652 190.732C97.2319 190.945 97.1652 191.195 97.1652 191.482ZM103.028 187.932H104.615V199.332H103.028V187.932ZM115.64 194.357H114.04V187.945H115.64V194.357ZM106.078 192.907C106.69 192.724 107.201 192.453 107.609 192.095C108.017 191.737 108.319 191.33 108.515 190.876C108.715 190.422 108.815 189.949 108.815 189.457V188.357H110.478V189.457C110.474 189.928 110.567 190.378 110.759 190.807C110.955 191.237 111.253 191.62 111.653 191.957C112.053 192.291 112.549 192.549 113.14 192.732L112.365 193.945C111.728 193.757 111.182 193.476 110.728 193.101C110.274 192.722 109.915 192.272 109.653 191.751C109.386 192.322 109.017 192.814 108.546 193.226C108.08 193.639 107.515 193.949 106.853 194.157L106.078 192.907ZM108.015 194.882H115.64V199.182H108.015V194.882ZM114.078 197.907V196.145H109.59V197.907H114.078ZM126.703 199.332H125.09V187.932H126.703V199.332ZM117.515 192.782C117.515 191.97 117.642 191.257 117.896 190.645C118.155 190.032 118.511 189.562 118.965 189.232C119.424 188.899 119.944 188.732 120.528 188.732C121.099 188.732 121.609 188.899 122.059 189.232C122.513 189.562 122.869 190.032 123.128 190.645C123.386 191.257 123.515 191.97 123.515 192.782C123.515 193.599 123.386 194.316 123.128 194.932C122.869 195.545 122.513 196.018 122.059 196.351C121.609 196.68 121.099 196.845 120.528 196.845C119.944 196.845 119.424 196.68 118.965 196.351C118.511 196.018 118.155 195.545 117.896 194.932C117.642 194.316 117.515 193.599 117.515 192.782ZM119.053 192.782C119.053 193.337 119.113 193.812 119.234 194.207C119.355 194.599 119.526 194.897 119.746 195.101C119.971 195.301 120.232 195.399 120.528 195.395C120.815 195.399 121.067 195.301 121.284 195.101C121.505 194.897 121.676 194.599 121.796 194.207C121.917 193.812 121.978 193.337 121.978 192.782C121.978 192.228 121.917 191.755 121.796 191.364C121.676 190.972 121.505 190.676 121.284 190.476C121.067 190.272 120.815 190.17 120.528 190.17C120.232 190.17 119.971 190.272 119.746 190.476C119.526 190.676 119.355 190.972 119.234 191.364C119.113 191.755 119.053 192.228 119.053 192.782ZM140.165 192.295H141.778V193.607H140.165V199.282H138.565V187.932H140.165V192.295ZM131.065 196.095C132.419 195.416 133.461 194.612 134.19 193.682C134.919 192.753 135.359 191.657 135.509 190.395H131.715V189.095H137.128C137.119 190.907 136.711 192.507 135.903 193.895C135.099 195.282 133.786 196.424 131.965 197.32L131.065 196.095ZM151.49 192.282H143.54V188.332H145.128V191.032H151.49V192.282ZM142.24 193.507H152.653V194.757H142.24V193.507ZM143.44 195.682H145.04V197.782H151.565V199.057H143.44V195.682ZM165.44 189.17V189.495C165.44 189.907 165.426 190.312 165.396 190.707C165.367 191.099 165.309 191.516 165.221 191.957H166.678V193.207H156.265V191.957H163.615C163.699 191.537 163.755 191.145 163.784 190.782C163.817 190.416 163.838 190.041 163.846 189.657H157.54V188.395H165.44V189.17ZM157.44 194.007H165.39V197.195H159.04V197.995H165.703V199.22H157.453V195.995H163.815V195.245H157.44V194.007ZM172.515 188.095C173.386 188.095 174.13 188.17 174.746 188.32C175.367 188.47 175.84 188.691 176.165 188.982C176.49 189.27 176.653 189.62 176.653 190.032C176.653 190.453 176.49 190.809 176.165 191.101C175.84 191.389 175.369 191.607 174.753 191.757C174.136 191.907 173.39 191.982 172.515 191.982C171.64 191.982 170.892 191.907 170.271 191.757C169.651 191.607 169.178 191.389 168.853 191.101C168.528 190.809 168.365 190.453 168.365 190.032C168.365 189.62 168.528 189.27 168.853 188.982C169.178 188.691 169.651 188.47 170.271 188.32C170.892 188.17 171.64 188.095 172.515 188.095ZM167.328 192.52H177.703V193.782H167.328V192.52ZM168.528 194.445H176.44V197.345H170.103V198.032H176.74V199.232H168.54V196.232H174.865V195.607H168.528V194.445ZM170.04 190.032C170.036 190.307 170.234 190.505 170.634 190.626C171.038 190.747 171.665 190.807 172.515 190.807C173.369 190.807 173.996 190.747 174.396 190.626C174.801 190.505 175.003 190.307 175.003 190.032C175.003 189.516 174.174 189.257 172.515 189.257C171.686 189.257 171.065 189.324 170.653 189.457C170.24 189.587 170.036 189.778 170.04 190.032ZM191.74 195.02H187.453V196.857H185.878V195.02H181.328V193.77H191.74V195.02ZM182.553 195.957H184.128V197.832H190.59V199.107H182.553V195.957ZM182.665 188.295H184.24V189.482H188.803V188.295H190.39V192.97H182.665V188.295ZM188.803 191.707V190.67H184.24V191.707H188.803ZM196.665 189.707C196.661 190.195 196.753 190.659 196.94 191.101C197.128 191.543 197.415 191.937 197.803 192.282C198.19 192.624 198.674 192.887 199.253 193.07L198.403 194.332C197.811 194.132 197.303 193.839 196.878 193.451C196.453 193.064 196.115 192.603 195.865 192.07C195.611 192.645 195.259 193.143 194.809 193.564C194.359 193.984 193.819 194.307 193.19 194.532L192.328 193.257C192.94 193.062 193.449 192.778 193.853 192.407C194.261 192.037 194.561 191.612 194.753 191.132C194.949 190.653 195.049 190.145 195.053 189.607V188.52H196.665V189.707ZM194.178 195.22H201.99V199.307H200.403V196.482H194.178V195.22ZM198.265 190.045H200.403V187.932H201.99V194.707H200.403V191.357H198.265V190.045ZM212.49 190.67H214.028V191.995H212.49V194.595H210.89V187.932H212.49V190.67ZM203.465 188.932H206.053V187.857H207.64V188.932H210.215V190.182H203.465V188.932ZM204.015 192.52C204.015 192.12 204.134 191.768 204.371 191.464C204.609 191.159 204.94 190.924 205.365 190.757C205.794 190.591 206.286 190.507 206.84 190.507C207.386 190.507 207.871 190.591 208.296 190.757C208.721 190.924 209.051 191.159 209.284 191.464C209.521 191.768 209.64 192.12 209.64 192.52C209.64 192.92 209.521 193.272 209.284 193.576C209.051 193.88 208.721 194.116 208.296 194.282C207.871 194.449 207.386 194.532 206.84 194.532C206.286 194.532 205.794 194.449 205.365 194.282C204.94 194.116 204.609 193.88 204.371 193.576C204.134 193.272 204.015 192.92 204.015 192.52ZM205.04 195.032H206.628V195.895H210.89V195.032H212.49V199.182H205.04V195.032ZM205.578 192.52C205.574 192.791 205.684 192.999 205.909 193.145C206.138 193.291 206.449 193.366 206.84 193.37C207.232 193.366 207.544 193.291 207.778 193.145C208.011 192.999 208.128 192.791 208.128 192.52C208.128 192.257 208.009 192.051 207.771 191.901C207.538 191.747 207.228 191.674 206.84 191.682C206.457 191.674 206.149 191.747 205.915 191.901C205.686 192.051 205.574 192.257 205.578 192.52ZM210.89 197.932V197.12H206.628V197.932H210.89ZM224.09 199.307H222.503V187.932H224.09V199.307ZM215.14 189.02H216.715V195.139C218.403 195.109 220.024 194.945 221.578 194.645L221.778 195.957C220.036 196.324 218.157 196.503 216.14 196.495H215.14V189.02ZM234.565 192.157H236.24V193.457H234.565V199.332H232.965V187.932H234.565V192.157ZM226.04 188.982H231.378V190.27H227.628V195.257C228.494 195.249 229.282 195.218 229.99 195.164C230.703 195.109 231.424 195.02 232.153 194.895L232.328 196.232C231.544 196.366 230.769 196.455 230.003 196.501C229.24 196.547 228.351 196.57 227.334 196.57H227.003H226.04V188.982ZM238.128 198.27C237.936 198.27 237.759 198.224 237.596 198.132C237.434 198.037 237.305 197.909 237.209 197.751C237.117 197.589 237.074 197.412 237.078 197.22C237.074 197.032 237.117 196.859 237.209 196.701C237.305 196.539 237.434 196.412 237.596 196.32C237.759 196.228 237.936 196.182 238.128 196.182C238.311 196.182 238.482 196.228 238.64 196.32C238.799 196.412 238.926 196.539 239.021 196.701C239.117 196.859 239.165 197.032 239.165 197.22C239.165 197.412 239.117 197.589 239.021 197.751C238.926 197.909 238.799 198.037 238.64 198.132C238.482 198.224 238.311 198.27 238.128 198.27Z" fill="white"/>
<path d="M84.5715 212.587C84.5715 213.097 84.6732 213.607 84.8765 214.117C85.0832 214.624 85.3615 215.077 85.7115 215.477C86.0648 215.877 86.4515 216.181 86.8715 216.387L86.3915 217.017C85.9015 216.764 85.4615 216.389 85.0715 215.892C84.6848 215.396 84.3932 214.837 84.1965 214.217C83.9998 214.874 83.7032 215.467 83.3065 215.997C82.9098 216.524 82.4615 216.921 81.9615 217.187L81.4615 216.557C81.8915 216.347 82.2832 216.032 82.6365 215.612C82.9932 215.192 83.2748 214.717 83.4815 214.187C83.6915 213.654 83.7982 213.121 83.8015 212.587V210.967H84.5715V212.587ZM87.6915 210.197H88.4715V213.807H89.9615V214.487H88.4715V219.087H87.6915V210.197ZM97.7915 219.087H97.0015V210.197H97.7915V219.087ZM90.5515 216.777C91.7382 216.214 92.6465 215.514 93.2765 214.677C93.9098 213.841 94.2715 212.884 94.3615 211.807H90.9615V211.167H95.1615C95.1548 212.507 94.8148 213.712 94.1415 214.782C93.4682 215.852 92.4148 216.731 90.9815 217.417L90.5515 216.777ZM109.481 219.087H108.721V214.447H107.511V218.627H106.761V210.397H107.511V213.787H108.721V210.197H109.481V219.087ZM101.761 216.217C102.171 216.217 102.495 216.216 102.731 216.212V211.977H101.951V211.327H106.101V211.977H105.331V216.107C105.748 216.071 106.065 216.037 106.281 216.007L106.321 216.587C105.718 216.701 105.036 216.779 104.276 216.822C103.516 216.866 102.766 216.887 102.026 216.887H101.861L101.761 216.217ZM103.461 216.197C103.848 216.187 104.228 216.172 104.601 216.152V211.977H103.461V216.197ZM118.081 216.807H117.291V213.357H115.551V212.707H117.291V210.207H118.081V216.807ZM111.171 210.897H115.171V211.547H111.951V212.787H114.931V213.417H111.951V214.737H112.201C112.981 214.737 113.623 214.721 114.126 214.687C114.63 214.654 115.138 214.591 115.651 214.497L115.721 215.147C115.158 215.247 114.598 215.314 114.041 215.347C113.485 215.381 112.745 215.397 111.821 215.397H111.171V210.897ZM112.351 216.237H113.141V218.237H118.321V218.897H112.351V216.237ZM123.611 210.357C124.268 210.357 124.831 210.417 125.301 210.537C125.771 210.654 126.13 210.827 126.376 211.057C126.626 211.284 126.751 211.561 126.751 211.887C126.751 212.221 126.626 212.504 126.376 212.737C126.13 212.971 125.771 213.147 125.301 213.267C124.835 213.384 124.271 213.444 123.611 213.447C122.948 213.444 122.381 213.384 121.911 213.267C121.441 213.147 121.081 212.971 120.831 212.737C120.585 212.504 120.461 212.221 120.461 211.887C120.461 211.561 120.585 211.284 120.831 211.057C121.081 210.827 121.441 210.654 121.911 210.537C122.385 210.417 122.951 210.357 123.611 210.357ZM119.561 214.047H127.661V214.687H119.561V214.047ZM120.541 215.457H126.621V217.447H121.341V218.367H126.891V218.987H120.561V216.867H125.851V216.057H120.541V215.457ZM121.281 211.887C121.278 212.194 121.48 212.431 121.886 212.597C122.293 212.764 122.868 212.847 123.611 212.847C124.351 212.847 124.925 212.766 125.331 212.602C125.741 212.436 125.948 212.197 125.951 211.887C125.951 211.694 125.858 211.527 125.671 211.387C125.488 211.247 125.22 211.139 124.866 211.062C124.516 210.986 124.098 210.947 123.611 210.947C123.121 210.947 122.701 210.986 122.351 211.062C122.001 211.139 121.735 211.247 121.551 211.387C121.368 211.527 121.278 211.694 121.281 211.887ZM139.111 215.547H135.491V217.287H134.711V215.547H130.971V214.907H139.111V215.547ZM132.011 216.467H132.791V218.237H138.201V218.897H132.011V216.467ZM132.061 210.487H132.841V211.627H137.241V210.487H138.021V214.037H132.061V210.487ZM137.241 213.397V212.227H132.841V213.397H137.241ZM142.861 211.627C142.861 212.031 142.953 212.419 143.136 212.792C143.323 213.166 143.583 213.496 143.916 213.782C144.253 214.066 144.635 214.281 145.061 214.427L144.631 215.057C144.141 214.874 143.71 214.602 143.336 214.242C142.963 213.882 142.681 213.464 142.491 212.987C142.305 213.511 142.018 213.971 141.631 214.367C141.248 214.761 140.795 215.061 140.271 215.267L139.841 214.617C140.288 214.461 140.68 214.232 141.016 213.932C141.356 213.629 141.62 213.277 141.806 212.877C141.993 212.474 142.088 212.047 142.091 211.597V210.657H142.861V211.627ZM141.221 215.947H147.201V219.087H146.411V216.577H141.221V215.947ZM144.431 212.067H146.411V210.197H147.201V215.457H146.411V212.727H144.431V212.067ZM155.561 213.867H157.051V214.517H155.561V219.087H154.781V210.197H155.561V213.867ZM148.631 211.627H150.921V210.307H151.701V211.627H153.921V212.277H148.631V211.627ZM149.141 215.057C149.141 214.664 149.235 214.312 149.421 214.002C149.608 213.692 149.866 213.451 150.196 213.277C150.53 213.104 150.905 213.017 151.321 213.017C151.735 213.017 152.106 213.104 152.436 213.277C152.766 213.451 153.025 213.692 153.211 214.002C153.401 214.312 153.498 214.664 153.501 215.057C153.498 215.454 153.401 215.807 153.211 216.117C153.025 216.424 152.766 216.664 152.436 216.837C152.106 217.011 151.735 217.097 151.321 217.097C150.905 217.097 150.53 217.011 150.196 216.837C149.866 216.664 149.608 216.424 149.421 216.117C149.235 215.807 149.141 215.454 149.141 215.057ZM149.891 215.057C149.891 215.324 149.951 215.562 150.071 215.772C150.195 215.979 150.365 216.141 150.581 216.257C150.801 216.374 151.048 216.431 151.321 216.427C151.591 216.431 151.835 216.374 152.051 216.257C152.268 216.141 152.438 215.979 152.561 215.772C152.685 215.562 152.748 215.324 152.751 215.057C152.748 214.794 152.685 214.557 152.561 214.347C152.438 214.134 152.268 213.969 152.051 213.852C151.835 213.736 151.591 213.677 151.321 213.677C151.048 213.677 150.801 213.736 150.581 213.852C150.365 213.969 150.195 214.134 150.071 214.347C149.951 214.557 149.891 214.794 149.891 215.057ZM159.921 210.887C160.328 210.891 160.691 211.006 161.011 211.232C161.335 211.456 161.593 211.774 161.786 212.187H164.121V210.197H164.901V219.107H164.121V215.657H161.841C161.655 216.111 161.395 216.462 161.061 216.712C160.728 216.959 160.348 217.081 159.921 217.077C159.485 217.077 159.096 216.952 158.756 216.702C158.42 216.449 158.158 216.089 157.971 215.622C157.785 215.156 157.691 214.611 157.691 213.987C157.691 213.367 157.785 212.824 157.971 212.357C158.158 211.887 158.42 211.526 158.756 211.272C159.096 211.016 159.485 210.887 159.921 210.887ZM158.441 213.987C158.441 214.464 158.503 214.884 158.626 215.247C158.753 215.607 158.928 215.886 159.151 216.082C159.375 216.279 159.631 216.377 159.921 216.377C160.208 216.377 160.463 216.279 160.686 216.082C160.913 215.886 161.088 215.606 161.211 215.242C161.338 214.879 161.401 214.461 161.401 213.987C161.401 213.514 161.338 213.096 161.211 212.732C161.088 212.369 160.913 212.087 160.686 211.887C160.463 211.687 160.208 211.587 159.921 211.587C159.631 211.587 159.375 211.687 159.151 211.887C158.928 212.087 158.753 212.369 158.626 212.732C158.503 213.092 158.441 213.511 158.441 213.987ZM162.011 212.847C162.098 213.201 162.141 213.581 162.141 213.987C162.141 214.351 162.108 214.691 162.041 215.007H164.121V212.847H162.011ZM171.881 210.637C172.321 210.634 172.715 210.709 173.061 210.862C173.408 211.012 173.678 211.226 173.871 211.502C174.065 211.776 174.161 212.091 174.161 212.447C174.161 212.804 174.065 213.121 173.871 213.397C173.678 213.674 173.408 213.889 173.061 214.042C172.715 214.192 172.321 214.267 171.881 214.267C171.441 214.267 171.048 214.192 170.701 214.042C170.358 213.889 170.088 213.674 169.891 213.397C169.698 213.121 169.601 212.804 169.601 212.447C169.601 212.091 169.698 211.776 169.891 211.502C170.088 211.226 170.358 211.012 170.701 210.862C171.048 210.709 171.441 210.634 171.881 210.637ZM169.211 215.027C170.228 215.027 171.213 215.006 172.166 214.962C173.123 214.916 174.021 214.831 174.861 214.707L174.911 215.297C174.128 215.441 173.265 215.542 172.321 215.602V218.817H171.541V215.647C170.951 215.674 170.118 215.691 169.041 215.697L168.931 215.027H169.211ZM170.371 212.447C170.368 212.674 170.43 212.877 170.556 213.057C170.686 213.234 170.866 213.372 171.096 213.472C171.326 213.569 171.588 213.617 171.881 213.617C172.178 213.617 172.441 213.569 172.671 213.472C172.905 213.372 173.086 213.234 173.216 213.057C173.346 212.881 173.411 212.677 173.411 212.447C173.411 212.221 173.346 212.019 173.216 211.842C173.086 211.662 172.905 211.522 172.671 211.422C172.438 211.322 172.175 211.274 171.881 211.277C171.591 211.274 171.33 211.322 171.096 211.422C170.866 211.522 170.686 211.662 170.556 211.842C170.43 212.019 170.368 212.221 170.371 212.447ZM175.511 210.207H176.281V219.097H175.511V210.207ZM185.171 215.587H184.381V213.557H182.871V212.907H184.381V210.197H185.171V215.587ZM177.811 211.137H180.021V210.117H180.791V211.137H183.001V211.777H177.811V211.137ZM178.341 213.817C178.341 213.511 178.428 213.237 178.601 212.997C178.778 212.757 179.023 212.571 179.336 212.437C179.65 212.304 180.005 212.237 180.401 212.237C180.801 212.237 181.156 212.304 181.466 212.437C181.78 212.571 182.025 212.757 182.201 212.997C182.378 213.237 182.468 213.511 182.471 213.817C182.468 214.134 182.378 214.412 182.201 214.652C182.028 214.892 181.785 215.079 181.471 215.212C181.158 215.342 180.801 215.407 180.401 215.407C180.001 215.407 179.645 215.342 179.331 215.212C179.021 215.079 178.778 214.892 178.601 214.652C178.428 214.412 178.341 214.134 178.341 213.817ZM179.091 213.817C179.091 214.011 179.146 214.182 179.256 214.332C179.366 214.479 179.52 214.594 179.716 214.677C179.916 214.761 180.145 214.804 180.401 214.807C180.658 214.804 180.885 214.761 181.081 214.677C181.281 214.594 181.436 214.479 181.546 214.332C181.656 214.182 181.711 214.011 181.711 213.817C181.711 213.631 181.656 213.464 181.546 213.317C181.436 213.167 181.281 213.052 181.081 212.972C180.885 212.889 180.658 212.847 180.401 212.847C180.145 212.847 179.916 212.889 179.716 212.972C179.52 213.052 179.366 213.167 179.256 213.317C179.146 213.464 179.091 213.631 179.091 213.817ZM179.361 216.067H185.171V218.967H179.361V216.067ZM184.401 218.327V216.697H180.141V218.327H184.401ZM193.831 215.007H191.081V217.307H194.791V217.967H186.651V217.307H190.311V215.007H187.691V210.927H193.741V211.567H188.481V214.367H193.831V215.007ZM203.631 214.947H195.491V214.327H203.631V214.947ZM196.471 215.657H202.611V217.547H197.271V218.397H202.901V218.967H196.481V217.007H201.831V216.247H196.471V215.657ZM196.521 210.467H202.581V212.307H197.331V213.087H202.741V213.657H196.551V211.767H201.791V211.037H196.521V210.467ZM209.521 212.937C209.525 213.417 209.603 213.889 209.756 214.352C209.913 214.812 210.138 215.229 210.431 215.602C210.725 215.976 211.068 216.267 211.461 216.477L211.011 217.067C210.578 216.831 210.203 216.497 209.886 216.067C209.57 215.634 209.328 215.142 209.161 214.592C208.998 215.179 208.758 215.707 208.441 216.177C208.128 216.644 207.755 217.007 207.321 217.267L206.851 216.667C207.245 216.441 207.586 216.129 207.876 215.732C208.166 215.336 208.388 214.894 208.541 214.407C208.698 213.921 208.778 213.431 208.781 212.937V212.497H207.091V211.847H208.781V210.527H209.531V211.847H211.191V212.497H209.521V212.937ZM210.581 213.707H211.981V210.417H212.721V218.627H211.981V214.377H210.581V213.707ZM213.771 210.197H214.521V219.087H213.771V210.197ZM222.861 212.207V212.612C222.861 213.309 222.838 213.952 222.791 214.542C222.745 215.132 222.645 215.794 222.491 216.527L221.701 216.457C221.875 215.717 221.99 214.956 222.046 214.172L216.621 214.467L216.511 213.817L222.081 213.587C222.095 213.171 222.101 212.711 222.101 212.207V211.767H216.751V211.107H222.861V212.207ZM215.771 217.177H223.871V217.837H215.771V217.177ZM231.571 212.477H232.911V213.147H231.571V215.367H230.791V210.197H231.571V212.477ZM224.641 211.117H226.901V210.117H227.681V211.117H229.941V211.767H224.641V211.117ZM225.151 213.737C225.151 213.424 225.24 213.151 225.416 212.917C225.593 212.681 225.843 212.499 226.166 212.372C226.49 212.242 226.865 212.177 227.291 212.177C227.715 212.177 228.086 212.242 228.406 212.372C228.73 212.499 228.98 212.681 229.156 212.917C229.336 213.151 229.428 213.424 229.431 213.737C229.428 214.051 229.336 214.326 229.156 214.562C228.98 214.799 228.73 214.981 228.406 215.107C228.083 215.234 227.711 215.297 227.291 215.297C226.865 215.297 226.49 215.234 226.166 215.107C225.843 214.981 225.593 214.799 225.416 214.562C225.24 214.326 225.151 214.051 225.151 213.737ZM225.901 213.737C225.901 213.927 225.958 214.096 226.071 214.242C226.185 214.386 226.346 214.497 226.556 214.577C226.77 214.657 227.015 214.697 227.291 214.697C227.565 214.697 227.806 214.657 228.016 214.577C228.23 214.497 228.395 214.386 228.511 214.242C228.628 214.096 228.688 213.927 228.691 213.737C228.688 213.547 228.626 213.381 228.506 213.237C228.39 213.091 228.226 212.979 228.016 212.902C227.806 212.822 227.565 212.784 227.291 212.787C227.015 212.784 226.771 212.822 226.561 212.902C226.351 212.979 226.188 213.091 226.071 213.237C225.958 213.381 225.901 213.547 225.901 213.737ZM225.951 215.757H226.731V216.707H230.791V215.757H231.571V218.967H225.951V215.757ZM230.791 218.337V217.327H226.731V218.337H230.791ZM240.801 219.087H240.021V210.197H240.801V219.087ZM234.051 211.077H234.821V216.117C235.555 216.111 236.27 216.076 236.966 216.012C237.663 215.946 238.365 215.837 239.071 215.687L239.181 216.357C238.425 216.514 237.688 216.627 236.971 216.697C236.258 216.764 235.525 216.797 234.771 216.797H234.051V211.077ZM249.201 213.717H250.691V214.377H249.201V219.107H248.421V210.197H249.201V213.717ZM242.711 211.067H246.861V211.717H243.491V216.217C244.331 216.214 245.06 216.189 245.676 216.142C246.293 216.096 246.921 216.014 247.561 215.897L247.661 216.577C247.001 216.697 246.355 216.777 245.721 216.817C245.091 216.857 244.321 216.877 243.411 216.877H242.711V211.067ZM252.111 218.337C251.995 218.337 251.886 218.307 251.786 218.247C251.69 218.187 251.611 218.109 251.551 218.012C251.495 217.912 251.468 217.804 251.471 217.687C251.468 217.574 251.495 217.469 251.551 217.372C251.611 217.272 251.69 217.194 251.786 217.137C251.886 217.077 251.995 217.047 252.111 217.047C252.225 217.047 252.33 217.076 252.426 217.132C252.526 217.189 252.605 217.266 252.661 217.362C252.721 217.459 252.751 217.564 252.751 217.677C252.751 217.857 252.69 218.012 252.566 218.142C252.443 218.269 252.291 218.334 252.111 218.337Z" fill="#D7DDFF"/>
<g clip-path="url(#clip2_3125_52297)">
<path d="M91.158 252.499H92.3305V253.076H91.158V255.867H90.4755V250.127H91.158V252.499ZM85.2255 252.595C85.2255 252.224 85.313 251.895 85.488 251.606C85.6659 251.314 85.9094 251.087 86.2186 250.924C86.5307 250.76 86.8792 250.679 87.2642 250.679C87.6492 250.679 87.9963 250.76 88.3055 250.924C88.6176 251.087 88.8626 251.314 89.0405 251.606C89.2184 251.895 89.3088 252.224 89.3117 252.595C89.3088 252.965 89.2184 253.296 89.0405 253.588C88.8626 253.877 88.6176 254.103 88.3055 254.266C87.9963 254.429 87.6492 254.511 87.2642 254.511C86.8821 254.511 86.5351 254.429 86.223 254.266C85.9109 254.103 85.6659 253.875 85.488 253.584C85.313 253.292 85.2255 252.962 85.2255 252.595ZM85.8992 252.595C85.8992 252.846 85.959 253.072 86.0786 253.273C86.1982 253.471 86.3615 253.627 86.5686 253.741C86.7786 253.852 87.0105 253.907 87.2642 253.907C87.5238 253.907 87.7571 253.852 87.9642 253.741C88.1742 253.627 88.339 253.471 88.4586 253.273C88.5782 253.072 88.638 252.846 88.638 252.595C88.638 252.341 88.5782 252.115 88.4586 251.917C88.339 251.718 88.1742 251.564 87.9642 251.453C87.7571 251.339 87.5238 251.282 87.2642 251.282C87.0105 251.282 86.7786 251.339 86.5686 251.453C86.3615 251.564 86.1982 251.72 86.0786 251.921C85.959 252.119 85.8992 252.344 85.8992 252.595ZM86.293 255.272H86.9667V257.162H91.5167V257.74H86.293V255.272ZM93.9842 253.794H94.1198C94.7732 253.794 95.3419 253.773 95.8261 253.732C96.3132 253.692 96.8076 253.619 97.3092 253.514L97.3967 254.082C96.8659 254.19 96.3423 254.266 95.8261 254.31C95.3128 254.351 94.709 254.371 94.0148 254.371H93.8792H93.2842V250.609H93.9842V253.794ZM94.0805 256.445C94.0805 256.139 94.184 255.875 94.3911 255.653C94.6011 255.431 94.9015 255.262 95.2923 255.146C95.6861 255.026 96.1513 254.966 96.688 254.966C97.2246 254.966 97.6884 255.026 98.0792 255.146C98.4701 255.262 98.7705 255.431 98.9805 255.653C99.1905 255.875 99.2955 256.139 99.2955 256.445C99.2955 256.748 99.1905 257.009 98.9805 257.228C98.7705 257.447 98.4701 257.613 98.0792 257.727C97.6884 257.843 97.2246 257.903 96.688 257.906C96.1484 257.903 95.6832 257.843 95.2923 257.727C94.9015 257.613 94.6011 257.447 94.3911 257.228C94.184 257.009 94.0805 256.748 94.0805 256.445ZM94.763 256.445C94.763 256.629 94.8403 256.789 94.9948 256.926C95.1494 257.06 95.3711 257.164 95.6598 257.237C95.9486 257.31 96.2913 257.346 96.688 257.346C97.0817 257.346 97.423 257.31 97.7117 257.237C98.0034 257.164 98.2265 257.06 98.3811 256.926C98.5357 256.789 98.613 256.629 98.613 256.445C98.613 256.255 98.5357 256.091 98.3811 255.951C98.2265 255.811 98.0034 255.704 97.7117 255.631C97.423 255.555 97.0817 255.517 96.688 255.517C96.2913 255.517 95.9471 255.555 95.6555 255.631C95.3667 255.704 95.1451 255.811 94.9905 255.951C94.8388 256.091 94.763 256.255 94.763 256.445ZM96.3467 252.437H98.578V251.606H96.3467V251.055H98.578V250.127H99.2692V254.905H98.578V252.98H96.3467V252.437ZM106.584 253.339H107.888V253.907H106.584V257.906H105.902V250.127H106.584V253.339ZM100.52 251.379H102.524V250.224H103.207V251.379H105.149V251.947H100.52V251.379ZM100.967 254.38C100.967 254.036 101.048 253.728 101.212 253.457C101.375 253.186 101.601 252.974 101.89 252.822C102.182 252.671 102.51 252.595 102.874 252.595C103.236 252.595 103.561 252.671 103.85 252.822C104.139 252.974 104.365 253.186 104.528 253.457C104.694 253.728 104.779 254.036 104.782 254.38C104.779 254.727 104.694 255.036 104.528 255.307C104.365 255.576 104.139 255.786 103.85 255.937C103.561 256.089 103.236 256.165 102.874 256.165C102.51 256.165 102.182 256.089 101.89 255.937C101.601 255.786 101.375 255.576 101.212 255.307C101.048 255.036 100.967 254.727 100.967 254.38ZM101.623 254.38C101.623 254.613 101.675 254.822 101.78 255.006C101.888 255.186 102.037 255.328 102.227 255.43C102.419 255.532 102.635 255.582 102.874 255.579C103.11 255.582 103.323 255.532 103.513 255.43C103.703 255.328 103.851 255.186 103.959 255.006C104.067 254.822 104.123 254.613 104.125 254.38C104.123 254.149 104.067 253.942 103.959 253.759C103.851 253.572 103.703 253.428 103.513 253.326C103.323 253.223 103.11 253.172 102.874 253.172C102.635 253.172 102.419 253.223 102.227 253.326C102.037 253.428 101.888 253.572 101.78 253.759C101.675 253.942 101.623 254.149 101.623 254.38ZM110.618 252.341C110.618 252.758 110.684 253.174 110.815 253.588C110.946 253.999 111.134 254.376 111.379 254.717C111.627 255.058 111.919 255.328 112.254 255.526L111.86 256.06C111.493 255.838 111.175 255.532 110.907 255.141C110.641 254.75 110.439 254.311 110.299 253.824C110.153 254.352 109.938 254.826 109.655 255.246C109.373 255.666 109.04 255.993 108.658 256.226L108.22 255.71C108.57 255.506 108.877 255.227 109.139 254.874C109.402 254.518 109.603 254.123 109.743 253.689C109.883 253.254 109.953 252.814 109.953 252.367V250.862H110.618V252.341ZM111.397 252.919H112.718V250.294H113.365V257.512H112.718V253.505H111.397V252.919ZM114.31 250.127H114.975V257.906H114.31V250.127ZM123.174 256.909H116.052V256.331H117.819V254.236C117.481 254.061 117.218 253.834 117.032 253.557C116.845 253.28 116.752 252.968 116.752 252.621C116.752 252.227 116.873 251.879 117.115 251.576C117.357 251.272 117.692 251.037 118.121 250.871C118.553 250.705 119.044 250.62 119.595 250.617C120.147 250.62 120.637 250.705 121.065 250.871C121.497 251.037 121.834 251.272 122.076 251.576C122.318 251.879 122.439 252.227 122.439 252.621C122.439 252.962 122.349 253.27 122.168 253.544C121.987 253.816 121.733 254.039 121.407 254.214V256.331H123.174V256.909ZM117.417 252.621C117.417 252.907 117.509 253.161 117.692 253.382C117.876 253.601 118.133 253.772 118.462 253.894C118.795 254.014 119.173 254.074 119.595 254.074C120.015 254.074 120.39 254.014 120.72 253.894C121.049 253.772 121.308 253.601 121.494 253.382C121.681 253.161 121.774 252.907 121.774 252.621C121.774 252.335 121.681 252.083 121.494 251.864C121.308 251.646 121.049 251.478 120.72 251.361C120.39 251.242 120.015 251.183 119.595 251.186C119.173 251.183 118.795 251.242 118.462 251.361C118.133 251.478 117.876 251.646 117.692 251.864C117.509 252.083 117.417 252.335 117.417 252.621ZM120.715 256.331V254.481C120.368 254.571 119.995 254.616 119.595 254.616C119.193 254.616 118.825 254.572 118.493 254.485V256.331H120.715ZM124.39 258.991H123.743L124.224 256.611H125.073L124.39 258.991ZM131.924 257.486C131.3 257.486 130.724 257.33 130.196 257.018C129.668 256.706 129.25 256.286 128.94 255.758C128.631 255.23 128.477 254.654 128.477 254.03C128.477 253.406 128.631 252.83 128.94 252.302C129.25 251.774 129.668 251.354 130.196 251.042C130.724 250.73 131.3 250.574 131.924 250.574C132.548 250.574 133.124 250.73 133.652 251.042C134.183 251.354 134.603 251.774 134.912 252.302C135.224 252.83 135.38 253.406 135.38 254.03C135.38 254.654 135.224 255.23 134.912 255.758C134.603 256.286 134.183 256.706 133.652 257.018C133.124 257.33 132.548 257.486 131.924 257.486ZM129.142 254.03C129.142 254.532 129.267 254.997 129.518 255.426C129.769 255.851 130.107 256.19 130.533 256.441C130.959 256.688 131.423 256.812 131.924 256.812C132.429 256.812 132.894 256.688 133.32 256.441C133.746 256.19 134.084 255.851 134.335 255.426C134.589 255 134.715 254.534 134.715 254.03C134.715 253.525 134.589 253.06 134.335 252.634C134.084 252.208 133.746 251.872 133.32 251.624C132.894 251.373 132.429 251.247 131.924 251.247C131.423 251.247 130.959 251.373 130.533 251.624C130.107 251.872 129.769 252.208 129.518 252.634C129.267 253.06 129.142 253.525 129.142 254.03ZM139.729 257.486C139.105 257.486 138.529 257.33 138.001 257.018C137.473 256.706 137.055 256.286 136.745 255.758C136.436 255.23 136.282 254.654 136.282 254.03C136.282 253.406 136.436 252.83 136.745 252.302C137.055 251.774 137.473 251.354 138.001 251.042C138.529 250.73 139.105 250.574 139.729 250.574C140.353 250.574 140.929 250.73 141.457 251.042C141.988 251.354 142.408 251.774 142.717 252.302C143.029 252.83 143.185 253.406 143.185 254.03C143.185 254.654 143.029 255.23 142.717 255.758C142.408 256.286 141.988 256.706 141.457 257.018C140.929 257.33 140.353 257.486 139.729 257.486ZM136.947 254.03C136.947 254.532 137.072 254.997 137.323 255.426C137.574 255.851 137.912 256.19 138.338 256.441C138.764 256.688 139.228 256.812 139.729 256.812C140.234 256.812 140.699 256.688 141.125 256.441C141.551 256.19 141.889 255.851 142.14 255.426C142.394 255 142.52 254.534 142.52 254.03C142.52 253.525 142.394 253.06 142.14 252.634C141.889 252.208 141.551 251.872 141.125 251.624C140.699 251.373 140.234 251.247 139.729 251.247C139.228 251.247 138.764 251.373 138.338 251.624C137.912 251.872 137.574 252.208 137.323 252.634C137.072 253.06 136.947 253.525 136.947 254.03ZM147.858 255.929H144.27V250.915H147.858V255.929ZM147.175 255.369V251.466H144.935V255.369H147.175ZM149.284 250.127H149.967V253.234H151.27V253.829H149.967V257.906H149.284V250.127ZM158.314 255.421H157.658V250.136H158.314V255.421ZM154.298 252.271C154.397 251.965 154.46 251.659 154.486 251.352H152.128V250.784H155.164C155.164 251.379 155.081 251.921 154.915 252.411H156.127V250.276H156.783V254.721H156.127V252.98H154.67C154.186 253.916 153.33 254.648 152.102 255.176L151.769 254.669C152.88 254.202 153.649 253.569 154.075 252.77L151.865 253.006L151.752 252.429L154.298 252.271ZM152.679 257.337C153.137 257.264 153.572 257.126 153.983 256.922C154.397 256.715 154.731 256.464 154.985 256.169C155.239 255.872 155.365 255.555 155.365 255.22V254.957H156.048V255.22C156.048 255.555 156.175 255.872 156.429 256.169C156.682 256.464 157.016 256.715 157.43 256.922C157.845 257.126 158.282 257.264 158.743 257.337L158.463 257.871C158.069 257.801 157.692 257.687 157.33 257.53C156.968 257.375 156.646 257.183 156.363 256.952C156.08 256.719 155.861 256.459 155.707 256.174C155.552 256.459 155.333 256.719 155.05 256.952C154.768 257.183 154.445 257.375 154.084 257.53C153.722 257.687 153.344 257.801 152.95 257.871L152.679 257.337ZM165.857 254.301H165.174V250.127H165.857V254.301ZM159.618 252.297C159.618 251.947 159.704 251.637 159.876 251.366C160.051 251.094 160.293 250.884 160.602 250.736C160.914 250.584 161.266 250.509 161.657 250.512C162.048 250.509 162.398 250.584 162.707 250.736C163.016 250.884 163.258 251.094 163.433 251.366C163.608 251.637 163.695 251.947 163.695 252.297C163.695 252.644 163.608 252.954 163.433 253.225C163.258 253.496 163.016 253.708 162.707 253.859C162.398 254.008 162.048 254.082 161.657 254.082C161.266 254.082 160.914 254.008 160.602 253.859C160.293 253.708 160.051 253.496 159.876 253.225C159.704 252.954 159.618 252.644 159.618 252.297ZM160.292 252.297C160.289 252.531 160.346 252.739 160.462 252.923C160.579 253.107 160.741 253.251 160.948 253.356C161.155 253.461 161.391 253.514 161.657 253.514C161.919 253.514 162.154 253.461 162.361 253.356C162.568 253.251 162.73 253.107 162.847 252.923C162.963 252.739 163.022 252.531 163.022 252.297C163.022 252.064 162.963 251.856 162.847 251.672C162.73 251.488 162.568 251.345 162.361 251.243C162.154 251.141 161.919 251.09 161.657 251.09C161.391 251.09 161.155 251.141 160.948 251.243C160.741 251.345 160.579 251.488 160.462 251.672C160.346 251.856 160.289 252.064 160.292 252.297ZM160.817 254.695H161.499V255.64H165.174V254.695H165.857V257.801H160.817V254.695ZM165.174 257.241V256.191H161.499V257.241H165.174ZM173.592 257.906H172.909V250.127H173.592V257.906ZM167.685 250.897H168.359V255.307C169.001 255.302 169.627 255.271 170.236 255.216C170.846 255.157 171.46 255.062 172.078 254.931L172.174 255.517C171.512 255.654 170.868 255.754 170.24 255.815C169.616 255.873 168.975 255.902 168.315 255.902H167.685V250.897ZM180.942 253.207H182.245V253.785H180.942V257.924H180.259V250.127H180.942V253.207ZM175.263 250.889H178.894V251.457H175.945V255.395C176.68 255.392 177.318 255.37 177.857 255.329C178.397 255.288 178.947 255.217 179.507 255.115L179.594 255.71C179.017 255.815 178.451 255.885 177.897 255.92C177.345 255.955 176.672 255.972 175.875 255.972H175.263V250.889ZM183.488 257.25C183.386 257.25 183.291 257.224 183.204 257.171C183.119 257.119 183.05 257.05 182.998 256.966C182.948 256.878 182.925 256.783 182.928 256.681C182.925 256.582 182.948 256.49 182.998 256.406C183.05 256.318 183.119 256.249 183.204 256.2C183.291 256.147 183.386 256.121 183.488 256.121C183.587 256.121 183.679 256.146 183.764 256.196C183.851 256.245 183.92 256.312 183.969 256.397C184.022 256.481 184.048 256.573 184.048 256.672C184.048 256.83 183.994 256.966 183.886 257.079C183.778 257.19 183.645 257.247 183.488 257.25ZM87.6755 264.387C87.6755 264.734 87.7571 265.07 87.9205 265.394C88.0867 265.714 88.3157 265.997 88.6073 266.242C88.9019 266.487 89.2359 266.674 89.6092 266.802L89.233 267.345C88.8042 267.187 88.4265 266.956 88.0998 266.649C87.7761 266.34 87.5282 265.981 87.3561 265.573C87.1898 266.034 86.939 266.436 86.6036 266.781C86.2682 267.125 85.873 267.386 85.418 267.564L85.0505 267.012C85.4355 266.869 85.7753 266.664 86.0698 266.396C86.3644 266.127 86.5934 265.817 86.7567 265.464C86.9201 265.108 87.0017 264.732 87.0017 264.335V263.53H87.6755V264.387ZM86.083 269.471C86.083 269.177 86.1865 268.924 86.3936 268.714C86.6007 268.501 86.8982 268.339 87.2861 268.229C87.674 268.118 88.1334 268.062 88.6642 268.062C89.1951 268.062 89.6515 268.118 90.0336 268.229C90.4186 268.339 90.7132 268.501 90.9173 268.714C91.1244 268.924 91.228 269.177 91.228 269.471C91.228 269.772 91.1259 270.027 90.9217 270.237C90.7176 270.45 90.423 270.612 90.038 270.722C89.653 270.833 89.1951 270.889 88.6642 270.889C88.1305 270.889 87.6696 270.833 87.2817 270.722C86.8967 270.612 86.6007 270.45 86.3936 270.237C86.1865 270.024 86.083 269.769 86.083 269.471ZM86.7742 269.471C86.7713 269.652 86.8457 269.808 86.9973 269.939C87.149 270.071 87.3663 270.171 87.6492 270.241C87.9351 270.311 88.2734 270.346 88.6642 270.346C89.0551 270.346 89.3919 270.311 89.6748 270.241C89.9607 270.171 90.1794 270.071 90.3311 269.939C90.4857 269.808 90.563 269.652 90.563 269.471C90.563 269.296 90.4857 269.144 90.3311 269.016C90.1794 268.885 89.9607 268.786 89.6748 268.719C89.389 268.649 89.0521 268.614 88.6642 268.614C88.2763 268.614 87.9394 268.649 87.6536 268.719C87.3678 268.789 87.149 268.888 86.9973 269.016C86.8457 269.144 86.7713 269.296 86.7742 269.471ZM90.4755 263.127H91.158V265.157H92.3305V265.735H91.158V267.861H90.4755V263.127ZM99.908 267.459H96.6967V268.377H99.0417V270.801H93.6867V268.377H96.023V267.459H92.8205V266.89H99.908V267.459ZM93.4855 263.381H99.2342V263.95H98.0355V265.586H99.208V266.155H93.5117V265.586H94.6842V263.95H93.4855V263.381ZM98.368 270.241V268.92H94.3692V270.241H98.368ZM97.353 265.586V263.95H95.3667V265.586H97.353ZM109.262 267.109H108.57V266.295H106.497V265.752H108.57V264.816H106.61C106.371 265.42 105.96 265.93 105.377 266.347C104.793 266.762 104.064 267.074 103.189 267.284L102.944 266.715C103.898 266.493 104.643 266.158 105.18 265.709C105.719 265.257 106.023 264.717 106.09 264.09H103.338V263.521H106.847C106.847 263.775 106.822 264.023 106.772 264.265H108.57V263.127H109.262V267.109ZM104.222 267.459H109.262V269.357H104.922V270.267H109.524V270.836H104.239V268.832H108.57V268.019H104.222V267.459ZM117.207 270.906H116.55V263.127H117.207V270.906ZM110.46 268.832C110.813 268.622 111.12 268.335 111.379 267.971C111.639 267.603 111.837 267.193 111.974 266.741C112.111 266.286 112.178 265.822 112.175 265.35V264.615H110.679V264.046H114.267V264.615H112.84V265.35C112.84 265.802 112.906 266.242 113.037 266.671C113.172 267.1 113.364 267.488 113.615 267.835C113.869 268.182 114.17 268.456 114.52 268.657L114.1 269.165C113.724 268.94 113.402 268.63 113.134 268.233C112.865 267.833 112.661 267.381 112.521 266.877C112.378 267.425 112.167 267.915 111.887 268.347C111.61 268.776 111.28 269.109 110.898 269.349L110.46 268.832ZM113.672 265.936H114.984V263.32H115.632V270.504H114.984V266.496H113.672V265.936ZM126.622 265.49H127.785V266.067H126.622V268.351H125.93V263.136H126.622V265.49ZM120.514 267.555C121.413 267.555 122.115 267.548 122.623 267.533V266.96C122.165 266.919 121.802 266.798 121.534 266.597C121.265 266.396 121.133 266.134 121.135 265.814C121.135 265.58 121.21 265.378 121.359 265.206C121.51 265.033 121.723 264.901 121.997 264.807C122.274 264.714 122.594 264.667 122.955 264.667C123.32 264.667 123.639 264.714 123.914 264.807C124.191 264.901 124.404 265.033 124.552 265.206C124.704 265.378 124.781 265.58 124.784 265.814C124.781 266.132 124.647 266.391 124.382 266.592C124.119 266.794 123.76 266.916 123.305 266.96V267.507C124.108 267.469 124.822 267.403 125.449 267.31L125.51 267.809C124.813 267.931 124.087 268.013 123.332 268.054C122.579 268.094 121.776 268.115 120.921 268.115H120.593L120.514 267.555ZM120.707 263.845H122.623V263.066H123.305V263.845H125.213V264.37H120.707V263.845ZM121.468 268.736H126.622V270.906H125.93V269.287H121.468V268.736ZM121.792 265.814C121.792 265.948 121.838 266.067 121.932 266.172C122.025 266.274 122.159 266.353 122.334 266.409C122.512 266.464 122.719 266.49 122.955 266.487C123.192 266.49 123.397 266.464 123.572 266.409C123.75 266.353 123.887 266.274 123.984 266.172C124.08 266.067 124.128 265.948 124.128 265.814C124.128 265.609 124.022 265.448 123.809 265.328C123.599 265.208 123.314 265.152 122.955 265.157C122.597 265.152 122.312 265.208 122.102 265.328C121.892 265.448 121.789 265.609 121.792 265.814ZM134.715 268.824H134.033V263.136H134.715V268.824ZM128.477 265.586C128.477 265.219 128.564 264.891 128.739 264.602C128.917 264.313 129.161 264.087 129.47 263.924C129.782 263.76 130.13 263.679 130.515 263.679C130.9 263.679 131.248 263.76 131.557 263.924C131.866 264.087 132.109 264.313 132.287 264.602C132.465 264.891 132.554 265.219 132.554 265.586C132.554 265.957 132.465 266.288 132.287 266.579C132.109 266.871 131.866 267.098 131.557 267.262C131.248 267.422 130.9 267.502 130.515 267.502C130.13 267.502 129.782 267.422 129.47 267.262C129.161 267.098 128.917 266.871 128.739 266.579C128.564 266.288 128.477 265.957 128.477 265.586ZM129.15 265.586C129.148 265.84 129.204 266.067 129.321 266.269C129.441 266.467 129.604 266.622 129.811 266.732C130.021 266.843 130.256 266.899 130.515 266.899C130.772 266.899 131.004 266.843 131.211 266.732C131.418 266.622 131.582 266.467 131.701 266.269C131.821 266.067 131.88 265.84 131.88 265.586C131.88 265.335 131.821 265.112 131.701 264.917C131.582 264.718 131.418 264.564 131.211 264.453C131.004 264.339 130.772 264.282 130.515 264.282C130.256 264.282 130.021 264.338 129.811 264.449C129.604 264.559 129.441 264.714 129.321 264.912C129.204 265.111 129.148 265.335 129.15 265.586ZM129.693 268.246H130.375V270.162H134.96V270.74H129.693V268.246ZM142.45 270.924H141.759V263.127H142.45V270.924ZM136.325 266.444C136.325 265.901 136.41 265.426 136.579 265.017C136.748 264.606 136.983 264.29 137.284 264.068C137.584 263.843 137.927 263.731 138.312 263.731C138.697 263.731 139.039 263.843 139.34 264.068C139.64 264.29 139.875 264.606 140.044 265.017C140.213 265.426 140.298 265.901 140.298 266.444C140.298 266.986 140.213 267.463 140.044 267.874C139.875 268.283 139.64 268.598 139.34 268.819C139.039 269.038 138.697 269.147 138.312 269.147C137.927 269.147 137.584 269.038 137.284 268.819C136.983 268.598 136.748 268.283 136.579 267.874C136.41 267.463 136.325 266.986 136.325 266.444ZM136.99 266.444C136.99 266.861 137.046 267.228 137.157 267.546C137.268 267.861 137.424 268.105 137.625 268.277C137.826 268.449 138.055 268.535 138.312 268.535C138.571 268.535 138.8 268.449 138.999 268.277C139.2 268.105 139.356 267.861 139.467 267.546C139.578 267.228 139.633 266.861 139.633 266.444C139.633 266.027 139.578 265.661 139.467 265.346C139.356 265.028 139.2 264.781 138.999 264.606C138.8 264.431 138.571 264.344 138.312 264.344C138.055 264.344 137.826 264.431 137.625 264.606C137.424 264.781 137.268 265.028 137.157 265.346C137.046 265.663 136.99 266.029 136.99 266.444ZM148.4 263.495C148.777 263.495 149.111 263.559 149.402 263.687C149.694 263.816 149.922 263.997 150.085 264.23C150.251 264.46 150.334 264.729 150.334 265.035C150.334 265.3 150.269 265.539 150.137 265.752C150.006 265.965 149.822 266.14 149.586 266.277C149.35 266.412 149.077 266.498 148.768 266.536V267.297C149.564 267.253 150.279 267.184 150.912 267.091L150.964 267.607C150.267 267.73 149.532 267.813 148.759 267.857C147.986 267.901 147.183 267.922 146.349 267.922H146.108L146.02 267.354H146.423C147.059 267.354 147.61 267.345 148.077 267.327V266.54C147.759 266.505 147.477 266.42 147.232 266.286C146.99 266.152 146.804 265.977 146.672 265.761C146.541 265.545 146.475 265.303 146.475 265.035C146.475 264.729 146.556 264.46 146.716 264.23C146.879 263.997 147.107 263.816 147.399 263.687C147.69 263.559 148.024 263.495 148.4 263.495ZM147.123 265.035C147.12 265.23 147.173 265.404 147.28 265.556C147.388 265.704 147.539 265.821 147.731 265.906C147.927 265.99 148.15 266.032 148.4 266.032C148.651 266.032 148.873 265.99 149.065 265.906C149.261 265.821 149.413 265.704 149.52 265.556C149.631 265.404 149.687 265.23 149.687 265.035C149.687 264.837 149.631 264.662 149.52 264.51C149.413 264.355 149.261 264.237 149.065 264.156C148.873 264.071 148.651 264.029 148.4 264.029C148.15 264.029 147.927 264.071 147.731 264.156C147.539 264.24 147.388 264.358 147.28 264.51C147.173 264.662 147.12 264.837 147.123 265.035ZM147.158 268.57H147.849V270.154H152.382V270.731H147.158V268.57ZM151.41 263.136H152.102V265.77H153.265V266.356H152.102V269.086H151.41V263.136ZM160.895 269.944H153.773V269.366H155.777V267.887H154.665V265.49H159.32V264.274H154.648V263.705H159.994V266.059H155.348V267.319H160.178V267.887H158.962V269.366H160.895V269.944ZM158.288 269.366V267.887H156.45V269.366H158.288ZM166.154 267.056H164.448V268.587C165.273 268.555 166.023 268.5 166.697 268.421L166.749 268.937C166.005 269.045 165.227 269.12 164.413 269.161C163.599 269.198 162.756 269.217 161.884 269.217H161.657L161.56 268.64C162.412 268.64 163.147 268.631 163.765 268.614V267.056H162.155V263.871H166.119V264.431H162.829V266.487H166.154V267.056ZM167.213 263.127H167.895V270.924H167.213V263.127ZM171.352 263.731C171.702 263.731 172.017 263.829 172.297 264.024C172.577 264.217 172.801 264.492 172.97 264.851C173.143 265.207 173.246 265.624 173.281 266.102H175.027V263.127H175.709V270.924H175.027V266.671H173.29C173.267 267.173 173.169 267.612 172.997 267.988C172.828 268.361 172.6 268.649 172.314 268.85C172.031 269.048 171.71 269.147 171.352 269.147C170.97 269.147 170.63 269.038 170.332 268.819C170.038 268.598 169.809 268.283 169.645 267.874C169.482 267.466 169.4 266.989 169.4 266.444C169.4 265.901 169.482 265.426 169.645 265.017C169.809 264.606 170.038 264.29 170.332 264.068C170.63 263.843 170.97 263.731 171.352 263.731ZM170.057 266.444C170.057 266.861 170.111 267.228 170.219 267.546C170.329 267.861 170.483 268.105 170.678 268.277C170.873 268.449 171.098 268.535 171.352 268.535C171.603 268.535 171.826 268.449 172.021 268.277C172.219 268.105 172.373 267.86 172.48 267.542C172.591 267.224 172.647 266.858 172.647 266.444C172.647 266.029 172.591 265.663 172.48 265.346C172.373 265.028 172.219 264.781 172.021 264.606C171.826 264.431 171.603 264.344 171.352 264.344C171.098 264.344 170.873 264.431 170.678 264.606C170.483 264.781 170.329 265.028 170.219 265.346C170.111 265.661 170.057 266.027 170.057 266.444ZM183.129 266.995H186.34V267.555H179.253V266.995H182.455V265.849H183.129V266.995ZM179.682 265.709C180.145 265.644 180.59 265.512 181.016 265.311C181.442 265.109 181.786 264.86 182.049 264.562C182.314 264.265 182.447 263.95 182.447 263.617V263.25H183.138V263.617C183.138 263.95 183.271 264.265 183.536 264.562C183.802 264.86 184.147 265.109 184.573 265.311C185.002 265.512 185.448 265.644 185.912 265.709L185.632 266.26C185.232 266.19 184.846 266.076 184.472 265.919C184.099 265.758 183.765 265.56 183.47 265.324C183.179 265.084 182.954 264.821 182.797 264.532C182.639 264.823 182.413 265.089 182.119 265.328C181.824 265.564 181.489 265.761 181.112 265.919C180.739 266.076 180.35 266.19 179.944 266.26L179.682 265.709ZM180.11 269.55C180.11 269.264 180.215 269.021 180.425 268.819C180.638 268.618 180.946 268.465 181.349 268.36C181.751 268.255 182.234 268.202 182.797 268.202C183.354 268.202 183.832 268.255 184.232 268.36C184.631 268.465 184.938 268.618 185.15 268.819C185.363 269.021 185.471 269.264 185.474 269.55C185.471 269.836 185.363 270.078 185.15 270.276C184.938 270.477 184.631 270.629 184.232 270.731C183.832 270.836 183.354 270.889 182.797 270.889C182.234 270.889 181.751 270.836 181.349 270.731C180.946 270.629 180.638 270.477 180.425 270.276C180.215 270.078 180.11 269.836 180.11 269.55ZM180.81 269.55C180.808 269.719 180.883 269.863 181.038 269.983C181.193 270.103 181.417 270.194 181.712 270.259C182.006 270.323 182.359 270.355 182.77 270.355C183.403 270.355 183.896 270.285 184.249 270.145C184.602 270.005 184.78 269.807 184.783 269.55C184.78 269.293 184.605 269.095 184.258 268.955C183.911 268.815 183.424 268.745 182.797 268.745C182.164 268.745 181.674 268.815 181.327 268.955C180.98 269.095 180.808 269.293 180.81 269.55ZM189.63 264.606C189.63 264.942 189.709 265.262 189.867 265.569C190.027 265.875 190.252 266.145 190.54 266.378C190.829 266.608 191.162 266.785 191.538 266.907L191.214 267.45C190.768 267.301 190.38 267.079 190.05 266.785C189.721 266.49 189.472 266.146 189.302 265.752C189.136 266.199 188.881 266.589 188.537 266.925C188.193 267.257 187.787 267.508 187.32 267.677L186.97 267.126C187.355 266.995 187.698 266.802 187.999 266.549C188.299 266.295 188.532 266 188.699 265.665C188.868 265.329 188.954 264.977 188.957 264.606V264.274H187.18V263.705H191.38V264.274H189.63V264.606ZM188.003 269.454C188.003 269.156 188.107 268.902 188.314 268.692C188.521 268.479 188.818 268.318 189.206 268.207C189.594 268.093 190.053 268.036 190.584 268.036C191.115 268.036 191.573 268.093 191.958 268.207C192.343 268.318 192.638 268.479 192.842 268.692C193.046 268.902 193.148 269.156 193.148 269.454C193.148 269.754 193.046 270.012 192.842 270.228C192.638 270.444 192.343 270.607 191.958 270.718C191.573 270.832 191.115 270.889 190.584 270.889C190.053 270.889 189.594 270.832 189.206 270.718C188.818 270.607 188.521 270.444 188.314 270.228C188.107 270.012 188.003 269.754 188.003 269.454ZM188.694 269.454C188.691 269.637 188.764 269.796 188.913 269.931C189.065 270.062 189.28 270.162 189.56 270.232C189.843 270.302 190.177 270.337 190.562 270.337C190.959 270.337 191.3 270.302 191.586 270.232C191.875 270.165 192.097 270.066 192.251 269.935C192.406 269.801 192.483 269.64 192.483 269.454C192.483 269.273 192.406 269.118 192.251 268.99C192.099 268.859 191.881 268.759 191.595 268.692C191.312 268.622 190.975 268.587 190.584 268.587C190.196 268.587 189.859 268.622 189.574 268.692C189.288 268.759 189.069 268.859 188.917 268.99C188.766 269.121 188.691 269.276 188.694 269.454ZM192.395 263.127H193.078V265.114H194.25V265.691H193.078V267.826H192.395V263.127ZM197.995 264.58H200.262V263.46H200.944V266.846H197.322V263.46H197.995V264.58ZM200.262 266.286V265.114H197.995V266.286H200.262ZM198.109 267.52H203.07V269.401H198.8V270.259H203.359V270.819H198.127V268.876H202.388V268.071H198.109V267.52ZM202.388 263.127H203.07V264.816H204.243V265.394H203.07V267.152H202.388V263.127ZM211.339 268.054H210.683V265.822H209.642V267.774H208.994V263.285H209.642V265.254H210.683V263.127H211.339V268.054ZM204.689 264.064H206.352V263.189H207.034V264.064H208.679V264.615H204.689V264.064ZM205.03 266.365C205.03 266.097 205.1 265.862 205.24 265.661C205.38 265.459 205.576 265.305 205.827 265.197C206.08 265.089 206.369 265.035 206.693 265.035C207.02 265.035 207.308 265.089 207.559 265.197C207.813 265.305 208.01 265.459 208.15 265.661C208.293 265.862 208.364 266.097 208.364 266.365C208.364 266.627 208.293 266.859 208.15 267.061C208.01 267.259 207.813 267.413 207.559 267.524C207.308 267.632 207.02 267.686 206.693 267.686C206.369 267.686 206.08 267.632 205.827 267.524C205.576 267.413 205.38 267.259 205.24 267.061C205.1 266.859 205.03 266.627 205.03 266.365ZM205.643 266.365C205.643 266.522 205.687 266.662 205.774 266.785C205.865 266.907 205.989 267.002 206.146 267.069C206.307 267.136 206.489 267.17 206.693 267.17C206.897 267.17 207.078 267.136 207.235 267.069C207.396 267.002 207.52 266.907 207.607 266.785C207.698 266.662 207.743 266.522 207.743 266.365C207.743 266.202 207.698 266.059 207.607 265.936C207.52 265.811 207.396 265.714 207.235 265.647C207.078 265.577 206.897 265.542 206.693 265.542C206.489 265.542 206.307 265.577 206.146 265.647C205.989 265.714 205.865 265.811 205.774 265.936C205.687 266.059 205.643 266.202 205.643 266.365ZM206.159 269.55C206.156 269.261 206.257 269.015 206.461 268.811C206.668 268.606 206.967 268.452 207.358 268.347C207.752 268.239 208.221 268.185 208.767 268.185C209.312 268.185 209.78 268.239 210.171 268.347C210.562 268.452 210.861 268.606 211.068 268.811C211.278 269.015 211.383 269.261 211.383 269.55C211.383 269.833 211.278 270.073 211.068 270.272C210.861 270.473 210.56 270.626 210.167 270.731C209.776 270.836 209.309 270.889 208.767 270.889C208.221 270.889 207.752 270.836 207.358 270.731C206.967 270.626 206.668 270.473 206.461 270.272C206.257 270.073 206.156 269.833 206.159 269.55ZM206.842 269.55C206.839 269.716 206.912 269.861 207.06 269.983C207.212 270.103 207.431 270.194 207.717 270.259C208.005 270.323 208.347 270.355 208.74 270.355C209.146 270.355 209.494 270.323 209.786 270.259C210.081 270.194 210.305 270.103 210.46 269.983C210.617 269.863 210.698 269.719 210.7 269.55C210.698 269.284 210.525 269.08 210.184 268.937C209.846 268.792 209.373 268.722 208.767 268.727C208.157 268.722 207.683 268.792 207.345 268.937C207.007 269.08 206.839 269.284 206.842 269.55ZM216.02 263.267C216.595 263.267 217.088 263.32 217.499 263.425C217.91 263.527 218.224 263.679 218.44 263.88C218.659 264.078 218.768 264.32 218.768 264.606C218.768 264.898 218.659 265.146 218.44 265.35C218.224 265.554 217.91 265.709 217.499 265.814C217.091 265.916 216.598 265.968 216.02 265.971C215.44 265.968 214.944 265.916 214.533 265.814C214.122 265.709 213.807 265.554 213.588 265.35C213.372 265.146 213.264 264.898 213.264 264.606C213.264 264.32 213.372 264.078 213.588 263.88C213.807 263.679 214.122 263.527 214.533 263.425C214.947 263.32 215.443 263.267 216.02 263.267ZM212.477 266.496H219.564V267.056H212.477V266.496ZM213.334 267.73H218.654V269.471H214.034V270.276H218.89V270.819H213.352V268.964H217.98V268.255H213.334V267.73ZM213.982 264.606C213.979 264.874 214.155 265.082 214.511 265.227C214.867 265.373 215.37 265.446 216.02 265.446C216.668 265.446 217.17 265.375 217.525 265.232C217.884 265.086 218.065 264.877 218.068 264.606C218.068 264.437 217.986 264.291 217.823 264.169C217.663 264.046 217.428 263.951 217.119 263.884C216.812 263.817 216.446 263.784 216.02 263.784C215.592 263.784 215.224 263.817 214.918 263.884C214.612 263.951 214.378 264.046 214.218 264.169C214.058 264.291 213.979 264.437 213.982 264.606ZM225.033 263.512C225.418 263.509 225.762 263.575 226.065 263.709C226.369 263.841 226.605 264.027 226.774 264.269C226.943 264.508 227.028 264.784 227.028 265.096C227.028 265.408 226.943 265.685 226.774 265.927C226.605 266.169 226.369 266.358 226.065 266.492C225.762 266.623 225.418 266.689 225.033 266.689C224.648 266.689 224.304 266.623 224 266.492C223.7 266.358 223.464 266.169 223.292 265.927C223.123 265.685 223.038 265.408 223.038 265.096C223.038 264.784 223.123 264.508 223.292 264.269C223.464 264.027 223.7 263.841 224 263.709C224.304 263.575 224.648 263.509 225.033 263.512ZM222.697 267.354C223.586 267.354 224.448 267.335 225.282 267.297C226.119 267.256 226.905 267.182 227.64 267.074L227.684 267.59C226.999 267.715 226.243 267.804 225.418 267.857V270.67H224.735V267.896C224.219 267.919 223.49 267.934 222.548 267.94L222.452 267.354H222.697ZM223.712 265.096C223.709 265.294 223.763 265.472 223.874 265.63C223.987 265.784 224.145 265.906 224.346 265.993C224.547 266.078 224.776 266.12 225.033 266.12C225.293 266.12 225.523 266.078 225.724 265.993C225.928 265.906 226.087 265.784 226.201 265.63C226.315 265.475 226.372 265.297 226.372 265.096C226.372 264.898 226.315 264.721 226.201 264.567C226.087 264.409 225.928 264.287 225.724 264.199C225.52 264.112 225.29 264.069 225.033 264.072C224.779 264.069 224.55 264.112 224.346 264.199C224.145 264.287 223.987 264.409 223.874 264.567C223.763 264.721 223.709 264.898 223.712 265.096ZM228.209 263.136H228.883V270.915H228.209V263.136ZM234.098 265.035H230.195V264.475H231.814V263.364H232.497V264.475H234.098V265.035ZM230.475 267.327C230.475 266.989 230.547 266.686 230.69 266.417C230.836 266.149 231.035 265.939 231.289 265.787C231.543 265.636 231.829 265.56 232.147 265.56C232.47 265.56 232.759 265.636 233.013 265.787C233.27 265.939 233.469 266.149 233.612 266.417C233.758 266.683 233.833 266.986 233.835 267.327C233.833 267.672 233.758 267.979 233.612 268.251C233.469 268.519 233.27 268.73 233.013 268.885C232.759 269.037 232.47 269.112 232.147 269.112C231.829 269.112 231.542 269.037 231.285 268.885C231.031 268.73 230.833 268.519 230.69 268.251C230.547 267.979 230.475 267.672 230.475 267.327ZM231.088 267.327C231.088 267.555 231.133 267.759 231.224 267.94C231.314 268.118 231.439 268.258 231.6 268.36C231.76 268.459 231.943 268.509 232.147 268.509C232.351 268.509 232.535 268.459 232.698 268.36C232.861 268.258 232.99 268.118 233.083 267.94C233.176 267.759 233.223 267.555 233.223 267.327C233.223 267.103 233.176 266.902 233.083 266.724C232.99 266.543 232.861 266.401 232.698 266.299C232.535 266.194 232.351 266.14 232.147 266.137C231.943 266.14 231.76 266.194 231.6 266.299C231.439 266.401 231.314 266.543 231.224 266.724C231.133 266.902 231.088 267.103 231.088 267.327ZM234.5 263.32H235.148V266.409H236.18V263.127H236.837V270.906H236.18V266.977H235.148V270.521H234.5V263.32ZM87.1592 276.731C87.5384 276.731 87.8767 276.843 88.1742 277.068C88.4717 277.29 88.7036 277.606 88.8698 278.017C89.039 278.426 89.1251 278.901 89.128 279.444C89.1251 279.986 89.039 280.463 88.8698 280.874C88.7036 281.283 88.4717 281.598 88.1742 281.819C87.8767 282.038 87.5384 282.147 87.1592 282.147C86.7771 282.147 86.4373 282.038 86.1398 281.819C85.8423 281.598 85.6105 281.283 85.4442 280.874C85.2809 280.466 85.1992 279.989 85.1992 279.444C85.1992 278.901 85.2809 278.426 85.4442 278.017C85.6105 277.606 85.8423 277.29 86.1398 277.068C86.4373 276.843 86.7771 276.731 87.1592 276.731ZM85.8467 279.444C85.8467 279.861 85.9021 280.228 86.013 280.546C86.1267 280.861 86.2828 281.105 86.4811 281.277C86.6794 281.449 86.9055 281.535 87.1592 281.535C87.4159 281.535 87.6419 281.449 87.8373 281.277C88.0357 281.105 88.1888 280.861 88.2967 280.546C88.4076 280.228 88.463 279.861 88.463 279.444C88.463 279.027 88.4076 278.661 88.2967 278.346C88.1888 278.028 88.0357 277.781 87.8373 277.606C87.6419 277.431 87.4159 277.344 87.1592 277.344C86.9055 277.344 86.6794 277.431 86.4811 277.606C86.2828 277.781 86.1267 278.028 86.013 278.346C85.9021 278.661 85.8467 279.027 85.8467 279.444ZM90.4142 276.127H91.0967V279.234H92.4005V279.829H91.0967V283.906H90.4142V276.127ZM95.9967 279.697H93.748V281.465C94.2555 281.462 94.7236 281.446 95.1523 281.417C95.5811 281.388 96.0288 281.334 96.4955 281.255L96.5567 281.815C96.0434 281.905 95.5578 281.967 95.0998 281.999C94.6448 282.028 94.1417 282.042 93.5905 282.042H93.083V279.129H95.3317V277.554H93.0655V276.976H95.9967V279.697ZM97.038 276.302H97.668V279.207H98.8142V276.127H99.4705V283.906H98.8142V279.776H97.668V283.504H97.038V276.302ZM109.235 280.922H108.553V276.136H109.235V280.922ZM103.207 276.626H106.759V278.761H103.889V279.864C104.648 279.864 105.304 279.848 105.858 279.816C106.412 279.781 106.987 279.715 107.582 279.619L107.66 280.187C107.051 280.287 106.463 280.354 105.897 280.389C105.334 280.421 104.653 280.438 103.854 280.441H103.224V278.219H106.077V277.204H103.207V276.626ZM104.029 282.489C104.029 282.194 104.133 281.942 104.34 281.732C104.55 281.519 104.852 281.357 105.245 281.246C105.642 281.135 106.112 281.08 106.654 281.08C107.197 281.08 107.665 281.135 108.059 281.246C108.455 281.357 108.759 281.519 108.969 281.732C109.182 281.942 109.288 282.194 109.288 282.489C109.288 282.783 109.182 283.036 108.969 283.246C108.759 283.456 108.455 283.614 108.059 283.722C107.665 283.833 107.197 283.889 106.654 283.889C106.112 283.889 105.642 283.833 105.245 283.722C104.852 283.614 104.55 283.456 104.34 283.246C104.133 283.036 104.029 282.783 104.029 282.489ZM104.703 282.489C104.703 282.664 104.78 282.815 104.935 282.944C105.089 283.069 105.311 283.165 105.6 283.232C105.889 283.302 106.231 283.337 106.628 283.337C107.033 283.337 107.383 283.304 107.678 283.237C107.975 283.17 108.203 283.073 108.36 282.948C108.518 282.82 108.597 282.667 108.597 282.489C108.597 282.311 108.519 282.158 108.365 282.029C108.21 281.901 107.986 281.803 107.691 281.736C107.399 281.666 107.054 281.631 106.654 281.631C106.252 281.631 105.905 281.666 105.613 281.736C105.321 281.803 105.097 281.901 104.939 282.029C104.782 282.158 104.703 282.311 104.703 282.489ZM116.76 277.886V278.241C116.76 278.85 116.74 279.413 116.699 279.929C116.658 280.446 116.571 281.024 116.437 281.666L115.745 281.605C115.897 280.957 115.998 280.291 116.047 279.606L111.3 279.864L111.204 279.295L116.078 279.094C116.09 278.729 116.095 278.327 116.095 277.886V277.501H111.414V276.924H116.76V277.886ZM110.557 282.235H117.644V282.812H110.557V282.235ZM124.968 283.906H124.303V276.127H124.968V283.906ZM118.397 279.487C118.397 278.942 118.465 278.467 118.602 278.061C118.742 277.653 118.938 277.338 119.189 277.116C119.439 276.894 119.733 276.784 120.068 276.784C120.38 276.784 120.657 276.881 120.899 277.077C121.141 277.269 121.334 277.545 121.477 277.904C121.623 278.259 121.71 278.679 121.739 279.164H122.745V276.294H123.402V283.512H122.745V279.732H121.744C121.723 280.231 121.64 280.667 121.494 281.041C121.351 281.411 121.157 281.695 120.912 281.894C120.667 282.092 120.386 282.191 120.068 282.191C119.733 282.191 119.439 282.082 119.189 281.863C118.938 281.641 118.742 281.326 118.602 280.918C118.465 280.51 118.397 280.033 118.397 279.487ZM119.044 279.487C119.041 279.904 119.081 280.268 119.162 280.577C119.247 280.886 119.367 281.124 119.521 281.29C119.679 281.456 119.861 281.538 120.068 281.535C120.275 281.538 120.456 281.458 120.61 281.294C120.768 281.128 120.889 280.892 120.974 280.586C121.058 280.279 121.1 279.921 121.1 279.509C121.1 279.086 121.058 278.719 120.974 278.407C120.892 278.095 120.772 277.854 120.615 277.685C120.46 277.516 120.278 277.431 120.068 277.431C119.858 277.431 119.676 277.516 119.521 277.685C119.367 277.851 119.247 278.089 119.162 278.398C119.081 278.707 119.041 279.07 119.044 279.487ZM128.783 278.219C128.783 278.679 128.872 279.134 129.05 279.584C129.231 280.033 129.476 280.432 129.785 280.782C130.097 281.129 130.44 281.389 130.813 281.561L130.402 282.121C129.958 281.894 129.563 281.561 129.216 281.124C128.872 280.683 128.614 280.186 128.442 279.632C128.267 280.218 128.006 280.744 127.659 281.211C127.314 281.678 126.922 282.028 126.482 282.261L126.035 281.71C126.412 281.526 126.756 281.251 127.068 280.883C127.38 280.513 127.627 280.094 127.807 279.627C127.991 279.158 128.083 278.688 128.083 278.219V276.801H128.783V278.219ZM129.964 278.787H131.81V276.127H132.493V283.924H131.81V279.347H129.964V278.787ZM136.982 278.77H138.67V276.871H139.309V281.964H136.325V276.871H136.982V278.77ZM138.67 281.395V279.33H136.982V281.395H138.67ZM140.298 276.294H140.954V279.216H142.039V276.127H142.704V283.906H142.039V279.785H140.954V283.512H140.298V276.294ZM147.657 279.995H150.868V280.555H143.78V279.995H146.983V278.849H147.657V279.995ZM144.209 278.709C144.673 278.644 145.118 278.512 145.544 278.311C145.969 278.109 146.314 277.86 146.576 277.562C146.842 277.265 146.974 276.95 146.974 276.617V276.25H147.665V276.617C147.665 276.95 147.798 277.265 148.064 277.562C148.329 277.86 148.675 278.109 149.1 278.311C149.529 278.512 149.975 278.644 150.439 278.709L150.159 279.26C149.76 279.19 149.373 279.076 149 278.919C148.627 278.758 148.293 278.56 147.998 278.324C147.706 278.084 147.482 277.821 147.324 277.532C147.167 277.823 146.941 278.089 146.646 278.328C146.352 278.564 146.016 278.761 145.64 278.919C145.267 279.076 144.877 279.19 144.472 279.26L144.209 278.709ZM144.638 282.55C144.638 282.264 144.743 282.021 144.953 281.819C145.166 281.618 145.474 281.465 145.876 281.36C146.279 281.255 146.761 281.202 147.324 281.202C147.881 281.202 148.36 281.255 148.759 281.36C149.159 281.465 149.465 281.618 149.678 281.819C149.891 282.021 149.999 282.264 150.002 282.55C149.999 282.836 149.891 283.078 149.678 283.276C149.465 283.477 149.159 283.629 148.759 283.731C148.36 283.836 147.881 283.889 147.324 283.889C146.761 283.889 146.279 283.836 145.876 283.731C145.474 283.629 145.166 283.477 144.953 283.276C144.743 283.078 144.638 282.836 144.638 282.55ZM145.338 282.55C145.335 282.719 145.411 282.863 145.565 282.983C145.72 283.103 145.945 283.194 146.239 283.259C146.534 283.323 146.887 283.355 147.298 283.355C147.931 283.355 148.424 283.285 148.777 283.145C149.13 283.005 149.308 282.807 149.31 282.55C149.308 282.293 149.133 282.095 148.785 281.955C148.438 281.815 147.951 281.745 147.324 281.745C146.691 281.745 146.201 281.815 145.854 281.955C145.507 282.095 145.335 282.293 145.338 282.55ZM157.938 283.924H157.247V276.127H157.938V283.924ZM151.979 276.792H152.662V278.849H154.98V276.792H155.654V282.042H151.979V276.792ZM154.98 281.465V279.4H152.662V281.465H154.98ZM163.984 283.285C163.567 283.285 163.194 283.215 162.864 283.075C162.535 282.935 162.274 282.738 162.081 282.484C161.892 282.228 161.791 281.934 161.779 281.605H162.575C162.59 281.803 162.66 281.977 162.785 282.126C162.911 282.271 163.077 282.385 163.284 282.467C163.491 282.546 163.722 282.585 163.975 282.585C164.253 282.585 164.5 282.538 164.719 282.445C164.938 282.352 165.109 282.22 165.231 282.051C165.357 281.882 165.419 281.689 165.419 281.474C165.416 281.243 165.355 281.039 165.235 280.861C165.116 280.683 164.939 280.545 164.706 280.446C164.476 280.343 164.2 280.292 163.879 280.292H163.363V279.601H163.879C164.133 279.601 164.359 279.556 164.557 279.466C164.756 279.375 164.909 279.248 165.017 279.085C165.128 278.919 165.183 278.729 165.183 278.516C165.183 278.306 165.135 278.122 165.039 277.965C164.942 277.804 164.805 277.681 164.627 277.593C164.449 277.503 164.241 277.457 164.002 277.457C163.774 277.46 163.56 277.503 163.359 277.584C163.16 277.663 162.998 277.778 162.873 277.93C162.75 278.079 162.683 278.254 162.672 278.455H161.91C161.922 278.128 162.023 277.838 162.212 277.584C162.405 277.328 162.659 277.129 162.974 276.989C163.292 276.846 163.637 276.775 164.01 276.775C164.401 276.775 164.743 276.852 165.034 277.007C165.329 277.161 165.555 277.368 165.712 277.628C165.87 277.888 165.947 278.169 165.944 278.472C165.947 278.828 165.852 279.133 165.66 279.387C165.467 279.638 165.203 279.811 164.868 279.907V279.951C165.139 279.992 165.374 280.082 165.572 280.222C165.774 280.359 165.927 280.536 166.032 280.752C166.137 280.965 166.189 281.205 166.189 281.474C166.189 281.815 166.093 282.124 165.9 282.401C165.711 282.675 165.448 282.891 165.113 283.049C164.778 283.206 164.401 283.285 163.984 283.285ZM167.44 284.991H166.793L167.274 282.611H168.123L167.44 284.991ZM171.282 283.285C170.815 283.285 170.415 283.158 170.083 282.904C169.753 282.651 169.501 282.28 169.326 281.793C169.154 281.306 169.068 280.718 169.068 280.03C169.068 279.35 169.154 278.767 169.326 278.28C169.501 277.79 169.755 277.417 170.087 277.16C170.42 276.903 170.818 276.775 171.282 276.775C171.743 276.775 172.139 276.903 172.472 277.16C172.804 277.417 173.058 277.79 173.233 278.28C173.408 278.767 173.495 279.35 173.495 280.03C173.495 280.718 173.408 281.306 173.233 281.793C173.061 282.28 172.809 282.651 172.476 282.904C172.147 283.158 171.748 283.285 171.282 283.285ZM169.829 280.03C169.829 280.572 169.886 281.035 170 281.417C170.117 281.799 170.283 282.089 170.499 282.287C170.714 282.486 170.975 282.585 171.282 282.585C171.585 282.585 171.845 282.486 172.06 282.287C172.279 282.089 172.444 281.799 172.555 281.417C172.669 281.035 172.725 280.572 172.725 280.03C172.725 279.487 172.669 279.024 172.555 278.639C172.441 278.254 172.276 277.961 172.06 277.759C171.845 277.558 171.585 277.457 171.282 277.457C170.978 277.457 170.719 277.558 170.503 277.759C170.287 277.961 170.121 278.254 170.004 278.639C169.888 279.024 169.829 279.487 169.829 280.03ZM176.619 283.285C176.153 283.285 175.753 283.158 175.42 282.904C175.091 282.651 174.839 282.28 174.664 281.793C174.492 281.306 174.405 280.718 174.405 280.03C174.405 279.35 174.492 278.767 174.664 278.28C174.839 277.79 175.092 277.417 175.425 277.16C175.757 276.903 176.155 276.775 176.619 276.775C177.08 276.775 177.477 276.903 177.809 277.16C178.142 277.417 178.395 277.79 178.57 278.28C178.745 278.767 178.833 279.35 178.833 280.03C178.833 280.718 178.745 281.306 178.57 281.793C178.398 282.28 178.146 282.651 177.814 282.904C177.484 283.158 177.086 283.285 176.619 283.285ZM175.167 280.03C175.167 280.572 175.224 281.035 175.337 281.417C175.454 281.799 175.62 282.089 175.836 282.287C176.052 282.486 176.313 282.585 176.619 282.585C176.923 282.585 177.182 282.486 177.398 282.287C177.617 282.089 177.782 281.799 177.892 281.417C178.006 281.035 178.063 280.572 178.063 280.03C178.063 279.487 178.006 279.024 177.892 278.639C177.779 278.254 177.614 277.961 177.398 277.759C177.182 277.558 176.923 277.457 176.619 277.457C176.316 277.457 176.056 277.558 175.84 277.759C175.625 277.961 175.458 278.254 175.342 278.639C175.225 279.024 175.167 279.487 175.167 280.03ZM181.957 283.285C181.49 283.285 181.09 283.158 180.758 282.904C180.428 282.651 180.176 282.28 180.001 281.793C179.829 281.306 179.743 280.718 179.743 280.03C179.743 279.35 179.829 278.767 180.001 278.28C180.176 277.79 180.43 277.417 180.762 277.16C181.095 276.903 181.493 276.775 181.957 276.775C182.418 276.775 182.814 276.903 183.147 277.16C183.479 277.417 183.733 277.79 183.908 278.28C184.083 278.767 184.17 279.35 184.17 280.03C184.17 280.718 184.083 281.306 183.908 281.793C183.736 282.28 183.484 282.651 183.151 282.904C182.822 283.158 182.423 283.285 181.957 283.285ZM180.504 280.03C180.504 280.572 180.561 281.035 180.675 281.417C180.792 281.799 180.958 282.089 181.174 282.287C181.389 282.486 181.65 282.585 181.957 282.585C182.26 282.585 182.52 282.486 182.735 282.287C182.954 282.089 183.119 281.799 183.23 281.417C183.344 281.035 183.4 280.572 183.4 280.03C183.4 279.487 183.344 279.024 183.23 278.639C183.116 278.254 182.951 277.961 182.735 277.759C182.52 277.558 182.26 277.457 181.957 277.457C181.653 277.457 181.394 277.558 181.178 277.759C180.962 277.961 180.796 278.254 180.679 278.639C180.563 279.024 180.504 279.487 180.504 280.03ZM191.354 282.042H190.663V281.237H189.053V280.739H190.663V276.136H191.354V282.042ZM184.897 279.741C185.938 279.735 186.86 279.719 187.662 279.693C188.464 279.664 189.231 279.604 189.963 279.514L190.007 280.012C189.374 280.112 188.662 280.186 187.872 280.236V281.771H187.18V280.271C186.655 280.291 185.926 280.301 184.993 280.301L184.897 279.741ZM185.527 277.807C185.527 277.539 185.607 277.303 185.767 277.099C185.928 276.892 186.154 276.733 186.445 276.622C186.737 276.508 187.073 276.451 187.452 276.451C187.828 276.451 188.162 276.508 188.454 276.622C188.745 276.733 188.971 276.892 189.132 277.099C189.295 277.303 189.377 277.539 189.377 277.807C189.377 278.082 189.295 278.321 189.132 278.525C188.971 278.726 188.745 278.882 188.454 278.993C188.165 279.101 187.831 279.155 187.452 279.155C187.07 279.155 186.733 279.101 186.441 278.993C186.149 278.882 185.923 278.726 185.763 278.525C185.605 278.321 185.527 278.082 185.527 277.807ZM186.017 281.465H186.708V283.162H191.547V283.74H186.017V281.465ZM186.183 277.807C186.18 277.974 186.231 278.121 186.336 278.249C186.441 278.375 186.59 278.472 186.782 278.542C186.978 278.612 187.201 278.647 187.452 278.647C187.697 278.647 187.914 278.612 188.104 278.542C188.296 278.472 188.446 278.375 188.554 278.249C188.665 278.121 188.72 277.974 188.72 277.807C188.72 277.644 188.665 277.5 188.554 277.374C188.446 277.246 188.296 277.147 188.104 277.077C187.914 277.007 187.697 276.973 187.452 276.976C187.201 276.973 186.979 277.007 186.787 277.077C186.594 277.147 186.444 277.246 186.336 277.374C186.231 277.5 186.18 277.644 186.183 277.807ZM201.355 280.301H200.673V276.127H201.355V280.301ZM195.117 278.297C195.117 277.947 195.203 277.637 195.375 277.366C195.55 277.094 195.792 276.884 196.101 276.736C196.413 276.584 196.765 276.509 197.155 276.512C197.546 276.509 197.896 276.584 198.205 276.736C198.515 276.884 198.757 277.094 198.932 277.366C199.107 277.637 199.194 277.947 199.194 278.297C199.194 278.644 199.107 278.954 198.932 279.225C198.757 279.496 198.515 279.708 198.205 279.859C197.896 280.008 197.546 280.082 197.155 280.082C196.765 280.082 196.413 280.008 196.101 279.859C195.792 279.708 195.55 279.496 195.375 279.225C195.203 278.954 195.117 278.644 195.117 278.297ZM195.79 278.297C195.788 278.531 195.844 278.739 195.961 278.923C196.078 279.107 196.24 279.251 196.447 279.356C196.654 279.461 196.89 279.514 197.155 279.514C197.418 279.514 197.653 279.461 197.86 279.356C198.067 279.251 198.229 279.107 198.345 278.923C198.462 278.739 198.52 278.531 198.52 278.297C198.52 278.064 198.462 277.856 198.345 277.672C198.229 277.488 198.067 277.345 197.86 277.243C197.653 277.141 197.418 277.09 197.155 277.09C196.89 277.09 196.654 277.141 196.447 277.243C196.24 277.345 196.078 277.488 195.961 277.672C195.844 277.856 195.788 278.064 195.79 278.297ZM196.315 280.695H196.998V281.64H200.673V280.695H201.355V283.801H196.315V280.695ZM200.673 283.241V282.191H196.998V283.241H200.673ZM208.863 277.125C208.863 277.545 208.851 277.924 208.828 278.262C208.805 278.598 208.748 278.98 208.657 279.409H209.799V279.977H202.677V279.409H207.966C208.054 279.021 208.11 278.668 208.137 278.35C208.166 278.029 208.18 277.697 208.18 277.352V277.125V277.116H203.578V276.547H208.863V277.125ZM203.552 281.054H208.898V283.801H203.552V281.054ZM208.215 283.241V281.596H204.234V283.241H208.215ZM214.305 278.035H210.403V277.475H212.022V276.364H212.704V277.475H214.305V278.035ZM210.683 280.327C210.683 279.989 210.754 279.686 210.897 279.417C211.043 279.149 211.243 278.939 211.497 278.787C211.75 278.636 212.036 278.56 212.354 278.56C212.678 278.56 212.967 278.636 213.22 278.787C213.477 278.939 213.677 279.149 213.82 279.417C213.966 279.683 214.04 279.986 214.043 280.327C214.04 280.672 213.966 280.979 213.82 281.251C213.677 281.519 213.477 281.73 213.22 281.885C212.967 282.037 212.678 282.112 212.354 282.112C212.036 282.112 211.749 282.037 211.492 281.885C211.239 281.73 211.04 281.519 210.897 281.251C210.754 280.979 210.683 280.672 210.683 280.327ZM211.295 280.327C211.295 280.555 211.341 280.759 211.431 280.94C211.522 281.118 211.647 281.258 211.807 281.36C211.968 281.459 212.15 281.509 212.354 281.509C212.558 281.509 212.742 281.459 212.905 281.36C213.069 281.258 213.197 281.118 213.29 280.94C213.384 280.759 213.43 280.555 213.43 280.327C213.43 280.103 213.384 279.902 213.29 279.724C213.197 279.543 213.069 279.401 212.905 279.299C212.742 279.194 212.558 279.14 212.354 279.137C212.15 279.14 211.968 279.194 211.807 279.299C211.647 279.401 211.522 279.543 211.431 279.724C211.341 279.902 211.295 280.103 211.295 280.327ZM214.708 276.32H215.355V279.409H216.388V276.127H217.044V283.906H216.388V279.977H215.355V283.521H214.708V276.32ZM224.342 277.23C224.342 277.562 224.472 277.88 224.731 278.184C224.994 278.484 225.336 278.738 225.759 278.945C226.182 279.152 226.623 279.289 227.08 279.356L226.827 279.899C226.415 279.829 226.02 279.712 225.641 279.549C225.262 279.382 224.924 279.177 224.626 278.932C224.332 278.687 224.108 278.413 223.957 278.109C223.805 278.413 223.582 278.687 223.287 278.932C222.993 279.177 222.656 279.382 222.277 279.549C221.9 279.712 221.51 279.829 221.104 279.899L220.833 279.356C221.291 279.289 221.73 279.152 222.15 278.945C222.57 278.738 222.911 278.484 223.174 278.184C223.439 277.88 223.572 277.562 223.572 277.23V277.177H221.078V276.617H226.827V277.177H224.342V277.23ZM220.413 280.564H227.5V281.132H224.28V283.906H223.607V281.132H220.413V280.564ZM230.467 278.341C230.467 278.758 230.532 279.174 230.664 279.588C230.795 279.999 230.983 280.376 231.228 280.717C231.476 281.058 231.768 281.328 232.103 281.526L231.709 282.06C231.342 281.838 231.024 281.532 230.755 281.141C230.49 280.75 230.287 280.311 230.147 279.824C230.002 280.352 229.787 280.826 229.504 281.246C229.221 281.666 228.889 281.993 228.507 282.226L228.069 281.71C228.419 281.506 228.725 281.227 228.988 280.874C229.25 280.518 229.452 280.123 229.592 279.689C229.732 279.254 229.802 278.814 229.802 278.367V276.862H230.467V278.341ZM231.245 278.919H232.567V276.294H233.214V283.512H232.567V279.505H231.245V278.919ZM234.159 276.127H234.824V283.906H234.159V276.127ZM243.023 282.909H235.9V282.331H237.668V280.236C237.33 280.061 237.067 279.834 236.88 279.557C236.694 279.28 236.6 278.968 236.6 278.621C236.6 278.227 236.722 277.879 236.964 277.576C237.206 277.272 237.541 277.037 237.97 276.871C238.402 276.705 238.893 276.62 239.444 276.617C239.995 276.62 240.485 276.705 240.914 276.871C241.346 277.037 241.683 277.272 241.925 277.576C242.167 277.879 242.288 278.227 242.288 278.621C242.288 278.962 242.198 279.27 242.017 279.544C241.836 279.816 241.582 280.039 241.255 280.214V282.331H243.023V282.909ZM237.265 278.621C237.265 278.907 237.357 279.161 237.541 279.382C237.725 279.601 237.982 279.772 238.311 279.894C238.644 280.014 239.021 280.074 239.444 280.074C239.864 280.074 240.239 280.014 240.569 279.894C240.898 279.772 241.156 279.601 241.343 279.382C241.53 279.161 241.623 278.907 241.623 278.621C241.623 278.335 241.53 278.083 241.343 277.864C241.156 277.646 240.898 277.478 240.569 277.361C240.239 277.242 239.864 277.183 239.444 277.186C239.021 277.183 238.644 277.242 238.311 277.361C237.982 277.478 237.725 277.646 237.541 277.864C237.357 278.083 237.265 278.335 237.265 278.621ZM240.564 282.331V280.481C240.217 280.571 239.844 280.616 239.444 280.616C239.042 280.616 238.674 280.572 238.342 280.485V282.331H240.564ZM244.467 283.25C244.365 283.25 244.27 283.224 244.182 283.171C244.098 283.119 244.029 283.05 243.977 282.966C243.927 282.878 243.904 282.783 243.907 282.681C243.904 282.582 243.927 282.49 243.977 282.406C244.029 282.318 244.098 282.249 244.182 282.2C244.27 282.147 244.365 282.121 244.467 282.121C244.566 282.121 244.658 282.146 244.742 282.196C244.83 282.245 244.898 282.312 244.948 282.397C245 282.481 245.027 282.573 245.027 282.672C245.027 282.83 244.973 282.966 244.865 283.079C244.757 283.19 244.624 283.247 244.467 283.25Z" fill="#C7C7CC"/>
</g>
<g opacity="0.74">
<path d="M85.4436 313.609L88.0436 309.595H89.1486V313.576H89.953V314.332H89.1486V315.477H88.3036V314.332H85.4436V313.609ZM88.3036 313.576V310.659H88.2386L86.3861 313.527V313.576H88.3036ZM92.9023 315.559C92.4501 315.559 92.0614 315.441 91.7364 315.205C91.4141 314.967 91.1677 314.622 90.997 314.169C90.8264 313.717 90.7411 313.173 90.7411 312.536C90.7411 311.902 90.8264 311.359 90.997 310.907C91.1704 310.455 91.4182 310.11 91.7405 309.871C92.0655 309.633 92.4528 309.514 92.9023 309.514C93.3492 309.514 93.7338 309.633 94.0561 309.871C94.3811 310.11 94.6303 310.455 94.8036 310.907C94.9769 311.359 95.0636 311.902 95.0636 312.536C95.0636 313.173 94.9769 313.718 94.8036 314.173C94.633 314.626 94.3865 314.97 94.0642 315.205C93.7419 315.441 93.3546 315.559 92.9023 315.559ZM91.6348 312.556C91.6348 313.036 91.6849 313.442 91.7852 313.775C91.8854 314.108 92.0303 314.36 92.2198 314.531C92.4094 314.701 92.6369 314.787 92.9023 314.787C93.1678 314.787 93.3953 314.701 93.5848 314.531C93.7744 314.358 93.9193 314.103 94.0195 313.767C94.1197 313.431 94.1698 313.021 94.1698 312.536C94.1698 312.054 94.1184 311.644 94.0155 311.305C93.9153 310.967 93.7704 310.711 93.5808 310.537C93.3912 310.361 93.1651 310.272 92.9023 310.269C92.6369 310.269 92.4094 310.359 92.2198 310.537C92.0303 310.713 91.8854 310.973 91.7852 311.317C91.6849 311.659 91.6348 312.072 91.6348 312.556Z" fill="#8E8E93"/>
<path d="M97.0392 316.363H96.2673L98.1605 309.319H98.9323L97.0392 316.363ZM101.565 315.559C101.199 315.559 100.867 315.49 100.57 315.351C100.272 315.213 100.035 315.021 99.8586 314.775C99.6826 314.528 99.5878 314.251 99.5742 313.942H100.444C100.46 314.107 100.519 314.256 100.622 314.389C100.725 314.519 100.859 314.622 101.025 314.697C101.19 314.773 101.37 314.811 101.565 314.811C101.8 314.811 102.01 314.758 102.195 314.653C102.381 314.547 102.528 314.402 102.633 314.218C102.739 314.031 102.792 313.823 102.792 313.592C102.792 313.357 102.738 313.146 102.629 312.959C102.521 312.769 102.371 312.621 102.178 312.516C101.986 312.408 101.768 312.352 101.524 312.349C101.026 312.349 100.682 312.523 100.492 312.869H99.6473L100.029 309.595H103.36V310.359H100.769L100.574 312.008H100.63C100.755 311.889 100.915 311.794 101.11 311.724C101.308 311.651 101.516 311.613 101.735 311.61C102.101 311.61 102.43 311.695 102.723 311.866C103.015 312.034 103.244 312.267 103.409 312.565C103.577 312.86 103.661 313.194 103.661 313.568C103.661 313.95 103.572 314.293 103.393 314.596C103.214 314.896 102.965 315.132 102.645 315.303C102.329 315.473 101.968 315.559 101.565 315.559ZM106.659 315.559C106.207 315.559 105.818 315.441 105.493 315.205C105.171 314.967 104.925 314.622 104.754 314.169C104.583 313.717 104.498 313.173 104.498 312.536C104.498 311.902 104.583 311.359 104.754 310.907C104.927 310.455 105.175 310.11 105.497 309.871C105.822 309.633 106.21 309.514 106.659 309.514C107.106 309.514 107.491 309.633 107.813 309.871C108.138 310.11 108.387 310.455 108.56 310.907C108.734 311.359 108.82 311.902 108.82 312.536C108.82 313.173 108.734 313.718 108.56 314.173C108.39 314.626 108.143 314.97 107.821 315.205C107.499 315.441 107.112 315.559 106.659 315.559ZM105.392 312.556C105.392 313.036 105.442 313.442 105.542 313.775C105.642 314.108 105.787 314.36 105.977 314.531C106.166 314.701 106.394 314.787 106.659 314.787C106.925 314.787 107.152 314.701 107.342 314.531C107.531 314.358 107.676 314.103 107.776 313.767C107.877 313.431 107.927 313.021 107.927 312.536C107.927 312.054 107.875 311.644 107.772 311.305C107.672 310.967 107.527 310.711 107.338 310.537C107.148 310.361 106.922 310.272 106.659 310.269C106.394 310.269 106.166 310.359 105.977 310.537C105.787 310.713 105.642 310.973 105.542 311.317C105.442 311.659 105.392 312.072 105.392 312.556ZM111.794 315.559C111.342 315.559 110.953 315.441 110.628 315.205C110.306 314.967 110.06 314.622 109.889 314.169C109.718 313.717 109.633 313.173 109.633 312.536C109.633 311.902 109.718 311.359 109.889 310.907C110.062 310.455 110.31 310.11 110.632 309.871C110.957 309.633 111.345 309.514 111.794 309.514C112.241 309.514 112.626 309.633 112.948 309.871C113.273 310.11 113.522 310.455 113.695 310.907C113.869 311.359 113.955 311.902 113.955 312.536C113.955 313.173 113.869 313.718 113.695 314.173C113.525 314.626 113.278 314.97 112.956 315.205C112.634 315.441 112.247 315.559 111.794 315.559ZM110.527 312.556C110.527 313.036 110.577 313.442 110.677 313.775C110.777 314.108 110.922 314.36 111.112 314.531C111.301 314.701 111.529 314.787 111.794 314.787C112.06 314.787 112.287 314.701 112.477 314.531C112.666 314.358 112.811 314.103 112.911 313.767C113.012 313.431 113.062 313.021 113.062 312.536C113.062 312.054 113.01 311.644 112.907 311.305C112.807 310.967 112.662 310.711 112.473 310.537C112.283 310.361 112.057 310.272 111.794 310.269C111.529 310.269 111.301 310.359 111.112 310.537C110.922 310.713 110.777 310.973 110.677 311.317C110.577 311.659 110.527 312.072 110.527 312.556Z" fill="#8E8E93"/>
</g>
<rect x="74.5215" y="240.477" width="185.6" height="86.4" rx="6.4" stroke="#3D425C" stroke-width="0.64"/>
<rect x="74.5215" y="359.203" width="185.6" height="32" rx="7.68" fill="#516EFF"/>
<path d="M157.912 376.693H154.482V378.163H153.222V376.693H149.582V375.693H157.912V376.693ZM150.562 377.443H151.822V378.943H156.992V379.963H150.562V377.443ZM150.652 371.313H151.912V372.263H155.562V371.313H156.832V375.053H150.652V371.313ZM155.562 374.043V373.213H151.912V374.043H155.562ZM161.852 372.443C161.849 372.833 161.922 373.204 162.072 373.558C162.222 373.911 162.452 374.226 162.762 374.503C163.072 374.776 163.459 374.986 163.922 375.133L163.242 376.143C162.769 375.983 162.362 375.748 162.022 375.438C161.682 375.128 161.412 374.759 161.212 374.333C161.009 374.793 160.727 375.191 160.367 375.528C160.007 375.864 159.576 376.123 159.072 376.303L158.382 375.283C158.872 375.126 159.279 374.899 159.602 374.603C159.929 374.306 160.169 373.966 160.322 373.583C160.479 373.199 160.559 372.793 160.562 372.363V371.493H161.852V372.443ZM159.862 376.853H166.112V380.123H164.842V377.863H159.862V376.853ZM163.132 372.713H164.842V371.023H166.112V376.443H164.842V373.763H163.132V372.713ZM174.472 374.583H175.812V375.633H174.472V380.123H173.212V371.023H174.472V374.583ZM167.242 372.383H169.302V371.163H170.582V372.383H172.592V373.403H167.242V372.383ZM167.612 376.083C167.612 375.666 167.712 375.293 167.912 374.963C168.112 374.633 168.389 374.376 168.742 374.193C169.099 374.006 169.499 373.913 169.942 373.913C170.379 373.913 170.774 374.006 171.127 374.193C171.481 374.376 171.757 374.633 171.957 374.963C172.161 375.293 172.262 375.666 172.262 376.083C172.262 376.499 172.161 376.873 171.957 377.203C171.757 377.529 171.481 377.786 171.127 377.973C170.774 378.159 170.379 378.253 169.942 378.253C169.499 378.253 169.099 378.159 168.742 377.973C168.389 377.786 168.112 377.529 167.912 377.203C167.712 376.873 167.612 376.499 167.612 376.083ZM168.832 376.083C168.832 376.313 168.879 376.513 168.972 376.683C169.069 376.853 169.201 376.983 169.367 377.073C169.534 377.163 169.726 377.206 169.942 377.203C170.156 377.206 170.346 377.163 170.512 377.073C170.679 376.983 170.809 376.853 170.902 376.683C170.996 376.513 171.042 376.313 171.042 376.083C171.042 375.853 170.996 375.653 170.902 375.483C170.809 375.313 170.679 375.181 170.512 375.088C170.346 374.994 170.156 374.946 169.942 374.943C169.726 374.946 169.534 374.994 169.367 375.088C169.201 375.181 169.069 375.313 168.972 375.483C168.879 375.653 168.832 375.853 168.832 376.083ZM183.792 380.123H182.502V371.023H183.792V380.123ZM176.172 377.543C176.949 377.176 177.589 376.768 178.092 376.318C178.599 375.868 178.986 375.369 179.252 374.823C179.522 374.273 179.692 373.656 179.762 372.973H176.662V371.973H181.062C181.059 372.946 180.927 373.831 180.667 374.628C180.407 375.424 179.966 376.156 179.342 376.823C178.722 377.489 177.889 378.069 176.842 378.563L176.172 377.543Z" fill="white"/>
<rect x="95.3203" y="95.36" width="143.36" height="28.16" rx="14.08" fill="#4C4E51" fill-opacity="0.4"/>
<path d="M118.669 106.2V110.96C118.669 111.463 118.549 111.912 118.309 112.305C118.073 112.698 117.736 113.007 117.299 113.23C116.866 113.45 116.366 113.56 115.799 113.56C115.226 113.56 114.721 113.45 114.284 113.23C113.848 113.007 113.511 112.698 113.274 112.305C113.038 111.912 112.919 111.463 112.919 110.96V106.2H114.019V110.87C114.019 111.197 114.091 111.488 114.234 111.745C114.378 111.998 114.584 112.198 114.854 112.345C115.124 112.488 115.439 112.56 115.799 112.56C116.159 112.56 116.473 112.488 116.739 112.345C117.006 112.198 117.211 111.998 117.354 111.745C117.498 111.488 117.569 111.197 117.569 110.87V106.2H118.669ZM120.149 106.2H122.729C123.276 106.2 123.738 106.295 124.114 106.485C124.491 106.675 124.773 106.94 124.959 107.28C125.146 107.62 125.239 108.017 125.239 108.47C125.239 108.963 125.128 109.387 124.904 109.74C124.681 110.09 124.353 110.348 123.919 110.515L125.519 113.44H124.269L122.799 110.71H122.729H121.249V113.44H120.149V106.2ZM122.619 109.76C123.139 109.757 123.521 109.647 123.764 109.43C124.008 109.21 124.129 108.89 124.129 108.47C124.129 108.047 124.006 107.72 123.759 107.49C123.516 107.26 123.136 107.143 122.619 107.14H121.249V109.76H122.619ZM126.459 106.2H127.559V112.49H130.829V113.44H126.459V106.2ZM142.239 110.78H138.679V112.43H137.739V110.78H134.039V110.02H142.239V110.78ZM135.059 111.65H135.999V113.33H141.329V114.1H135.059V111.65ZM135.119 105.61H136.059V106.7H140.209V105.61H141.159V109.23H135.119V105.61ZM140.209 108.47V107.41H136.059V108.47H140.209ZM146.059 106.76C146.059 107.157 146.146 107.538 146.319 107.905C146.493 108.272 146.741 108.597 147.064 108.88C147.391 109.16 147.776 109.373 148.219 109.52L147.699 110.28C147.213 110.103 146.789 109.843 146.429 109.5C146.073 109.157 145.796 108.755 145.599 108.295C145.399 108.798 145.111 109.238 144.734 109.615C144.361 109.988 143.916 110.273 143.399 110.47L142.889 109.7C143.349 109.54 143.746 109.31 144.079 109.01C144.413 108.71 144.666 108.363 144.839 107.97C145.016 107.573 145.106 107.153 145.109 106.71V105.79H146.059V106.76ZM144.299 111.11H150.369V114.29H149.419V111.86H144.299V111.11ZM147.529 107.14H149.419V105.33H150.369V110.64H149.419V107.92H147.529V107.14Z" fill="#4C4E51"/>
<g filter="url(#filter4_d_3125_52297)">
<rect x="167" y="96.64" width="70.4" height="25.6" rx="12.8" fill="#4C4E51" fill-opacity="0.4" shape-rendering="crispEdges"/>
</g>
<path d="M186.69 107.61C186.686 108.133 186.78 108.652 186.97 109.165C187.16 109.678 187.426 110.138 187.77 110.545C188.113 110.948 188.503 111.257 188.94 111.47L188.35 112.23C187.87 111.977 187.445 111.615 187.075 111.145C186.708 110.672 186.425 110.132 186.225 109.525C186.021 110.172 185.728 110.748 185.345 111.255C184.965 111.758 184.523 112.14 184.02 112.4L183.43 111.63C183.88 111.413 184.28 111.093 184.63 110.67C184.98 110.247 185.251 109.767 185.445 109.23C185.641 108.693 185.74 108.153 185.74 107.61V106.08H186.69V107.61ZM189.61 105.33H190.56V108.9H192V109.71H190.56V114.29H189.61V105.33ZM195.8 109.49H193.63V111.375C194.113 111.368 194.571 111.348 195.005 111.315C195.441 111.282 195.9 111.223 196.38 111.14L196.46 111.92C195.913 112.017 195.396 112.082 194.91 112.115C194.426 112.145 193.886 112.16 193.29 112.16H192.71V108.73H194.89V107.05H192.7V106.28H195.8V109.49ZM196.28 109.85H197.4V108.4H196.28V107.63H197.4V105.5H198.3V113.83H197.4V110.63H196.28V109.85ZM199.21 105.33H200.12V114.29H199.21V105.33ZM211.97 110.78H208.41V112.43H207.47V110.78H203.77V110.02H211.97V110.78ZM204.79 111.65H205.73V113.33H211.06V114.1H204.79V111.65ZM204.85 105.61H205.79V106.7H209.94V105.61H210.89V109.23H204.85V105.61ZM209.94 108.47V107.41H205.79V108.47H209.94ZM215.79 106.76C215.79 107.157 215.876 107.538 216.05 107.905C216.223 108.272 216.471 108.597 216.795 108.88C217.121 109.16 217.506 109.373 217.95 109.52L217.43 110.28C216.943 110.103 216.52 109.843 216.16 109.5C215.803 109.157 215.526 108.755 215.33 108.295C215.13 108.798 214.841 109.238 214.465 109.615C214.091 109.988 213.646 110.273 213.13 110.47L212.62 109.7C213.08 109.54 213.476 109.31 213.81 109.01C214.143 108.71 214.396 108.363 214.57 107.97C214.746 107.573 214.836 107.153 214.84 106.71V105.79H215.79V106.76ZM214.03 111.11H220.1V114.29H219.15V111.86H214.03V111.11ZM217.26 107.14H219.15V105.33H220.1V110.64H219.15V107.92H217.26V107.14Z" fill="#AEAEB2"/>
</g>
<rect x="45.5" y="30.5" width="243" height="522.68" rx="31.5" stroke="#3F4276" stroke-width="3"/>
<rect x="45.5" y="30.5" width="243" height="522.68" rx="31.5" stroke="url(#paint2_linear_3125_52297)" stroke-opacity="0.2" stroke-width="3"/>
</g>
<rect x="-21" y="316" width="376" height="84" fill="url(#paint3_linear_3125_52297)"/>
</g>
<defs>
<filter id="filter0_f_3125_52297" x="-23" y="14" width="377" height="375" filterUnits="userSpaceOnUse" color-interpolation-filters="sRGB">
<feFlood flood-opacity="0" result="BackgroundImageFix"/>
<feBlend mode="normal" in="SourceGraphic" in2="BackgroundImageFix" result="shape"/>
<feGaussianBlur stdDeviation="25" result="effect1_foregroundBlur_3125_52297"/>
</filter>
<filter id="filter1_d_3125_52297" x="28.3587" y="13.3587" width="277.283" height="556.963" filterUnits="userSpaceOnUse" color-interpolation-filters="sRGB">
<feFlood flood-opacity="0" result="BackgroundImageFix"/>
<feColorMatrix in="SourceAlpha" type="matrix" values="0 0 0 0 0 0 0 0 0 0 0 0 0 0 0 0 0 0 127 0" result="hardAlpha"/>
<feOffset/>
<feGaussianBlur stdDeviation="7.82064"/>
<feComposite in2="hardAlpha" operator="out"/>
<feColorMatrix type="matrix" values="0 0 0 0 0.0572115 0 0 0 0 0 0 0 0 0 0.572115 0 0 0 0.3 0"/>
<feBlend mode="normal" in2="BackgroundImageFix" result="effect1_dropShadow_3125_52297"/>
<feBlend mode="normal" in="SourceGraphic" in2="effect1_dropShadow_3125_52297" result="shape"/>
</filter>
<filter id="filter4_d_3125_52297" x="164.44" y="94.08" width="75.5204" height="30.72" filterUnits="userSpaceOnUse" color-interpolation-filters="sRGB">
<feFlood flood-opacity="0" result="BackgroundImageFix"/>
<feColorMatrix in="SourceAlpha" type="matrix" values="0 0 0 0 0 0 0 0 0 0 0 0 0 0 0 0 0 0 127 0" result="hardAlpha"/>
<feOffset/>
<feGaussianBlur stdDeviation="1.28"/>
<feComposite in2="hardAlpha" operator="out"/>
<feColorMatrix type="matrix" values="0 0 0 0 0 0 0 0 0 0 0 0 0 0 0 0 0 0 0.08 0"/>
<feBlend mode="normal" in2="BackgroundImageFix" result="effect1_dropShadow_3125_52297"/>
<feBlend mode="normal" in="SourceGraphic" in2="effect1_dropShadow_3125_52297" result="shape"/>
</filter>
<linearGradient id="paint0_linear_3125_52297" x1="167" y1="32" x2="167" y2="551.68" gradientUnits="userSpaceOnUse">
<stop stop-color="#0028FF"/>
<stop offset="0.3" stop-color="#22446D" stop-opacity="0.5"/>
<stop offset="0.781085" stop-color="#22446D" stop-opacity="0.5"/>
<stop offset="1" stop-color="#172886"/>
</linearGradient>
<linearGradient id="paint1_linear_3125_52297" x1="79.3188" y1="160" x2="226.111" y2="456.894" gradientUnits="userSpaceOnUse">
<stop stop-color="#5664B3"/>
<stop offset="1" stop-color="#2E3663" stop-opacity="0.4"/>
</linearGradient>
<linearGradient id="paint2_linear_3125_52297" x1="103.392" y1="37.7351" x2="167" y2="113.335" gradientUnits="userSpaceOnUse">
<stop stop-color="white"/>
<stop offset="1" stop-color="white" stop-opacity="0"/>
</linearGradient>
<linearGradient id="paint3_linear_3125_52297" x1="167" y1="385.646" x2="167" y2="316" gradientUnits="userSpaceOnUse">
<stop stop-color="#161517"/>
<stop offset="0.6" stop-color="#161517" stop-opacity="0.257453"/>
<stop offset="1" stop-color="#161517" stop-opacity="0"/>
</linearGradient>
<clipPath id="clip0_3125_52297">
<rect width="335" height="400" fill="white"/>
</clipPath>
<clipPath id="clip1_3125_52297">
<rect x="47" y="32" width="240" height="519.68" rx="30" fill="white"/>
</clipPath>
<clipPath id="clip2_3125_52297">
<rect width="170.24" height="49.92" fill="white" transform="translate(82.2012 247.197)"/>
</clipPath>
</defs>
</svg>
