<svg width="335" height="428" viewBox="0 0 335 428" fill="none" xmlns="http://www.w3.org/2000/svg">
<path d="M29.1526 307.834C28.4824 307.85 28.1862 306.997 28.7226 306.594L31.5913 304.443C35.5236 301.493 38.4253 297.379 39.8833 292.685L63.9253 298.14L60.9753 299.939C53.0078 304.797 43.9026 307.474 34.5735 307.702L29.1526 307.834Z" fill="#516EFF"/>
<g clip-path="url(#clip0_3125_52273)">
<path d="M56.5043 86.535C56.9274 86.2905 57.4827 86.4766 57.6526 86.9345C58.5601 89.3816 57.6001 92.198 55.2637 93.5471C52.9273 94.8962 50.0076 94.3195 48.3424 92.3095C48.0308 91.9329 48.1475 91.3591 48.5706 91.1147L56.5043 86.5342V86.535Z" fill="#FF4646"/>
<path d="M56.5043 86.535C56.9274 86.2905 57.4827 86.4766 57.6526 86.9345C58.5601 89.3816 57.6001 92.198 55.2637 93.5471C52.9273 94.8962 50.0076 94.3195 48.3424 92.3095C48.0308 91.9329 48.1475 91.3591 48.5706 91.1147L56.5043 86.5342V86.535Z" fill="url(#paint0_linear_3125_52273)" fill-opacity="0.3"/>
<path d="M34.9103 86.535C34.4871 86.2905 33.9318 86.4766 33.762 86.9345C32.8545 89.3816 33.8144 92.198 36.1508 93.5471C38.4872 94.8962 41.407 94.3195 43.0721 92.3095C43.3837 91.9329 43.2671 91.3591 42.8439 91.1147L34.9103 86.535Z" fill="#FF4646"/>
<path d="M34.9103 86.535C34.4871 86.2905 33.9318 86.4766 33.762 86.9345C32.8545 89.3816 33.8144 92.198 36.1508 93.5471C38.4872 94.8962 41.407 94.3195 43.0721 92.3095C43.3837 91.9329 43.2671 91.3591 42.8439 91.1147L34.9103 86.535Z" fill="url(#paint1_linear_3125_52273)" fill-opacity="0.2"/>
<path d="M56.5801 105.166C60.0466 99.162 57.9895 91.4845 51.9853 88.018C45.9812 84.5515 38.3037 86.6087 34.8372 92.6128C31.3707 98.617 33.4279 106.294 39.432 109.761C45.4362 113.227 53.1136 111.17 56.5801 105.166Z" fill="url(#paint2_linear_3125_52273)"/>
<path d="M45.2386 108.555C51.2654 108.555 56.1511 103.599 56.1511 97.4865C56.1511 91.3736 51.2654 86.4182 45.2386 86.4182C39.2118 86.4182 34.3262 91.3736 34.3262 97.4865C34.3262 103.599 39.2118 108.555 45.2386 108.555Z" fill="url(#paint3_linear_3125_52273)"/>
<circle cx="43.1237" cy="90.1514" r="3.32293" fill="url(#paint4_linear_3125_52273)" fill-opacity="0.4"/>
<path d="M40.3833 102.63C39.5124 102.127 39.1583 101.072 39.5075 100.162C39.5707 99.9976 39.7689 99.9457 39.9218 100.034L42.8619 101.731C43.0148 101.82 43.069 102.017 42.9579 102.154C42.3443 102.912 41.2542 103.132 40.3833 102.63Z" fill="black"/>
<path d="M50.8179 102.63C51.6888 102.127 52.0429 101.072 51.6937 100.162C51.6305 99.9976 51.4323 99.9457 51.2794 100.034L48.3392 101.731C48.1864 101.82 48.1322 102.017 48.2433 102.154C48.8568 102.912 49.9469 103.132 50.8179 102.63Z" fill="black"/>
<path d="M45.6006 103.716C47.2569 103.716 48.3315 104.635 48.9443 105.412C49.1307 105.649 48.8953 105.985 48.6143 105.893V105.892C47.9194 105.665 46.9025 105.44 45.6006 105.44C44.2997 105.44 43.2828 105.664 42.5869 105.892C42.3227 105.978 42.0989 105.688 42.2256 105.457L42.2559 105.412C42.8687 104.635 43.944 103.716 45.6006 103.716Z" fill="#731019" stroke="url(#paint5_linear_3125_52273)" stroke-width="0.155892"/>
</g>
<path d="M71.6411 92.4589C71.6341 93.5583 71.8302 94.6473 72.2294 95.7257C72.6285 96.8042 73.1888 97.7706 73.9101 98.625C74.6314 99.4723 75.4507 100.12 76.3681 100.568L75.1286 102.165C74.1202 101.633 73.2273 100.873 72.45 99.8855C71.6796 98.8911 71.0844 97.7566 70.6642 96.4821C70.237 97.8406 69.6208 99.0521 68.8154 100.117C68.0171 101.174 67.0892 101.976 66.0317 102.522L64.7922 100.904C65.7376 100.449 66.578 99.7769 67.3133 98.8876C68.0486 97.9982 68.6193 96.9898 69.0255 95.8623C69.4387 94.7348 69.6453 93.6003 69.6453 92.4589V89.2445H71.6411V92.4589ZM77.7757 87.6688H79.7716V95.169H82.7968V96.8707H79.7716V106.493H77.7757V87.6688ZM99.3518 106.493H97.335V87.6688H99.3518V106.493ZM83.8893 101.451C86.3543 100.274 88.2276 98.8421 89.5092 97.1543C90.7907 95.4666 91.5295 93.5093 91.7256 91.2824H84.7927V89.6857H93.7425C93.7425 92.5989 93.0457 95.1865 91.6521 97.4485C90.2655 99.7104 88.028 101.584 84.9397 103.068L83.8893 101.451ZM119.499 97.48H112.104V101.892H110.129V97.48H102.293V95.8833H107.241C107.549 94.7838 107.762 93.7929 107.881 92.9105C108 92.0212 108.074 91.1773 108.102 90.379H103.911V88.7613H110.045V89.4966C110.045 90.449 110 91.4224 109.909 92.4168C109.818 93.4113 109.604 94.5667 109.268 95.8833H114.793C115.073 94.7838 115.263 93.7894 115.361 92.9C115.466 92.0107 115.522 91.1703 115.529 90.379H111.39V88.7613H117.461V89.6437C117.454 90.6661 117.412 91.65 117.335 92.5954C117.258 93.5338 117.08 94.6298 116.8 95.8833H119.499V97.48ZM104.541 100.127H106.579V104.476H117.588V106.094H104.541V100.127Z" fill="#D1D1D6"/>
<rect x="27" y="127.414" width="280" height="174" rx="26" fill="#516EFF"/>
<path d="M45 247H293V279H45V247Z" fill="#003CFF" fill-opacity="0.4"/>
<path d="M293 247H291.404V279H293H294.596V247H293Z" fill="#003CFF"/>
<path d="M45 216H293V247H45V216Z" fill="#003CFF" fill-opacity="0.4"/>
<path d="M293 216H291.404V247H293H294.596V216H293Z" fill="#003CFF"/>
<path d="M47.0898 156.668H51.6602V158.309H49.082V173.738H51.6602V175.398H47.0898V156.668ZM52.4609 157.273H54.7266L57.4805 168.211H57.5977L60.4688 157.273H62.6953L65.5664 168.211H65.6836L68.4375 157.273H70.7031L66.7773 171.414H64.6094L61.6406 160.848H61.5234L58.5547 171.414H56.3867L52.4609 157.273ZM75.8008 171.629C74.7721 171.629 73.877 171.404 73.1152 170.955C72.3535 170.506 71.7708 169.871 71.3672 169.051C70.9635 168.23 70.7617 167.273 70.7617 166.18C70.7617 165.099 70.9635 164.142 71.3672 163.309C71.7708 162.475 72.3438 161.827 73.0859 161.365C73.8281 160.903 74.6875 160.672 75.6641 160.672C76.5169 160.672 77.2982 160.857 78.0078 161.229C78.7174 161.6 79.2871 162.186 79.7168 162.986C80.153 163.781 80.3711 164.786 80.3711 166.004V166.746H72.832C72.8516 167.41 72.9883 167.98 73.2422 168.455C73.4961 168.93 73.8444 169.292 74.2871 169.539C74.7298 169.786 75.2409 169.91 75.8203 169.91C76.3802 169.91 76.8555 169.806 77.2461 169.598C77.6432 169.383 77.9362 169.103 78.125 168.758H80.2344C80.0781 169.331 79.7982 169.835 79.3945 170.271C78.9909 170.701 78.4831 171.036 77.8711 171.277C77.2591 171.512 76.569 171.629 75.8008 171.629ZM78.3203 165.184C78.3203 164.65 78.2096 164.171 77.9883 163.748C77.7734 163.318 77.4642 162.986 77.0605 162.752C76.6634 162.511 76.2044 162.391 75.6836 162.391C75.1432 162.391 74.6615 162.518 74.2383 162.771C73.8216 163.019 73.4928 163.357 73.252 163.787C73.0111 164.217 72.8743 164.682 72.8418 165.184H78.3203ZM82.6172 157.273H84.6875V162.527H84.8047C84.9935 162.195 85.1953 161.902 85.4102 161.648C85.625 161.395 85.9342 161.17 86.3379 160.975C86.748 160.773 87.2526 160.672 87.8516 160.672C88.7109 160.672 89.4792 160.89 90.1562 161.326C90.8333 161.762 91.3639 162.394 91.748 163.221C92.1322 164.041 92.3242 165.014 92.3242 166.141C92.3242 167.254 92.1322 168.227 91.748 169.061C91.3639 169.887 90.8366 170.522 90.166 170.965C89.4954 171.401 88.7305 171.622 87.8711 171.629C87.2786 171.629 86.7773 171.528 86.3672 171.326C85.9635 171.124 85.6478 170.893 85.4199 170.633C85.1921 170.366 84.987 170.073 84.8047 169.754H84.6484V171.414H82.6172V157.273ZM84.6484 166.102C84.6484 166.844 84.7559 167.498 84.9707 168.064C85.1855 168.624 85.5013 169.064 85.918 169.383C86.3346 169.695 86.8294 169.852 87.4023 169.852C87.9948 169.852 88.4993 169.689 88.916 169.363C89.3392 169.038 89.6582 168.595 89.873 168.035C90.0879 167.469 90.1953 166.824 90.1953 166.102C90.1953 165.392 90.0879 164.764 89.873 164.217C89.6647 163.663 89.3522 163.23 88.9355 162.918C88.5189 162.605 88.0078 162.449 87.4023 162.449C86.8164 162.449 86.3151 162.599 85.8984 162.898C85.4883 163.191 85.1758 163.615 84.9609 164.168C84.7526 164.715 84.6484 165.359 84.6484 166.102ZM101.152 158.699H105.742V156.316H107.578V163.953H99.3359V156.316H101.152V158.699ZM101.094 165.34H112.402V169.754H102.949V171.414H113.008V172.898H101.133V168.387H110.566V166.805H101.094V165.34ZM105.742 162.469V160.125H101.152V162.469H105.742ZM110.547 155.574H112.402V159.246H114.941V160.75H112.402V164.578H110.547V155.574ZM130.449 168.406H128.594V155.594H130.449V168.406ZM116.035 164.461C116.934 164.129 117.712 163.647 118.369 163.016C119.027 162.384 119.528 161.658 119.873 160.838C120.225 160.018 120.404 159.168 120.41 158.289V156.551H122.305V158.289C122.305 159.142 122.477 159.956 122.822 160.73C123.167 161.505 123.665 162.189 124.316 162.781C124.967 163.374 125.736 163.823 126.621 164.129L125.664 165.613C124.661 165.242 123.792 164.702 123.057 163.992C122.327 163.276 121.764 162.439 121.367 161.482C120.977 162.511 120.407 163.413 119.658 164.188C118.916 164.956 118.04 165.535 117.031 165.926L116.035 164.461ZM119.004 167.195H120.879V171.199H130.977V172.703H119.004V167.195ZM133.066 175.398V173.738H135.645V158.309H133.066V156.668H137.637V175.398H133.066ZM60.2344 196.48H58.3789V194.801H53.9453V193.355H58.3789V191.461H54.1602C53.6263 192.802 52.7148 193.925 51.4258 194.83C50.1432 195.735 48.5221 196.415 46.5625 196.871L45.918 195.348C47.9883 194.892 49.5931 194.195 50.7324 193.258C51.8783 192.32 52.5293 191.201 52.6855 189.898H46.8359V188.375H54.7266C54.7266 188.935 54.6777 189.475 54.5801 189.996H58.3789V187.574H60.2344V196.48ZM48.7891 197.223H60.2344V201.656H50.6641V203.414H60.7617V204.898H48.8281V200.25H58.3789V198.688H48.7891V197.223ZM77.9492 205.074H76.1719V187.574H77.9492V205.074ZM62.6758 200.25C63.4766 199.768 64.1569 199.117 64.7168 198.297C65.2832 197.477 65.7064 196.565 65.9863 195.562C66.2728 194.553 66.4193 193.518 66.4258 192.457V191.051H63.2031V189.547H71.2109V191.051H68.2031V192.457C68.2031 193.473 68.3398 194.459 68.6133 195.416C68.8932 196.373 69.3066 197.239 69.8535 198.014C70.4069 198.788 71.0807 199.404 71.875 199.859L70.7617 201.227C69.9479 200.745 69.2513 200.081 68.6719 199.234C68.099 198.388 67.653 197.421 67.334 196.334C67.015 197.512 66.556 198.561 65.957 199.479C65.3581 200.396 64.6419 201.116 63.8086 201.637L62.6758 200.25ZM69.9219 193.766H72.6367V187.945H74.3945V204.195H72.6367V195.289H69.9219V193.766ZM88.1836 188.629C89.4206 188.629 90.5306 188.824 91.5137 189.215C92.4967 189.605 93.265 190.152 93.8184 190.855C94.3717 191.552 94.6484 192.359 94.6484 193.277C94.6484 194.137 94.4141 194.902 93.9453 195.572C93.4766 196.236 92.8223 196.77 91.9824 197.174C91.1491 197.571 90.1888 197.815 89.1016 197.906V201.344H96.2305V202.887H80.2148V201.344H87.2656V197.906C86.1849 197.815 85.2246 197.571 84.3848 197.174C83.5514 196.77 82.9004 196.233 82.4316 195.562C81.9694 194.892 81.7383 194.13 81.7383 193.277C81.7383 192.366 82.015 191.559 82.5684 190.855C83.1217 190.152 83.8867 189.605 84.8633 189.215C85.8398 188.824 86.9466 188.629 88.1836 188.629ZM83.5352 193.277C83.5352 193.922 83.7337 194.485 84.1309 194.967C84.528 195.449 85.0781 195.82 85.7812 196.08C86.4844 196.34 87.2852 196.474 88.1836 196.48C89.0885 196.474 89.8926 196.34 90.5957 196.08C91.2988 195.82 91.849 195.449 92.2461 194.967C92.6497 194.485 92.8516 193.922 92.8516 193.277C92.8516 192.652 92.6497 192.102 92.2461 191.627C91.849 191.152 91.2956 190.787 90.5859 190.533C89.8828 190.273 89.082 190.146 88.1836 190.152C87.2917 190.146 86.4909 190.273 85.7812 190.533C85.0781 190.787 84.528 191.155 84.1309 191.637C83.7337 192.112 83.5352 192.659 83.5352 193.277ZM113.496 199.43H109.473V205.074H107.598V199.43H103.379V205.074H101.523V199.43H97.4805V197.965H113.496V199.43ZM99.375 188.199H111.602V192.887H101.289V194.82H111.973V196.324H99.4336V191.5H109.707V189.723H99.375V188.199ZM134.18 200.309H132.324V187.594H134.18V200.309ZM120.02 193.102C120.02 192.275 120.225 191.533 120.635 190.875C121.045 190.217 121.605 189.703 122.314 189.332C123.024 188.954 123.815 188.766 124.688 188.766C125.56 188.766 126.348 188.954 127.051 189.332C127.76 189.703 128.317 190.217 128.721 190.875C129.131 191.533 129.336 192.275 129.336 193.102C129.336 193.941 129.131 194.693 128.721 195.357C128.317 196.015 127.76 196.529 127.051 196.9C126.348 197.271 125.56 197.457 124.688 197.457C123.815 197.457 123.024 197.271 122.314 196.9C121.605 196.529 121.045 196.015 120.635 195.357C120.225 194.693 120.02 193.941 120.02 193.102ZM121.836 193.102C121.836 193.642 121.956 194.12 122.197 194.537C122.445 194.947 122.786 195.266 123.223 195.494C123.659 195.722 124.147 195.836 124.688 195.836C125.221 195.836 125.703 195.722 126.133 195.494C126.562 195.266 126.901 194.947 127.148 194.537C127.396 194.12 127.52 193.642 127.52 193.102C127.52 192.574 127.396 192.105 127.148 191.695C126.901 191.279 126.562 190.956 126.133 190.729C125.703 190.501 125.221 190.387 124.688 190.387C124.147 190.387 123.659 190.501 123.223 190.729C122.786 190.956 122.445 191.279 122.197 191.695C121.956 192.105 121.836 192.574 121.836 193.102ZM122.734 199.02H124.609V203.199H134.707V204.703H122.734V199.02ZM150.703 193.219H153.242V194.762H150.703V200.68H148.848V187.594H150.703V193.219ZM136.973 189.625H141.27V187.574H143.125V189.625H147.402V191.129H136.973V189.625ZM137.93 195.27C137.93 194.612 138.105 194.033 138.457 193.531C138.815 193.03 139.316 192.646 139.961 192.379C140.605 192.105 141.348 191.969 142.188 191.969C143.021 191.969 143.757 192.105 144.395 192.379C145.039 192.646 145.537 193.03 145.889 193.531C146.247 194.033 146.426 194.612 146.426 195.27C146.426 195.921 146.247 196.493 145.889 196.988C145.537 197.483 145.039 197.867 144.395 198.141C143.757 198.414 143.021 198.551 142.188 198.551C141.348 198.551 140.605 198.414 139.961 198.141C139.316 197.867 138.815 197.483 138.457 196.988C138.105 196.493 137.93 195.921 137.93 195.27ZM139.609 199.645H141.465V203.199H151.445V204.703H139.609V199.645ZM139.727 195.27C139.72 195.641 139.818 195.966 140.02 196.246C140.221 196.52 140.505 196.731 140.869 196.881C141.24 197.031 141.67 197.105 142.158 197.105C142.913 197.105 143.522 196.943 143.984 196.617C144.447 196.292 144.681 195.842 144.688 195.27C144.681 194.697 144.45 194.244 143.994 193.912C143.538 193.574 142.936 193.401 142.188 193.395C141.693 193.395 141.257 193.473 140.879 193.629C140.508 193.779 140.221 193.997 140.02 194.283C139.818 194.563 139.72 194.892 139.727 195.27ZM168.047 188.59C168.047 189.273 168.324 189.938 168.877 190.582C169.437 191.227 170.186 191.773 171.123 192.223C172.067 192.672 173.086 192.965 174.18 193.102L173.496 194.566C172.565 194.43 171.683 194.192 170.85 193.854C170.016 193.515 169.277 193.092 168.633 192.584C167.988 192.076 167.48 191.51 167.109 190.885C166.556 191.829 165.71 192.626 164.57 193.277C163.431 193.928 162.148 194.358 160.723 194.566L160 193.102C161.107 192.965 162.129 192.675 163.066 192.232C164.01 191.783 164.759 191.24 165.312 190.602C165.872 189.957 166.152 189.286 166.152 188.59V187.867H168.047V188.59ZM159.121 195.836H175.078V197.32H159.121V195.836ZM161.016 201.93C161.016 201.259 161.257 200.693 161.738 200.23C162.22 199.762 162.913 199.407 163.818 199.166C164.73 198.925 165.82 198.805 167.09 198.805C168.346 198.805 169.424 198.925 170.322 199.166C171.227 199.407 171.921 199.762 172.402 200.23C172.884 200.699 173.125 201.266 173.125 201.93C173.125 202.594 172.884 203.16 172.402 203.629C171.921 204.098 171.227 204.456 170.322 204.703C169.417 204.951 168.34 205.074 167.09 205.074C165.82 205.074 164.73 204.951 163.818 204.703C162.913 204.456 162.22 204.098 161.738 203.629C161.257 203.16 161.016 202.594 161.016 201.93ZM162.891 201.93C162.884 202.477 163.245 202.896 163.975 203.189C164.71 203.482 165.749 203.622 167.09 203.609C168.418 203.622 169.447 203.482 170.176 203.189C170.905 202.896 171.27 202.477 171.27 201.93C171.27 201.383 170.905 200.963 170.176 200.67C169.447 200.377 168.418 200.23 167.09 200.23C165.749 200.23 164.71 200.377 163.975 200.67C163.245 200.963 162.884 201.383 162.891 201.93ZM190.918 200.309H189.062V187.594H190.918V200.309ZM176.758 193.102C176.758 192.275 176.963 191.533 177.373 190.875C177.783 190.217 178.343 189.703 179.053 189.332C179.762 188.954 180.553 188.766 181.426 188.766C182.298 188.766 183.086 188.954 183.789 189.332C184.499 189.703 185.055 190.217 185.459 190.875C185.869 191.533 186.074 192.275 186.074 193.102C186.074 193.941 185.869 194.693 185.459 195.357C185.055 196.015 184.499 196.529 183.789 196.9C183.086 197.271 182.298 197.457 181.426 197.457C180.553 197.457 179.762 197.271 179.053 196.9C178.343 196.529 177.783 196.015 177.373 195.357C176.963 194.693 176.758 193.941 176.758 193.102ZM178.574 193.102C178.574 193.642 178.695 194.12 178.936 194.537C179.183 194.947 179.525 195.266 179.961 195.494C180.397 195.722 180.885 195.836 181.426 195.836C181.96 195.836 182.441 195.722 182.871 195.494C183.301 195.266 183.639 194.947 183.887 194.537C184.134 194.12 184.258 193.642 184.258 193.102C184.258 192.574 184.134 192.105 183.887 191.695C183.639 191.279 183.301 190.956 182.871 190.729C182.441 190.501 181.96 190.387 181.426 190.387C180.885 190.387 180.397 190.501 179.961 190.729C179.525 190.956 179.183 191.279 178.936 191.695C178.695 192.105 178.574 192.574 178.574 193.102ZM179.473 199.02H181.348V203.199H191.445V204.703H179.473V199.02ZM209.707 202.906H193.691V201.363H200.742V197.77H195.527V188.766H197.383V191.773H205.977V188.766H207.812V197.77H202.578V201.363H209.707V202.906ZM205.977 196.266V193.277H197.383V196.266H205.977ZM226.973 199.43H222.949V205.074H221.074V199.43H216.855V205.074H215V199.43H210.957V197.965H226.973V199.43ZM212.852 188.199H225.078V192.887H214.766V194.82H225.449V196.324H212.91V191.5H223.184V189.723H212.852V188.199ZM230.254 203.551C230.007 203.551 229.775 203.489 229.561 203.365C229.352 203.242 229.183 203.076 229.053 202.867C228.929 202.659 228.867 202.431 228.867 202.184C228.867 201.93 228.929 201.695 229.053 201.48C229.176 201.266 229.342 201.096 229.551 200.973C229.766 200.842 230 200.777 230.254 200.777C230.501 200.777 230.729 200.839 230.938 200.963C231.152 201.087 231.322 201.256 231.445 201.471C231.576 201.686 231.641 201.917 231.641 202.164C231.641 202.411 231.576 202.643 231.445 202.857C231.322 203.066 231.152 203.235 230.938 203.365C230.729 203.489 230.501 203.551 230.254 203.551Z" fill="white"/>
<path d="M48.3594 239.414H46.2695V225.273H48.3203V230.547H48.457C48.7174 229.948 49.1048 229.486 49.6191 229.16C50.14 228.835 50.8008 228.672 51.6016 228.672C52.3372 228.672 52.9753 228.825 53.5156 229.131C54.0625 229.43 54.4857 229.88 54.7852 230.479C55.0846 231.077 55.2344 231.81 55.2344 232.676V239.414H53.1445V232.93C53.1445 232.148 52.946 231.543 52.5488 231.113C52.1517 230.684 51.6016 230.469 50.8984 230.469C50.4036 230.469 49.9642 230.573 49.5801 230.781C49.196 230.99 48.8965 231.296 48.6816 231.699C48.4668 232.096 48.3594 232.572 48.3594 233.125V239.414ZM62.7148 230.469H60.5469V236.289C60.5534 236.836 60.6673 237.21 60.8887 237.412C61.11 237.607 61.4193 237.708 61.8164 237.715C62.1289 237.715 62.4805 237.695 62.8711 237.656V239.473C62.4935 239.525 62.0573 239.551 61.5625 239.551C60.9961 239.551 60.4785 239.447 60.0098 239.238C59.541 239.03 59.1667 238.714 58.8867 238.291C58.6068 237.861 58.4701 237.337 58.4766 236.719V230.469H56.9141V228.809H58.4766V226.27H60.5469V228.809H62.7148V230.469ZM69.707 230.469H67.5391V236.289C67.5456 236.836 67.6595 237.21 67.8809 237.412C68.1022 237.607 68.4115 237.708 68.8086 237.715C69.1211 237.715 69.4727 237.695 69.8633 237.656V239.473C69.4857 239.525 69.0495 239.551 68.5547 239.551C67.9883 239.551 67.4707 239.447 67.002 239.238C66.5332 239.03 66.1589 238.714 65.8789 238.291C65.599 237.861 65.4622 237.337 65.4688 236.719V230.469H63.9062V228.809H65.4688V226.27H67.5391V228.809H69.707V230.469ZM71.7383 228.809H73.7695V230.527H73.9453C74.1276 230.208 74.3262 229.919 74.541 229.658C74.7624 229.398 75.0749 229.17 75.4785 228.975C75.8887 228.773 76.3932 228.672 76.9922 228.672C77.8516 228.672 78.6165 228.89 79.2871 229.326C79.9642 229.762 80.4915 230.394 80.8691 231.221C81.2533 232.041 81.4453 233.014 81.4453 234.141C81.4453 235.254 81.2565 236.227 80.8789 237.061C80.5013 237.887 79.9772 238.522 79.3066 238.965C78.6361 239.401 77.8711 239.622 77.0117 239.629C76.1719 239.622 75.5208 239.437 75.0586 239.072C74.5964 238.708 74.2253 238.268 73.9453 237.754H73.8281V243.398H71.7383V228.809ZM73.7891 234.102C73.7891 234.85 73.8965 235.508 74.1113 236.074C74.3262 236.634 74.6387 237.07 75.0488 237.383C75.4655 237.695 75.9635 237.852 76.543 237.852C77.1354 237.852 77.64 237.689 78.0566 237.363C78.4798 237.038 78.7988 236.595 79.0137 236.035C79.2285 235.469 79.3359 234.824 79.3359 234.102C79.3359 233.392 79.2285 232.764 79.0137 232.217C78.8053 231.663 78.4928 231.23 78.0762 230.918C77.6595 230.605 77.1484 230.449 76.543 230.449C75.957 230.449 75.4557 230.599 75.0391 230.898C74.6289 231.191 74.3164 231.615 74.1016 232.168C73.8932 232.715 73.7891 233.359 73.7891 234.102ZM84.8828 239.551C84.6354 239.551 84.4043 239.489 84.1895 239.365C83.9811 239.242 83.8118 239.076 83.6816 238.867C83.5579 238.659 83.4961 238.431 83.4961 238.184C83.4961 237.93 83.5579 237.695 83.6816 237.48C83.8053 237.266 83.9714 237.096 84.1797 236.973C84.3945 236.842 84.6289 236.777 84.8828 236.777C85.1302 236.777 85.3581 236.839 85.5664 236.963C85.7812 237.087 85.9505 237.256 86.0742 237.471C86.2044 237.686 86.2695 237.917 86.2695 238.164C86.2695 238.411 86.2044 238.643 86.0742 238.857C85.9505 239.066 85.7812 239.235 85.5664 239.365C85.3581 239.489 85.1302 239.551 84.8828 239.551ZM84.8828 231.836C84.6354 231.836 84.4043 231.774 84.1895 231.65C83.9811 231.527 83.8118 231.361 83.6816 231.152C83.5579 230.944 83.4961 230.716 83.4961 230.469C83.4961 230.215 83.5579 229.98 83.6816 229.766C83.8053 229.551 83.9714 229.382 84.1797 229.258C84.3945 229.128 84.6289 229.062 84.8828 229.062C85.1302 229.062 85.3581 229.124 85.5664 229.248C85.7812 229.372 85.9505 229.541 86.0742 229.756C86.2044 229.971 86.2695 230.202 86.2695 230.449C86.2695 230.697 86.2044 230.928 86.0742 231.143C85.9505 231.351 85.7812 231.52 85.5664 231.65C85.3581 231.774 85.1302 231.836 84.8828 231.836ZM89.6289 241.543H87.7734L92.3242 224.609H94.1797L89.6289 241.543ZM96.5625 241.543H94.707L99.2578 224.609H101.113L96.5625 241.543ZM108.613 231.699C108.516 231.263 108.294 230.924 107.949 230.684C107.611 230.436 107.161 230.312 106.602 230.312C106.211 230.312 105.863 230.374 105.557 230.498C105.251 230.622 105.01 230.791 104.834 231.006C104.658 231.221 104.57 231.462 104.57 231.729C104.57 232.048 104.701 232.321 104.961 232.549C105.228 232.777 105.651 232.956 106.23 233.086L107.91 233.477C108.887 233.698 109.613 234.046 110.088 234.521C110.57 234.99 110.814 235.599 110.82 236.348C110.814 236.986 110.635 237.555 110.283 238.057C109.938 238.551 109.44 238.939 108.789 239.219C108.138 239.492 107.37 239.629 106.484 239.629C105.221 239.629 104.219 239.362 103.477 238.828C102.734 238.288 102.298 237.52 102.168 236.523H104.297C104.486 237.474 105.195 237.949 106.426 237.949C107.116 237.949 107.663 237.822 108.066 237.568C108.477 237.308 108.685 236.953 108.691 236.504C108.685 236.159 108.548 235.876 108.281 235.654C108.021 235.426 107.611 235.247 107.051 235.117L105.391 234.766C104.44 234.557 103.717 234.206 103.223 233.711C102.728 233.21 102.48 232.591 102.48 231.855C102.48 231.23 102.65 230.677 102.988 230.195C103.333 229.714 103.815 229.339 104.434 229.072C105.059 228.805 105.775 228.672 106.582 228.672C107.357 228.672 108.037 228.796 108.623 229.043C109.209 229.29 109.671 229.642 110.01 230.098C110.348 230.553 110.553 231.087 110.625 231.699H108.613ZM117.422 239.629C116.393 239.629 115.498 239.404 114.736 238.955C113.975 238.506 113.392 237.871 112.988 237.051C112.585 236.23 112.383 235.273 112.383 234.18C112.383 233.099 112.585 232.142 112.988 231.309C113.392 230.475 113.965 229.827 114.707 229.365C115.449 228.903 116.309 228.672 117.285 228.672C118.138 228.672 118.919 228.857 119.629 229.229C120.339 229.6 120.908 230.186 121.338 230.986C121.774 231.781 121.992 232.786 121.992 234.004V234.746H114.453C114.473 235.41 114.609 235.98 114.863 236.455C115.117 236.93 115.465 237.292 115.908 237.539C116.351 237.786 116.862 237.91 117.441 237.91C118.001 237.91 118.477 237.806 118.867 237.598C119.264 237.383 119.557 237.103 119.746 236.758H121.855C121.699 237.331 121.419 237.835 121.016 238.271C120.612 238.701 120.104 239.036 119.492 239.277C118.88 239.512 118.19 239.629 117.422 239.629ZM119.941 233.184C119.941 232.65 119.831 232.171 119.609 231.748C119.395 231.318 119.085 230.986 118.682 230.752C118.285 230.511 117.826 230.391 117.305 230.391C116.764 230.391 116.283 230.518 115.859 230.771C115.443 231.019 115.114 231.357 114.873 231.787C114.632 232.217 114.495 232.682 114.463 233.184H119.941ZM128.555 239.629C127.539 239.629 126.657 239.398 125.908 238.936C125.16 238.473 124.587 237.829 124.189 237.002C123.792 236.169 123.594 235.221 123.594 234.16C123.594 233.092 123.796 232.142 124.199 231.309C124.603 230.475 125.176 229.827 125.918 229.365C126.667 228.903 127.533 228.672 128.516 228.672C129.316 228.672 130.036 228.822 130.674 229.121C131.312 229.414 131.826 229.831 132.217 230.371C132.607 230.911 132.839 231.536 132.91 232.246H130.879C130.762 231.719 130.501 231.283 130.098 230.938C129.701 230.592 129.186 230.417 128.555 230.41C127.982 230.41 127.477 230.563 127.041 230.869C126.611 231.169 126.276 231.598 126.035 232.158C125.801 232.712 125.684 233.359 125.684 234.102C125.684 234.863 125.801 235.527 126.035 236.094C126.27 236.66 126.602 237.096 127.031 237.402C127.461 237.702 127.962 237.852 128.535 237.852C129.134 237.852 129.642 237.695 130.059 237.383C130.475 237.07 130.749 236.628 130.879 236.055H132.91C132.832 236.745 132.604 237.36 132.227 237.9C131.855 238.441 131.354 238.864 130.723 239.17C130.091 239.476 129.368 239.629 128.555 239.629ZM141.621 228.809H143.691V239.414H141.66V237.578H141.543C141.289 238.171 140.889 238.649 140.342 239.014C139.801 239.372 139.147 239.551 138.379 239.551C137.689 239.551 137.08 239.398 136.553 239.092C136.025 238.786 135.615 238.333 135.322 237.734C135.029 237.129 134.883 236.4 134.883 235.547V228.809H136.973V235.293C136.973 235.768 137.064 236.185 137.246 236.543C137.428 236.901 137.679 237.178 137.998 237.373C138.324 237.562 138.698 237.656 139.121 237.656C139.531 237.656 139.928 237.559 140.312 237.363C140.697 237.161 141.009 236.862 141.25 236.465C141.497 236.061 141.621 235.573 141.621 235V228.809ZM146.23 228.809H148.242V230.488H148.359C148.555 229.928 148.893 229.482 149.375 229.15C149.863 228.818 150.413 228.652 151.025 228.652C151.331 228.652 151.634 228.665 151.934 228.691V230.684C151.816 230.658 151.647 230.632 151.426 230.605C151.211 230.579 151.009 230.566 150.82 230.566C150.345 230.566 149.919 230.671 149.541 230.879C149.163 231.081 148.864 231.364 148.643 231.729C148.428 232.087 148.32 232.493 148.32 232.949V239.414H146.23V228.809ZM157.715 239.629C156.686 239.629 155.791 239.404 155.029 238.955C154.268 238.506 153.685 237.871 153.281 237.051C152.878 236.23 152.676 235.273 152.676 234.18C152.676 233.099 152.878 232.142 153.281 231.309C153.685 230.475 154.258 229.827 155 229.365C155.742 228.903 156.602 228.672 157.578 228.672C158.431 228.672 159.212 228.857 159.922 229.229C160.632 229.6 161.201 230.186 161.631 230.986C162.067 231.781 162.285 232.786 162.285 234.004V234.746H154.746C154.766 235.41 154.902 235.98 155.156 236.455C155.41 236.93 155.758 237.292 156.201 237.539C156.644 237.786 157.155 237.91 157.734 237.91C158.294 237.91 158.77 237.806 159.16 237.598C159.557 237.383 159.85 237.103 160.039 236.758H162.148C161.992 237.331 161.712 237.835 161.309 238.271C160.905 238.701 160.397 239.036 159.785 239.277C159.173 239.512 158.483 239.629 157.715 239.629ZM160.234 233.184C160.234 232.65 160.124 232.171 159.902 231.748C159.688 231.318 159.378 230.986 158.975 230.752C158.577 230.511 158.118 230.391 157.598 230.391C157.057 230.391 156.576 230.518 156.152 230.771C155.736 231.019 155.407 231.357 155.166 231.787C154.925 232.217 154.788 232.682 154.756 233.184H160.234ZM170.605 234.336H164.336V232.539H170.605V234.336ZM173.125 228.809H175.156V230.527H175.332C175.514 230.208 175.713 229.919 175.928 229.658C176.149 229.398 176.462 229.17 176.865 228.975C177.275 228.773 177.78 228.672 178.379 228.672C179.238 228.672 180.003 228.89 180.674 229.326C181.351 229.762 181.878 230.394 182.256 231.221C182.64 232.041 182.832 233.014 182.832 234.141C182.832 235.254 182.643 236.227 182.266 237.061C181.888 237.887 181.364 238.522 180.693 238.965C180.023 239.401 179.258 239.622 178.398 239.629C177.559 239.622 176.908 239.437 176.445 239.072C175.983 238.708 175.612 238.268 175.332 237.754H175.215V243.398H173.125V228.809ZM175.176 234.102C175.176 234.85 175.283 235.508 175.498 236.074C175.713 236.634 176.025 237.07 176.436 237.383C176.852 237.695 177.35 237.852 177.93 237.852C178.522 237.852 179.027 237.689 179.443 237.363C179.867 237.038 180.186 236.595 180.4 236.035C180.615 235.469 180.723 234.824 180.723 234.102C180.723 233.392 180.615 232.764 180.4 232.217C180.192 231.663 179.88 231.23 179.463 230.918C179.046 230.605 178.535 230.449 177.93 230.449C177.344 230.449 176.842 230.599 176.426 230.898C176.016 231.191 175.703 231.615 175.488 232.168C175.28 232.715 175.176 233.359 175.176 234.102ZM184.414 236.426C184.408 235.326 184.775 234.541 185.518 234.072C186.266 233.604 187.22 233.327 188.379 233.242C189.883 233.158 190.811 233.109 191.162 233.096L191.152 232.246C191.159 231.641 190.977 231.175 190.605 230.85C190.241 230.518 189.707 230.352 189.004 230.352C188.411 230.352 187.926 230.475 187.549 230.723C187.171 230.964 186.927 231.289 186.816 231.699H184.746C184.811 231.113 185.029 230.592 185.4 230.137C185.771 229.674 186.273 229.316 186.904 229.062C187.536 228.802 188.262 228.672 189.082 228.672C189.753 228.672 190.397 228.776 191.016 228.984C191.641 229.186 192.168 229.564 192.598 230.117C193.027 230.664 193.242 231.413 193.242 232.363V239.414H191.211V237.969H191.133C190.892 238.431 190.508 238.828 189.98 239.16C189.453 239.486 188.789 239.648 187.988 239.648C187.311 239.648 186.699 239.521 186.152 239.268C185.612 239.014 185.186 238.646 184.873 238.164C184.567 237.676 184.414 237.096 184.414 236.426ZM186.445 236.445C186.445 236.94 186.628 237.321 186.992 237.588C187.363 237.848 187.852 237.982 188.457 237.988C189.004 237.988 189.482 237.878 189.893 237.656C190.303 237.435 190.618 237.142 190.84 236.777C191.061 236.406 191.172 236.009 191.172 235.586L191.162 234.619L188.672 234.785C187.962 234.837 187.412 235 187.021 235.273C186.637 235.547 186.445 235.938 186.445 236.445ZM196.66 243.398C196.094 243.385 195.723 243.366 195.547 243.34V241.602C195.651 241.608 195.964 241.621 196.484 241.641C196.758 241.634 196.979 241.605 197.148 241.553C197.324 241.507 197.497 241.383 197.666 241.182C197.842 240.986 198.008 240.677 198.164 240.254L198.418 239.551L194.531 228.809H196.758L199.434 237.031H199.551L202.227 228.809H204.473L200.098 240.82C199.785 241.673 199.349 242.314 198.789 242.744C198.229 243.174 197.52 243.392 196.66 243.398ZM206.172 228.809H208.203V230.527H208.379C208.561 230.208 208.76 229.919 208.975 229.658C209.196 229.398 209.508 229.17 209.912 228.975C210.322 228.773 210.827 228.672 211.426 228.672C212.285 228.672 213.05 228.89 213.721 229.326C214.398 229.762 214.925 230.394 215.303 231.221C215.687 232.041 215.879 233.014 215.879 234.141C215.879 235.254 215.69 236.227 215.312 237.061C214.935 237.887 214.411 238.522 213.74 238.965C213.07 239.401 212.305 239.622 211.445 239.629C210.605 239.622 209.954 239.437 209.492 239.072C209.03 238.708 208.659 238.268 208.379 237.754H208.262V243.398H206.172V228.809ZM208.223 234.102C208.223 234.85 208.33 235.508 208.545 236.074C208.76 236.634 209.072 237.07 209.482 237.383C209.899 237.695 210.397 237.852 210.977 237.852C211.569 237.852 212.074 237.689 212.49 237.363C212.913 237.038 213.232 236.595 213.447 236.035C213.662 235.469 213.77 234.824 213.77 234.102C213.77 233.392 213.662 232.764 213.447 232.217C213.239 231.663 212.926 231.23 212.51 230.918C212.093 230.605 211.582 230.449 210.977 230.449C210.391 230.449 209.889 230.599 209.473 230.898C209.062 231.191 208.75 231.615 208.535 232.168C208.327 232.715 208.223 233.359 208.223 234.102ZM217.461 236.426C217.454 235.326 217.822 234.541 218.564 234.072C219.313 233.604 220.267 233.327 221.426 233.242C222.93 233.158 223.857 233.109 224.209 233.096L224.199 232.246C224.206 231.641 224.023 231.175 223.652 230.85C223.288 230.518 222.754 230.352 222.051 230.352C221.458 230.352 220.973 230.475 220.596 230.723C220.218 230.964 219.974 231.289 219.863 231.699H217.793C217.858 231.113 218.076 230.592 218.447 230.137C218.818 229.674 219.32 229.316 219.951 229.062C220.583 228.802 221.309 228.672 222.129 228.672C222.799 228.672 223.444 228.776 224.062 228.984C224.688 229.186 225.215 229.564 225.645 230.117C226.074 230.664 226.289 231.413 226.289 232.363V239.414H224.258V237.969H224.18C223.939 238.431 223.555 238.828 223.027 239.16C222.5 239.486 221.836 239.648 221.035 239.648C220.358 239.648 219.746 239.521 219.199 239.268C218.659 239.014 218.232 238.646 217.92 238.164C217.614 237.676 217.461 237.096 217.461 236.426ZM219.492 236.445C219.492 236.94 219.674 237.321 220.039 237.588C220.41 237.848 220.898 237.982 221.504 237.988C222.051 237.988 222.529 237.878 222.939 237.656C223.35 237.435 223.665 237.142 223.887 236.777C224.108 236.406 224.219 236.009 224.219 235.586L224.209 234.619L221.719 234.785C221.009 234.837 220.459 235 220.068 235.273C219.684 235.547 219.492 235.938 219.492 236.445ZM230.898 239.414H228.809V225.273H230.898V239.414ZM234.805 239.551C234.557 239.551 234.326 239.489 234.111 239.365C233.903 239.242 233.734 239.076 233.604 238.867C233.48 238.659 233.418 238.431 233.418 238.184C233.418 237.93 233.48 237.695 233.604 237.48C233.727 237.266 233.893 237.096 234.102 236.973C234.316 236.842 234.551 236.777 234.805 236.777C235.052 236.777 235.28 236.839 235.488 236.963C235.703 237.087 235.872 237.256 235.996 237.471C236.126 237.686 236.191 237.917 236.191 238.164C236.191 238.411 236.126 238.643 235.996 238.857C235.872 239.066 235.703 239.235 235.488 239.365C235.28 239.489 235.052 239.551 234.805 239.551ZM243.203 239.629C242.188 239.629 241.305 239.398 240.557 238.936C239.808 238.473 239.235 237.829 238.838 237.002C238.441 236.169 238.242 235.221 238.242 234.16C238.242 233.092 238.444 232.142 238.848 231.309C239.251 230.475 239.824 229.827 240.566 229.365C241.315 228.903 242.181 228.672 243.164 228.672C243.965 228.672 244.684 228.822 245.322 229.121C245.96 229.414 246.475 229.831 246.865 230.371C247.256 230.911 247.487 231.536 247.559 232.246H245.527C245.41 231.719 245.15 231.283 244.746 230.938C244.349 230.592 243.835 230.417 243.203 230.41C242.63 230.41 242.126 230.563 241.689 230.869C241.26 231.169 240.924 231.598 240.684 232.158C240.449 232.712 240.332 233.359 240.332 234.102C240.332 234.863 240.449 235.527 240.684 236.094C240.918 236.66 241.25 237.096 241.68 237.402C242.109 237.702 242.611 237.852 243.184 237.852C243.783 237.852 244.29 237.695 244.707 237.383C245.124 237.07 245.397 236.628 245.527 236.055H247.559C247.48 236.745 247.253 237.36 246.875 237.9C246.504 238.441 246.003 238.864 245.371 239.17C244.74 239.476 244.017 239.629 243.203 239.629ZM254.023 239.629C253.034 239.629 252.161 239.401 251.406 238.945C250.658 238.49 250.078 237.852 249.668 237.031C249.264 236.204 249.062 235.247 249.062 234.16C249.062 233.073 249.264 232.116 249.668 231.289C250.078 230.456 250.658 229.811 251.406 229.355C252.161 228.9 253.034 228.672 254.023 228.672C255.007 228.672 255.872 228.9 256.621 229.355C257.37 229.811 257.946 230.456 258.35 231.289C258.76 232.116 258.965 233.073 258.965 234.16C258.965 235.247 258.76 236.204 258.35 237.031C257.946 237.852 257.37 238.49 256.621 238.945C255.872 239.401 255.007 239.629 254.023 239.629ZM251.152 234.16C251.152 234.857 251.26 235.488 251.475 236.055C251.689 236.615 252.012 237.061 252.441 237.393C252.871 237.725 253.398 237.891 254.023 237.891C254.635 237.891 255.153 237.725 255.576 237.393C256.006 237.061 256.325 236.615 256.533 236.055C256.748 235.488 256.855 234.857 256.855 234.16C256.855 233.464 256.748 232.832 256.533 232.266C256.325 231.693 256.006 231.237 255.576 230.898C255.153 230.56 254.635 230.391 254.023 230.391C253.398 230.391 252.871 230.56 252.441 230.898C252.012 231.237 251.689 231.693 251.475 232.266C251.26 232.832 251.152 233.464 251.152 234.16ZM261.016 228.809H263.027V230.547H263.145C263.372 229.954 263.737 229.495 264.238 229.17C264.74 228.838 265.339 228.672 266.035 228.672C266.732 228.672 267.324 228.835 267.812 229.16C268.301 229.486 268.659 229.948 268.887 230.547H269.004C269.258 229.967 269.661 229.512 270.215 229.18C270.775 228.841 271.432 228.672 272.188 228.672C272.839 228.672 273.408 228.809 273.896 229.082C274.391 229.349 274.775 229.756 275.049 230.303C275.329 230.85 275.469 231.517 275.469 232.305V239.414H273.379V232.5C273.379 231.816 273.193 231.309 272.822 230.977C272.451 230.638 271.973 230.469 271.387 230.469C270.951 230.469 270.573 230.563 270.254 230.752C269.935 230.934 269.691 231.191 269.521 231.523C269.359 231.855 269.277 232.233 269.277 232.656V239.414H267.207V232.383C267.207 231.999 267.126 231.663 266.963 231.377C266.8 231.084 266.572 230.859 266.279 230.703C265.986 230.547 265.651 230.469 265.273 230.469C264.883 230.469 264.521 230.573 264.189 230.781C263.857 230.983 263.594 231.266 263.398 231.631C263.203 231.995 263.105 232.409 263.105 232.871V239.414H261.016V228.809ZM284.238 234.336H277.969V232.539H284.238V234.336ZM48.3594 271.414H46.2695V257.273H48.3594V271.414ZM55.3906 271.629C54.401 271.629 53.5286 271.401 52.7734 270.945C52.0247 270.49 51.4453 269.852 51.0352 269.031C50.6315 268.204 50.4297 267.247 50.4297 266.16C50.4297 265.073 50.6315 264.116 51.0352 263.289C51.4453 262.456 52.0247 261.811 52.7734 261.355C53.5286 260.9 54.401 260.672 55.3906 260.672C56.3737 260.672 57.2396 260.9 57.9883 261.355C58.737 261.811 59.3132 262.456 59.7168 263.289C60.127 264.116 60.332 265.073 60.332 266.16C60.332 267.247 60.127 268.204 59.7168 269.031C59.3132 269.852 58.737 270.49 57.9883 270.945C57.2396 271.401 56.3737 271.629 55.3906 271.629ZM52.5195 266.16C52.5195 266.857 52.627 267.488 52.8418 268.055C53.0566 268.615 53.3789 269.061 53.8086 269.393C54.2383 269.725 54.7656 269.891 55.3906 269.891C56.0026 269.891 56.5202 269.725 56.9434 269.393C57.373 269.061 57.6921 268.615 57.9004 268.055C58.1152 267.488 58.2227 266.857 58.2227 266.16C58.2227 265.464 58.1152 264.832 57.9004 264.266C57.6921 263.693 57.373 263.237 56.9434 262.898C56.5202 262.56 56.0026 262.391 55.3906 262.391C54.7656 262.391 54.2383 262.56 53.8086 262.898C53.3789 263.237 53.0566 263.693 52.8418 264.266C52.627 264.832 52.5195 265.464 52.5195 266.16ZM66.8359 275.613C65.9505 275.613 65.1693 275.486 64.4922 275.232C63.8151 274.985 63.278 274.624 62.8809 274.148C62.4902 273.673 62.2656 273.107 62.207 272.449H64.3359C64.4336 272.938 64.6973 273.305 65.127 273.553C65.5632 273.807 66.1263 273.934 66.8164 273.934C67.6888 273.934 68.3626 273.742 68.8379 273.357C69.3197 272.973 69.5638 272.378 69.5703 271.57V269.48H69.4336C69.1667 269.969 68.7988 270.389 68.3301 270.74C67.8678 271.085 67.207 271.258 66.3477 271.258C65.5013 271.258 64.7428 271.053 64.0723 270.643C63.4017 270.232 62.8743 269.633 62.4902 268.846C62.1061 268.051 61.9141 267.104 61.9141 266.004C61.9141 264.904 62.1061 263.953 62.4902 263.152C62.8743 262.345 63.4017 261.73 64.0723 261.307C64.7493 260.883 65.5143 260.672 66.3672 260.672C66.9727 260.672 67.4772 260.773 67.8809 260.975C68.291 261.17 68.6068 261.398 68.8281 261.658C69.0495 261.912 69.2578 262.202 69.4531 262.527H69.5898V260.809H71.6211V271.648C71.6211 272.527 71.416 273.263 71.0059 273.855C70.6022 274.448 70.0391 274.887 69.3164 275.174C68.6003 275.467 67.7734 275.613 66.8359 275.613ZM64.043 266.043C64.0365 267.111 64.2741 267.96 64.7559 268.592C65.2376 269.217 65.9245 269.533 66.8164 269.539C67.7018 269.533 68.3854 269.223 68.8672 268.611C69.349 267.999 69.5898 267.143 69.5898 266.043C69.5898 265.32 69.4824 264.689 69.2676 264.148C69.0527 263.608 68.737 263.191 68.3203 262.898C67.9036 262.599 67.4023 262.449 66.8164 262.449C66.2174 262.449 65.7096 262.605 65.293 262.918C64.8763 263.224 64.5605 263.65 64.3457 264.197C64.1374 264.738 64.0365 265.353 64.043 266.043ZM74.1602 260.809H76.25V271.414H74.1602V260.809ZM75.1953 259.168C74.9609 259.168 74.7428 259.113 74.541 259.002C74.3457 258.891 74.1862 258.742 74.0625 258.553C73.9453 258.364 73.8867 258.159 73.8867 257.938C73.8867 257.716 73.9453 257.511 74.0625 257.322C74.1862 257.133 74.349 256.984 74.5508 256.873C74.7591 256.762 74.9805 256.707 75.2148 256.707C75.4492 256.707 75.6673 256.762 75.8691 256.873C76.071 256.984 76.2305 257.133 76.3477 257.322C76.4648 257.511 76.5234 257.716 76.5234 257.938C76.5234 258.165 76.4616 258.374 76.3379 258.562C76.2207 258.751 76.0612 258.901 75.8594 259.012C75.6576 259.116 75.4362 259.168 75.1953 259.168ZM80.8789 271.414H78.7891V260.809H80.8008V262.547H80.918C81.1719 261.954 81.5625 261.495 82.0898 261.17C82.6237 260.838 83.2747 260.672 84.043 260.672C84.7721 260.672 85.4069 260.825 85.9473 261.131C86.4941 261.437 86.9141 261.889 87.207 262.488C87.5065 263.087 87.6562 263.816 87.6562 264.676V271.414H85.5859V264.93C85.5794 264.155 85.3776 263.553 84.9805 263.123C84.5898 262.687 84.043 262.469 83.3398 262.469C82.8581 262.469 82.4316 262.573 82.0605 262.781C81.6895 262.99 81.3997 263.296 81.1914 263.699C80.9831 264.096 80.8789 264.572 80.8789 265.125V271.414ZM96.4453 266.336H90.1758V264.539H96.4453V266.336ZM104.922 263.699C104.824 263.263 104.603 262.924 104.258 262.684C103.919 262.436 103.47 262.312 102.91 262.312C102.52 262.312 102.171 262.374 101.865 262.498C101.559 262.622 101.318 262.791 101.143 263.006C100.967 263.221 100.879 263.462 100.879 263.729C100.879 264.048 101.009 264.321 101.27 264.549C101.536 264.777 101.96 264.956 102.539 265.086L104.219 265.477C105.195 265.698 105.921 266.046 106.396 266.521C106.878 266.99 107.122 267.599 107.129 268.348C107.122 268.986 106.943 269.555 106.592 270.057C106.247 270.551 105.749 270.939 105.098 271.219C104.447 271.492 103.678 271.629 102.793 271.629C101.53 271.629 100.527 271.362 99.7852 270.828C99.043 270.288 98.6068 269.52 98.4766 268.523H100.605C100.794 269.474 101.504 269.949 102.734 269.949C103.424 269.949 103.971 269.822 104.375 269.568C104.785 269.308 104.993 268.953 105 268.504C104.993 268.159 104.857 267.876 104.59 267.654C104.329 267.426 103.919 267.247 103.359 267.117L101.699 266.766C100.749 266.557 100.026 266.206 99.5312 265.711C99.0365 265.21 98.7891 264.591 98.7891 263.855C98.7891 263.23 98.9583 262.677 99.2969 262.195C99.6419 261.714 100.124 261.339 100.742 261.072C101.367 260.805 102.083 260.672 102.891 260.672C103.665 260.672 104.346 260.796 104.932 261.043C105.518 261.29 105.98 261.642 106.318 262.098C106.657 262.553 106.862 263.087 106.934 263.699H104.922ZM113.73 271.629C112.702 271.629 111.807 271.404 111.045 270.955C110.283 270.506 109.701 269.871 109.297 269.051C108.893 268.23 108.691 267.273 108.691 266.18C108.691 265.099 108.893 264.142 109.297 263.309C109.701 262.475 110.273 261.827 111.016 261.365C111.758 260.903 112.617 260.672 113.594 260.672C114.447 260.672 115.228 260.857 115.938 261.229C116.647 261.6 117.217 262.186 117.646 262.986C118.083 263.781 118.301 264.786 118.301 266.004V266.746H110.762C110.781 267.41 110.918 267.98 111.172 268.455C111.426 268.93 111.774 269.292 112.217 269.539C112.66 269.786 113.171 269.91 113.75 269.91C114.31 269.91 114.785 269.806 115.176 269.598C115.573 269.383 115.866 269.103 116.055 268.758H118.164C118.008 269.331 117.728 269.835 117.324 270.271C116.921 270.701 116.413 271.036 115.801 271.277C115.189 271.512 114.499 271.629 113.73 271.629ZM116.25 265.184C116.25 264.65 116.139 264.171 115.918 263.748C115.703 263.318 115.394 262.986 114.99 262.752C114.593 262.511 114.134 262.391 113.613 262.391C113.073 262.391 112.591 262.518 112.168 262.771C111.751 263.019 111.423 263.357 111.182 263.787C110.941 264.217 110.804 264.682 110.771 265.184H116.25ZM124.863 271.629C123.848 271.629 122.965 271.398 122.217 270.936C121.468 270.473 120.895 269.829 120.498 269.002C120.101 268.169 119.902 267.221 119.902 266.16C119.902 265.092 120.104 264.142 120.508 263.309C120.911 262.475 121.484 261.827 122.227 261.365C122.975 260.903 123.841 260.672 124.824 260.672C125.625 260.672 126.344 260.822 126.982 261.121C127.62 261.414 128.135 261.831 128.525 262.371C128.916 262.911 129.147 263.536 129.219 264.246H127.188C127.07 263.719 126.81 263.283 126.406 262.938C126.009 262.592 125.495 262.417 124.863 262.41C124.29 262.41 123.786 262.563 123.35 262.869C122.92 263.169 122.585 263.598 122.344 264.158C122.109 264.712 121.992 265.359 121.992 266.102C121.992 266.863 122.109 267.527 122.344 268.094C122.578 268.66 122.91 269.096 123.34 269.402C123.77 269.702 124.271 269.852 124.844 269.852C125.443 269.852 125.951 269.695 126.367 269.383C126.784 269.07 127.057 268.628 127.188 268.055H129.219C129.141 268.745 128.913 269.36 128.535 269.9C128.164 270.441 127.663 270.864 127.031 271.17C126.4 271.476 125.677 271.629 124.863 271.629ZM137.93 260.809H140V271.414H137.969V269.578H137.852C137.598 270.171 137.197 270.649 136.65 271.014C136.11 271.372 135.456 271.551 134.688 271.551C133.997 271.551 133.389 271.398 132.861 271.092C132.334 270.786 131.924 270.333 131.631 269.734C131.338 269.129 131.191 268.4 131.191 267.547V260.809H133.281V267.293C133.281 267.768 133.372 268.185 133.555 268.543C133.737 268.901 133.988 269.178 134.307 269.373C134.632 269.562 135.007 269.656 135.43 269.656C135.84 269.656 136.237 269.559 136.621 269.363C137.005 269.161 137.318 268.862 137.559 268.465C137.806 268.061 137.93 267.573 137.93 267V260.809ZM142.539 260.809H144.551V262.488H144.668C144.863 261.928 145.202 261.482 145.684 261.15C146.172 260.818 146.722 260.652 147.334 260.652C147.64 260.652 147.943 260.665 148.242 260.691V262.684C148.125 262.658 147.956 262.632 147.734 262.605C147.52 262.579 147.318 262.566 147.129 262.566C146.654 262.566 146.227 262.671 145.85 262.879C145.472 263.081 145.173 263.364 144.951 263.729C144.736 264.087 144.629 264.493 144.629 264.949V271.414H142.539V260.809ZM149.805 260.809H151.895V271.414H149.805V260.809ZM150.84 259.168C150.605 259.168 150.387 259.113 150.186 259.002C149.99 258.891 149.831 258.742 149.707 258.553C149.59 258.364 149.531 258.159 149.531 257.938C149.531 257.716 149.59 257.511 149.707 257.322C149.831 257.133 149.993 256.984 150.195 256.873C150.404 256.762 150.625 256.707 150.859 256.707C151.094 256.707 151.312 256.762 151.514 256.873C151.715 256.984 151.875 257.133 151.992 257.322C152.109 257.511 152.168 257.716 152.168 257.938C152.168 258.165 152.106 258.374 151.982 258.562C151.865 258.751 151.706 258.901 151.504 259.012C151.302 259.116 151.081 259.168 150.84 259.168ZM159.395 262.469H157.227V268.289C157.233 268.836 157.347 269.21 157.568 269.412C157.79 269.607 158.099 269.708 158.496 269.715C158.809 269.715 159.16 269.695 159.551 269.656V271.473C159.173 271.525 158.737 271.551 158.242 271.551C157.676 271.551 157.158 271.447 156.689 271.238C156.221 271.03 155.846 270.714 155.566 270.291C155.286 269.861 155.15 269.337 155.156 268.719V262.469H153.594V260.809H155.156V258.27H157.227V260.809H159.395V262.469ZM162.715 275.398C162.148 275.385 161.777 275.366 161.602 275.34V273.602C161.706 273.608 162.018 273.621 162.539 273.641C162.812 273.634 163.034 273.605 163.203 273.553C163.379 273.507 163.551 273.383 163.721 273.182C163.896 272.986 164.062 272.677 164.219 272.254L164.473 271.551L160.586 260.809H162.812L165.488 269.031H165.605L168.281 260.809H170.527L166.152 272.82C165.84 273.673 165.404 274.314 164.844 274.744C164.284 275.174 163.574 275.392 162.715 275.398ZM178.477 266.336H172.207V264.539H178.477V266.336ZM187.734 260.809H189.805V271.414H187.773V269.578H187.656C187.402 270.171 187.002 270.649 186.455 271.014C185.915 271.372 185.26 271.551 184.492 271.551C183.802 271.551 183.193 271.398 182.666 271.092C182.139 270.786 181.729 270.333 181.436 269.734C181.143 269.129 180.996 268.4 180.996 267.547V260.809H183.086V267.293C183.086 267.768 183.177 268.185 183.359 268.543C183.542 268.901 183.792 269.178 184.111 269.373C184.437 269.562 184.811 269.656 185.234 269.656C185.645 269.656 186.042 269.559 186.426 269.363C186.81 269.161 187.122 268.862 187.363 268.465C187.611 268.061 187.734 267.573 187.734 267V260.809ZM192.344 260.809H194.375V262.527H194.551C194.733 262.208 194.932 261.919 195.146 261.658C195.368 261.398 195.68 261.17 196.084 260.975C196.494 260.773 196.999 260.672 197.598 260.672C198.457 260.672 199.222 260.89 199.893 261.326C200.57 261.762 201.097 262.394 201.475 263.221C201.859 264.041 202.051 265.014 202.051 266.141C202.051 267.254 201.862 268.227 201.484 269.061C201.107 269.887 200.583 270.522 199.912 270.965C199.242 271.401 198.477 271.622 197.617 271.629C196.777 271.622 196.126 271.437 195.664 271.072C195.202 270.708 194.831 270.268 194.551 269.754H194.434V275.398H192.344V260.809ZM194.395 266.102C194.395 266.85 194.502 267.508 194.717 268.074C194.932 268.634 195.244 269.07 195.654 269.383C196.071 269.695 196.569 269.852 197.148 269.852C197.741 269.852 198.245 269.689 198.662 269.363C199.085 269.038 199.404 268.595 199.619 268.035C199.834 267.469 199.941 266.824 199.941 266.102C199.941 265.392 199.834 264.764 199.619 264.217C199.411 263.663 199.098 263.23 198.682 262.918C198.265 262.605 197.754 262.449 197.148 262.449C196.562 262.449 196.061 262.599 195.645 262.898C195.234 263.191 194.922 263.615 194.707 264.168C194.499 264.715 194.395 265.359 194.395 266.102ZM208.086 271.629C207.233 271.622 206.471 271.401 205.801 270.965C205.13 270.522 204.603 269.887 204.219 269.061C203.841 268.227 203.652 267.254 203.652 266.141C203.652 265.014 203.844 264.041 204.229 263.221C204.613 262.394 205.14 261.762 205.811 261.326C206.488 260.89 207.253 260.672 208.105 260.672C208.711 260.672 209.215 260.773 209.619 260.975C210.029 261.17 210.342 261.398 210.557 261.658C210.778 261.912 210.983 262.202 211.172 262.527H211.27V257.273H213.359V271.414H211.328V269.754H211.172C210.99 270.073 210.781 270.366 210.547 270.633C210.319 270.893 210 271.124 209.59 271.326C209.18 271.528 208.678 271.629 208.086 271.629ZM205.781 266.102C205.775 266.824 205.879 267.469 206.094 268.035C206.309 268.595 206.624 269.038 207.041 269.363C207.458 269.689 207.962 269.852 208.555 269.852C209.134 269.852 209.632 269.695 210.049 269.383C210.465 269.07 210.781 268.631 210.996 268.064C211.217 267.498 211.328 266.844 211.328 266.102C211.328 265.359 211.221 264.715 211.006 264.168C210.791 263.621 210.475 263.198 210.059 262.898C209.642 262.599 209.141 262.449 208.555 262.449C207.956 262.449 207.448 262.605 207.031 262.918C206.615 263.23 206.299 263.663 206.084 264.217C205.876 264.764 205.775 265.392 205.781 266.102ZM215.586 268.426C215.579 267.326 215.947 266.541 216.689 266.072C217.438 265.604 218.392 265.327 219.551 265.242C221.055 265.158 221.982 265.109 222.334 265.096L222.324 264.246C222.331 263.641 222.148 263.175 221.777 262.85C221.413 262.518 220.879 262.352 220.176 262.352C219.583 262.352 219.098 262.475 218.721 262.723C218.343 262.964 218.099 263.289 217.988 263.699H215.918C215.983 263.113 216.201 262.592 216.572 262.137C216.943 261.674 217.445 261.316 218.076 261.062C218.708 260.802 219.434 260.672 220.254 260.672C220.924 260.672 221.569 260.776 222.188 260.984C222.812 261.186 223.34 261.564 223.77 262.117C224.199 262.664 224.414 263.413 224.414 264.363V271.414H222.383V269.969H222.305C222.064 270.431 221.68 270.828 221.152 271.16C220.625 271.486 219.961 271.648 219.16 271.648C218.483 271.648 217.871 271.521 217.324 271.268C216.784 271.014 216.357 270.646 216.045 270.164C215.739 269.676 215.586 269.096 215.586 268.426ZM217.617 268.445C217.617 268.94 217.799 269.321 218.164 269.588C218.535 269.848 219.023 269.982 219.629 269.988C220.176 269.988 220.654 269.878 221.064 269.656C221.475 269.435 221.79 269.142 222.012 268.777C222.233 268.406 222.344 268.009 222.344 267.586L222.334 266.619L219.844 266.785C219.134 266.837 218.584 267 218.193 267.273C217.809 267.547 217.617 267.938 217.617 268.445ZM231.895 262.469H229.727V268.289C229.733 268.836 229.847 269.21 230.068 269.412C230.29 269.607 230.599 269.708 230.996 269.715C231.309 269.715 231.66 269.695 232.051 269.656V271.473C231.673 271.525 231.237 271.551 230.742 271.551C230.176 271.551 229.658 271.447 229.189 271.238C228.721 271.03 228.346 270.714 228.066 270.291C227.786 269.861 227.65 269.337 227.656 268.719V262.469H226.094V260.809H227.656V258.27H229.727V260.809H231.895V262.469ZM238.379 271.629C237.35 271.629 236.455 271.404 235.693 270.955C234.932 270.506 234.349 269.871 233.945 269.051C233.542 268.23 233.34 267.273 233.34 266.18C233.34 265.099 233.542 264.142 233.945 263.309C234.349 262.475 234.922 261.827 235.664 261.365C236.406 260.903 237.266 260.672 238.242 260.672C239.095 260.672 239.876 260.857 240.586 261.229C241.296 261.6 241.865 262.186 242.295 262.986C242.731 263.781 242.949 264.786 242.949 266.004V266.746H235.41C235.43 267.41 235.566 267.98 235.82 268.455C236.074 268.93 236.423 269.292 236.865 269.539C237.308 269.786 237.819 269.91 238.398 269.91C238.958 269.91 239.434 269.806 239.824 269.598C240.221 269.383 240.514 269.103 240.703 268.758H242.812C242.656 269.331 242.376 269.835 241.973 270.271C241.569 270.701 241.061 271.036 240.449 271.277C239.837 271.512 239.147 271.629 238.379 271.629ZM240.898 265.184C240.898 264.65 240.788 264.171 240.566 263.748C240.352 263.318 240.042 262.986 239.639 262.752C239.242 262.511 238.783 262.391 238.262 262.391C237.721 262.391 237.24 262.518 236.816 262.771C236.4 263.019 236.071 263.357 235.83 263.787C235.589 264.217 235.452 264.682 235.42 265.184H240.898ZM246.387 271.551C246.139 271.551 245.908 271.489 245.693 271.365C245.485 271.242 245.316 271.076 245.186 270.867C245.062 270.659 245 270.431 245 270.184C245 269.93 245.062 269.695 245.186 269.48C245.309 269.266 245.475 269.096 245.684 268.973C245.898 268.842 246.133 268.777 246.387 268.777C246.634 268.777 246.862 268.839 247.07 268.963C247.285 269.087 247.454 269.256 247.578 269.471C247.708 269.686 247.773 269.917 247.773 270.164C247.773 270.411 247.708 270.643 247.578 270.857C247.454 271.066 247.285 271.235 247.07 271.365C246.862 271.489 246.634 271.551 246.387 271.551ZM254.785 271.629C253.77 271.629 252.887 271.398 252.139 270.936C251.39 270.473 250.817 269.829 250.42 269.002C250.023 268.169 249.824 267.221 249.824 266.16C249.824 265.092 250.026 264.142 250.43 263.309C250.833 262.475 251.406 261.827 252.148 261.365C252.897 260.903 253.763 260.672 254.746 260.672C255.547 260.672 256.266 260.822 256.904 261.121C257.542 261.414 258.057 261.831 258.447 262.371C258.838 262.911 259.069 263.536 259.141 264.246H257.109C256.992 263.719 256.732 263.283 256.328 262.938C255.931 262.592 255.417 262.417 254.785 262.41C254.212 262.41 253.708 262.563 253.271 262.869C252.842 263.169 252.507 263.598 252.266 264.158C252.031 264.712 251.914 265.359 251.914 266.102C251.914 266.863 252.031 267.527 252.266 268.094C252.5 268.66 252.832 269.096 253.262 269.402C253.691 269.702 254.193 269.852 254.766 269.852C255.365 269.852 255.872 269.695 256.289 269.383C256.706 269.07 256.979 268.628 257.109 268.055H259.141C259.062 268.745 258.835 269.36 258.457 269.9C258.086 270.441 257.585 270.864 256.953 271.17C256.322 271.476 255.599 271.629 254.785 271.629ZM265.605 271.629C264.616 271.629 263.743 271.401 262.988 270.945C262.24 270.49 261.66 269.852 261.25 269.031C260.846 268.204 260.645 267.247 260.645 266.16C260.645 265.073 260.846 264.116 261.25 263.289C261.66 262.456 262.24 261.811 262.988 261.355C263.743 260.9 264.616 260.672 265.605 260.672C266.589 260.672 267.454 260.9 268.203 261.355C268.952 261.811 269.528 262.456 269.932 263.289C270.342 264.116 270.547 265.073 270.547 266.16C270.547 267.247 270.342 268.204 269.932 269.031C269.528 269.852 268.952 270.49 268.203 270.945C267.454 271.401 266.589 271.629 265.605 271.629ZM262.734 266.16C262.734 266.857 262.842 267.488 263.057 268.055C263.271 268.615 263.594 269.061 264.023 269.393C264.453 269.725 264.98 269.891 265.605 269.891C266.217 269.891 266.735 269.725 267.158 269.393C267.588 269.061 267.907 268.615 268.115 268.055C268.33 267.488 268.438 266.857 268.438 266.16C268.438 265.464 268.33 264.832 268.115 264.266C267.907 263.693 267.588 263.237 267.158 262.898C266.735 262.56 266.217 262.391 265.605 262.391C264.98 262.391 264.453 262.56 264.023 262.898C263.594 263.237 263.271 263.693 263.057 264.266C262.842 264.832 262.734 265.464 262.734 266.16ZM272.598 260.809H274.609V262.547H274.727C274.954 261.954 275.319 261.495 275.82 261.17C276.322 260.838 276.921 260.672 277.617 260.672C278.314 260.672 278.906 260.835 279.395 261.16C279.883 261.486 280.241 261.948 280.469 262.547H280.586C280.84 261.967 281.243 261.512 281.797 261.18C282.357 260.841 283.014 260.672 283.77 260.672C284.421 260.672 284.99 260.809 285.479 261.082C285.973 261.349 286.357 261.756 286.631 262.303C286.911 262.85 287.051 263.517 287.051 264.305V271.414H284.961V264.5C284.961 263.816 284.775 263.309 284.404 262.977C284.033 262.638 283.555 262.469 282.969 262.469C282.533 262.469 282.155 262.563 281.836 262.752C281.517 262.934 281.273 263.191 281.104 263.523C280.941 263.855 280.859 264.233 280.859 264.656V271.414H278.789V264.383C278.789 263.999 278.708 263.663 278.545 263.377C278.382 263.084 278.154 262.859 277.861 262.703C277.568 262.547 277.233 262.469 276.855 262.469C276.465 262.469 276.104 262.573 275.771 262.781C275.439 262.983 275.176 263.266 274.98 263.631C274.785 263.995 274.688 264.409 274.688 264.871V271.414H272.598V260.809Z" fill="white"/>
<defs>
<linearGradient id="paint0_linear_3125_52273" x1="53.0784" y1="86.4269" x2="56.3068" y2="89.6554" gradientUnits="userSpaceOnUse">
<stop stop-opacity="0"/>
<stop offset="1" stop-color="#731019"/>
</linearGradient>
<linearGradient id="paint1_linear_3125_52273" x1="38.3362" y1="86.4269" x2="41.4252" y2="92.6129" gradientUnits="userSpaceOnUse">
<stop stop-opacity="0"/>
<stop offset="1" stop-color="#731019"/>
</linearGradient>
<linearGradient id="paint2_linear_3125_52273" x1="34.8372" y1="92.6128" x2="56.5801" y2="105.166" gradientUnits="userSpaceOnUse">
<stop offset="0.769465" stop-color="#FF4646"/>
<stop offset="1" stop-color="#D92E2E"/>
</linearGradient>
<linearGradient id="paint3_linear_3125_52273" x1="41.9645" y1="87.592" x2="45.3285" y2="102.867" gradientUnits="userSpaceOnUse">
<stop stop-color="#FF585B"/>
<stop offset="1" stop-color="#FF4646"/>
</linearGradient>
<linearGradient id="paint4_linear_3125_52273" x1="43.1237" y1="86.8285" x2="43.1237" y2="93.4744" gradientUnits="userSpaceOnUse">
<stop stop-color="#FF8D97"/>
<stop offset="1" stop-color="#FF8D97" stop-opacity="0"/>
</linearGradient>
<linearGradient id="paint5_linear_3125_52273" x1="45.6003" y1="103.638" x2="45.6003" y2="105.987" gradientUnits="userSpaceOnUse">
<stop stop-color="#FF4646"/>
<stop offset="1" stop-color="#992A2A"/>
</linearGradient>
<clipPath id="clip0_3125_52273">
<rect x="27" y="78" width="37.4141" height="37.4141" rx="18.707" fill="white"/>
</clipPath>
</defs>
</svg>
